%TF.GenerationSoftware,KiCad,Pcbnew,7.0.7*%
%TF.CreationDate,2024-06-13T17:52:44+09:00*%
%TF.ProjectId,hmproto34-bottom,686d7072-6f74-46f3-9334-2d626f74746f,rev?*%
%TF.SameCoordinates,Original*%
%TF.FileFunction,Paste,Top*%
%TF.FilePolarity,Positive*%
%FSLAX46Y46*%
G04 Gerber Fmt 4.6, Leading zero omitted, Abs format (unit mm)*
G04 Created by KiCad (PCBNEW 7.0.7) date 2024-06-13 17:52:44*
%MOMM*%
%LPD*%
G01*
G04 APERTURE LIST*
%ADD10R,0.950000X1.300000*%
G04 APERTURE END LIST*
D10*
%TO.C,D17*%
X142537500Y-152805000D03*
X142537500Y-149255000D03*
%TD*%
%TO.C,D11*%
X131842500Y-130345000D03*
X131842500Y-126795000D03*
%TD*%
%TO.C,D25*%
X164725000Y-130305000D03*
X164725000Y-126755000D03*
%TD*%
%TO.C,D9*%
X118597500Y-141820000D03*
X118597500Y-138270000D03*
%TD*%
%TO.C,D33*%
X191200000Y-152805000D03*
X191200000Y-149255000D03*
%TD*%
%TO.C,D30*%
X188562500Y-152805000D03*
X188562500Y-149255000D03*
%TD*%
%TO.C,D4*%
X139900000Y-152805000D03*
X139900000Y-149255000D03*
%TD*%
%TO.C,D31*%
X170000000Y-130305000D03*
X170000000Y-126755000D03*
%TD*%
%TO.C,D15*%
X123872500Y-141820000D03*
X123872500Y-138270000D03*
%TD*%
%TO.C,D3*%
X102615000Y-152825000D03*
X102615000Y-149275000D03*
%TD*%
%TO.C,D27*%
X185925000Y-152805000D03*
X185925000Y-149255000D03*
%TD*%
%TO.C,D7*%
X105252500Y-152825000D03*
X105252500Y-149275000D03*
%TD*%
%TO.C,D26*%
X175335000Y-141785000D03*
X175335000Y-138235000D03*
%TD*%
%TO.C,D23*%
X172697500Y-141785000D03*
X172697500Y-138235000D03*
%TD*%
%TO.C,D34*%
X155417500Y-152825000D03*
X155417500Y-149275000D03*
%TD*%
%TO.C,D5*%
X126567500Y-130345000D03*
X126567500Y-126795000D03*
%TD*%
%TO.C,D29*%
X177972500Y-141785000D03*
X177972500Y-138235000D03*
%TD*%
%TO.C,D18*%
X159450000Y-130305000D03*
X159450000Y-126755000D03*
%TD*%
%TO.C,D16*%
X113165000Y-152825000D03*
X113165000Y-149275000D03*
%TD*%
%TO.C,D22*%
X162087500Y-130305000D03*
X162087500Y-126755000D03*
%TD*%
%TO.C,D14*%
X134480000Y-130345000D03*
X134480000Y-126795000D03*
%TD*%
%TO.C,D20*%
X180650000Y-152805000D03*
X180650000Y-149255000D03*
%TD*%
%TO.C,D10*%
X107890000Y-152825000D03*
X107890000Y-149275000D03*
%TD*%
%TO.C,D21*%
X152780000Y-152825000D03*
X152780000Y-149275000D03*
%TD*%
%TO.C,D28*%
X167362500Y-130305000D03*
X167362500Y-126755000D03*
%TD*%
%TO.C,D1*%
X123930000Y-130345000D03*
X123930000Y-126795000D03*
%TD*%
%TO.C,D24*%
X183287500Y-152805000D03*
X183287500Y-149255000D03*
%TD*%
%TO.C,D2*%
X113322500Y-141820000D03*
X113322500Y-138270000D03*
%TD*%
%TO.C,D12*%
X121235000Y-141820000D03*
X121235000Y-138270000D03*
%TD*%
%TO.C,D6*%
X115960000Y-141820000D03*
X115960000Y-138270000D03*
%TD*%
%TO.C,D8*%
X129205000Y-130345000D03*
X129205000Y-126795000D03*
%TD*%
%TO.C,D13*%
X110527500Y-152825000D03*
X110527500Y-149275000D03*
%TD*%
%TO.C,D19*%
X170060000Y-141785000D03*
X170060000Y-138235000D03*
%TD*%
%TO.C,D32*%
X180610000Y-141785000D03*
X180610000Y-138235000D03*
%TD*%
M02*
