%TF.GenerationSoftware,KiCad,Pcbnew,7.0.7*%
%TF.CreationDate,2024-06-13T17:52:44+09:00*%
%TF.ProjectId,hmproto34-bottom,686d7072-6f74-46f3-9334-2d626f74746f,rev?*%
%TF.SameCoordinates,Original*%
%TF.FileFunction,Legend,Top*%
%TF.FilePolarity,Positive*%
%FSLAX46Y46*%
G04 Gerber Fmt 4.6, Leading zero omitted, Abs format (unit mm)*
G04 Created by KiCad (PCBNEW 7.0.7) date 2024-06-13 17:52:44*
%MOMM*%
%LPD*%
G01*
G04 APERTURE LIST*
%ADD10C,0.600000*%
%ADD11C,0.150000*%
%ADD12C,0.125000*%
%ADD13C,0.120000*%
%ADD14C,2.000000*%
%ADD15C,4.000000*%
%ADD16R,1.397000X1.397000*%
%ADD17C,1.397000*%
%ADD18C,1.524000*%
G04 APERTURE END LIST*
D10*
X134489021Y-137771657D02*
X134489021Y-134771657D01*
X135774736Y-137771657D02*
X135774736Y-136200228D01*
X135774736Y-136200228D02*
X135631878Y-135914514D01*
X135631878Y-135914514D02*
X135346164Y-135771657D01*
X135346164Y-135771657D02*
X134917593Y-135771657D01*
X134917593Y-135771657D02*
X134631878Y-135914514D01*
X134631878Y-135914514D02*
X134489021Y-136057371D01*
X137203307Y-137771657D02*
X137203307Y-135771657D01*
X137203307Y-136057371D02*
X137346164Y-135914514D01*
X137346164Y-135914514D02*
X137631879Y-135771657D01*
X137631879Y-135771657D02*
X138060450Y-135771657D01*
X138060450Y-135771657D02*
X138346164Y-135914514D01*
X138346164Y-135914514D02*
X138489022Y-136200228D01*
X138489022Y-136200228D02*
X138489022Y-137771657D01*
X138489022Y-136200228D02*
X138631879Y-135914514D01*
X138631879Y-135914514D02*
X138917593Y-135771657D01*
X138917593Y-135771657D02*
X139346164Y-135771657D01*
X139346164Y-135771657D02*
X139631879Y-135914514D01*
X139631879Y-135914514D02*
X139774736Y-136200228D01*
X139774736Y-136200228D02*
X139774736Y-137771657D01*
X141203307Y-135771657D02*
X141203307Y-138771657D01*
X141203307Y-135914514D02*
X141489022Y-135771657D01*
X141489022Y-135771657D02*
X142060450Y-135771657D01*
X142060450Y-135771657D02*
X142346164Y-135914514D01*
X142346164Y-135914514D02*
X142489022Y-136057371D01*
X142489022Y-136057371D02*
X142631879Y-136343085D01*
X142631879Y-136343085D02*
X142631879Y-137200228D01*
X142631879Y-137200228D02*
X142489022Y-137485942D01*
X142489022Y-137485942D02*
X142346164Y-137628800D01*
X142346164Y-137628800D02*
X142060450Y-137771657D01*
X142060450Y-137771657D02*
X141489022Y-137771657D01*
X141489022Y-137771657D02*
X141203307Y-137628800D01*
X143917593Y-137771657D02*
X143917593Y-135771657D01*
X143917593Y-136343085D02*
X144060450Y-136057371D01*
X144060450Y-136057371D02*
X144203308Y-135914514D01*
X144203308Y-135914514D02*
X144489022Y-135771657D01*
X144489022Y-135771657D02*
X144774736Y-135771657D01*
X146203308Y-137771657D02*
X145917593Y-137628800D01*
X145917593Y-137628800D02*
X145774736Y-137485942D01*
X145774736Y-137485942D02*
X145631879Y-137200228D01*
X145631879Y-137200228D02*
X145631879Y-136343085D01*
X145631879Y-136343085D02*
X145774736Y-136057371D01*
X145774736Y-136057371D02*
X145917593Y-135914514D01*
X145917593Y-135914514D02*
X146203308Y-135771657D01*
X146203308Y-135771657D02*
X146631879Y-135771657D01*
X146631879Y-135771657D02*
X146917593Y-135914514D01*
X146917593Y-135914514D02*
X147060451Y-136057371D01*
X147060451Y-136057371D02*
X147203308Y-136343085D01*
X147203308Y-136343085D02*
X147203308Y-137200228D01*
X147203308Y-137200228D02*
X147060451Y-137485942D01*
X147060451Y-137485942D02*
X146917593Y-137628800D01*
X146917593Y-137628800D02*
X146631879Y-137771657D01*
X146631879Y-137771657D02*
X146203308Y-137771657D01*
X148060451Y-135771657D02*
X149203308Y-135771657D01*
X148489022Y-134771657D02*
X148489022Y-137343085D01*
X148489022Y-137343085D02*
X148631879Y-137628800D01*
X148631879Y-137628800D02*
X148917594Y-137771657D01*
X148917594Y-137771657D02*
X149203308Y-137771657D01*
X150631880Y-137771657D02*
X150346165Y-137628800D01*
X150346165Y-137628800D02*
X150203308Y-137485942D01*
X150203308Y-137485942D02*
X150060451Y-137200228D01*
X150060451Y-137200228D02*
X150060451Y-136343085D01*
X150060451Y-136343085D02*
X150203308Y-136057371D01*
X150203308Y-136057371D02*
X150346165Y-135914514D01*
X150346165Y-135914514D02*
X150631880Y-135771657D01*
X150631880Y-135771657D02*
X151060451Y-135771657D01*
X151060451Y-135771657D02*
X151346165Y-135914514D01*
X151346165Y-135914514D02*
X151489023Y-136057371D01*
X151489023Y-136057371D02*
X151631880Y-136343085D01*
X151631880Y-136343085D02*
X151631880Y-137200228D01*
X151631880Y-137200228D02*
X151489023Y-137485942D01*
X151489023Y-137485942D02*
X151346165Y-137628800D01*
X151346165Y-137628800D02*
X151060451Y-137771657D01*
X151060451Y-137771657D02*
X150631880Y-137771657D01*
X152631880Y-134771657D02*
X154489023Y-134771657D01*
X154489023Y-134771657D02*
X153489023Y-135914514D01*
X153489023Y-135914514D02*
X153917594Y-135914514D01*
X153917594Y-135914514D02*
X154203309Y-136057371D01*
X154203309Y-136057371D02*
X154346166Y-136200228D01*
X154346166Y-136200228D02*
X154489023Y-136485942D01*
X154489023Y-136485942D02*
X154489023Y-137200228D01*
X154489023Y-137200228D02*
X154346166Y-137485942D01*
X154346166Y-137485942D02*
X154203309Y-137628800D01*
X154203309Y-137628800D02*
X153917594Y-137771657D01*
X153917594Y-137771657D02*
X153060451Y-137771657D01*
X153060451Y-137771657D02*
X152774737Y-137628800D01*
X152774737Y-137628800D02*
X152631880Y-137485942D01*
X157060452Y-135771657D02*
X157060452Y-137771657D01*
X156346166Y-134628800D02*
X155631880Y-136771657D01*
X155631880Y-136771657D02*
X157489023Y-136771657D01*
X158489023Y-137628800D02*
X158917595Y-137771657D01*
X158917595Y-137771657D02*
X159631880Y-137771657D01*
X159631880Y-137771657D02*
X159917595Y-137628800D01*
X159917595Y-137628800D02*
X160060452Y-137485942D01*
X160060452Y-137485942D02*
X160203309Y-137200228D01*
X160203309Y-137200228D02*
X160203309Y-136914514D01*
X160203309Y-136914514D02*
X160060452Y-136628800D01*
X160060452Y-136628800D02*
X159917595Y-136485942D01*
X159917595Y-136485942D02*
X159631880Y-136343085D01*
X159631880Y-136343085D02*
X159060452Y-136200228D01*
X159060452Y-136200228D02*
X158774737Y-136057371D01*
X158774737Y-136057371D02*
X158631880Y-135914514D01*
X158631880Y-135914514D02*
X158489023Y-135628800D01*
X158489023Y-135628800D02*
X158489023Y-135343085D01*
X158489023Y-135343085D02*
X158631880Y-135057371D01*
X158631880Y-135057371D02*
X158774737Y-134914514D01*
X158774737Y-134914514D02*
X159060452Y-134771657D01*
X159060452Y-134771657D02*
X159774737Y-134771657D01*
X159774737Y-134771657D02*
X160203309Y-134914514D01*
D11*
X140656779Y-140449819D02*
X140656779Y-139449819D01*
X140656779Y-139449819D02*
X141037731Y-139449819D01*
X141037731Y-139449819D02*
X141132969Y-139497438D01*
X141132969Y-139497438D02*
X141180588Y-139545057D01*
X141180588Y-139545057D02*
X141228207Y-139640295D01*
X141228207Y-139640295D02*
X141228207Y-139783152D01*
X141228207Y-139783152D02*
X141180588Y-139878390D01*
X141180588Y-139878390D02*
X141132969Y-139926009D01*
X141132969Y-139926009D02*
X141037731Y-139973628D01*
X141037731Y-139973628D02*
X140656779Y-139973628D01*
X142228207Y-140354580D02*
X142180588Y-140402200D01*
X142180588Y-140402200D02*
X142037731Y-140449819D01*
X142037731Y-140449819D02*
X141942493Y-140449819D01*
X141942493Y-140449819D02*
X141799636Y-140402200D01*
X141799636Y-140402200D02*
X141704398Y-140306961D01*
X141704398Y-140306961D02*
X141656779Y-140211723D01*
X141656779Y-140211723D02*
X141609160Y-140021247D01*
X141609160Y-140021247D02*
X141609160Y-139878390D01*
X141609160Y-139878390D02*
X141656779Y-139687914D01*
X141656779Y-139687914D02*
X141704398Y-139592676D01*
X141704398Y-139592676D02*
X141799636Y-139497438D01*
X141799636Y-139497438D02*
X141942493Y-139449819D01*
X141942493Y-139449819D02*
X142037731Y-139449819D01*
X142037731Y-139449819D02*
X142180588Y-139497438D01*
X142180588Y-139497438D02*
X142228207Y-139545057D01*
X142990112Y-139926009D02*
X143132969Y-139973628D01*
X143132969Y-139973628D02*
X143180588Y-140021247D01*
X143180588Y-140021247D02*
X143228207Y-140116485D01*
X143228207Y-140116485D02*
X143228207Y-140259342D01*
X143228207Y-140259342D02*
X143180588Y-140354580D01*
X143180588Y-140354580D02*
X143132969Y-140402200D01*
X143132969Y-140402200D02*
X143037731Y-140449819D01*
X143037731Y-140449819D02*
X142656779Y-140449819D01*
X142656779Y-140449819D02*
X142656779Y-139449819D01*
X142656779Y-139449819D02*
X142990112Y-139449819D01*
X142990112Y-139449819D02*
X143085350Y-139497438D01*
X143085350Y-139497438D02*
X143132969Y-139545057D01*
X143132969Y-139545057D02*
X143180588Y-139640295D01*
X143180588Y-139640295D02*
X143180588Y-139735533D01*
X143180588Y-139735533D02*
X143132969Y-139830771D01*
X143132969Y-139830771D02*
X143085350Y-139878390D01*
X143085350Y-139878390D02*
X142990112Y-139926009D01*
X142990112Y-139926009D02*
X142656779Y-139926009D01*
X144847255Y-140449819D02*
X144847255Y-139449819D01*
X144847255Y-140402200D02*
X144752017Y-140449819D01*
X144752017Y-140449819D02*
X144561541Y-140449819D01*
X144561541Y-140449819D02*
X144466303Y-140402200D01*
X144466303Y-140402200D02*
X144418684Y-140354580D01*
X144418684Y-140354580D02*
X144371065Y-140259342D01*
X144371065Y-140259342D02*
X144371065Y-139973628D01*
X144371065Y-139973628D02*
X144418684Y-139878390D01*
X144418684Y-139878390D02*
X144466303Y-139830771D01*
X144466303Y-139830771D02*
X144561541Y-139783152D01*
X144561541Y-139783152D02*
X144752017Y-139783152D01*
X144752017Y-139783152D02*
X144847255Y-139830771D01*
X145704398Y-140402200D02*
X145609160Y-140449819D01*
X145609160Y-140449819D02*
X145418684Y-140449819D01*
X145418684Y-140449819D02*
X145323446Y-140402200D01*
X145323446Y-140402200D02*
X145275827Y-140306961D01*
X145275827Y-140306961D02*
X145275827Y-139926009D01*
X145275827Y-139926009D02*
X145323446Y-139830771D01*
X145323446Y-139830771D02*
X145418684Y-139783152D01*
X145418684Y-139783152D02*
X145609160Y-139783152D01*
X145609160Y-139783152D02*
X145704398Y-139830771D01*
X145704398Y-139830771D02*
X145752017Y-139926009D01*
X145752017Y-139926009D02*
X145752017Y-140021247D01*
X145752017Y-140021247D02*
X145275827Y-140116485D01*
X146132970Y-140402200D02*
X146228208Y-140449819D01*
X146228208Y-140449819D02*
X146418684Y-140449819D01*
X146418684Y-140449819D02*
X146513922Y-140402200D01*
X146513922Y-140402200D02*
X146561541Y-140306961D01*
X146561541Y-140306961D02*
X146561541Y-140259342D01*
X146561541Y-140259342D02*
X146513922Y-140164104D01*
X146513922Y-140164104D02*
X146418684Y-140116485D01*
X146418684Y-140116485D02*
X146275827Y-140116485D01*
X146275827Y-140116485D02*
X146180589Y-140068866D01*
X146180589Y-140068866D02*
X146132970Y-139973628D01*
X146132970Y-139973628D02*
X146132970Y-139926009D01*
X146132970Y-139926009D02*
X146180589Y-139830771D01*
X146180589Y-139830771D02*
X146275827Y-139783152D01*
X146275827Y-139783152D02*
X146418684Y-139783152D01*
X146418684Y-139783152D02*
X146513922Y-139830771D01*
X146990113Y-140449819D02*
X146990113Y-139783152D01*
X146990113Y-139449819D02*
X146942494Y-139497438D01*
X146942494Y-139497438D02*
X146990113Y-139545057D01*
X146990113Y-139545057D02*
X147037732Y-139497438D01*
X147037732Y-139497438D02*
X146990113Y-139449819D01*
X146990113Y-139449819D02*
X146990113Y-139545057D01*
X147894874Y-139783152D02*
X147894874Y-140592676D01*
X147894874Y-140592676D02*
X147847255Y-140687914D01*
X147847255Y-140687914D02*
X147799636Y-140735533D01*
X147799636Y-140735533D02*
X147704398Y-140783152D01*
X147704398Y-140783152D02*
X147561541Y-140783152D01*
X147561541Y-140783152D02*
X147466303Y-140735533D01*
X147894874Y-140402200D02*
X147799636Y-140449819D01*
X147799636Y-140449819D02*
X147609160Y-140449819D01*
X147609160Y-140449819D02*
X147513922Y-140402200D01*
X147513922Y-140402200D02*
X147466303Y-140354580D01*
X147466303Y-140354580D02*
X147418684Y-140259342D01*
X147418684Y-140259342D02*
X147418684Y-139973628D01*
X147418684Y-139973628D02*
X147466303Y-139878390D01*
X147466303Y-139878390D02*
X147513922Y-139830771D01*
X147513922Y-139830771D02*
X147609160Y-139783152D01*
X147609160Y-139783152D02*
X147799636Y-139783152D01*
X147799636Y-139783152D02*
X147894874Y-139830771D01*
X148371065Y-139783152D02*
X148371065Y-140449819D01*
X148371065Y-139878390D02*
X148418684Y-139830771D01*
X148418684Y-139830771D02*
X148513922Y-139783152D01*
X148513922Y-139783152D02*
X148656779Y-139783152D01*
X148656779Y-139783152D02*
X148752017Y-139830771D01*
X148752017Y-139830771D02*
X148799636Y-139926009D01*
X148799636Y-139926009D02*
X148799636Y-140449819D01*
X149656779Y-140402200D02*
X149561541Y-140449819D01*
X149561541Y-140449819D02*
X149371065Y-140449819D01*
X149371065Y-140449819D02*
X149275827Y-140402200D01*
X149275827Y-140402200D02*
X149228208Y-140306961D01*
X149228208Y-140306961D02*
X149228208Y-139926009D01*
X149228208Y-139926009D02*
X149275827Y-139830771D01*
X149275827Y-139830771D02*
X149371065Y-139783152D01*
X149371065Y-139783152D02*
X149561541Y-139783152D01*
X149561541Y-139783152D02*
X149656779Y-139830771D01*
X149656779Y-139830771D02*
X149704398Y-139926009D01*
X149704398Y-139926009D02*
X149704398Y-140021247D01*
X149704398Y-140021247D02*
X149228208Y-140116485D01*
X150561541Y-140449819D02*
X150561541Y-139449819D01*
X150561541Y-140402200D02*
X150466303Y-140449819D01*
X150466303Y-140449819D02*
X150275827Y-140449819D01*
X150275827Y-140449819D02*
X150180589Y-140402200D01*
X150180589Y-140402200D02*
X150132970Y-140354580D01*
X150132970Y-140354580D02*
X150085351Y-140259342D01*
X150085351Y-140259342D02*
X150085351Y-139973628D01*
X150085351Y-139973628D02*
X150132970Y-139878390D01*
X150132970Y-139878390D02*
X150180589Y-139830771D01*
X150180589Y-139830771D02*
X150275827Y-139783152D01*
X150275827Y-139783152D02*
X150466303Y-139783152D01*
X150466303Y-139783152D02*
X150561541Y-139830771D01*
X151799637Y-140449819D02*
X151799637Y-139449819D01*
X151799637Y-139830771D02*
X151894875Y-139783152D01*
X151894875Y-139783152D02*
X152085351Y-139783152D01*
X152085351Y-139783152D02*
X152180589Y-139830771D01*
X152180589Y-139830771D02*
X152228208Y-139878390D01*
X152228208Y-139878390D02*
X152275827Y-139973628D01*
X152275827Y-139973628D02*
X152275827Y-140259342D01*
X152275827Y-140259342D02*
X152228208Y-140354580D01*
X152228208Y-140354580D02*
X152180589Y-140402200D01*
X152180589Y-140402200D02*
X152085351Y-140449819D01*
X152085351Y-140449819D02*
X151894875Y-140449819D01*
X151894875Y-140449819D02*
X151799637Y-140402200D01*
X152609161Y-139783152D02*
X152847256Y-140449819D01*
X153085351Y-139783152D02*
X152847256Y-140449819D01*
X152847256Y-140449819D02*
X152752018Y-140687914D01*
X152752018Y-140687914D02*
X152704399Y-140735533D01*
X152704399Y-140735533D02*
X152609161Y-140783152D01*
X154228209Y-140449819D02*
X154228209Y-139449819D01*
X154656780Y-140449819D02*
X154656780Y-139926009D01*
X154656780Y-139926009D02*
X154609161Y-139830771D01*
X154609161Y-139830771D02*
X154513923Y-139783152D01*
X154513923Y-139783152D02*
X154371066Y-139783152D01*
X154371066Y-139783152D02*
X154275828Y-139830771D01*
X154275828Y-139830771D02*
X154228209Y-139878390D01*
X155132971Y-140449819D02*
X155132971Y-139783152D01*
X155132971Y-139878390D02*
X155180590Y-139830771D01*
X155180590Y-139830771D02*
X155275828Y-139783152D01*
X155275828Y-139783152D02*
X155418685Y-139783152D01*
X155418685Y-139783152D02*
X155513923Y-139830771D01*
X155513923Y-139830771D02*
X155561542Y-139926009D01*
X155561542Y-139926009D02*
X155561542Y-140449819D01*
X155561542Y-139926009D02*
X155609161Y-139830771D01*
X155609161Y-139830771D02*
X155704399Y-139783152D01*
X155704399Y-139783152D02*
X155847256Y-139783152D01*
X155847256Y-139783152D02*
X155942495Y-139830771D01*
X155942495Y-139830771D02*
X155990114Y-139926009D01*
X155990114Y-139926009D02*
X155990114Y-140449819D01*
X156894875Y-140449819D02*
X156894875Y-139926009D01*
X156894875Y-139926009D02*
X156847256Y-139830771D01*
X156847256Y-139830771D02*
X156752018Y-139783152D01*
X156752018Y-139783152D02*
X156561542Y-139783152D01*
X156561542Y-139783152D02*
X156466304Y-139830771D01*
X156894875Y-140402200D02*
X156799637Y-140449819D01*
X156799637Y-140449819D02*
X156561542Y-140449819D01*
X156561542Y-140449819D02*
X156466304Y-140402200D01*
X156466304Y-140402200D02*
X156418685Y-140306961D01*
X156418685Y-140306961D02*
X156418685Y-140211723D01*
X156418685Y-140211723D02*
X156466304Y-140116485D01*
X156466304Y-140116485D02*
X156561542Y-140068866D01*
X156561542Y-140068866D02*
X156799637Y-140068866D01*
X156799637Y-140068866D02*
X156894875Y-140021247D01*
X157323447Y-140402200D02*
X157418685Y-140449819D01*
X157418685Y-140449819D02*
X157609161Y-140449819D01*
X157609161Y-140449819D02*
X157704399Y-140402200D01*
X157704399Y-140402200D02*
X157752018Y-140306961D01*
X157752018Y-140306961D02*
X157752018Y-140259342D01*
X157752018Y-140259342D02*
X157704399Y-140164104D01*
X157704399Y-140164104D02*
X157609161Y-140116485D01*
X157609161Y-140116485D02*
X157466304Y-140116485D01*
X157466304Y-140116485D02*
X157371066Y-140068866D01*
X157371066Y-140068866D02*
X157323447Y-139973628D01*
X157323447Y-139973628D02*
X157323447Y-139926009D01*
X157323447Y-139926009D02*
X157371066Y-139830771D01*
X157371066Y-139830771D02*
X157466304Y-139783152D01*
X157466304Y-139783152D02*
X157609161Y-139783152D01*
X157609161Y-139783152D02*
X157704399Y-139830771D01*
X158609161Y-140449819D02*
X158609161Y-139449819D01*
X158609161Y-140402200D02*
X158513923Y-140449819D01*
X158513923Y-140449819D02*
X158323447Y-140449819D01*
X158323447Y-140449819D02*
X158228209Y-140402200D01*
X158228209Y-140402200D02*
X158180590Y-140354580D01*
X158180590Y-140354580D02*
X158132971Y-140259342D01*
X158132971Y-140259342D02*
X158132971Y-139973628D01*
X158132971Y-139973628D02*
X158180590Y-139878390D01*
X158180590Y-139878390D02*
X158228209Y-139830771D01*
X158228209Y-139830771D02*
X158323447Y-139783152D01*
X158323447Y-139783152D02*
X158513923Y-139783152D01*
X158513923Y-139783152D02*
X158609161Y-139830771D01*
X159466304Y-140402200D02*
X159371066Y-140449819D01*
X159371066Y-140449819D02*
X159180590Y-140449819D01*
X159180590Y-140449819D02*
X159085352Y-140402200D01*
X159085352Y-140402200D02*
X159037733Y-140306961D01*
X159037733Y-140306961D02*
X159037733Y-139926009D01*
X159037733Y-139926009D02*
X159085352Y-139830771D01*
X159085352Y-139830771D02*
X159180590Y-139783152D01*
X159180590Y-139783152D02*
X159371066Y-139783152D01*
X159371066Y-139783152D02*
X159466304Y-139830771D01*
X159466304Y-139830771D02*
X159513923Y-139926009D01*
X159513923Y-139926009D02*
X159513923Y-140021247D01*
X159513923Y-140021247D02*
X159037733Y-140116485D01*
X159847257Y-139783152D02*
X160085352Y-140449819D01*
X160085352Y-140449819D02*
X160323447Y-139783152D01*
X156836779Y-142289819D02*
X156836779Y-141623152D01*
X156836779Y-141813628D02*
X156884398Y-141718390D01*
X156884398Y-141718390D02*
X156932017Y-141670771D01*
X156932017Y-141670771D02*
X157027255Y-141623152D01*
X157027255Y-141623152D02*
X157122493Y-141623152D01*
X157836779Y-142242200D02*
X157741541Y-142289819D01*
X157741541Y-142289819D02*
X157551065Y-142289819D01*
X157551065Y-142289819D02*
X157455827Y-142242200D01*
X157455827Y-142242200D02*
X157408208Y-142146961D01*
X157408208Y-142146961D02*
X157408208Y-141766009D01*
X157408208Y-141766009D02*
X157455827Y-141670771D01*
X157455827Y-141670771D02*
X157551065Y-141623152D01*
X157551065Y-141623152D02*
X157741541Y-141623152D01*
X157741541Y-141623152D02*
X157836779Y-141670771D01*
X157836779Y-141670771D02*
X157884398Y-141766009D01*
X157884398Y-141766009D02*
X157884398Y-141861247D01*
X157884398Y-141861247D02*
X157408208Y-141956485D01*
X158217732Y-141623152D02*
X158455827Y-142289819D01*
X158455827Y-142289819D02*
X158693922Y-141623152D01*
X160360589Y-142289819D02*
X159789161Y-142289819D01*
X160074875Y-142289819D02*
X160074875Y-141289819D01*
X160074875Y-141289819D02*
X159979637Y-141432676D01*
X159979637Y-141432676D02*
X159884399Y-141527914D01*
X159884399Y-141527914D02*
X159789161Y-141575533D01*
D12*
X152738571Y-91902464D02*
X152500476Y-91902464D01*
X152500476Y-91902464D02*
X152500476Y-91152464D01*
X152905238Y-91509607D02*
X153071905Y-91509607D01*
X153143333Y-91902464D02*
X152905238Y-91902464D01*
X152905238Y-91902464D02*
X152905238Y-91152464D01*
X152905238Y-91152464D02*
X153143333Y-91152464D01*
X153357619Y-91902464D02*
X153357619Y-91152464D01*
X153357619Y-91152464D02*
X153476667Y-91152464D01*
X153476667Y-91152464D02*
X153548095Y-91188178D01*
X153548095Y-91188178D02*
X153595714Y-91259607D01*
X153595714Y-91259607D02*
X153619524Y-91331035D01*
X153619524Y-91331035D02*
X153643333Y-91473892D01*
X153643333Y-91473892D02*
X153643333Y-91581035D01*
X153643333Y-91581035D02*
X153619524Y-91723892D01*
X153619524Y-91723892D02*
X153595714Y-91795321D01*
X153595714Y-91795321D02*
X153548095Y-91866750D01*
X153548095Y-91866750D02*
X153476667Y-91902464D01*
X153476667Y-91902464D02*
X153357619Y-91902464D01*
X137162380Y-104531035D02*
X137138571Y-104566750D01*
X137138571Y-104566750D02*
X137067142Y-104602464D01*
X137067142Y-104602464D02*
X137019523Y-104602464D01*
X137019523Y-104602464D02*
X136948095Y-104566750D01*
X136948095Y-104566750D02*
X136900476Y-104495321D01*
X136900476Y-104495321D02*
X136876666Y-104423892D01*
X136876666Y-104423892D02*
X136852857Y-104281035D01*
X136852857Y-104281035D02*
X136852857Y-104173892D01*
X136852857Y-104173892D02*
X136876666Y-104031035D01*
X136876666Y-104031035D02*
X136900476Y-103959607D01*
X136900476Y-103959607D02*
X136948095Y-103888178D01*
X136948095Y-103888178D02*
X137019523Y-103852464D01*
X137019523Y-103852464D02*
X137067142Y-103852464D01*
X137067142Y-103852464D02*
X137138571Y-103888178D01*
X137138571Y-103888178D02*
X137162380Y-103923892D01*
X137471904Y-103852464D02*
X137567142Y-103852464D01*
X137567142Y-103852464D02*
X137614761Y-103888178D01*
X137614761Y-103888178D02*
X137662380Y-103959607D01*
X137662380Y-103959607D02*
X137686190Y-104102464D01*
X137686190Y-104102464D02*
X137686190Y-104352464D01*
X137686190Y-104352464D02*
X137662380Y-104495321D01*
X137662380Y-104495321D02*
X137614761Y-104566750D01*
X137614761Y-104566750D02*
X137567142Y-104602464D01*
X137567142Y-104602464D02*
X137471904Y-104602464D01*
X137471904Y-104602464D02*
X137424285Y-104566750D01*
X137424285Y-104566750D02*
X137376666Y-104495321D01*
X137376666Y-104495321D02*
X137352857Y-104352464D01*
X137352857Y-104352464D02*
X137352857Y-104102464D01*
X137352857Y-104102464D02*
X137376666Y-103959607D01*
X137376666Y-103959607D02*
X137424285Y-103888178D01*
X137424285Y-103888178D02*
X137471904Y-103852464D01*
X138138571Y-104602464D02*
X137900476Y-104602464D01*
X137900476Y-104602464D02*
X137900476Y-103852464D01*
X138567143Y-104602464D02*
X138281429Y-104602464D01*
X138424286Y-104602464D02*
X138424286Y-103852464D01*
X138424286Y-103852464D02*
X138376667Y-103959607D01*
X138376667Y-103959607D02*
X138329048Y-104031035D01*
X138329048Y-104031035D02*
X138281429Y-104066750D01*
X137307619Y-119487607D02*
X137379047Y-119523321D01*
X137379047Y-119523321D02*
X137402857Y-119559035D01*
X137402857Y-119559035D02*
X137426666Y-119630464D01*
X137426666Y-119630464D02*
X137426666Y-119737607D01*
X137426666Y-119737607D02*
X137402857Y-119809035D01*
X137402857Y-119809035D02*
X137379047Y-119844750D01*
X137379047Y-119844750D02*
X137331428Y-119880464D01*
X137331428Y-119880464D02*
X137140952Y-119880464D01*
X137140952Y-119880464D02*
X137140952Y-119130464D01*
X137140952Y-119130464D02*
X137307619Y-119130464D01*
X137307619Y-119130464D02*
X137355238Y-119166178D01*
X137355238Y-119166178D02*
X137379047Y-119201892D01*
X137379047Y-119201892D02*
X137402857Y-119273321D01*
X137402857Y-119273321D02*
X137402857Y-119344750D01*
X137402857Y-119344750D02*
X137379047Y-119416178D01*
X137379047Y-119416178D02*
X137355238Y-119451892D01*
X137355238Y-119451892D02*
X137307619Y-119487607D01*
X137307619Y-119487607D02*
X137140952Y-119487607D01*
X137855238Y-119130464D02*
X137760000Y-119130464D01*
X137760000Y-119130464D02*
X137712381Y-119166178D01*
X137712381Y-119166178D02*
X137688571Y-119201892D01*
X137688571Y-119201892D02*
X137640952Y-119309035D01*
X137640952Y-119309035D02*
X137617143Y-119451892D01*
X137617143Y-119451892D02*
X137617143Y-119737607D01*
X137617143Y-119737607D02*
X137640952Y-119809035D01*
X137640952Y-119809035D02*
X137664762Y-119844750D01*
X137664762Y-119844750D02*
X137712381Y-119880464D01*
X137712381Y-119880464D02*
X137807619Y-119880464D01*
X137807619Y-119880464D02*
X137855238Y-119844750D01*
X137855238Y-119844750D02*
X137879047Y-119809035D01*
X137879047Y-119809035D02*
X137902857Y-119737607D01*
X137902857Y-119737607D02*
X137902857Y-119559035D01*
X137902857Y-119559035D02*
X137879047Y-119487607D01*
X137879047Y-119487607D02*
X137855238Y-119451892D01*
X137855238Y-119451892D02*
X137807619Y-119416178D01*
X137807619Y-119416178D02*
X137712381Y-119416178D01*
X137712381Y-119416178D02*
X137664762Y-119451892D01*
X137664762Y-119451892D02*
X137640952Y-119487607D01*
X137640952Y-119487607D02*
X137617143Y-119559035D01*
X152129047Y-112230464D02*
X151962381Y-111873321D01*
X151843333Y-112230464D02*
X151843333Y-111480464D01*
X151843333Y-111480464D02*
X152033809Y-111480464D01*
X152033809Y-111480464D02*
X152081428Y-111516178D01*
X152081428Y-111516178D02*
X152105238Y-111551892D01*
X152105238Y-111551892D02*
X152129047Y-111623321D01*
X152129047Y-111623321D02*
X152129047Y-111730464D01*
X152129047Y-111730464D02*
X152105238Y-111801892D01*
X152105238Y-111801892D02*
X152081428Y-111837607D01*
X152081428Y-111837607D02*
X152033809Y-111873321D01*
X152033809Y-111873321D02*
X151843333Y-111873321D01*
X152438571Y-111480464D02*
X152533809Y-111480464D01*
X152533809Y-111480464D02*
X152581428Y-111516178D01*
X152581428Y-111516178D02*
X152629047Y-111587607D01*
X152629047Y-111587607D02*
X152652857Y-111730464D01*
X152652857Y-111730464D02*
X152652857Y-111980464D01*
X152652857Y-111980464D02*
X152629047Y-112123321D01*
X152629047Y-112123321D02*
X152581428Y-112194750D01*
X152581428Y-112194750D02*
X152533809Y-112230464D01*
X152533809Y-112230464D02*
X152438571Y-112230464D01*
X152438571Y-112230464D02*
X152390952Y-112194750D01*
X152390952Y-112194750D02*
X152343333Y-112123321D01*
X152343333Y-112123321D02*
X152319524Y-111980464D01*
X152319524Y-111980464D02*
X152319524Y-111730464D01*
X152319524Y-111730464D02*
X152343333Y-111587607D01*
X152343333Y-111587607D02*
X152390952Y-111516178D01*
X152390952Y-111516178D02*
X152438571Y-111480464D01*
X152819524Y-111480464D02*
X152938572Y-112230464D01*
X152938572Y-112230464D02*
X153033810Y-111694750D01*
X153033810Y-111694750D02*
X153129048Y-112230464D01*
X153129048Y-112230464D02*
X153248096Y-111480464D01*
X153414763Y-111551892D02*
X153438572Y-111516178D01*
X153438572Y-111516178D02*
X153486191Y-111480464D01*
X153486191Y-111480464D02*
X153605239Y-111480464D01*
X153605239Y-111480464D02*
X153652858Y-111516178D01*
X153652858Y-111516178D02*
X153676667Y-111551892D01*
X153676667Y-111551892D02*
X153700477Y-111623321D01*
X153700477Y-111623321D02*
X153700477Y-111694750D01*
X153700477Y-111694750D02*
X153676667Y-111801892D01*
X153676667Y-111801892D02*
X153390953Y-112230464D01*
X153390953Y-112230464D02*
X153700477Y-112230464D01*
X152557619Y-116909607D02*
X152629047Y-116945321D01*
X152629047Y-116945321D02*
X152652857Y-116981035D01*
X152652857Y-116981035D02*
X152676666Y-117052464D01*
X152676666Y-117052464D02*
X152676666Y-117159607D01*
X152676666Y-117159607D02*
X152652857Y-117231035D01*
X152652857Y-117231035D02*
X152629047Y-117266750D01*
X152629047Y-117266750D02*
X152581428Y-117302464D01*
X152581428Y-117302464D02*
X152390952Y-117302464D01*
X152390952Y-117302464D02*
X152390952Y-116552464D01*
X152390952Y-116552464D02*
X152557619Y-116552464D01*
X152557619Y-116552464D02*
X152605238Y-116588178D01*
X152605238Y-116588178D02*
X152629047Y-116623892D01*
X152629047Y-116623892D02*
X152652857Y-116695321D01*
X152652857Y-116695321D02*
X152652857Y-116766750D01*
X152652857Y-116766750D02*
X152629047Y-116838178D01*
X152629047Y-116838178D02*
X152605238Y-116873892D01*
X152605238Y-116873892D02*
X152557619Y-116909607D01*
X152557619Y-116909607D02*
X152390952Y-116909607D01*
X153105238Y-116802464D02*
X153105238Y-117302464D01*
X152986190Y-116516750D02*
X152867143Y-117052464D01*
X152867143Y-117052464D02*
X153176666Y-117052464D01*
X137463547Y-93728178D02*
X137415928Y-93692464D01*
X137415928Y-93692464D02*
X137344499Y-93692464D01*
X137344499Y-93692464D02*
X137273071Y-93728178D01*
X137273071Y-93728178D02*
X137225452Y-93799607D01*
X137225452Y-93799607D02*
X137201642Y-93871035D01*
X137201642Y-93871035D02*
X137177833Y-94013892D01*
X137177833Y-94013892D02*
X137177833Y-94121035D01*
X137177833Y-94121035D02*
X137201642Y-94263892D01*
X137201642Y-94263892D02*
X137225452Y-94335321D01*
X137225452Y-94335321D02*
X137273071Y-94406750D01*
X137273071Y-94406750D02*
X137344499Y-94442464D01*
X137344499Y-94442464D02*
X137392118Y-94442464D01*
X137392118Y-94442464D02*
X137463547Y-94406750D01*
X137463547Y-94406750D02*
X137487356Y-94371035D01*
X137487356Y-94371035D02*
X137487356Y-94121035D01*
X137487356Y-94121035D02*
X137392118Y-94121035D01*
X137701642Y-94442464D02*
X137701642Y-93692464D01*
X137701642Y-93692464D02*
X137987356Y-94442464D01*
X137987356Y-94442464D02*
X137987356Y-93692464D01*
X138225452Y-94442464D02*
X138225452Y-93692464D01*
X138225452Y-93692464D02*
X138344500Y-93692464D01*
X138344500Y-93692464D02*
X138415928Y-93728178D01*
X138415928Y-93728178D02*
X138463547Y-93799607D01*
X138463547Y-93799607D02*
X138487357Y-93871035D01*
X138487357Y-93871035D02*
X138511166Y-94013892D01*
X138511166Y-94013892D02*
X138511166Y-94121035D01*
X138511166Y-94121035D02*
X138487357Y-94263892D01*
X138487357Y-94263892D02*
X138463547Y-94335321D01*
X138463547Y-94335321D02*
X138415928Y-94406750D01*
X138415928Y-94406750D02*
X138344500Y-94442464D01*
X138344500Y-94442464D02*
X138225452Y-94442464D01*
X137177834Y-98772464D02*
X137344500Y-99522464D01*
X137344500Y-99522464D02*
X137511167Y-98772464D01*
X137963547Y-99451035D02*
X137939738Y-99486750D01*
X137939738Y-99486750D02*
X137868309Y-99522464D01*
X137868309Y-99522464D02*
X137820690Y-99522464D01*
X137820690Y-99522464D02*
X137749262Y-99486750D01*
X137749262Y-99486750D02*
X137701643Y-99415321D01*
X137701643Y-99415321D02*
X137677833Y-99343892D01*
X137677833Y-99343892D02*
X137654024Y-99201035D01*
X137654024Y-99201035D02*
X137654024Y-99093892D01*
X137654024Y-99093892D02*
X137677833Y-98951035D01*
X137677833Y-98951035D02*
X137701643Y-98879607D01*
X137701643Y-98879607D02*
X137749262Y-98808178D01*
X137749262Y-98808178D02*
X137820690Y-98772464D01*
X137820690Y-98772464D02*
X137868309Y-98772464D01*
X137868309Y-98772464D02*
X137939738Y-98808178D01*
X137939738Y-98808178D02*
X137963547Y-98843892D01*
X138463547Y-99451035D02*
X138439738Y-99486750D01*
X138439738Y-99486750D02*
X138368309Y-99522464D01*
X138368309Y-99522464D02*
X138320690Y-99522464D01*
X138320690Y-99522464D02*
X138249262Y-99486750D01*
X138249262Y-99486750D02*
X138201643Y-99415321D01*
X138201643Y-99415321D02*
X138177833Y-99343892D01*
X138177833Y-99343892D02*
X138154024Y-99201035D01*
X138154024Y-99201035D02*
X138154024Y-99093892D01*
X138154024Y-99093892D02*
X138177833Y-98951035D01*
X138177833Y-98951035D02*
X138201643Y-98879607D01*
X138201643Y-98879607D02*
X138249262Y-98808178D01*
X138249262Y-98808178D02*
X138320690Y-98772464D01*
X138320690Y-98772464D02*
X138368309Y-98772464D01*
X138368309Y-98772464D02*
X138439738Y-98808178D01*
X138439738Y-98808178D02*
X138463547Y-98843892D01*
X152179047Y-109682464D02*
X152012381Y-109325321D01*
X151893333Y-109682464D02*
X151893333Y-108932464D01*
X151893333Y-108932464D02*
X152083809Y-108932464D01*
X152083809Y-108932464D02*
X152131428Y-108968178D01*
X152131428Y-108968178D02*
X152155238Y-109003892D01*
X152155238Y-109003892D02*
X152179047Y-109075321D01*
X152179047Y-109075321D02*
X152179047Y-109182464D01*
X152179047Y-109182464D02*
X152155238Y-109253892D01*
X152155238Y-109253892D02*
X152131428Y-109289607D01*
X152131428Y-109289607D02*
X152083809Y-109325321D01*
X152083809Y-109325321D02*
X151893333Y-109325321D01*
X152488571Y-108932464D02*
X152583809Y-108932464D01*
X152583809Y-108932464D02*
X152631428Y-108968178D01*
X152631428Y-108968178D02*
X152679047Y-109039607D01*
X152679047Y-109039607D02*
X152702857Y-109182464D01*
X152702857Y-109182464D02*
X152702857Y-109432464D01*
X152702857Y-109432464D02*
X152679047Y-109575321D01*
X152679047Y-109575321D02*
X152631428Y-109646750D01*
X152631428Y-109646750D02*
X152583809Y-109682464D01*
X152583809Y-109682464D02*
X152488571Y-109682464D01*
X152488571Y-109682464D02*
X152440952Y-109646750D01*
X152440952Y-109646750D02*
X152393333Y-109575321D01*
X152393333Y-109575321D02*
X152369524Y-109432464D01*
X152369524Y-109432464D02*
X152369524Y-109182464D01*
X152369524Y-109182464D02*
X152393333Y-109039607D01*
X152393333Y-109039607D02*
X152440952Y-108968178D01*
X152440952Y-108968178D02*
X152488571Y-108932464D01*
X152869524Y-108932464D02*
X152988572Y-109682464D01*
X152988572Y-109682464D02*
X153083810Y-109146750D01*
X153083810Y-109146750D02*
X153179048Y-109682464D01*
X153179048Y-109682464D02*
X153298096Y-108932464D01*
X153750477Y-109682464D02*
X153464763Y-109682464D01*
X153607620Y-109682464D02*
X153607620Y-108932464D01*
X153607620Y-108932464D02*
X153560001Y-109039607D01*
X153560001Y-109039607D02*
X153512382Y-109111035D01*
X153512382Y-109111035D02*
X153464763Y-109146750D01*
X137499261Y-91902464D02*
X137332595Y-91545321D01*
X137213547Y-91902464D02*
X137213547Y-91152464D01*
X137213547Y-91152464D02*
X137404023Y-91152464D01*
X137404023Y-91152464D02*
X137451642Y-91188178D01*
X137451642Y-91188178D02*
X137475452Y-91223892D01*
X137475452Y-91223892D02*
X137499261Y-91295321D01*
X137499261Y-91295321D02*
X137499261Y-91402464D01*
X137499261Y-91402464D02*
X137475452Y-91473892D01*
X137475452Y-91473892D02*
X137451642Y-91509607D01*
X137451642Y-91509607D02*
X137404023Y-91545321D01*
X137404023Y-91545321D02*
X137213547Y-91545321D01*
X137689738Y-91688178D02*
X137927833Y-91688178D01*
X137642119Y-91902464D02*
X137808785Y-91152464D01*
X137808785Y-91152464D02*
X137975452Y-91902464D01*
X138094499Y-91152464D02*
X138213547Y-91902464D01*
X138213547Y-91902464D02*
X138308785Y-91366750D01*
X138308785Y-91366750D02*
X138404023Y-91902464D01*
X138404023Y-91902464D02*
X138523071Y-91152464D01*
X152640047Y-98871678D02*
X152592428Y-98835964D01*
X152592428Y-98835964D02*
X152520999Y-98835964D01*
X152520999Y-98835964D02*
X152449571Y-98871678D01*
X152449571Y-98871678D02*
X152401952Y-98943107D01*
X152401952Y-98943107D02*
X152378142Y-99014535D01*
X152378142Y-99014535D02*
X152354333Y-99157392D01*
X152354333Y-99157392D02*
X152354333Y-99264535D01*
X152354333Y-99264535D02*
X152378142Y-99407392D01*
X152378142Y-99407392D02*
X152401952Y-99478821D01*
X152401952Y-99478821D02*
X152449571Y-99550250D01*
X152449571Y-99550250D02*
X152520999Y-99585964D01*
X152520999Y-99585964D02*
X152568618Y-99585964D01*
X152568618Y-99585964D02*
X152640047Y-99550250D01*
X152640047Y-99550250D02*
X152663856Y-99514535D01*
X152663856Y-99514535D02*
X152663856Y-99264535D01*
X152663856Y-99264535D02*
X152568618Y-99264535D01*
X152878142Y-99585964D02*
X152878142Y-98835964D01*
X152878142Y-98835964D02*
X153163856Y-99585964D01*
X153163856Y-99585964D02*
X153163856Y-98835964D01*
X153401952Y-99585964D02*
X153401952Y-98835964D01*
X153401952Y-98835964D02*
X153521000Y-98835964D01*
X153521000Y-98835964D02*
X153592428Y-98871678D01*
X153592428Y-98871678D02*
X153640047Y-98943107D01*
X153640047Y-98943107D02*
X153663857Y-99014535D01*
X153663857Y-99014535D02*
X153687666Y-99157392D01*
X153687666Y-99157392D02*
X153687666Y-99264535D01*
X153687666Y-99264535D02*
X153663857Y-99407392D01*
X153663857Y-99407392D02*
X153640047Y-99478821D01*
X153640047Y-99478821D02*
X153592428Y-99550250D01*
X153592428Y-99550250D02*
X153521000Y-99585964D01*
X153521000Y-99585964D02*
X153401952Y-99585964D01*
X152413858Y-102026750D02*
X152485286Y-102062464D01*
X152485286Y-102062464D02*
X152604334Y-102062464D01*
X152604334Y-102062464D02*
X152651953Y-102026750D01*
X152651953Y-102026750D02*
X152675762Y-101991035D01*
X152675762Y-101991035D02*
X152699572Y-101919607D01*
X152699572Y-101919607D02*
X152699572Y-101848178D01*
X152699572Y-101848178D02*
X152675762Y-101776750D01*
X152675762Y-101776750D02*
X152651953Y-101741035D01*
X152651953Y-101741035D02*
X152604334Y-101705321D01*
X152604334Y-101705321D02*
X152509096Y-101669607D01*
X152509096Y-101669607D02*
X152461477Y-101633892D01*
X152461477Y-101633892D02*
X152437667Y-101598178D01*
X152437667Y-101598178D02*
X152413858Y-101526750D01*
X152413858Y-101526750D02*
X152413858Y-101455321D01*
X152413858Y-101455321D02*
X152437667Y-101383892D01*
X152437667Y-101383892D02*
X152461477Y-101348178D01*
X152461477Y-101348178D02*
X152509096Y-101312464D01*
X152509096Y-101312464D02*
X152628143Y-101312464D01*
X152628143Y-101312464D02*
X152699572Y-101348178D01*
X152913857Y-102062464D02*
X152913857Y-101312464D01*
X152913857Y-101312464D02*
X153032905Y-101312464D01*
X153032905Y-101312464D02*
X153104333Y-101348178D01*
X153104333Y-101348178D02*
X153151952Y-101419607D01*
X153151952Y-101419607D02*
X153175762Y-101491035D01*
X153175762Y-101491035D02*
X153199571Y-101633892D01*
X153199571Y-101633892D02*
X153199571Y-101741035D01*
X153199571Y-101741035D02*
X153175762Y-101883892D01*
X153175762Y-101883892D02*
X153151952Y-101955321D01*
X153151952Y-101955321D02*
X153104333Y-102026750D01*
X153104333Y-102026750D02*
X153032905Y-102062464D01*
X153032905Y-102062464D02*
X152913857Y-102062464D01*
X153390048Y-101848178D02*
X153628143Y-101848178D01*
X153342429Y-102062464D02*
X153509095Y-101312464D01*
X153509095Y-101312464D02*
X153675762Y-102062464D01*
X152425762Y-104566750D02*
X152497190Y-104602464D01*
X152497190Y-104602464D02*
X152616238Y-104602464D01*
X152616238Y-104602464D02*
X152663857Y-104566750D01*
X152663857Y-104566750D02*
X152687666Y-104531035D01*
X152687666Y-104531035D02*
X152711476Y-104459607D01*
X152711476Y-104459607D02*
X152711476Y-104388178D01*
X152711476Y-104388178D02*
X152687666Y-104316750D01*
X152687666Y-104316750D02*
X152663857Y-104281035D01*
X152663857Y-104281035D02*
X152616238Y-104245321D01*
X152616238Y-104245321D02*
X152521000Y-104209607D01*
X152521000Y-104209607D02*
X152473381Y-104173892D01*
X152473381Y-104173892D02*
X152449571Y-104138178D01*
X152449571Y-104138178D02*
X152425762Y-104066750D01*
X152425762Y-104066750D02*
X152425762Y-103995321D01*
X152425762Y-103995321D02*
X152449571Y-103923892D01*
X152449571Y-103923892D02*
X152473381Y-103888178D01*
X152473381Y-103888178D02*
X152521000Y-103852464D01*
X152521000Y-103852464D02*
X152640047Y-103852464D01*
X152640047Y-103852464D02*
X152711476Y-103888178D01*
X153211475Y-104531035D02*
X153187666Y-104566750D01*
X153187666Y-104566750D02*
X153116237Y-104602464D01*
X153116237Y-104602464D02*
X153068618Y-104602464D01*
X153068618Y-104602464D02*
X152997190Y-104566750D01*
X152997190Y-104566750D02*
X152949571Y-104495321D01*
X152949571Y-104495321D02*
X152925761Y-104423892D01*
X152925761Y-104423892D02*
X152901952Y-104281035D01*
X152901952Y-104281035D02*
X152901952Y-104173892D01*
X152901952Y-104173892D02*
X152925761Y-104031035D01*
X152925761Y-104031035D02*
X152949571Y-103959607D01*
X152949571Y-103959607D02*
X152997190Y-103888178D01*
X152997190Y-103888178D02*
X153068618Y-103852464D01*
X153068618Y-103852464D02*
X153116237Y-103852464D01*
X153116237Y-103852464D02*
X153187666Y-103888178D01*
X153187666Y-103888178D02*
X153211475Y-103923892D01*
X153663856Y-104602464D02*
X153425761Y-104602464D01*
X153425761Y-104602464D02*
X153425761Y-103852464D01*
X152703547Y-96331678D02*
X152655928Y-96295964D01*
X152655928Y-96295964D02*
X152584499Y-96295964D01*
X152584499Y-96295964D02*
X152513071Y-96331678D01*
X152513071Y-96331678D02*
X152465452Y-96403107D01*
X152465452Y-96403107D02*
X152441642Y-96474535D01*
X152441642Y-96474535D02*
X152417833Y-96617392D01*
X152417833Y-96617392D02*
X152417833Y-96724535D01*
X152417833Y-96724535D02*
X152441642Y-96867392D01*
X152441642Y-96867392D02*
X152465452Y-96938821D01*
X152465452Y-96938821D02*
X152513071Y-97010250D01*
X152513071Y-97010250D02*
X152584499Y-97045964D01*
X152584499Y-97045964D02*
X152632118Y-97045964D01*
X152632118Y-97045964D02*
X152703547Y-97010250D01*
X152703547Y-97010250D02*
X152727356Y-96974535D01*
X152727356Y-96974535D02*
X152727356Y-96724535D01*
X152727356Y-96724535D02*
X152632118Y-96724535D01*
X152941642Y-97045964D02*
X152941642Y-96295964D01*
X152941642Y-96295964D02*
X153227356Y-97045964D01*
X153227356Y-97045964D02*
X153227356Y-96295964D01*
X153465452Y-97045964D02*
X153465452Y-96295964D01*
X153465452Y-96295964D02*
X153584500Y-96295964D01*
X153584500Y-96295964D02*
X153655928Y-96331678D01*
X153655928Y-96331678D02*
X153703547Y-96403107D01*
X153703547Y-96403107D02*
X153727357Y-96474535D01*
X153727357Y-96474535D02*
X153751166Y-96617392D01*
X153751166Y-96617392D02*
X153751166Y-96724535D01*
X153751166Y-96724535D02*
X153727357Y-96867392D01*
X153727357Y-96867392D02*
X153703547Y-96938821D01*
X153703547Y-96938821D02*
X153655928Y-97010250D01*
X153655928Y-97010250D02*
X153584500Y-97045964D01*
X153584500Y-97045964D02*
X153465452Y-97045964D01*
X137012380Y-109659035D02*
X136988571Y-109694750D01*
X136988571Y-109694750D02*
X136917142Y-109730464D01*
X136917142Y-109730464D02*
X136869523Y-109730464D01*
X136869523Y-109730464D02*
X136798095Y-109694750D01*
X136798095Y-109694750D02*
X136750476Y-109623321D01*
X136750476Y-109623321D02*
X136726666Y-109551892D01*
X136726666Y-109551892D02*
X136702857Y-109409035D01*
X136702857Y-109409035D02*
X136702857Y-109301892D01*
X136702857Y-109301892D02*
X136726666Y-109159035D01*
X136726666Y-109159035D02*
X136750476Y-109087607D01*
X136750476Y-109087607D02*
X136798095Y-109016178D01*
X136798095Y-109016178D02*
X136869523Y-108980464D01*
X136869523Y-108980464D02*
X136917142Y-108980464D01*
X136917142Y-108980464D02*
X136988571Y-109016178D01*
X136988571Y-109016178D02*
X137012380Y-109051892D01*
X137321904Y-108980464D02*
X137417142Y-108980464D01*
X137417142Y-108980464D02*
X137464761Y-109016178D01*
X137464761Y-109016178D02*
X137512380Y-109087607D01*
X137512380Y-109087607D02*
X137536190Y-109230464D01*
X137536190Y-109230464D02*
X137536190Y-109480464D01*
X137536190Y-109480464D02*
X137512380Y-109623321D01*
X137512380Y-109623321D02*
X137464761Y-109694750D01*
X137464761Y-109694750D02*
X137417142Y-109730464D01*
X137417142Y-109730464D02*
X137321904Y-109730464D01*
X137321904Y-109730464D02*
X137274285Y-109694750D01*
X137274285Y-109694750D02*
X137226666Y-109623321D01*
X137226666Y-109623321D02*
X137202857Y-109480464D01*
X137202857Y-109480464D02*
X137202857Y-109230464D01*
X137202857Y-109230464D02*
X137226666Y-109087607D01*
X137226666Y-109087607D02*
X137274285Y-109016178D01*
X137274285Y-109016178D02*
X137321904Y-108980464D01*
X137988571Y-109730464D02*
X137750476Y-109730464D01*
X137750476Y-109730464D02*
X137750476Y-108980464D01*
X138107619Y-108980464D02*
X138417143Y-108980464D01*
X138417143Y-108980464D02*
X138250476Y-109266178D01*
X138250476Y-109266178D02*
X138321905Y-109266178D01*
X138321905Y-109266178D02*
X138369524Y-109301892D01*
X138369524Y-109301892D02*
X138393333Y-109337607D01*
X138393333Y-109337607D02*
X138417143Y-109409035D01*
X138417143Y-109409035D02*
X138417143Y-109587607D01*
X138417143Y-109587607D02*
X138393333Y-109659035D01*
X138393333Y-109659035D02*
X138369524Y-109694750D01*
X138369524Y-109694750D02*
X138321905Y-109730464D01*
X138321905Y-109730464D02*
X138179048Y-109730464D01*
X138179048Y-109730464D02*
X138131429Y-109694750D01*
X138131429Y-109694750D02*
X138107619Y-109659035D01*
X137062380Y-114754535D02*
X137038571Y-114790250D01*
X137038571Y-114790250D02*
X136967142Y-114825964D01*
X136967142Y-114825964D02*
X136919523Y-114825964D01*
X136919523Y-114825964D02*
X136848095Y-114790250D01*
X136848095Y-114790250D02*
X136800476Y-114718821D01*
X136800476Y-114718821D02*
X136776666Y-114647392D01*
X136776666Y-114647392D02*
X136752857Y-114504535D01*
X136752857Y-114504535D02*
X136752857Y-114397392D01*
X136752857Y-114397392D02*
X136776666Y-114254535D01*
X136776666Y-114254535D02*
X136800476Y-114183107D01*
X136800476Y-114183107D02*
X136848095Y-114111678D01*
X136848095Y-114111678D02*
X136919523Y-114075964D01*
X136919523Y-114075964D02*
X136967142Y-114075964D01*
X136967142Y-114075964D02*
X137038571Y-114111678D01*
X137038571Y-114111678D02*
X137062380Y-114147392D01*
X137371904Y-114075964D02*
X137467142Y-114075964D01*
X137467142Y-114075964D02*
X137514761Y-114111678D01*
X137514761Y-114111678D02*
X137562380Y-114183107D01*
X137562380Y-114183107D02*
X137586190Y-114325964D01*
X137586190Y-114325964D02*
X137586190Y-114575964D01*
X137586190Y-114575964D02*
X137562380Y-114718821D01*
X137562380Y-114718821D02*
X137514761Y-114790250D01*
X137514761Y-114790250D02*
X137467142Y-114825964D01*
X137467142Y-114825964D02*
X137371904Y-114825964D01*
X137371904Y-114825964D02*
X137324285Y-114790250D01*
X137324285Y-114790250D02*
X137276666Y-114718821D01*
X137276666Y-114718821D02*
X137252857Y-114575964D01*
X137252857Y-114575964D02*
X137252857Y-114325964D01*
X137252857Y-114325964D02*
X137276666Y-114183107D01*
X137276666Y-114183107D02*
X137324285Y-114111678D01*
X137324285Y-114111678D02*
X137371904Y-114075964D01*
X138038571Y-114825964D02*
X137800476Y-114825964D01*
X137800476Y-114825964D02*
X137800476Y-114075964D01*
X138443333Y-114075964D02*
X138205238Y-114075964D01*
X138205238Y-114075964D02*
X138181429Y-114433107D01*
X138181429Y-114433107D02*
X138205238Y-114397392D01*
X138205238Y-114397392D02*
X138252857Y-114361678D01*
X138252857Y-114361678D02*
X138371905Y-114361678D01*
X138371905Y-114361678D02*
X138419524Y-114397392D01*
X138419524Y-114397392D02*
X138443333Y-114433107D01*
X138443333Y-114433107D02*
X138467143Y-114504535D01*
X138467143Y-114504535D02*
X138467143Y-114683107D01*
X138467143Y-114683107D02*
X138443333Y-114754535D01*
X138443333Y-114754535D02*
X138419524Y-114790250D01*
X138419524Y-114790250D02*
X138371905Y-114825964D01*
X138371905Y-114825964D02*
X138252857Y-114825964D01*
X138252857Y-114825964D02*
X138205238Y-114790250D01*
X138205238Y-114790250D02*
X138181429Y-114754535D01*
X152129047Y-114825964D02*
X151962381Y-114468821D01*
X151843333Y-114825964D02*
X151843333Y-114075964D01*
X151843333Y-114075964D02*
X152033809Y-114075964D01*
X152033809Y-114075964D02*
X152081428Y-114111678D01*
X152081428Y-114111678D02*
X152105238Y-114147392D01*
X152105238Y-114147392D02*
X152129047Y-114218821D01*
X152129047Y-114218821D02*
X152129047Y-114325964D01*
X152129047Y-114325964D02*
X152105238Y-114397392D01*
X152105238Y-114397392D02*
X152081428Y-114433107D01*
X152081428Y-114433107D02*
X152033809Y-114468821D01*
X152033809Y-114468821D02*
X151843333Y-114468821D01*
X152438571Y-114075964D02*
X152533809Y-114075964D01*
X152533809Y-114075964D02*
X152581428Y-114111678D01*
X152581428Y-114111678D02*
X152629047Y-114183107D01*
X152629047Y-114183107D02*
X152652857Y-114325964D01*
X152652857Y-114325964D02*
X152652857Y-114575964D01*
X152652857Y-114575964D02*
X152629047Y-114718821D01*
X152629047Y-114718821D02*
X152581428Y-114790250D01*
X152581428Y-114790250D02*
X152533809Y-114825964D01*
X152533809Y-114825964D02*
X152438571Y-114825964D01*
X152438571Y-114825964D02*
X152390952Y-114790250D01*
X152390952Y-114790250D02*
X152343333Y-114718821D01*
X152343333Y-114718821D02*
X152319524Y-114575964D01*
X152319524Y-114575964D02*
X152319524Y-114325964D01*
X152319524Y-114325964D02*
X152343333Y-114183107D01*
X152343333Y-114183107D02*
X152390952Y-114111678D01*
X152390952Y-114111678D02*
X152438571Y-114075964D01*
X152819524Y-114075964D02*
X152938572Y-114825964D01*
X152938572Y-114825964D02*
X153033810Y-114290250D01*
X153033810Y-114290250D02*
X153129048Y-114825964D01*
X153129048Y-114825964D02*
X153248096Y-114075964D01*
X153390953Y-114075964D02*
X153700477Y-114075964D01*
X153700477Y-114075964D02*
X153533810Y-114361678D01*
X153533810Y-114361678D02*
X153605239Y-114361678D01*
X153605239Y-114361678D02*
X153652858Y-114397392D01*
X153652858Y-114397392D02*
X153676667Y-114433107D01*
X153676667Y-114433107D02*
X153700477Y-114504535D01*
X153700477Y-114504535D02*
X153700477Y-114683107D01*
X153700477Y-114683107D02*
X153676667Y-114754535D01*
X153676667Y-114754535D02*
X153652858Y-114790250D01*
X153652858Y-114790250D02*
X153605239Y-114825964D01*
X153605239Y-114825964D02*
X153462382Y-114825964D01*
X153462382Y-114825964D02*
X153414763Y-114790250D01*
X153414763Y-114790250D02*
X153390953Y-114754535D01*
X137407619Y-116937607D02*
X137479047Y-116973321D01*
X137479047Y-116973321D02*
X137502857Y-117009035D01*
X137502857Y-117009035D02*
X137526666Y-117080464D01*
X137526666Y-117080464D02*
X137526666Y-117187607D01*
X137526666Y-117187607D02*
X137502857Y-117259035D01*
X137502857Y-117259035D02*
X137479047Y-117294750D01*
X137479047Y-117294750D02*
X137431428Y-117330464D01*
X137431428Y-117330464D02*
X137240952Y-117330464D01*
X137240952Y-117330464D02*
X137240952Y-116580464D01*
X137240952Y-116580464D02*
X137407619Y-116580464D01*
X137407619Y-116580464D02*
X137455238Y-116616178D01*
X137455238Y-116616178D02*
X137479047Y-116651892D01*
X137479047Y-116651892D02*
X137502857Y-116723321D01*
X137502857Y-116723321D02*
X137502857Y-116794750D01*
X137502857Y-116794750D02*
X137479047Y-116866178D01*
X137479047Y-116866178D02*
X137455238Y-116901892D01*
X137455238Y-116901892D02*
X137407619Y-116937607D01*
X137407619Y-116937607D02*
X137240952Y-116937607D01*
X137717143Y-116651892D02*
X137740952Y-116616178D01*
X137740952Y-116616178D02*
X137788571Y-116580464D01*
X137788571Y-116580464D02*
X137907619Y-116580464D01*
X137907619Y-116580464D02*
X137955238Y-116616178D01*
X137955238Y-116616178D02*
X137979047Y-116651892D01*
X137979047Y-116651892D02*
X138002857Y-116723321D01*
X138002857Y-116723321D02*
X138002857Y-116794750D01*
X138002857Y-116794750D02*
X137979047Y-116901892D01*
X137979047Y-116901892D02*
X137693333Y-117330464D01*
X137693333Y-117330464D02*
X138002857Y-117330464D01*
X137062380Y-112159035D02*
X137038571Y-112194750D01*
X137038571Y-112194750D02*
X136967142Y-112230464D01*
X136967142Y-112230464D02*
X136919523Y-112230464D01*
X136919523Y-112230464D02*
X136848095Y-112194750D01*
X136848095Y-112194750D02*
X136800476Y-112123321D01*
X136800476Y-112123321D02*
X136776666Y-112051892D01*
X136776666Y-112051892D02*
X136752857Y-111909035D01*
X136752857Y-111909035D02*
X136752857Y-111801892D01*
X136752857Y-111801892D02*
X136776666Y-111659035D01*
X136776666Y-111659035D02*
X136800476Y-111587607D01*
X136800476Y-111587607D02*
X136848095Y-111516178D01*
X136848095Y-111516178D02*
X136919523Y-111480464D01*
X136919523Y-111480464D02*
X136967142Y-111480464D01*
X136967142Y-111480464D02*
X137038571Y-111516178D01*
X137038571Y-111516178D02*
X137062380Y-111551892D01*
X137371904Y-111480464D02*
X137467142Y-111480464D01*
X137467142Y-111480464D02*
X137514761Y-111516178D01*
X137514761Y-111516178D02*
X137562380Y-111587607D01*
X137562380Y-111587607D02*
X137586190Y-111730464D01*
X137586190Y-111730464D02*
X137586190Y-111980464D01*
X137586190Y-111980464D02*
X137562380Y-112123321D01*
X137562380Y-112123321D02*
X137514761Y-112194750D01*
X137514761Y-112194750D02*
X137467142Y-112230464D01*
X137467142Y-112230464D02*
X137371904Y-112230464D01*
X137371904Y-112230464D02*
X137324285Y-112194750D01*
X137324285Y-112194750D02*
X137276666Y-112123321D01*
X137276666Y-112123321D02*
X137252857Y-111980464D01*
X137252857Y-111980464D02*
X137252857Y-111730464D01*
X137252857Y-111730464D02*
X137276666Y-111587607D01*
X137276666Y-111587607D02*
X137324285Y-111516178D01*
X137324285Y-111516178D02*
X137371904Y-111480464D01*
X138038571Y-112230464D02*
X137800476Y-112230464D01*
X137800476Y-112230464D02*
X137800476Y-111480464D01*
X138419524Y-111730464D02*
X138419524Y-112230464D01*
X138300476Y-111444750D02*
X138181429Y-111980464D01*
X138181429Y-111980464D02*
X138490952Y-111980464D01*
X152160000Y-94430464D02*
X152160000Y-93680464D01*
X152160000Y-93680464D02*
X152279048Y-93680464D01*
X152279048Y-93680464D02*
X152350476Y-93716178D01*
X152350476Y-93716178D02*
X152398095Y-93787607D01*
X152398095Y-93787607D02*
X152421905Y-93859035D01*
X152421905Y-93859035D02*
X152445714Y-94001892D01*
X152445714Y-94001892D02*
X152445714Y-94109035D01*
X152445714Y-94109035D02*
X152421905Y-94251892D01*
X152421905Y-94251892D02*
X152398095Y-94323321D01*
X152398095Y-94323321D02*
X152350476Y-94394750D01*
X152350476Y-94394750D02*
X152279048Y-94430464D01*
X152279048Y-94430464D02*
X152160000Y-94430464D01*
X152636191Y-94216178D02*
X152874286Y-94216178D01*
X152588572Y-94430464D02*
X152755238Y-93680464D01*
X152755238Y-93680464D02*
X152921905Y-94430464D01*
X153017143Y-93680464D02*
X153302857Y-93680464D01*
X153160000Y-94430464D02*
X153160000Y-93680464D01*
X153445714Y-94216178D02*
X153683809Y-94216178D01*
X153398095Y-94430464D02*
X153564761Y-93680464D01*
X153564761Y-93680464D02*
X153731428Y-94430464D01*
X152557619Y-119513107D02*
X152629047Y-119548821D01*
X152629047Y-119548821D02*
X152652857Y-119584535D01*
X152652857Y-119584535D02*
X152676666Y-119655964D01*
X152676666Y-119655964D02*
X152676666Y-119763107D01*
X152676666Y-119763107D02*
X152652857Y-119834535D01*
X152652857Y-119834535D02*
X152629047Y-119870250D01*
X152629047Y-119870250D02*
X152581428Y-119905964D01*
X152581428Y-119905964D02*
X152390952Y-119905964D01*
X152390952Y-119905964D02*
X152390952Y-119155964D01*
X152390952Y-119155964D02*
X152557619Y-119155964D01*
X152557619Y-119155964D02*
X152605238Y-119191678D01*
X152605238Y-119191678D02*
X152629047Y-119227392D01*
X152629047Y-119227392D02*
X152652857Y-119298821D01*
X152652857Y-119298821D02*
X152652857Y-119370250D01*
X152652857Y-119370250D02*
X152629047Y-119441678D01*
X152629047Y-119441678D02*
X152605238Y-119477392D01*
X152605238Y-119477392D02*
X152557619Y-119513107D01*
X152557619Y-119513107D02*
X152390952Y-119513107D01*
X153129047Y-119155964D02*
X152890952Y-119155964D01*
X152890952Y-119155964D02*
X152867143Y-119513107D01*
X152867143Y-119513107D02*
X152890952Y-119477392D01*
X152890952Y-119477392D02*
X152938571Y-119441678D01*
X152938571Y-119441678D02*
X153057619Y-119441678D01*
X153057619Y-119441678D02*
X153105238Y-119477392D01*
X153105238Y-119477392D02*
X153129047Y-119513107D01*
X153129047Y-119513107D02*
X153152857Y-119584535D01*
X153152857Y-119584535D02*
X153152857Y-119763107D01*
X153152857Y-119763107D02*
X153129047Y-119834535D01*
X153129047Y-119834535D02*
X153105238Y-119870250D01*
X153105238Y-119870250D02*
X153057619Y-119905964D01*
X153057619Y-119905964D02*
X152938571Y-119905964D01*
X152938571Y-119905964D02*
X152890952Y-119870250D01*
X152890952Y-119870250D02*
X152867143Y-119834535D01*
X152129047Y-107180464D02*
X151962381Y-106823321D01*
X151843333Y-107180464D02*
X151843333Y-106430464D01*
X151843333Y-106430464D02*
X152033809Y-106430464D01*
X152033809Y-106430464D02*
X152081428Y-106466178D01*
X152081428Y-106466178D02*
X152105238Y-106501892D01*
X152105238Y-106501892D02*
X152129047Y-106573321D01*
X152129047Y-106573321D02*
X152129047Y-106680464D01*
X152129047Y-106680464D02*
X152105238Y-106751892D01*
X152105238Y-106751892D02*
X152081428Y-106787607D01*
X152081428Y-106787607D02*
X152033809Y-106823321D01*
X152033809Y-106823321D02*
X151843333Y-106823321D01*
X152438571Y-106430464D02*
X152533809Y-106430464D01*
X152533809Y-106430464D02*
X152581428Y-106466178D01*
X152581428Y-106466178D02*
X152629047Y-106537607D01*
X152629047Y-106537607D02*
X152652857Y-106680464D01*
X152652857Y-106680464D02*
X152652857Y-106930464D01*
X152652857Y-106930464D02*
X152629047Y-107073321D01*
X152629047Y-107073321D02*
X152581428Y-107144750D01*
X152581428Y-107144750D02*
X152533809Y-107180464D01*
X152533809Y-107180464D02*
X152438571Y-107180464D01*
X152438571Y-107180464D02*
X152390952Y-107144750D01*
X152390952Y-107144750D02*
X152343333Y-107073321D01*
X152343333Y-107073321D02*
X152319524Y-106930464D01*
X152319524Y-106930464D02*
X152319524Y-106680464D01*
X152319524Y-106680464D02*
X152343333Y-106537607D01*
X152343333Y-106537607D02*
X152390952Y-106466178D01*
X152390952Y-106466178D02*
X152438571Y-106430464D01*
X152819524Y-106430464D02*
X152938572Y-107180464D01*
X152938572Y-107180464D02*
X153033810Y-106644750D01*
X153033810Y-106644750D02*
X153129048Y-107180464D01*
X153129048Y-107180464D02*
X153248096Y-106430464D01*
X153533810Y-106430464D02*
X153581429Y-106430464D01*
X153581429Y-106430464D02*
X153629048Y-106466178D01*
X153629048Y-106466178D02*
X153652858Y-106501892D01*
X153652858Y-106501892D02*
X153676667Y-106573321D01*
X153676667Y-106573321D02*
X153700477Y-106716178D01*
X153700477Y-106716178D02*
X153700477Y-106894750D01*
X153700477Y-106894750D02*
X153676667Y-107037607D01*
X153676667Y-107037607D02*
X153652858Y-107109035D01*
X153652858Y-107109035D02*
X153629048Y-107144750D01*
X153629048Y-107144750D02*
X153581429Y-107180464D01*
X153581429Y-107180464D02*
X153533810Y-107180464D01*
X153533810Y-107180464D02*
X153486191Y-107144750D01*
X153486191Y-107144750D02*
X153462382Y-107109035D01*
X153462382Y-107109035D02*
X153438572Y-107037607D01*
X153438572Y-107037607D02*
X153414763Y-106894750D01*
X153414763Y-106894750D02*
X153414763Y-106716178D01*
X153414763Y-106716178D02*
X153438572Y-106573321D01*
X153438572Y-106573321D02*
X153462382Y-106501892D01*
X153462382Y-106501892D02*
X153486191Y-106466178D01*
X153486191Y-106466178D02*
X153533810Y-106430464D01*
X137112380Y-107071035D02*
X137088571Y-107106750D01*
X137088571Y-107106750D02*
X137017142Y-107142464D01*
X137017142Y-107142464D02*
X136969523Y-107142464D01*
X136969523Y-107142464D02*
X136898095Y-107106750D01*
X136898095Y-107106750D02*
X136850476Y-107035321D01*
X136850476Y-107035321D02*
X136826666Y-106963892D01*
X136826666Y-106963892D02*
X136802857Y-106821035D01*
X136802857Y-106821035D02*
X136802857Y-106713892D01*
X136802857Y-106713892D02*
X136826666Y-106571035D01*
X136826666Y-106571035D02*
X136850476Y-106499607D01*
X136850476Y-106499607D02*
X136898095Y-106428178D01*
X136898095Y-106428178D02*
X136969523Y-106392464D01*
X136969523Y-106392464D02*
X137017142Y-106392464D01*
X137017142Y-106392464D02*
X137088571Y-106428178D01*
X137088571Y-106428178D02*
X137112380Y-106463892D01*
X137421904Y-106392464D02*
X137517142Y-106392464D01*
X137517142Y-106392464D02*
X137564761Y-106428178D01*
X137564761Y-106428178D02*
X137612380Y-106499607D01*
X137612380Y-106499607D02*
X137636190Y-106642464D01*
X137636190Y-106642464D02*
X137636190Y-106892464D01*
X137636190Y-106892464D02*
X137612380Y-107035321D01*
X137612380Y-107035321D02*
X137564761Y-107106750D01*
X137564761Y-107106750D02*
X137517142Y-107142464D01*
X137517142Y-107142464D02*
X137421904Y-107142464D01*
X137421904Y-107142464D02*
X137374285Y-107106750D01*
X137374285Y-107106750D02*
X137326666Y-107035321D01*
X137326666Y-107035321D02*
X137302857Y-106892464D01*
X137302857Y-106892464D02*
X137302857Y-106642464D01*
X137302857Y-106642464D02*
X137326666Y-106499607D01*
X137326666Y-106499607D02*
X137374285Y-106428178D01*
X137374285Y-106428178D02*
X137421904Y-106392464D01*
X138088571Y-107142464D02*
X137850476Y-107142464D01*
X137850476Y-107142464D02*
X137850476Y-106392464D01*
X138231429Y-106463892D02*
X138255238Y-106428178D01*
X138255238Y-106428178D02*
X138302857Y-106392464D01*
X138302857Y-106392464D02*
X138421905Y-106392464D01*
X138421905Y-106392464D02*
X138469524Y-106428178D01*
X138469524Y-106428178D02*
X138493333Y-106463892D01*
X138493333Y-106463892D02*
X138517143Y-106535321D01*
X138517143Y-106535321D02*
X138517143Y-106606750D01*
X138517143Y-106606750D02*
X138493333Y-106713892D01*
X138493333Y-106713892D02*
X138207619Y-107142464D01*
X138207619Y-107142464D02*
X138517143Y-107142464D01*
X137570690Y-97045964D02*
X137404024Y-96688821D01*
X137284976Y-97045964D02*
X137284976Y-96295964D01*
X137284976Y-96295964D02*
X137475452Y-96295964D01*
X137475452Y-96295964D02*
X137523071Y-96331678D01*
X137523071Y-96331678D02*
X137546881Y-96367392D01*
X137546881Y-96367392D02*
X137570690Y-96438821D01*
X137570690Y-96438821D02*
X137570690Y-96545964D01*
X137570690Y-96545964D02*
X137546881Y-96617392D01*
X137546881Y-96617392D02*
X137523071Y-96653107D01*
X137523071Y-96653107D02*
X137475452Y-96688821D01*
X137475452Y-96688821D02*
X137284976Y-96688821D01*
X137761167Y-97010250D02*
X137832595Y-97045964D01*
X137832595Y-97045964D02*
X137951643Y-97045964D01*
X137951643Y-97045964D02*
X137999262Y-97010250D01*
X137999262Y-97010250D02*
X138023071Y-96974535D01*
X138023071Y-96974535D02*
X138046881Y-96903107D01*
X138046881Y-96903107D02*
X138046881Y-96831678D01*
X138046881Y-96831678D02*
X138023071Y-96760250D01*
X138023071Y-96760250D02*
X137999262Y-96724535D01*
X137999262Y-96724535D02*
X137951643Y-96688821D01*
X137951643Y-96688821D02*
X137856405Y-96653107D01*
X137856405Y-96653107D02*
X137808786Y-96617392D01*
X137808786Y-96617392D02*
X137784976Y-96581678D01*
X137784976Y-96581678D02*
X137761167Y-96510250D01*
X137761167Y-96510250D02*
X137761167Y-96438821D01*
X137761167Y-96438821D02*
X137784976Y-96367392D01*
X137784976Y-96367392D02*
X137808786Y-96331678D01*
X137808786Y-96331678D02*
X137856405Y-96295964D01*
X137856405Y-96295964D02*
X137975452Y-96295964D01*
X137975452Y-96295964D02*
X138046881Y-96331678D01*
X138189738Y-96295964D02*
X138475452Y-96295964D01*
X138332595Y-97045964D02*
X138332595Y-96295964D01*
X137112380Y-102009035D02*
X137088571Y-102044750D01*
X137088571Y-102044750D02*
X137017142Y-102080464D01*
X137017142Y-102080464D02*
X136969523Y-102080464D01*
X136969523Y-102080464D02*
X136898095Y-102044750D01*
X136898095Y-102044750D02*
X136850476Y-101973321D01*
X136850476Y-101973321D02*
X136826666Y-101901892D01*
X136826666Y-101901892D02*
X136802857Y-101759035D01*
X136802857Y-101759035D02*
X136802857Y-101651892D01*
X136802857Y-101651892D02*
X136826666Y-101509035D01*
X136826666Y-101509035D02*
X136850476Y-101437607D01*
X136850476Y-101437607D02*
X136898095Y-101366178D01*
X136898095Y-101366178D02*
X136969523Y-101330464D01*
X136969523Y-101330464D02*
X137017142Y-101330464D01*
X137017142Y-101330464D02*
X137088571Y-101366178D01*
X137088571Y-101366178D02*
X137112380Y-101401892D01*
X137421904Y-101330464D02*
X137517142Y-101330464D01*
X137517142Y-101330464D02*
X137564761Y-101366178D01*
X137564761Y-101366178D02*
X137612380Y-101437607D01*
X137612380Y-101437607D02*
X137636190Y-101580464D01*
X137636190Y-101580464D02*
X137636190Y-101830464D01*
X137636190Y-101830464D02*
X137612380Y-101973321D01*
X137612380Y-101973321D02*
X137564761Y-102044750D01*
X137564761Y-102044750D02*
X137517142Y-102080464D01*
X137517142Y-102080464D02*
X137421904Y-102080464D01*
X137421904Y-102080464D02*
X137374285Y-102044750D01*
X137374285Y-102044750D02*
X137326666Y-101973321D01*
X137326666Y-101973321D02*
X137302857Y-101830464D01*
X137302857Y-101830464D02*
X137302857Y-101580464D01*
X137302857Y-101580464D02*
X137326666Y-101437607D01*
X137326666Y-101437607D02*
X137374285Y-101366178D01*
X137374285Y-101366178D02*
X137421904Y-101330464D01*
X138088571Y-102080464D02*
X137850476Y-102080464D01*
X137850476Y-102080464D02*
X137850476Y-101330464D01*
X138350476Y-101330464D02*
X138398095Y-101330464D01*
X138398095Y-101330464D02*
X138445714Y-101366178D01*
X138445714Y-101366178D02*
X138469524Y-101401892D01*
X138469524Y-101401892D02*
X138493333Y-101473321D01*
X138493333Y-101473321D02*
X138517143Y-101616178D01*
X138517143Y-101616178D02*
X138517143Y-101794750D01*
X138517143Y-101794750D02*
X138493333Y-101937607D01*
X138493333Y-101937607D02*
X138469524Y-102009035D01*
X138469524Y-102009035D02*
X138445714Y-102044750D01*
X138445714Y-102044750D02*
X138398095Y-102080464D01*
X138398095Y-102080464D02*
X138350476Y-102080464D01*
X138350476Y-102080464D02*
X138302857Y-102044750D01*
X138302857Y-102044750D02*
X138279048Y-102009035D01*
X138279048Y-102009035D02*
X138255238Y-101937607D01*
X138255238Y-101937607D02*
X138231429Y-101794750D01*
X138231429Y-101794750D02*
X138231429Y-101616178D01*
X138231429Y-101616178D02*
X138255238Y-101473321D01*
X138255238Y-101473321D02*
X138279048Y-101401892D01*
X138279048Y-101401892D02*
X138302857Y-101366178D01*
X138302857Y-101366178D02*
X138350476Y-101330464D01*
D11*
X183973312Y-103423734D02*
X183354723Y-103780877D01*
X183354723Y-103780877D02*
X183207195Y-103811066D01*
X183207195Y-103811066D02*
X183077098Y-103776206D01*
X183077098Y-103776206D02*
X182964430Y-103676298D01*
X182964430Y-103676298D02*
X182916811Y-103593819D01*
X184163789Y-103753648D02*
X184497122Y-104330999D01*
X184497122Y-104330999D02*
X183416811Y-104459845D01*
X81603353Y-154861084D02*
X82221943Y-155218227D01*
X82221943Y-155218227D02*
X82321851Y-155330895D01*
X82321851Y-155330895D02*
X82356711Y-155460993D01*
X82356711Y-155460993D02*
X82326521Y-155608520D01*
X82326521Y-155608520D02*
X82278902Y-155690999D01*
X81793830Y-154531170D02*
X82103353Y-153995059D01*
X82103353Y-153995059D02*
X82266601Y-154474210D01*
X82266601Y-154474210D02*
X82338030Y-154350492D01*
X82338030Y-154350492D02*
X82426888Y-154291823D01*
X82426888Y-154291823D02*
X82491937Y-154274393D01*
X82491937Y-154274393D02*
X82598225Y-154280773D01*
X82598225Y-154280773D02*
X82804422Y-154399821D01*
X82804422Y-154399821D02*
X82863091Y-154488679D01*
X82863091Y-154488679D02*
X82880520Y-154553728D01*
X82880520Y-154553728D02*
X82874141Y-154660016D01*
X82874141Y-154660016D02*
X82731283Y-154907452D01*
X82731283Y-154907452D02*
X82642425Y-154966121D01*
X82642425Y-154966121D02*
X82577376Y-154983551D01*
X146192618Y-129024819D02*
X145859285Y-128548628D01*
X145621190Y-129024819D02*
X145621190Y-128024819D01*
X145621190Y-128024819D02*
X146002142Y-128024819D01*
X146002142Y-128024819D02*
X146097380Y-128072438D01*
X146097380Y-128072438D02*
X146144999Y-128120057D01*
X146144999Y-128120057D02*
X146192618Y-128215295D01*
X146192618Y-128215295D02*
X146192618Y-128358152D01*
X146192618Y-128358152D02*
X146144999Y-128453390D01*
X146144999Y-128453390D02*
X146097380Y-128501009D01*
X146097380Y-128501009D02*
X146002142Y-128548628D01*
X146002142Y-128548628D02*
X145621190Y-128548628D01*
X146621190Y-128501009D02*
X146954523Y-128501009D01*
X147097380Y-129024819D02*
X146621190Y-129024819D01*
X146621190Y-129024819D02*
X146621190Y-128024819D01*
X146621190Y-128024819D02*
X147097380Y-128024819D01*
X147478333Y-128977200D02*
X147621190Y-129024819D01*
X147621190Y-129024819D02*
X147859285Y-129024819D01*
X147859285Y-129024819D02*
X147954523Y-128977200D01*
X147954523Y-128977200D02*
X148002142Y-128929580D01*
X148002142Y-128929580D02*
X148049761Y-128834342D01*
X148049761Y-128834342D02*
X148049761Y-128739104D01*
X148049761Y-128739104D02*
X148002142Y-128643866D01*
X148002142Y-128643866D02*
X147954523Y-128596247D01*
X147954523Y-128596247D02*
X147859285Y-128548628D01*
X147859285Y-128548628D02*
X147668809Y-128501009D01*
X147668809Y-128501009D02*
X147573571Y-128453390D01*
X147573571Y-128453390D02*
X147525952Y-128405771D01*
X147525952Y-128405771D02*
X147478333Y-128310533D01*
X147478333Y-128310533D02*
X147478333Y-128215295D01*
X147478333Y-128215295D02*
X147525952Y-128120057D01*
X147525952Y-128120057D02*
X147573571Y-128072438D01*
X147573571Y-128072438D02*
X147668809Y-128024819D01*
X147668809Y-128024819D02*
X147906904Y-128024819D01*
X147906904Y-128024819D02*
X148049761Y-128072438D01*
X148478333Y-128501009D02*
X148811666Y-128501009D01*
X148954523Y-129024819D02*
X148478333Y-129024819D01*
X148478333Y-129024819D02*
X148478333Y-128024819D01*
X148478333Y-128024819D02*
X148954523Y-128024819D01*
X149240238Y-128024819D02*
X149811666Y-128024819D01*
X149525952Y-129024819D02*
X149525952Y-128024819D01*
X139853353Y-54151084D02*
X140471943Y-54508227D01*
X140471943Y-54508227D02*
X140571851Y-54620895D01*
X140571851Y-54620895D02*
X140606711Y-54750993D01*
X140606711Y-54750993D02*
X140576521Y-54898520D01*
X140576521Y-54898520D02*
X140528902Y-54980999D01*
X140329544Y-53326298D02*
X140091449Y-53738691D01*
X140091449Y-53738691D02*
X140480032Y-54018026D01*
X140480032Y-54018026D02*
X140462602Y-53952977D01*
X140462602Y-53952977D02*
X140468982Y-53846689D01*
X140468982Y-53846689D02*
X140588030Y-53640492D01*
X140588030Y-53640492D02*
X140676888Y-53581823D01*
X140676888Y-53581823D02*
X140741937Y-53564393D01*
X140741937Y-53564393D02*
X140848225Y-53570773D01*
X140848225Y-53570773D02*
X141054422Y-53689821D01*
X141054422Y-53689821D02*
X141113091Y-53778679D01*
X141113091Y-53778679D02*
X141130520Y-53843728D01*
X141130520Y-53843728D02*
X141124141Y-53950016D01*
X141124141Y-53950016D02*
X141005093Y-54156212D01*
X141005093Y-54156212D02*
X140916235Y-54214882D01*
X140916235Y-54214882D02*
X140851186Y-54232311D01*
X154883312Y-53413734D02*
X154264723Y-53770877D01*
X154264723Y-53770877D02*
X154117195Y-53801066D01*
X154117195Y-53801066D02*
X153987098Y-53766206D01*
X153987098Y-53766206D02*
X153874430Y-53666298D01*
X153874430Y-53666298D02*
X153826811Y-53583819D01*
X154821683Y-54164131D02*
X154815303Y-54057843D01*
X154815303Y-54057843D02*
X154832733Y-53992794D01*
X154832733Y-53992794D02*
X154891402Y-53903935D01*
X154891402Y-53903935D02*
X154932641Y-53880126D01*
X154932641Y-53880126D02*
X155038929Y-53873746D01*
X155038929Y-53873746D02*
X155103978Y-53891176D01*
X155103978Y-53891176D02*
X155192836Y-53949845D01*
X155192836Y-53949845D02*
X155288074Y-54114802D01*
X155288074Y-54114802D02*
X155294454Y-54221090D01*
X155294454Y-54221090D02*
X155277024Y-54286139D01*
X155277024Y-54286139D02*
X155218355Y-54374997D01*
X155218355Y-54374997D02*
X155177116Y-54398807D01*
X155177116Y-54398807D02*
X155070828Y-54405187D01*
X155070828Y-54405187D02*
X155005779Y-54387757D01*
X155005779Y-54387757D02*
X154916921Y-54329088D01*
X154916921Y-54329088D02*
X154821683Y-54164131D01*
X154821683Y-54164131D02*
X154732824Y-54105462D01*
X154732824Y-54105462D02*
X154667775Y-54088032D01*
X154667775Y-54088032D02*
X154561487Y-54094412D01*
X154561487Y-54094412D02*
X154396530Y-54189650D01*
X154396530Y-54189650D02*
X154337861Y-54278508D01*
X154337861Y-54278508D02*
X154320431Y-54343557D01*
X154320431Y-54343557D02*
X154326811Y-54449845D01*
X154326811Y-54449845D02*
X154422049Y-54614802D01*
X154422049Y-54614802D02*
X154510907Y-54673471D01*
X154510907Y-54673471D02*
X154575956Y-54690901D01*
X154575956Y-54690901D02*
X154682244Y-54684521D01*
X154682244Y-54684521D02*
X154847201Y-54589283D01*
X154847201Y-54589283D02*
X154905871Y-54500425D01*
X154905871Y-54500425D02*
X154923300Y-54435376D01*
X154923300Y-54435376D02*
X154916921Y-54329088D01*
X110203353Y-105061084D02*
X110821943Y-105418227D01*
X110821943Y-105418227D02*
X110921851Y-105530895D01*
X110921851Y-105530895D02*
X110956711Y-105660993D01*
X110956711Y-105660993D02*
X110926521Y-105808520D01*
X110926521Y-105808520D02*
X110878902Y-105890999D01*
X110944409Y-104444204D02*
X111521760Y-104777537D01*
X110495447Y-104459924D02*
X110994989Y-105023264D01*
X110994989Y-105023264D02*
X111304513Y-104487153D01*
X212973312Y-153743734D02*
X212354723Y-154100877D01*
X212354723Y-154100877D02*
X212207195Y-154131066D01*
X212207195Y-154131066D02*
X212077098Y-154096206D01*
X212077098Y-154096206D02*
X211964430Y-153996298D01*
X211964430Y-153996298D02*
X211916811Y-153913819D01*
X213425693Y-154527281D02*
X213330455Y-154362324D01*
X213330455Y-154362324D02*
X213241597Y-154303654D01*
X213241597Y-154303654D02*
X213176548Y-154286225D01*
X213176548Y-154286225D02*
X213005211Y-154275175D01*
X213005211Y-154275175D02*
X212816444Y-154329173D01*
X212816444Y-154329173D02*
X212486530Y-154519650D01*
X212486530Y-154519650D02*
X212427861Y-154608508D01*
X212427861Y-154608508D02*
X212410431Y-154673557D01*
X212410431Y-154673557D02*
X212416811Y-154779845D01*
X212416811Y-154779845D02*
X212512049Y-154944802D01*
X212512049Y-154944802D02*
X212600907Y-155003471D01*
X212600907Y-155003471D02*
X212665956Y-155020901D01*
X212665956Y-155020901D02*
X212772244Y-155014521D01*
X212772244Y-155014521D02*
X212978441Y-154895474D01*
X212978441Y-154895474D02*
X213037110Y-154806615D01*
X213037110Y-154806615D02*
X213054540Y-154741566D01*
X213054540Y-154741566D02*
X213048160Y-154635278D01*
X213048160Y-154635278D02*
X212952922Y-154470321D01*
X212952922Y-154470321D02*
X212864063Y-154411652D01*
X212864063Y-154411652D02*
X212799015Y-154394222D01*
X212799015Y-154394222D02*
X212692726Y-154400602D01*
%TO.C,D17*%
X141787500Y-153730000D02*
X143287500Y-153730000D01*
X143287500Y-153730000D02*
X143287500Y-148330000D01*
X142037500Y-151530000D02*
X143037500Y-151530000D01*
X142537500Y-151430000D02*
X142037500Y-150530000D01*
X142037500Y-150530000D02*
X143037500Y-150530000D01*
X143037500Y-150530000D02*
X142537500Y-151430000D01*
X141787500Y-148330000D02*
X141787500Y-153730000D01*
X143287500Y-148330000D02*
X141787500Y-148330000D01*
%TO.C,U1*%
X138726400Y-90292000D02*
X141266400Y-90292000D01*
X138726400Y-120772000D02*
X138726400Y-90292000D01*
X141266400Y-90292000D02*
X141266400Y-120772000D01*
X141266400Y-120772000D02*
X138726400Y-120772000D01*
X153946400Y-90292000D02*
X156486400Y-90292000D01*
X153946400Y-120772000D02*
X153946400Y-90292000D01*
X156486400Y-90292000D02*
X156486400Y-120772000D01*
X156486400Y-120772000D02*
X153946400Y-120772000D01*
D13*
%TO.C,J7*%
X182136814Y-103333186D02*
X182801814Y-104485000D01*
X180985000Y-103998186D02*
X182136814Y-103333186D01*
X179885148Y-104633186D02*
X179833186Y-104663186D01*
X179885148Y-104633186D02*
X181215148Y-106936814D01*
X179833186Y-104663186D02*
X181163186Y-106966814D01*
X181215148Y-106936814D02*
X181163186Y-106966814D01*
D11*
%TO.C,D11*%
X131092500Y-131270000D02*
X132592500Y-131270000D01*
X132592500Y-131270000D02*
X132592500Y-125870000D01*
X131342500Y-129070000D02*
X132342500Y-129070000D01*
X131842500Y-128970000D02*
X131342500Y-128070000D01*
X131342500Y-128070000D02*
X132342500Y-128070000D01*
X132342500Y-128070000D02*
X131842500Y-128970000D01*
X131092500Y-125870000D02*
X131092500Y-131270000D01*
X132592500Y-125870000D02*
X131092500Y-125870000D01*
%TO.C,D25*%
X163975000Y-131230000D02*
X165475000Y-131230000D01*
X165475000Y-131230000D02*
X165475000Y-125830000D01*
X164225000Y-129030000D02*
X165225000Y-129030000D01*
X164725000Y-128930000D02*
X164225000Y-128030000D01*
X164225000Y-128030000D02*
X165225000Y-128030000D01*
X165225000Y-128030000D02*
X164725000Y-128930000D01*
X163975000Y-125830000D02*
X163975000Y-131230000D01*
X165475000Y-125830000D02*
X163975000Y-125830000D01*
%TO.C,D9*%
X117847500Y-142745000D02*
X119347500Y-142745000D01*
X119347500Y-142745000D02*
X119347500Y-137345000D01*
X118097500Y-140545000D02*
X119097500Y-140545000D01*
X118597500Y-140445000D02*
X118097500Y-139545000D01*
X118097500Y-139545000D02*
X119097500Y-139545000D01*
X119097500Y-139545000D02*
X118597500Y-140445000D01*
X117847500Y-137345000D02*
X117847500Y-142745000D01*
X119347500Y-137345000D02*
X117847500Y-137345000D01*
%TO.C,D33*%
X190450000Y-153730000D02*
X191950000Y-153730000D01*
X191950000Y-153730000D02*
X191950000Y-148330000D01*
X190700000Y-151530000D02*
X191700000Y-151530000D01*
X191200000Y-151430000D02*
X190700000Y-150530000D01*
X190700000Y-150530000D02*
X191700000Y-150530000D01*
X191700000Y-150530000D02*
X191200000Y-151430000D01*
X190450000Y-148330000D02*
X190450000Y-153730000D01*
X191950000Y-148330000D02*
X190450000Y-148330000D01*
%TO.C,D30*%
X187812500Y-153730000D02*
X189312500Y-153730000D01*
X189312500Y-153730000D02*
X189312500Y-148330000D01*
X188062500Y-151530000D02*
X189062500Y-151530000D01*
X188562500Y-151430000D02*
X188062500Y-150530000D01*
X188062500Y-150530000D02*
X189062500Y-150530000D01*
X189062500Y-150530000D02*
X188562500Y-151430000D01*
X187812500Y-148330000D02*
X187812500Y-153730000D01*
X189312500Y-148330000D02*
X187812500Y-148330000D01*
%TO.C,D4*%
X139150000Y-153730000D02*
X140650000Y-153730000D01*
X140650000Y-153730000D02*
X140650000Y-148330000D01*
X139400000Y-151530000D02*
X140400000Y-151530000D01*
X139900000Y-151430000D02*
X139400000Y-150530000D01*
X139400000Y-150530000D02*
X140400000Y-150530000D01*
X140400000Y-150530000D02*
X139900000Y-151430000D01*
X139150000Y-148330000D02*
X139150000Y-153730000D01*
X140650000Y-148330000D02*
X139150000Y-148330000D01*
%TO.C,D31*%
X169250000Y-131230000D02*
X170750000Y-131230000D01*
X170750000Y-131230000D02*
X170750000Y-125830000D01*
X169500000Y-129030000D02*
X170500000Y-129030000D01*
X170000000Y-128930000D02*
X169500000Y-128030000D01*
X169500000Y-128030000D02*
X170500000Y-128030000D01*
X170500000Y-128030000D02*
X170000000Y-128930000D01*
X169250000Y-125830000D02*
X169250000Y-131230000D01*
X170750000Y-125830000D02*
X169250000Y-125830000D01*
D13*
%TO.C,J1*%
X-12376012Y-54994737D02*
X-11224198Y-55659737D01*
X-13041012Y-56146551D02*
X-12376012Y-54994737D01*
X-13676012Y-57246403D02*
X-27676012Y-81495115D01*
X-13676012Y-57246403D02*
X-11424345Y-58546403D01*
X-27676012Y-81495115D02*
X-22064167Y-84735115D01*
X-10124345Y-56294737D02*
X-6720866Y-58259737D01*
X-11424345Y-58546403D02*
X-10124345Y-56294737D01*
X-6713186Y-58206436D02*
X-22013186Y-84706813D01*
D11*
%TO.C,D15*%
X123122500Y-142745000D02*
X124622500Y-142745000D01*
X124622500Y-142745000D02*
X124622500Y-137345000D01*
X123372500Y-140545000D02*
X124372500Y-140545000D01*
X123872500Y-140445000D02*
X123372500Y-139545000D01*
X123372500Y-139545000D02*
X124372500Y-139545000D01*
X124372500Y-139545000D02*
X123872500Y-140445000D01*
X123122500Y-137345000D02*
X123122500Y-142745000D01*
X124622500Y-137345000D02*
X123122500Y-137345000D01*
%TO.C,D3*%
X101865000Y-153750000D02*
X103365000Y-153750000D01*
X103365000Y-153750000D02*
X103365000Y-148350000D01*
X102115000Y-151550000D02*
X103115000Y-151550000D01*
X102615000Y-151450000D02*
X102115000Y-150550000D01*
X102115000Y-150550000D02*
X103115000Y-150550000D01*
X103115000Y-150550000D02*
X102615000Y-151450000D01*
X101865000Y-148350000D02*
X101865000Y-153750000D01*
X103365000Y-148350000D02*
X101865000Y-148350000D01*
%TO.C,D27*%
X185175000Y-153730000D02*
X186675000Y-153730000D01*
X186675000Y-153730000D02*
X186675000Y-148330000D01*
X185425000Y-151530000D02*
X186425000Y-151530000D01*
X185925000Y-151430000D02*
X185425000Y-150530000D01*
X185425000Y-150530000D02*
X186425000Y-150530000D01*
X186425000Y-150530000D02*
X185925000Y-151430000D01*
X185175000Y-148330000D02*
X185175000Y-153730000D01*
X186675000Y-148330000D02*
X185175000Y-148330000D01*
%TO.C,D7*%
X104502500Y-153750000D02*
X106002500Y-153750000D01*
X106002500Y-153750000D02*
X106002500Y-148350000D01*
X104752500Y-151550000D02*
X105752500Y-151550000D01*
X105252500Y-151450000D02*
X104752500Y-150550000D01*
X104752500Y-150550000D02*
X105752500Y-150550000D01*
X105752500Y-150550000D02*
X105252500Y-151450000D01*
X104502500Y-148350000D02*
X104502500Y-153750000D01*
X106002500Y-148350000D02*
X104502500Y-148350000D01*
%TO.C,D26*%
X174585000Y-142710000D02*
X176085000Y-142710000D01*
X176085000Y-142710000D02*
X176085000Y-137310000D01*
X174835000Y-140510000D02*
X175835000Y-140510000D01*
X175335000Y-140410000D02*
X174835000Y-139510000D01*
X174835000Y-139510000D02*
X175835000Y-139510000D01*
X175835000Y-139510000D02*
X175335000Y-140410000D01*
X174585000Y-137310000D02*
X174585000Y-142710000D01*
X176085000Y-137310000D02*
X174585000Y-137310000D01*
D13*
%TO.C,J3*%
X82443186Y-156496814D02*
X83108186Y-155345000D01*
X83595000Y-157161814D02*
X82443186Y-156496814D01*
X84694852Y-157796814D02*
X84746814Y-157826814D01*
X84694852Y-157796814D02*
X86024852Y-155493186D01*
X84746814Y-157826814D02*
X86076814Y-155523186D01*
X86024852Y-155493186D02*
X86076814Y-155523186D01*
D11*
%TO.C,D23*%
X171947500Y-142710000D02*
X173447500Y-142710000D01*
X173447500Y-142710000D02*
X173447500Y-137310000D01*
X172197500Y-140510000D02*
X173197500Y-140510000D01*
X172697500Y-140410000D02*
X172197500Y-139510000D01*
X172197500Y-139510000D02*
X173197500Y-139510000D01*
X173197500Y-139510000D02*
X172697500Y-140410000D01*
X171947500Y-137310000D02*
X171947500Y-142710000D01*
X173447500Y-137310000D02*
X171947500Y-137310000D01*
%TO.C,D34*%
X154667500Y-153750000D02*
X156167500Y-153750000D01*
X156167500Y-153750000D02*
X156167500Y-148350000D01*
X154917500Y-151550000D02*
X155917500Y-151550000D01*
X155417500Y-151450000D02*
X154917500Y-150550000D01*
X154917500Y-150550000D02*
X155917500Y-150550000D01*
X155917500Y-150550000D02*
X155417500Y-151450000D01*
X154667500Y-148350000D02*
X154667500Y-153750000D01*
X156167500Y-148350000D02*
X154667500Y-148350000D01*
%TO.C,D5*%
X125817500Y-131270000D02*
X127317500Y-131270000D01*
X127317500Y-131270000D02*
X127317500Y-125870000D01*
X126067500Y-129070000D02*
X127067500Y-129070000D01*
X126567500Y-128970000D02*
X126067500Y-128070000D01*
X126067500Y-128070000D02*
X127067500Y-128070000D01*
X127067500Y-128070000D02*
X126567500Y-128970000D01*
X125817500Y-125870000D02*
X125817500Y-131270000D01*
X127317500Y-125870000D02*
X125817500Y-125870000D01*
%TO.C,D29*%
X177222500Y-142710000D02*
X178722500Y-142710000D01*
X178722500Y-142710000D02*
X178722500Y-137310000D01*
X177472500Y-140510000D02*
X178472500Y-140510000D01*
X177972500Y-140410000D02*
X177472500Y-139510000D01*
X177472500Y-139510000D02*
X178472500Y-139510000D01*
X178472500Y-139510000D02*
X177972500Y-140410000D01*
X177222500Y-137310000D02*
X177222500Y-142710000D01*
X178722500Y-137310000D02*
X177222500Y-137310000D01*
%TO.C,D18*%
X158700000Y-131230000D02*
X160200000Y-131230000D01*
X160200000Y-131230000D02*
X160200000Y-125830000D01*
X158950000Y-129030000D02*
X159950000Y-129030000D01*
X159450000Y-128930000D02*
X158950000Y-128030000D01*
X158950000Y-128030000D02*
X159950000Y-128030000D01*
X159950000Y-128030000D02*
X159450000Y-128930000D01*
X158700000Y-125830000D02*
X158700000Y-131230000D01*
X160200000Y-125830000D02*
X158700000Y-125830000D01*
%TO.C,D16*%
X112415000Y-153750000D02*
X113915000Y-153750000D01*
X113915000Y-153750000D02*
X113915000Y-148350000D01*
X112665000Y-151550000D02*
X113665000Y-151550000D01*
X113165000Y-151450000D02*
X112665000Y-150550000D01*
X112665000Y-150550000D02*
X113665000Y-150550000D01*
X113665000Y-150550000D02*
X113165000Y-151450000D01*
X112415000Y-148350000D02*
X112415000Y-153750000D01*
X113915000Y-148350000D02*
X112415000Y-148350000D01*
%TO.C,D22*%
X161337500Y-131230000D02*
X162837500Y-131230000D01*
X162837500Y-131230000D02*
X162837500Y-125830000D01*
X161587500Y-129030000D02*
X162587500Y-129030000D01*
X162087500Y-128930000D02*
X161587500Y-128030000D01*
X161587500Y-128030000D02*
X162587500Y-128030000D01*
X162587500Y-128030000D02*
X162087500Y-128930000D01*
X161337500Y-125830000D02*
X161337500Y-131230000D01*
X162837500Y-125830000D02*
X161337500Y-125830000D01*
%TO.C,D14*%
X133730000Y-131270000D02*
X135230000Y-131270000D01*
X135230000Y-131270000D02*
X135230000Y-125870000D01*
X133980000Y-129070000D02*
X134980000Y-129070000D01*
X134480000Y-128970000D02*
X133980000Y-128070000D01*
X133980000Y-128070000D02*
X134980000Y-128070000D01*
X134980000Y-128070000D02*
X134480000Y-128970000D01*
X133730000Y-125870000D02*
X133730000Y-131270000D01*
X135230000Y-125870000D02*
X133730000Y-125870000D01*
%TO.C,SW1*%
X150645000Y-130320000D02*
X150645000Y-130070000D01*
X150645000Y-130320000D02*
X144645000Y-130320000D01*
X150645000Y-126820000D02*
X150645000Y-127070000D01*
X150645000Y-126820000D02*
X144645000Y-126820000D01*
X144645000Y-130320000D02*
X144645000Y-130070000D01*
X144645000Y-126820000D02*
X144645000Y-127070000D01*
%TO.C,D20*%
X179900000Y-153730000D02*
X181400000Y-153730000D01*
X181400000Y-153730000D02*
X181400000Y-148330000D01*
X180150000Y-151530000D02*
X181150000Y-151530000D01*
X180650000Y-151430000D02*
X180150000Y-150530000D01*
X180150000Y-150530000D02*
X181150000Y-150530000D01*
X181150000Y-150530000D02*
X180650000Y-151430000D01*
X179900000Y-148330000D02*
X179900000Y-153730000D01*
X181400000Y-148330000D02*
X179900000Y-148330000D01*
%TO.C,D10*%
X107140000Y-153750000D02*
X108640000Y-153750000D01*
X108640000Y-153750000D02*
X108640000Y-148350000D01*
X107390000Y-151550000D02*
X108390000Y-151550000D01*
X107890000Y-151450000D02*
X107390000Y-150550000D01*
X107390000Y-150550000D02*
X108390000Y-150550000D01*
X108390000Y-150550000D02*
X107890000Y-151450000D01*
X107140000Y-148350000D02*
X107140000Y-153750000D01*
X108640000Y-148350000D02*
X107140000Y-148350000D01*
D13*
%TO.C,J5*%
X140693186Y-55786814D02*
X141358186Y-54635000D01*
X141845000Y-56451814D02*
X140693186Y-55786814D01*
X142944852Y-57086814D02*
X142996814Y-57116814D01*
X142944852Y-57086814D02*
X144274852Y-54783186D01*
X142996814Y-57116814D02*
X144326814Y-54813186D01*
X144274852Y-54783186D02*
X144326814Y-54813186D01*
D11*
%TO.C,D21*%
X152030000Y-153750000D02*
X153530000Y-153750000D01*
X153530000Y-153750000D02*
X153530000Y-148350000D01*
X152280000Y-151550000D02*
X153280000Y-151550000D01*
X152780000Y-151450000D02*
X152280000Y-150550000D01*
X152280000Y-150550000D02*
X153280000Y-150550000D01*
X153280000Y-150550000D02*
X152780000Y-151450000D01*
X152030000Y-148350000D02*
X152030000Y-153750000D01*
X153530000Y-148350000D02*
X152030000Y-148350000D01*
%TO.C,D28*%
X166612500Y-131230000D02*
X168112500Y-131230000D01*
X168112500Y-131230000D02*
X168112500Y-125830000D01*
X166862500Y-129030000D02*
X167862500Y-129030000D01*
X167362500Y-128930000D02*
X166862500Y-128030000D01*
X166862500Y-128030000D02*
X167862500Y-128030000D01*
X167862500Y-128030000D02*
X167362500Y-128930000D01*
X166612500Y-125830000D02*
X166612500Y-131230000D01*
X168112500Y-125830000D02*
X166612500Y-125830000D01*
D13*
%TO.C,J8*%
X153046814Y-53323186D02*
X153711814Y-54475000D01*
X151895000Y-53988186D02*
X153046814Y-53323186D01*
X150795148Y-54623186D02*
X150743186Y-54653186D01*
X150795148Y-54623186D02*
X152125148Y-56926814D01*
X150743186Y-54653186D02*
X152073186Y-56956814D01*
X152125148Y-56926814D02*
X152073186Y-56956814D01*
D11*
%TO.C,D1*%
X123180000Y-131270000D02*
X124680000Y-131270000D01*
X124680000Y-131270000D02*
X124680000Y-125870000D01*
X123430000Y-129070000D02*
X124430000Y-129070000D01*
X123930000Y-128970000D02*
X123430000Y-128070000D01*
X123430000Y-128070000D02*
X124430000Y-128070000D01*
X124430000Y-128070000D02*
X123930000Y-128970000D01*
X123180000Y-125870000D02*
X123180000Y-131270000D01*
X124680000Y-125870000D02*
X123180000Y-125870000D01*
%TO.C,D24*%
X182537500Y-153730000D02*
X184037500Y-153730000D01*
X184037500Y-153730000D02*
X184037500Y-148330000D01*
X182787500Y-151530000D02*
X183787500Y-151530000D01*
X183287500Y-151430000D02*
X182787500Y-150530000D01*
X182787500Y-150530000D02*
X183787500Y-150530000D01*
X183787500Y-150530000D02*
X183287500Y-151430000D01*
X182537500Y-148330000D02*
X182537500Y-153730000D01*
X184037500Y-148330000D02*
X182537500Y-148330000D01*
%TO.C,D2*%
X112572500Y-142745000D02*
X114072500Y-142745000D01*
X114072500Y-142745000D02*
X114072500Y-137345000D01*
X112822500Y-140545000D02*
X113822500Y-140545000D01*
X113322500Y-140445000D02*
X112822500Y-139545000D01*
X112822500Y-139545000D02*
X113822500Y-139545000D01*
X113822500Y-139545000D02*
X113322500Y-140445000D01*
X112572500Y-137345000D02*
X112572500Y-142745000D01*
X114072500Y-137345000D02*
X112572500Y-137345000D01*
%TO.C,D12*%
X120485000Y-142745000D02*
X121985000Y-142745000D01*
X121985000Y-142745000D02*
X121985000Y-137345000D01*
X120735000Y-140545000D02*
X121735000Y-140545000D01*
X121235000Y-140445000D02*
X120735000Y-139545000D01*
X120735000Y-139545000D02*
X121735000Y-139545000D01*
X121735000Y-139545000D02*
X121235000Y-140445000D01*
X120485000Y-137345000D02*
X120485000Y-142745000D01*
X121985000Y-137345000D02*
X120485000Y-137345000D01*
D13*
%TO.C,J4*%
X111043186Y-106696814D02*
X111708186Y-105545000D01*
X112195000Y-107361814D02*
X111043186Y-106696814D01*
X113294852Y-107996814D02*
X113346814Y-108026814D01*
X113294852Y-107996814D02*
X114624852Y-105693186D01*
X113346814Y-108026814D02*
X114676814Y-105723186D01*
X114624852Y-105693186D02*
X114676814Y-105723186D01*
%TO.C,J6*%
X211136814Y-153653186D02*
X211801814Y-154805000D01*
X209985000Y-154318186D02*
X211136814Y-153653186D01*
X208885148Y-154953186D02*
X208833186Y-154983186D01*
X208885148Y-154953186D02*
X210215148Y-157256814D01*
X208833186Y-154983186D02*
X210163186Y-157286814D01*
X210215148Y-157256814D02*
X210163186Y-157286814D01*
D11*
%TO.C,D6*%
X115210000Y-142745000D02*
X116710000Y-142745000D01*
X116710000Y-142745000D02*
X116710000Y-137345000D01*
X115460000Y-140545000D02*
X116460000Y-140545000D01*
X115960000Y-140445000D02*
X115460000Y-139545000D01*
X115460000Y-139545000D02*
X116460000Y-139545000D01*
X116460000Y-139545000D02*
X115960000Y-140445000D01*
X115210000Y-137345000D02*
X115210000Y-142745000D01*
X116710000Y-137345000D02*
X115210000Y-137345000D01*
%TO.C,D8*%
X128455000Y-131270000D02*
X129955000Y-131270000D01*
X129955000Y-131270000D02*
X129955000Y-125870000D01*
X128705000Y-129070000D02*
X129705000Y-129070000D01*
X129205000Y-128970000D02*
X128705000Y-128070000D01*
X128705000Y-128070000D02*
X129705000Y-128070000D01*
X129705000Y-128070000D02*
X129205000Y-128970000D01*
X128455000Y-125870000D02*
X128455000Y-131270000D01*
X129955000Y-125870000D02*
X128455000Y-125870000D01*
%TO.C,D13*%
X109777500Y-153750000D02*
X111277500Y-153750000D01*
X111277500Y-153750000D02*
X111277500Y-148350000D01*
X110027500Y-151550000D02*
X111027500Y-151550000D01*
X110527500Y-151450000D02*
X110027500Y-150550000D01*
X110027500Y-150550000D02*
X111027500Y-150550000D01*
X111027500Y-150550000D02*
X110527500Y-151450000D01*
X109777500Y-148350000D02*
X109777500Y-153750000D01*
X111277500Y-148350000D02*
X109777500Y-148350000D01*
%TO.C,D19*%
X169310000Y-142710000D02*
X170810000Y-142710000D01*
X170810000Y-142710000D02*
X170810000Y-137310000D01*
X169560000Y-140510000D02*
X170560000Y-140510000D01*
X170060000Y-140410000D02*
X169560000Y-139510000D01*
X169560000Y-139510000D02*
X170560000Y-139510000D01*
X170560000Y-139510000D02*
X170060000Y-140410000D01*
X169310000Y-137310000D02*
X169310000Y-142710000D01*
X170810000Y-137310000D02*
X169310000Y-137310000D01*
%TO.C,D32*%
X179860000Y-142710000D02*
X181360000Y-142710000D01*
X181360000Y-142710000D02*
X181360000Y-137310000D01*
X180110000Y-140510000D02*
X181110000Y-140510000D01*
X180610000Y-140410000D02*
X180110000Y-139510000D01*
X180110000Y-139510000D02*
X181110000Y-139510000D01*
X181110000Y-139510000D02*
X180610000Y-140410000D01*
X179860000Y-137310000D02*
X179860000Y-142710000D01*
X181360000Y-137310000D02*
X179860000Y-137310000D01*
%TD*%
D14*
%TO.C,SW35*%
X295583097Y-97224801D03*
D15*
X300490000Y-95910000D03*
D14*
X305396903Y-94595199D03*
%TD*%
D16*
%TO.C,D17*%
X142537500Y-154840000D03*
D17*
X142537500Y-147220000D03*
%TD*%
D18*
%TO.C,U1*%
X155216400Y-91562000D03*
X155216400Y-94102000D03*
X155216400Y-96642000D03*
X155216400Y-99182000D03*
X155216400Y-101722000D03*
X155216400Y-104262000D03*
X155216400Y-106802000D03*
X155216400Y-109342000D03*
X155216400Y-111882000D03*
X155216400Y-114422000D03*
X155216400Y-116962000D03*
X155216400Y-119502000D03*
X139996400Y-119502000D03*
X139996400Y-116962000D03*
X139996400Y-114422000D03*
X139996400Y-111882000D03*
X139996400Y-109342000D03*
X139996400Y-106802000D03*
X139996400Y-104262000D03*
X139996400Y-101722000D03*
X139996400Y-99182000D03*
X139996400Y-96642000D03*
X139996400Y-94102000D03*
X139996400Y-91562000D03*
%TD*%
D14*
%TO.C,SW13*%
X76840000Y-63010000D03*
D15*
X81001292Y-65923768D03*
D14*
X85162584Y-68837536D03*
%TD*%
D16*
%TO.C,D11*%
X131842500Y-132380000D03*
D17*
X131842500Y-124760000D03*
%TD*%
D14*
%TO.C,SW30*%
X251544126Y-40606925D03*
D15*
X256110000Y-38380000D03*
D14*
X260675874Y-36153075D03*
%TD*%
D16*
%TO.C,D25*%
X164725000Y-132340000D03*
D17*
X164725000Y-124720000D03*
%TD*%
D16*
%TO.C,D9*%
X118597500Y-143855000D03*
D17*
X118597500Y-136235000D03*
%TD*%
D14*
%TO.C,SW7*%
X34534126Y-36113075D03*
D15*
X39100000Y-38340000D03*
D14*
X43665874Y-40566925D03*
%TD*%
D16*
%TO.C,D33*%
X191200000Y-154840000D03*
D17*
X191200000Y-147220000D03*
%TD*%
D14*
%TO.C,SW17*%
X76710000Y-119760000D03*
D15*
X80657901Y-122956948D03*
D14*
X84605802Y-126153896D03*
%TD*%
D16*
%TO.C,D30*%
X188562500Y-154840000D03*
D17*
X188562500Y-147220000D03*
%TD*%
D14*
%TO.C,SW18*%
X52350000Y-129830000D03*
D15*
X55814552Y-133545277D03*
D14*
X59279104Y-137260554D03*
%TD*%
D16*
%TO.C,D4*%
X139900000Y-154840000D03*
D17*
X139900000Y-147220000D03*
%TD*%
D16*
%TO.C,D31*%
X170000000Y-132340000D03*
D17*
X170000000Y-124720000D03*
%TD*%
D14*
%TO.C,SW20*%
X197420000Y-87950000D03*
D15*
X201477068Y-84892780D03*
D14*
X205534136Y-81835560D03*
%TD*%
%TO.C,SW31*%
X260314126Y-58576925D03*
D15*
X264880000Y-56350000D03*
D14*
X269445874Y-54123075D03*
%TD*%
%TO.C,SW9*%
X69660591Y-25880000D03*
D15*
X74060000Y-28420000D03*
D14*
X78459409Y-30960000D03*
%TD*%
%TO.C,SW25*%
X230092769Y-111284346D03*
D15*
X234492178Y-108744346D03*
D14*
X238891587Y-106204346D03*
%TD*%
D16*
%TO.C,D15*%
X123872500Y-143855000D03*
D17*
X123872500Y-136235000D03*
%TD*%
D14*
%TO.C,SW22*%
X235910000Y-137310000D03*
D15*
X239374552Y-133594723D03*
D14*
X242839104Y-129879446D03*
%TD*%
D16*
%TO.C,D3*%
X102615000Y-154860000D03*
D17*
X102615000Y-147240000D03*
%TD*%
D16*
%TO.C,D27*%
X185925000Y-154840000D03*
D17*
X185925000Y-147220000D03*
%TD*%
D16*
%TO.C,D7*%
X105252500Y-154860000D03*
D17*
X105252500Y-147240000D03*
%TD*%
D14*
%TO.C,SW14*%
X56290000Y-106220000D03*
D15*
X60689409Y-108760000D03*
D14*
X65088818Y-111300000D03*
%TD*%
%TO.C,SW16*%
X89670000Y-81860000D03*
D15*
X93727068Y-84917220D03*
D14*
X97784136Y-87974440D03*
%TD*%
D16*
%TO.C,D26*%
X175335000Y-143820000D03*
D17*
X175335000Y-136200000D03*
%TD*%
D16*
%TO.C,D23*%
X172697500Y-143820000D03*
D17*
X172697500Y-136200000D03*
%TD*%
D14*
%TO.C,SW10*%
X59650591Y-43190000D03*
D15*
X64050000Y-45730000D03*
D14*
X68449409Y-48270000D03*
%TD*%
%TO.C,SW2*%
X12216525Y-23178361D03*
D15*
X16909833Y-25122393D03*
D14*
X21603141Y-27066425D03*
%TD*%
D16*
%TO.C,D34*%
X155417500Y-154860000D03*
D17*
X155417500Y-147240000D03*
%TD*%
D14*
%TO.C,SW24*%
X210020000Y-68850000D03*
D15*
X214181292Y-65936232D03*
D14*
X218342584Y-63022464D03*
%TD*%
D16*
%TO.C,D5*%
X126567500Y-132380000D03*
D17*
X126567500Y-124760000D03*
%TD*%
D16*
%TO.C,D29*%
X177972500Y-143820000D03*
D17*
X177972500Y-136200000D03*
%TD*%
D14*
%TO.C,SW21*%
X210590000Y-126150000D03*
D15*
X214537901Y-122953052D03*
D14*
X218485802Y-119756104D03*
%TD*%
D16*
%TO.C,D18*%
X159450000Y-132340000D03*
D17*
X159450000Y-124720000D03*
%TD*%
D14*
%TO.C,SW15*%
X101712932Y-65832780D03*
D15*
X105770000Y-68890000D03*
D14*
X109827068Y-71947220D03*
%TD*%
D16*
%TO.C,D16*%
X113165000Y-154860000D03*
D17*
X113165000Y-147240000D03*
%TD*%
D14*
%TO.C,SW28*%
X236771182Y-65620000D03*
D15*
X241170591Y-63080000D03*
D14*
X245570000Y-60540000D03*
%TD*%
D16*
%TO.C,D22*%
X162087500Y-132340000D03*
D17*
X162087500Y-124720000D03*
%TD*%
D14*
%TO.C,SW3*%
X4583384Y-41641936D03*
D15*
X9276692Y-43585968D03*
D14*
X13970000Y-45530000D03*
%TD*%
D16*
%TO.C,D14*%
X134480000Y-132380000D03*
D17*
X134480000Y-124760000D03*
%TD*%
D14*
%TO.C,SW1*%
X144395000Y-128570000D03*
X150895000Y-128570000D03*
%TD*%
%TO.C,SW8*%
X25774126Y-54113075D03*
D15*
X30340000Y-56340000D03*
D14*
X34905874Y-58566925D03*
%TD*%
D16*
%TO.C,D20*%
X180650000Y-154840000D03*
D17*
X180650000Y-147220000D03*
%TD*%
D16*
%TO.C,D10*%
X107890000Y-154860000D03*
D17*
X107890000Y-147240000D03*
%TD*%
D14*
%TO.C,SW12*%
X88298708Y-46616232D03*
D15*
X92460000Y-49530000D03*
D14*
X96621292Y-52443768D03*
%TD*%
D16*
%TO.C,D21*%
X152780000Y-154860000D03*
D17*
X152780000Y-147240000D03*
%TD*%
D14*
%TO.C,SW5*%
X-10233175Y-94619021D03*
D15*
X-5326272Y-95933822D03*
D14*
X-419369Y-97248623D03*
%TD*%
D16*
%TO.C,D28*%
X167362500Y-132340000D03*
D17*
X167362500Y-124720000D03*
%TD*%
D16*
%TO.C,D1*%
X123930000Y-132380000D03*
D17*
X123930000Y-124760000D03*
%TD*%
D14*
%TO.C,SW6*%
X43275069Y-18206206D03*
D15*
X47840943Y-20433131D03*
D14*
X52406817Y-22660056D03*
%TD*%
D16*
%TO.C,D24*%
X183287500Y-154840000D03*
D17*
X183287500Y-147220000D03*
%TD*%
D14*
%TO.C,SW34*%
X288880000Y-64070000D03*
D15*
X293573308Y-62125968D03*
D14*
X298266616Y-60181936D03*
%TD*%
D16*
%TO.C,D2*%
X113322500Y-143855000D03*
D17*
X113322500Y-136235000D03*
%TD*%
D14*
%TO.C,SW33*%
X281203384Y-45548064D03*
D15*
X285896692Y-43604032D03*
D14*
X290590000Y-41660000D03*
%TD*%
D16*
%TO.C,D12*%
X121235000Y-143855000D03*
D17*
X121235000Y-136235000D03*
%TD*%
D14*
%TO.C,SW32*%
X273533384Y-27058064D03*
D15*
X278226692Y-25114032D03*
D14*
X282920000Y-23170000D03*
%TD*%
%TO.C,SW26*%
X216731182Y-31020000D03*
D15*
X221130591Y-28480000D03*
D14*
X225530000Y-25940000D03*
%TD*%
%TO.C,SW27*%
X226750591Y-48320000D03*
D15*
X231150000Y-45780000D03*
D14*
X235549409Y-43240000D03*
%TD*%
%TO.C,SW4*%
X-3036616Y-60151936D03*
D15*
X1656692Y-62095968D03*
D14*
X6350000Y-64040000D03*
%TD*%
%TO.C,SW19*%
X185380000Y-71960000D03*
D15*
X189437068Y-68902780D03*
D14*
X193494136Y-65845560D03*
%TD*%
%TO.C,SW29*%
X242740000Y-22590000D03*
D15*
X247305874Y-20363075D03*
D14*
X251871748Y-18136150D03*
%TD*%
D16*
%TO.C,D6*%
X115960000Y-143855000D03*
D17*
X115960000Y-136235000D03*
%TD*%
D16*
%TO.C,D8*%
X129205000Y-132380000D03*
D17*
X129205000Y-124760000D03*
%TD*%
D16*
%TO.C,D13*%
X110527500Y-154860000D03*
D17*
X110527500Y-147240000D03*
%TD*%
D16*
%TO.C,D19*%
X170060000Y-143820000D03*
D17*
X170060000Y-136200000D03*
%TD*%
D14*
%TO.C,SW11*%
X49622769Y-60544346D03*
D15*
X54022178Y-63084346D03*
D14*
X58421587Y-65624346D03*
%TD*%
D16*
%TO.C,D32*%
X180610000Y-143820000D03*
D17*
X180610000Y-136200000D03*
%TD*%
D14*
%TO.C,SW23*%
X198588708Y-52483768D03*
D15*
X202750000Y-49570000D03*
D14*
X206911292Y-46656232D03*
%TD*%
M02*
