M48
; DRILL file {KiCad 7.0.7} date Thu Jun 13 17:52:51 2024
; FORMAT={-:-/ absolute / metric / decimal}
; #@! TF.CreationDate,2024-06-13T17:52:51+09:00
; #@! TF.GenerationSoftware,Kicad,Pcbnew,7.0.7
; #@! TF.FileFunction,NonPlated,1,2,NPTH
FMAT,2
METRIC
; #@! TA.AperFunction,NonPlated,NPTH,ComponentDrill
T1C2.000
; #@! TA.AperFunction,NonPlated,NPTH,ComponentDrill
T2C3.000
; #@! TA.AperFunction,NonPlated,NPTH,ComponentDrill
T3C4.000
%
G90
G05
T1
X-10.233Y-94.619
X-3.037Y-60.152
X-0.419Y-97.249
X4.583Y-41.642
X6.35Y-64.04
X12.217Y-23.178
X13.97Y-45.53
X21.603Y-27.066
X25.774Y-54.113
X34.534Y-36.113
X34.906Y-58.567
X43.275Y-18.206
X43.666Y-40.567
X49.623Y-60.544
X52.35Y-129.83
X52.407Y-22.66
X56.29Y-106.22
X58.422Y-65.624
X59.279Y-137.261
X59.651Y-43.19
X65.089Y-111.3
X68.449Y-48.27
X69.661Y-25.88
X76.71Y-119.76
X76.84Y-63.01
X78.459Y-30.96
X84.606Y-126.154
X85.163Y-68.838
X88.299Y-46.616
X89.67Y-81.86
X96.621Y-52.444
X97.784Y-87.974
X101.713Y-65.833
X109.827Y-71.947
X185.38Y-71.96
X193.494Y-65.846
X197.42Y-87.95
X198.589Y-52.484
X205.534Y-81.836
X206.911Y-46.656
X210.02Y-68.85
X210.59Y-126.15
X216.731Y-31.02
X218.343Y-63.022
X218.486Y-119.756
X225.53Y-25.94
X226.751Y-48.32
X230.093Y-111.284
X235.549Y-43.24
X235.91Y-137.31
X236.771Y-65.62
X238.892Y-106.204
X242.74Y-22.59
X242.839Y-129.879
X245.57Y-60.54
X251.544Y-40.607
X251.872Y-18.136
X260.314Y-58.577
X260.676Y-36.153
X269.446Y-54.123
X273.533Y-27.058
X281.203Y-45.548
X282.92Y-23.17
X288.88Y-64.07
X290.59Y-41.66
X295.583Y-97.225
X298.267Y-60.182
X305.397Y-94.595
T2
X-8.349Y-92.494
X-1.558Y-91.684
X-0.891Y-58.291
X5.947Y-58.375
X6.729Y-39.781
X13.567Y-39.865
X14.362Y-21.318
X21.201Y-21.401
X28.029Y-52.387
X34.85Y-52.888
X36.789Y-34.387
X43.61Y-34.888
X45.53Y-16.48
X51.993Y-58.98
X52.351Y-16.981
X55.074Y-129.027
X58.66Y-104.655
X58.762Y-59.955
X61.262Y-131.938
X62.02Y-41.625
X65.429Y-105.631
X68.79Y-42.601
X72.03Y-24.315
X78.8Y-25.291
X79.295Y-118.585
X79.337Y-61.658
X85.829Y-120.608
X85.996Y-63.219
X90.796Y-45.264
X92.213Y-80.596
X97.454Y-46.826
X98.813Y-82.389
X104.256Y-64.569
X110.856Y-66.362
X184.866Y-69.167
X188.408Y-63.317
X196.906Y-85.157
X198.172Y-49.675
X200.448Y-79.307
X201.917Y-43.952
X209.603Y-66.041
X209.979Y-123.377
X213.315Y-117.407
X213.348Y-60.318
X216.561Y-28.185
X220.79Y-22.811
X226.58Y-45.485
X229.923Y-108.45
X230.81Y-40.111
X234.152Y-103.075
X234.918Y-134.649
X236.601Y-62.785
X237.392Y-128.273
X240.83Y-57.411
X242.768Y-19.75
X247.362Y-14.684
X251.572Y-37.767
X256.166Y-32.701
X260.342Y-55.737
X264.936Y-50.671
X273.735Y-24.225
X278.629Y-19.449
X281.405Y-42.715
X286.299Y-37.939
X289.081Y-61.237
X293.976Y-56.461
X296.152Y-94.443
X301.629Y-90.346
T3
X-5.326Y-95.934
X1.657Y-62.096
X9.277Y-43.586
X16.91Y-25.122
X30.34Y-56.34
X39.1Y-38.34
X47.841Y-20.433
X54.022Y-63.084
X55.815Y-133.545
X60.689Y-108.76
X64.05Y-45.73
X74.06Y-28.42
X80.658Y-122.957
X81.001Y-65.924
X92.46Y-49.53
X93.727Y-84.917
X105.77Y-68.89
X189.437Y-68.903
X201.477Y-84.893
X202.75Y-49.57
X214.181Y-65.936
X214.538Y-122.953
X221.131Y-28.48
X231.15Y-45.78
X234.492Y-108.744
X239.375Y-133.595
X241.171Y-63.08
X247.306Y-20.363
X256.11Y-38.38
X264.88Y-56.35
X278.227Y-25.114
X285.897Y-43.604
X293.573Y-62.126
X300.49Y-95.91
T0
M30
