M48
; DRILL file {KiCad 7.0.7} date Thu Jun 13 17:52:51 2024
; FORMAT={-:-/ absolute / metric / decimal}
; #@! TF.CreationDate,2024-06-13T17:52:51+09:00
; #@! TF.GenerationSoftware,Kicad,Pcbnew,7.0.7
; #@! TF.FileFunction,Plated,1,2,PTH
FMAT,2
METRIC
; #@! TA.AperFunction,Plated,PTH,ViaDrill
T1C0.400
; #@! TA.AperFunction,Plated,PTH,ComponentDrill
T2C0.813
; #@! TA.AperFunction,Plated,PTH,ComponentDrill
T3C1.000
; #@! TA.AperFunction,Plated,PTH,ComponentDrill
T4C1.300
; #@! TA.AperFunction,Plated,PTH,ComponentDrill
T5C3.200
%
G90
G05
T1
X-12.144Y-76.835
X-11.42Y-91.63
X-11.35Y-76.11
X-6.041Y-72.826
X-4.85Y-72.825
X-3.64Y-72.825
X1.505Y-92.464
X7.35Y-33.9
X8.882Y-59.547
X16.502Y-41.037
X18.18Y-73.55
X24.135Y-22.573
X34.268Y-90.802
X35.785Y-91.295
X37.708Y-54.237
X46.468Y-36.237
X55.209Y-18.33
X61.519Y-61.5
X63.446Y-134.222
X68.186Y-107.176
X71.546Y-44.146
X81.556Y-26.836
X88.31Y-122.565
X88.607Y-64.999
X100.066Y-48.605
X101.361Y-84.259
X113.404Y-68.231
X115.01Y-66.25
X115.107Y-78.822
X115.831Y-78.106
X116.56Y-78.79
X117.33Y-78.152
X118.056Y-78.839
X123.206Y-92.1
X142.09Y-101.74
X143.35Y-101.75
X152.043Y-124.346
X153.126Y-124.404
X154.153Y-124.406
X155.217Y-124.446
X156.255Y-124.46
X172.87Y-94.13
X178.726Y-65.26
X179.451Y-66.22
X180.175Y-65.228
X180.9Y-66.2
X182.294Y-71.055
X190.908Y-61.383
X202.948Y-77.373
X204.482Y-42.107
X215.746Y-115.387
X215.914Y-58.473
X223.507Y-21.196
X233.526Y-38.496
X236.869Y-101.46
X239.517Y-125.934
X243.547Y-55.796
X250.185Y-13.263
X258.989Y-31.279
X267.759Y-49.249
X273.95Y-18.298
X281.533Y-18.202
X289.203Y-36.692
X289.37Y-76.68
X291.93Y-76.67
X294.51Y-76.63
X296.88Y-55.214
X297.24Y-76.64
X299.65Y-76.642
X304.671Y-89.489
T2
X102.615Y-147.24
X102.615Y-154.86
X105.252Y-147.24
X105.252Y-154.86
X107.89Y-147.24
X107.89Y-154.86
X110.527Y-147.24
X110.527Y-154.86
X113.165Y-147.24
X113.165Y-154.86
X113.322Y-136.235
X113.322Y-143.855
X115.96Y-136.235
X115.96Y-143.855
X118.597Y-136.235
X118.597Y-143.855
X121.235Y-136.235
X121.235Y-143.855
X123.872Y-136.235
X123.872Y-143.855
X123.93Y-124.76
X123.93Y-132.38
X126.567Y-124.76
X126.567Y-132.38
X129.205Y-124.76
X129.205Y-132.38
X131.843Y-124.76
X131.843Y-132.38
X134.48Y-124.76
X134.48Y-132.38
X139.9Y-147.22
X139.9Y-154.84
X139.996Y-91.562
X139.996Y-94.102
X139.996Y-96.642
X139.996Y-99.182
X139.996Y-101.722
X139.996Y-104.262
X139.996Y-106.802
X139.996Y-109.342
X139.996Y-111.882
X139.996Y-114.422
X139.996Y-116.962
X139.996Y-119.502
X142.537Y-147.22
X142.537Y-154.84
X152.78Y-147.24
X152.78Y-154.86
X155.216Y-91.562
X155.216Y-94.102
X155.216Y-96.642
X155.216Y-99.182
X155.216Y-101.722
X155.216Y-104.262
X155.216Y-106.802
X155.216Y-109.342
X155.216Y-111.882
X155.216Y-114.422
X155.216Y-116.962
X155.216Y-119.502
X155.417Y-147.24
X155.417Y-154.86
X159.45Y-124.72
X159.45Y-132.34
X162.088Y-124.72
X162.088Y-132.34
X164.725Y-124.72
X164.725Y-132.34
X167.362Y-124.72
X167.362Y-132.34
X170.0Y-124.72
X170.0Y-132.34
X170.06Y-136.2
X170.06Y-143.82
X172.697Y-136.2
X172.697Y-143.82
X175.335Y-136.2
X175.335Y-143.82
X177.972Y-136.2
X177.972Y-143.82
X180.61Y-136.2
X180.61Y-143.82
X180.65Y-147.22
X180.65Y-154.84
X183.287Y-147.22
X183.287Y-154.84
X185.925Y-147.22
X185.925Y-154.84
X188.562Y-147.22
X188.562Y-154.84
X191.2Y-147.22
X191.2Y-154.84
T4
X144.395Y-128.57
X150.895Y-128.57
T3
G00X-26.595Y-80.583
M15
G01X-25.123Y-81.433
M16
G05
G00X-25.325Y-78.384
M15
G01X-23.853Y-79.234
M16
G05
G00X-24.055Y-76.184
M15
G01X-22.583Y-77.034
M16
G05
G00X-23.236Y-82.465
M15
G01X-21.764Y-83.315
M16
G05
G00X-22.785Y-73.984
M15
G01X-21.313Y-74.834
M16
G05
G00X-21.966Y-80.265
M15
G01X-20.494Y-81.115
M16
G05
G00X-21.515Y-71.784
M15
G01X-20.043Y-72.634
M16
G05
G00X-20.696Y-78.066
M15
G01X-19.224Y-78.916
M16
G05
G00X-20.245Y-69.585
M15
G01X-18.773Y-70.435
M16
G05
G00X-19.426Y-75.866
M15
G01X-17.954Y-76.716
M16
G05
G00X-18.975Y-67.385
M15
G01X-17.503Y-68.235
M16
G05
G00X-18.156Y-73.666
M15
G01X-16.684Y-74.516
M16
G05
G00X-17.705Y-65.185
M15
G01X-16.233Y-66.035
M16
G05
G00X-16.886Y-71.466
M15
G01X-15.414Y-72.316
M16
G05
G00X-16.435Y-62.986
M15
G01X-14.963Y-63.836
M16
G05
G00X-15.616Y-69.267
M15
G01X-14.144Y-70.117
M16
G05
G00X-15.165Y-60.786
M15
G01X-13.693Y-61.636
M16
G05
G00X-14.346Y-67.067
M15
G01X-12.874Y-67.917
M16
G05
G00X-13.895Y-58.586
M15
G01X-12.423Y-59.436
M16
G05
G00X-13.076Y-64.867
M15
G01X-11.604Y-65.717
M16
G05
G00X-12.625Y-56.387
M15
G01X-11.153Y-57.237
M16
G05
G00X-11.806Y-62.668
M15
G01X-10.334Y-63.518
M16
G05
G00X-10.536Y-60.468
M15
G01X-9.064Y-61.318
M16
G05
G00X-9.266Y-58.268
M15
G01X-7.794Y-59.118
M16
G05
G00X304.606Y-58.196
M15
G01X303.134Y-59.046
M16
G05
G00X305.876Y-60.395
M15
G01X304.404Y-61.245
M16
G05
G00X307.146Y-62.595
M15
G01X305.674Y-63.445
M16
G05
G00X307.965Y-56.314
M15
G01X306.493Y-57.164
M16
G05
G00X308.416Y-64.795
M15
G01X306.944Y-65.645
M16
G05
G00X309.235Y-58.514
M15
G01X307.763Y-59.364
M16
G05
G00X309.686Y-66.994
M15
G01X308.214Y-67.844
M16
G05
G00X310.505Y-60.713
M15
G01X309.033Y-61.563
M16
G05
G00X310.956Y-69.194
M15
G01X309.484Y-70.044
M16
G05
G00X311.775Y-62.913
M15
G01X310.303Y-63.763
M16
G05
G00X312.226Y-71.394
M15
G01X310.754Y-72.244
M16
G05
G00X313.045Y-65.113
M15
G01X311.573Y-65.963
M16
G05
G00X313.496Y-73.594
M15
G01X312.024Y-74.444
M16
G05
G00X314.315Y-67.312
M15
G01X312.843Y-68.162
M16
G05
G00X314.766Y-75.793
M15
G01X313.294Y-76.643
M16
G05
G00X315.585Y-69.512
M15
G01X314.113Y-70.362
M16
G05
G00X316.036Y-77.993
M15
G01X314.564Y-78.843
M16
G05
G00X316.855Y-71.712
M15
G01X315.383Y-72.562
M16
G05
G00X317.306Y-80.193
M15
G01X315.834Y-81.043
M16
G05
G00X318.125Y-73.912
M15
G01X316.653Y-74.762
M16
G05
G00X318.576Y-82.392
M15
G01X317.104Y-83.242
M16
G05
G00X319.395Y-76.111
M15
G01X317.923Y-76.961
M16
G05
G00X320.665Y-78.311
M15
G01X319.193Y-79.161
M16
G05
G00X321.935Y-80.511
M15
G01X320.463Y-81.361
M16
G05
T5
G00X84.06Y-156.356
M15
G01X84.46Y-155.664
M16
G05
G00X112.66Y-106.556
M15
G01X113.06Y-105.864
M16
G05
G00X142.31Y-55.646
M15
G01X142.71Y-54.954
M16
G05
G00X152.36Y-54.794
M15
G01X152.76Y-55.486
M16
G05
G00X181.45Y-104.804
M15
G01X181.85Y-105.496
M16
G05
G00X210.45Y-155.124
M15
G01X210.85Y-155.816
M16
G05
T0
M30
