%TF.GenerationSoftware,KiCad,Pcbnew,7.0.7*%
%TF.CreationDate,2024-06-13T17:52:44+09:00*%
%TF.ProjectId,hmproto34-bottom,686d7072-6f74-46f3-9334-2d626f74746f,rev?*%
%TF.SameCoordinates,Original*%
%TF.FileFunction,Soldermask,Top*%
%TF.FilePolarity,Negative*%
%FSLAX46Y46*%
G04 Gerber Fmt 4.6, Leading zero omitted, Abs format (unit mm)*
G04 Created by KiCad (PCBNEW 7.0.7) date 2024-06-13 17:52:44*
%MOMM*%
%LPD*%
G01*
G04 APERTURE LIST*
G04 Aperture macros list*
%AMHorizOval*
0 Thick line with rounded ends*
0 $1 width*
0 $2 $3 position (X,Y) of the first rounded end (center of the circle)*
0 $4 $5 position (X,Y) of the second rounded end (center of the circle)*
0 Add line between two ends*
20,1,$1,$2,$3,$4,$5,0*
0 Add two circle primitives to create the rounded ends*
1,1,$1,$2,$3*
1,1,$1,$4,$5*%
%AMRotRect*
0 Rectangle, with rotation*
0 The origin of the aperture is its center*
0 $1 length*
0 $2 width*
0 $3 Rotation angle, in degrees counterclockwise*
0 Add horizontal line*
21,1,$1,$2,0,0,$3*%
G04 Aperture macros list end*
%ADD10C,2.000000*%
%ADD11C,3.000000*%
%ADD12C,4.000000*%
%ADD13R,1.397000X1.397000*%
%ADD14R,0.950000X1.300000*%
%ADD15C,1.397000*%
%ADD16HorizOval,5.000000X0.250000X-0.433013X-0.250000X0.433013X0*%
%ADD17RotRect,3.400000X1.700000X330.000000*%
%ADD18HorizOval,1.700000X0.736122X-0.425000X-0.736122X0.425000X0*%
%ADD19HorizOval,5.000000X0.250000X0.433013X-0.250000X-0.433013X0*%
%ADD20RotRect,3.400000X1.700000X210.000000*%
%ADD21HorizOval,1.700000X-0.736122X-0.425000X0.736122X0.425000X0*%
G04 APERTURE END LIST*
D10*
%TO.C,SW35*%
X295583097Y-97224801D03*
D11*
X296152422Y-94442649D03*
D12*
X300490000Y-95910000D03*
D11*
X301628651Y-90345696D03*
D10*
X305396903Y-94595199D03*
%TD*%
D13*
%TO.C,D17*%
X142537500Y-154840000D03*
D14*
X142537500Y-152805000D03*
X142537500Y-149255000D03*
D15*
X142537500Y-147220000D03*
%TD*%
D16*
%TO.C,J7*%
X181650000Y-105150000D03*
%TD*%
D10*
%TO.C,SW13*%
X76840000Y-63010000D03*
D11*
X79337207Y-61657796D03*
D12*
X81001292Y-65923768D03*
D11*
X85995706Y-63219360D03*
D10*
X85162584Y-68837536D03*
%TD*%
D13*
%TO.C,D11*%
X131842500Y-132380000D03*
D14*
X131842500Y-130345000D03*
X131842500Y-126795000D03*
D15*
X131842500Y-124760000D03*
%TD*%
D10*
%TO.C,SW30*%
X251544126Y-40606925D03*
D11*
X251572132Y-37767257D03*
D12*
X256110000Y-38380000D03*
D11*
X256166011Y-32700664D03*
D10*
X260675874Y-36153075D03*
%TD*%
D13*
%TO.C,D25*%
X164725000Y-132340000D03*
D14*
X164725000Y-130305000D03*
X164725000Y-126755000D03*
D15*
X164725000Y-124720000D03*
%TD*%
D13*
%TO.C,D9*%
X118597500Y-143855000D03*
D14*
X118597500Y-141820000D03*
X118597500Y-138270000D03*
D15*
X118597500Y-136235000D03*
%TD*%
D10*
%TO.C,SW7*%
X34534126Y-36113075D03*
D11*
X36789057Y-34386869D03*
D12*
X39100000Y-38340000D03*
D11*
X43609862Y-34887589D03*
D10*
X43665874Y-40566925D03*
%TD*%
D13*
%TO.C,D33*%
X191200000Y-154840000D03*
D14*
X191200000Y-152805000D03*
X191200000Y-149255000D03*
D15*
X191200000Y-147220000D03*
%TD*%
D10*
%TO.C,SW17*%
X76710000Y-119760000D03*
D11*
X79295449Y-118585287D03*
D12*
X80657901Y-122956948D03*
D11*
X85828799Y-120607520D03*
D10*
X84605802Y-126153896D03*
%TD*%
D13*
%TO.C,D30*%
X188562500Y-154840000D03*
D14*
X188562500Y-152805000D03*
X188562500Y-149255000D03*
D15*
X188562500Y-147220000D03*
%TD*%
D10*
%TO.C,SW18*%
X52350000Y-129830000D03*
D11*
X55073777Y-129026544D03*
D12*
X55814552Y-133545277D03*
D11*
X61262105Y-131938364D03*
D10*
X59279104Y-137260554D03*
%TD*%
D13*
%TO.C,D4*%
X139900000Y-154840000D03*
D14*
X139900000Y-152805000D03*
X139900000Y-149255000D03*
D15*
X139900000Y-147220000D03*
%TD*%
D13*
%TO.C,D31*%
X170000000Y-132340000D03*
D14*
X170000000Y-130305000D03*
X170000000Y-126755000D03*
D15*
X170000000Y-124720000D03*
%TD*%
D10*
%TO.C,SW20*%
X197420000Y-87950000D03*
D11*
X196905657Y-85157161D03*
D12*
X201477068Y-84892780D03*
D11*
X200448382Y-79307101D03*
D10*
X205534136Y-81835560D03*
%TD*%
%TO.C,SW31*%
X260314126Y-58576925D03*
D11*
X260342132Y-55737257D03*
D12*
X264880000Y-56350000D03*
D11*
X264936011Y-50670664D03*
D10*
X269445874Y-54123075D03*
%TD*%
D17*
%TO.C,J1*%
X-11889198Y-56811551D03*
D18*
X-13159198Y-59011256D03*
X-14429198Y-61210960D03*
X-15699198Y-63410665D03*
X-16969198Y-65610369D03*
X-18239198Y-67810074D03*
X-19509198Y-70009778D03*
X-20779198Y-72209483D03*
X-22049198Y-74409187D03*
X-23319198Y-76608892D03*
X-24589198Y-78808596D03*
X-25859198Y-81008301D03*
X-22500000Y-82890000D03*
X-21230000Y-80690295D03*
X-19960000Y-78490591D03*
X-18690000Y-76290886D03*
X-17420000Y-74091182D03*
X-16150000Y-71891477D03*
X-14880000Y-69691772D03*
X-13610000Y-67492068D03*
X-12340000Y-65292363D03*
X-11070000Y-63092659D03*
X-9800000Y-60892954D03*
X-8530000Y-58693250D03*
%TD*%
D10*
%TO.C,SW9*%
X69660591Y-25880000D03*
D11*
X72030443Y-24315295D03*
D12*
X74060000Y-28420000D03*
D11*
X78799705Y-25290591D03*
D10*
X78459409Y-30960000D03*
%TD*%
%TO.C,SW25*%
X230092769Y-111284346D03*
D11*
X229922621Y-108449641D03*
D12*
X234492178Y-108744346D03*
D11*
X234151883Y-103074937D03*
D10*
X238891587Y-106204346D03*
%TD*%
D13*
%TO.C,D15*%
X123872500Y-143855000D03*
D14*
X123872500Y-141820000D03*
X123872500Y-138270000D03*
D15*
X123872500Y-136235000D03*
%TD*%
D10*
%TO.C,SW22*%
X235910000Y-137310000D03*
D11*
X234918500Y-134648905D03*
D12*
X239374552Y-133594723D03*
D11*
X237391551Y-128272533D03*
D10*
X242839104Y-129879446D03*
%TD*%
D13*
%TO.C,D3*%
X102615000Y-154860000D03*
D14*
X102615000Y-152825000D03*
X102615000Y-149275000D03*
D15*
X102615000Y-147240000D03*
%TD*%
D13*
%TO.C,D27*%
X185925000Y-154840000D03*
D14*
X185925000Y-152805000D03*
X185925000Y-149255000D03*
D15*
X185925000Y-147220000D03*
%TD*%
D13*
%TO.C,D7*%
X105252500Y-154860000D03*
D14*
X105252500Y-152825000D03*
X105252500Y-149275000D03*
D15*
X105252500Y-147240000D03*
%TD*%
D10*
%TO.C,SW14*%
X56290000Y-106220000D03*
D11*
X58659852Y-104655295D03*
D12*
X60689409Y-108760000D03*
D11*
X65429114Y-105630591D03*
D10*
X65088818Y-111300000D03*
%TD*%
%TO.C,SW16*%
X89670000Y-81860000D03*
D11*
X92212877Y-80595771D03*
D12*
X93727068Y-84917220D03*
D11*
X98812823Y-82388762D03*
D10*
X97784136Y-87974440D03*
%TD*%
D13*
%TO.C,D26*%
X175335000Y-143820000D03*
D14*
X175335000Y-141785000D03*
X175335000Y-138235000D03*
D15*
X175335000Y-136200000D03*
%TD*%
D19*
%TO.C,J3*%
X84260000Y-156010000D03*
%TD*%
D13*
%TO.C,D23*%
X172697500Y-143820000D03*
D14*
X172697500Y-141785000D03*
X172697500Y-138235000D03*
D15*
X172697500Y-136200000D03*
%TD*%
D10*
%TO.C,SW10*%
X59650591Y-43190000D03*
D11*
X62020443Y-41625295D03*
D12*
X64050000Y-45730000D03*
D11*
X68789705Y-42600591D03*
D10*
X68449409Y-48270000D03*
%TD*%
%TO.C,SW2*%
X12216525Y-23178361D03*
D11*
X14361868Y-21317715D03*
D12*
X16909833Y-25122393D03*
D11*
X21200519Y-21401101D03*
D10*
X21603141Y-27066425D03*
%TD*%
D13*
%TO.C,D34*%
X155417500Y-154860000D03*
D14*
X155417500Y-152825000D03*
X155417500Y-149275000D03*
D15*
X155417500Y-147240000D03*
%TD*%
D10*
%TO.C,SW24*%
X210020000Y-68850000D03*
D11*
X209603439Y-66040912D03*
D12*
X214181292Y-65936232D03*
D11*
X213348170Y-60318055D03*
D10*
X218342584Y-63022464D03*
%TD*%
D13*
%TO.C,D5*%
X126567500Y-132380000D03*
D14*
X126567500Y-130345000D03*
X126567500Y-126795000D03*
D15*
X126567500Y-124760000D03*
%TD*%
D13*
%TO.C,D29*%
X177972500Y-143820000D03*
D14*
X177972500Y-141785000D03*
X177972500Y-138235000D03*
D15*
X177972500Y-136200000D03*
%TD*%
D10*
%TO.C,SW21*%
X210590000Y-126150000D03*
D11*
X209978501Y-123376812D03*
D12*
X214537901Y-122953052D03*
D11*
X213314904Y-117406677D03*
D10*
X218485802Y-119756104D03*
%TD*%
D13*
%TO.C,D18*%
X159450000Y-132340000D03*
D14*
X159450000Y-130305000D03*
X159450000Y-126755000D03*
D15*
X159450000Y-124720000D03*
%TD*%
D10*
%TO.C,SW15*%
X101712932Y-65832780D03*
D11*
X104255809Y-64568551D03*
D12*
X105770000Y-68890000D03*
D11*
X110855755Y-66361542D03*
D10*
X109827068Y-71947220D03*
%TD*%
D13*
%TO.C,D16*%
X113165000Y-154860000D03*
D14*
X113165000Y-152825000D03*
X113165000Y-149275000D03*
D15*
X113165000Y-147240000D03*
%TD*%
D10*
%TO.C,SW28*%
X236771182Y-65620000D03*
D11*
X236601034Y-62785295D03*
D12*
X241170591Y-63080000D03*
D11*
X240830296Y-57410591D03*
D10*
X245570000Y-60540000D03*
%TD*%
D13*
%TO.C,D22*%
X162087500Y-132340000D03*
D14*
X162087500Y-130305000D03*
X162087500Y-126755000D03*
D15*
X162087500Y-124720000D03*
%TD*%
D10*
%TO.C,SW3*%
X4583384Y-41641936D03*
D11*
X6728727Y-39781290D03*
D12*
X9276692Y-43585968D03*
D11*
X13567378Y-39864676D03*
D10*
X13970000Y-45530000D03*
%TD*%
D13*
%TO.C,D14*%
X134480000Y-132380000D03*
D14*
X134480000Y-130345000D03*
X134480000Y-126795000D03*
D15*
X134480000Y-124760000D03*
%TD*%
D10*
%TO.C,SW1*%
X144395000Y-128570000D03*
X150895000Y-128570000D03*
%TD*%
%TO.C,SW8*%
X25774126Y-54113075D03*
D11*
X28029057Y-52386869D03*
D12*
X30340000Y-56340000D03*
D11*
X34849862Y-52887589D03*
D10*
X34905874Y-58566925D03*
%TD*%
D13*
%TO.C,D20*%
X180650000Y-154840000D03*
D14*
X180650000Y-152805000D03*
X180650000Y-149255000D03*
D15*
X180650000Y-147220000D03*
%TD*%
D13*
%TO.C,D10*%
X107890000Y-154860000D03*
D14*
X107890000Y-152825000D03*
X107890000Y-149275000D03*
D15*
X107890000Y-147240000D03*
%TD*%
D19*
%TO.C,J5*%
X142510000Y-55300000D03*
%TD*%
D10*
%TO.C,SW12*%
X88298708Y-46616232D03*
D11*
X90795915Y-45264028D03*
D12*
X92460000Y-49530000D03*
D11*
X97454414Y-46825592D03*
D10*
X96621292Y-52443768D03*
%TD*%
D13*
%TO.C,D21*%
X152780000Y-154860000D03*
D14*
X152780000Y-152825000D03*
X152780000Y-149275000D03*
D15*
X152780000Y-147240000D03*
%TD*%
D10*
%TO.C,SW5*%
X-10233175Y-94619021D03*
D11*
X-8349049Y-92494270D03*
D12*
X-5326272Y-95933822D03*
D11*
X-1558020Y-91684319D03*
D10*
X-419369Y-97248623D03*
%TD*%
D13*
%TO.C,D28*%
X167362500Y-132340000D03*
D14*
X167362500Y-130305000D03*
X167362500Y-126755000D03*
D15*
X167362500Y-124720000D03*
%TD*%
D16*
%TO.C,J8*%
X152560000Y-55140000D03*
%TD*%
D13*
%TO.C,D1*%
X123930000Y-132380000D03*
D14*
X123930000Y-130345000D03*
X123930000Y-126795000D03*
D15*
X123930000Y-124760000D03*
%TD*%
D10*
%TO.C,SW6*%
X43275069Y-18206206D03*
D11*
X45530000Y-16480000D03*
D12*
X47840943Y-20433131D03*
D11*
X52350805Y-16980720D03*
D10*
X52406817Y-22660056D03*
%TD*%
D13*
%TO.C,D24*%
X183287500Y-154840000D03*
D14*
X183287500Y-152805000D03*
X183287500Y-149255000D03*
D15*
X183287500Y-147220000D03*
%TD*%
D10*
%TO.C,SW34*%
X288880000Y-64070000D03*
D11*
X289081311Y-61237338D03*
D12*
X293573308Y-62125968D03*
D11*
X293975930Y-56460644D03*
D10*
X298266616Y-60181936D03*
%TD*%
D13*
%TO.C,D2*%
X113322500Y-143855000D03*
D14*
X113322500Y-141820000D03*
X113322500Y-138270000D03*
D15*
X113322500Y-136235000D03*
%TD*%
D10*
%TO.C,SW33*%
X281203384Y-45548064D03*
D11*
X281404695Y-42715402D03*
D12*
X285896692Y-43604032D03*
D11*
X286299314Y-37938708D03*
D10*
X290590000Y-41660000D03*
%TD*%
D13*
%TO.C,D12*%
X121235000Y-143855000D03*
D14*
X121235000Y-141820000D03*
X121235000Y-138270000D03*
D15*
X121235000Y-136235000D03*
%TD*%
D10*
%TO.C,SW32*%
X273533384Y-27058064D03*
D11*
X273734695Y-24225402D03*
D12*
X278226692Y-25114032D03*
D11*
X278629314Y-19448708D03*
D10*
X282920000Y-23170000D03*
%TD*%
%TO.C,SW26*%
X216731182Y-31020000D03*
D11*
X216561034Y-28185295D03*
D12*
X221130591Y-28480000D03*
D11*
X220790296Y-22810591D03*
D10*
X225530000Y-25940000D03*
%TD*%
%TO.C,SW27*%
X226750591Y-48320000D03*
D11*
X226580443Y-45485295D03*
D12*
X231150000Y-45780000D03*
D11*
X230809705Y-40110591D03*
D10*
X235549409Y-43240000D03*
%TD*%
%TO.C,SW4*%
X-3036616Y-60151936D03*
D11*
X-891273Y-58291290D03*
D12*
X1656692Y-62095968D03*
D11*
X5947378Y-58374676D03*
D10*
X6350000Y-64040000D03*
%TD*%
%TO.C,SW19*%
X185380000Y-71960000D03*
D11*
X184865657Y-69167161D03*
D12*
X189437068Y-68902780D03*
D11*
X188408382Y-63317101D03*
D10*
X193494136Y-65845560D03*
%TD*%
D19*
%TO.C,J4*%
X112860000Y-106210000D03*
%TD*%
D10*
%TO.C,SW29*%
X242740000Y-22590000D03*
D11*
X242768006Y-19750332D03*
D12*
X247305874Y-20363075D03*
D11*
X247361885Y-14683739D03*
D10*
X251871748Y-18136150D03*
%TD*%
D16*
%TO.C,J6*%
X210650000Y-155470000D03*
%TD*%
D13*
%TO.C,D6*%
X115960000Y-143855000D03*
D14*
X115960000Y-141820000D03*
X115960000Y-138270000D03*
D15*
X115960000Y-136235000D03*
%TD*%
D13*
%TO.C,D8*%
X129205000Y-132380000D03*
D14*
X129205000Y-130345000D03*
X129205000Y-126795000D03*
D15*
X129205000Y-124760000D03*
%TD*%
D13*
%TO.C,D13*%
X110527500Y-154860000D03*
D14*
X110527500Y-152825000D03*
X110527500Y-149275000D03*
D15*
X110527500Y-147240000D03*
%TD*%
D13*
%TO.C,D19*%
X170060000Y-143820000D03*
D14*
X170060000Y-141785000D03*
X170060000Y-138235000D03*
D15*
X170060000Y-136200000D03*
%TD*%
D10*
%TO.C,SW11*%
X49622769Y-60544346D03*
D11*
X51992621Y-58979641D03*
D12*
X54022178Y-63084346D03*
D11*
X58761883Y-59954937D03*
D10*
X58421587Y-65624346D03*
%TD*%
D13*
%TO.C,D32*%
X180610000Y-143820000D03*
D14*
X180610000Y-141785000D03*
X180610000Y-138235000D03*
D15*
X180610000Y-136200000D03*
%TD*%
D10*
%TO.C,SW23*%
X198588708Y-52483768D03*
D11*
X198172147Y-49674680D03*
D12*
X202750000Y-49570000D03*
D11*
X201916878Y-43951823D03*
D10*
X206911292Y-46656232D03*
%TD*%
D20*
%TO.C,J2*%
X307229198Y-56738892D03*
D21*
X308499198Y-58938597D03*
X309769198Y-61138301D03*
X311039198Y-63338006D03*
X312309198Y-65537710D03*
X313579198Y-67737415D03*
X314849198Y-69937119D03*
X316119198Y-72136824D03*
X317389198Y-74336528D03*
X318659198Y-76536233D03*
X319929198Y-78735937D03*
X321199198Y-80935642D03*
X317840000Y-82817341D03*
X316570000Y-80617636D03*
X315300000Y-78417931D03*
X314030000Y-76218227D03*
X312760000Y-74018522D03*
X311490000Y-71818818D03*
X310220000Y-69619113D03*
X308950000Y-67419409D03*
X307680000Y-65219704D03*
X306410000Y-63020000D03*
X305140000Y-60820295D03*
X303870000Y-58620591D03*
%TD*%
M02*
