M48
; DRILL file {KiCad 7.0.7} date Tue Jun 25 00:35:21 2024
; FORMAT={-:-/ absolute / metric / decimal}
; #@! TF.CreationDate,2024-06-25T00:35:21+09:00
; #@! TF.GenerationSoftware,Kicad,Pcbnew,7.0.7
; #@! TF.FileFunction,NonPlated,1,2,NPTH
FMAT,2
METRIC
; #@! TA.AperFunction,NonPlated,NPTH,ComponentDrill
T1C1.200
; #@! TA.AperFunction,NonPlated,NPTH,ComponentDrill
T2C2.000
; #@! TA.AperFunction,NonPlated,NPTH,ComponentDrill
T3C3.000
; #@! TA.AperFunction,NonPlated,NPTH,ComponentDrill
T4C4.000
%
G90
G05
T1
X129.34Y-32.54
X129.34Y-34.29
X136.34Y-32.54
X136.34Y-34.29
T2
X17.783Y-55.693
X17.798Y-55.689
X20.417Y-75.506
X20.428Y-75.499
X23.013Y-95.303
X23.018Y-95.299
X27.857Y-54.367
X27.871Y-54.363
X30.49Y-74.18
X30.501Y-74.173
X33.087Y-93.977
X33.091Y-93.973
X34.061Y-128.694
X34.077Y-128.7
X42.127Y-35.79
X42.15Y-35.8
X43.552Y-55.804
X43.567Y-55.81
X43.875Y-126.065
X43.891Y-126.071
X44.932Y-75.724
X44.937Y-75.72
X52.262Y-35.081
X52.285Y-35.091
X53.688Y-55.096
X53.702Y-55.101
X55.068Y-75.016
X55.072Y-75.011
X68.844Y-29.296
X68.85Y-29.28
X68.86Y-49.35
X68.864Y-49.336
X68.874Y-69.346
X68.88Y-69.348
X79.004Y-29.296
X79.01Y-29.28
X79.02Y-49.35
X79.024Y-49.336
X79.034Y-69.346
X79.04Y-69.348
X93.639Y-57.844
X93.653Y-57.863
X95.369Y-37.967
X95.373Y-37.973
X97.43Y-105.55
X97.434Y-105.546
X103.76Y-58.73
X103.775Y-58.748
X105.491Y-38.853
X105.495Y-38.858
X105.902Y-128.015
X105.916Y-128.01
X107.59Y-105.55
X107.594Y-105.546
X114.182Y-67.726
X114.2Y-67.74
X115.618Y-130.985
X115.632Y-130.981
X116.552Y-47.876
X116.558Y-47.841
X121.865Y-107.071
X121.867Y-107.061
X124.266Y-68.965
X124.284Y-68.978
X126.636Y-49.115
X126.642Y-49.079
X131.9Y-108.66
X131.902Y-108.65
T3
X18.725Y-53.005
X19.639Y-50.325
X21.355Y-72.815
X22.272Y-70.138
X23.945Y-92.615
X24.689Y-49.657
X24.869Y-89.935
X26.266Y-52.014
X27.319Y-69.468
X28.899Y-71.827
X29.909Y-89.267
X31.496Y-91.624
X34.647Y-125.918
X35.2Y-123.13
X40.123Y-121.821
X41.991Y-123.94
X43.216Y-33.168
X44.329Y-30.555
X44.656Y-53.188
X45.732Y-50.56
X46.026Y-73.098
X47.112Y-70.48
X49.374Y-30.191
X50.814Y-50.211
X50.841Y-32.646
X52.184Y-70.121
X52.244Y-52.65
X53.624Y-72.57
X70.114Y-26.756
X70.134Y-46.796
X70.144Y-66.806
X71.39Y-24.2
X71.4Y-44.27
X71.42Y-64.268
X76.464Y-24.216
X76.484Y-44.256
X76.494Y-64.266
X77.74Y-26.74
X77.75Y-46.81
X77.77Y-66.808
X95.14Y-55.443
X96.612Y-53.005
X96.86Y-35.553
X98.342Y-33.128
X98.704Y-103.006
X99.97Y-100.47
X101.687Y-53.466
X102.716Y-56.089
X103.407Y-33.576
X104.447Y-36.212
X105.054Y-100.466
X106.32Y-103.01
X107.873Y-125.953
X109.816Y-123.899
X114.688Y-125.38
X115.146Y-128.185
X115.752Y-65.36
X117.34Y-63.007
X118.122Y-45.51
X119.698Y-43.108
X122.364Y-63.613
X123.333Y-66.302
X123.518Y-104.751
X124.734Y-43.763
X125.169Y-102.451
X125.691Y-46.403
X130.188Y-103.235
X131.043Y-105.953
T4
X22.82Y-55.03
X22.834Y-55.026
X25.453Y-74.843
X25.464Y-74.836
X28.05Y-94.64
X28.054Y-94.636
X38.968Y-127.38
X38.984Y-127.386
X47.194Y-35.436
X47.218Y-35.446
X48.62Y-55.45
X48.634Y-55.456
X50.0Y-75.37
X50.004Y-75.366
X73.924Y-29.296
X73.93Y-29.28
X73.94Y-49.35
X73.944Y-49.336
X73.954Y-69.346
X73.96Y-69.348
X98.699Y-58.287
X98.714Y-58.306
X100.43Y-38.41
X100.434Y-38.416
X102.51Y-105.55
X102.514Y-105.546
X110.76Y-129.5
X110.774Y-129.496
X119.224Y-68.346
X119.242Y-68.359
X121.594Y-48.496
X121.6Y-48.46
X126.883Y-107.865
X126.884Y-107.856
T0
M30
