%TF.GenerationSoftware,KiCad,Pcbnew,7.0.7*%
%TF.CreationDate,2024-06-25T00:35:16+09:00*%
%TF.ProjectId,hmproto34,686d7072-6f74-46f3-9334-2e6b69636164,rev?*%
%TF.SameCoordinates,Original*%
%TF.FileFunction,Paste,Bot*%
%TF.FilePolarity,Positive*%
%FSLAX46Y46*%
G04 Gerber Fmt 4.6, Leading zero omitted, Abs format (unit mm)*
G04 Created by KiCad (PCBNEW 7.0.7) date 2024-06-25 00:35:16*
%MOMM*%
%LPD*%
G01*
G04 APERTURE LIST*
G04 Aperture macros list*
%AMRotRect*
0 Rectangle, with rotation*
0 The origin of the aperture is its center*
0 $1 length*
0 $2 width*
0 $3 Rotation angle, in degrees counterclockwise*
0 Add horizontal line*
21,1,$1,$2,0,0,$3*%
G04 Aperture macros list end*
%ADD10RotRect,3.300000X3.000000X187.500000*%
%ADD11R,1.300000X0.950000*%
%ADD12R,3.300000X3.000000*%
%ADD13RotRect,3.300000X3.000000X184.000000*%
%ADD14RotRect,3.300000X3.000000X173.000000*%
%ADD15RotRect,3.300000X3.000000X195.000000*%
%ADD16RotRect,3.300000X3.000000X163.000000*%
%ADD17RotRect,3.300000X3.000000X175.000000*%
%ADD18RotRect,3.300000X3.000000X171.000000*%
G04 APERTURE END LIST*
D10*
%TO.C,SW11*%
X20331110Y-93050069D03*
X33483224Y-88756642D03*
%TD*%
D11*
%TO.C,D20*%
X125010000Y-95110000D03*
X121460000Y-95110000D03*
%TD*%
%TO.C,D2*%
X57905000Y-43510000D03*
X54355000Y-43510000D03*
%TD*%
%TO.C,D31*%
X32280000Y-64860000D03*
X28730000Y-64860000D03*
%TD*%
D12*
%TO.C,SW8*%
X66494132Y-46755576D03*
X80094132Y-44215576D03*
%TD*%
D13*
%TO.C,SW12*%
X42392308Y-73311546D03*
X55781998Y-69829046D03*
%TD*%
D11*
%TO.C,D15*%
X124975000Y-93080000D03*
X121425000Y-93080000D03*
%TD*%
D14*
%TO.C,SW10*%
X112144086Y-64876881D03*
X125952262Y-64013236D03*
%TD*%
D11*
%TO.C,D28*%
X57905000Y-45430000D03*
X54355000Y-45430000D03*
%TD*%
%TO.C,D14*%
X99225000Y-93050000D03*
X95675000Y-93050000D03*
%TD*%
%TO.C,D29*%
X57905000Y-65800000D03*
X54355000Y-65800000D03*
%TD*%
D13*
%TO.C,SW7*%
X41022308Y-53401546D03*
X54411998Y-49919046D03*
%TD*%
D11*
%TO.C,D9*%
X94925000Y-66390000D03*
X91375000Y-66390000D03*
%TD*%
%TO.C,D17*%
X126640000Y-118850000D03*
X123090000Y-118850000D03*
%TD*%
D15*
%TO.C,SW16*%
X31120231Y-126821690D03*
X43599423Y-120848298D03*
%TD*%
D11*
%TO.C,D27*%
X81475000Y-79650000D03*
X77925000Y-79650000D03*
%TD*%
D16*
%TO.C,SW17*%
X104403981Y-124850141D03*
X118152349Y-126397381D03*
%TD*%
D11*
%TO.C,D19*%
X115205000Y-79230000D03*
X111655000Y-79230000D03*
%TD*%
%TO.C,D23*%
X94915000Y-68300000D03*
X91365000Y-68300000D03*
%TD*%
%TO.C,D5*%
X117670000Y-56370000D03*
X114120000Y-56370000D03*
%TD*%
D17*
%TO.C,SW9*%
X91517343Y-55086083D03*
X105286967Y-53741067D03*
%TD*%
D11*
%TO.C,D25*%
X81475000Y-39570000D03*
X77925000Y-39570000D03*
%TD*%
%TO.C,D34*%
X42085000Y-117240000D03*
X38535000Y-117240000D03*
%TD*%
D10*
%TO.C,SW6*%
X17741110Y-73250069D03*
X30893224Y-68956642D03*
%TD*%
D11*
%TO.C,D16*%
X42075000Y-114830000D03*
X38525000Y-114830000D03*
%TD*%
%TO.C,D6*%
X35945000Y-82700000D03*
X32395000Y-82700000D03*
%TD*%
D13*
%TO.C,SW2*%
X39582308Y-33381546D03*
X52971998Y-29899046D03*
%TD*%
D11*
%TO.C,D26*%
X81475000Y-60160000D03*
X77925000Y-60160000D03*
%TD*%
%TO.C,D30*%
X57905000Y-85360000D03*
X54355000Y-85360000D03*
%TD*%
D12*
%TO.C,SW14*%
X95064132Y-102965576D03*
X108664132Y-100425576D03*
%TD*%
%TO.C,SW3*%
X66474132Y-26715576D03*
X80074132Y-24175576D03*
%TD*%
D11*
%TO.C,D33*%
X36990000Y-104660000D03*
X33440000Y-104660000D03*
%TD*%
D17*
%TO.C,SW4*%
X93237343Y-35196083D03*
X107006967Y-33851067D03*
%TD*%
D11*
%TO.C,D21*%
X126645000Y-120870000D03*
X123095000Y-120870000D03*
%TD*%
%TO.C,D4*%
X98275000Y-26430000D03*
X94725000Y-26430000D03*
%TD*%
D12*
%TO.C,SW13*%
X66504132Y-66765576D03*
X80104132Y-64225576D03*
%TD*%
D11*
%TO.C,D12*%
X57905000Y-83460000D03*
X54355000Y-83460000D03*
%TD*%
D14*
%TO.C,SW5*%
X114514086Y-45026881D03*
X128322262Y-44163236D03*
%TD*%
D11*
%TO.C,D7*%
X57905000Y-63660000D03*
X54355000Y-63660000D03*
%TD*%
D10*
%TO.C,SW1*%
X15111110Y-53440069D03*
X28263224Y-49146642D03*
%TD*%
D11*
%TO.C,D22*%
X98265000Y-28390000D03*
X94715000Y-28390000D03*
%TD*%
%TO.C,D10*%
X115225000Y-77160000D03*
X111675000Y-77160000D03*
%TD*%
%TO.C,D1*%
X32270000Y-62780000D03*
X28720000Y-62780000D03*
%TD*%
%TO.C,D13*%
X81475000Y-77670000D03*
X77925000Y-77670000D03*
%TD*%
D18*
%TO.C,SW15*%
X119929455Y-104141903D03*
X133759360Y-103760684D03*
%TD*%
D11*
%TO.C,D11*%
X37005000Y-102600000D03*
X33455000Y-102600000D03*
%TD*%
%TO.C,D3*%
X81475000Y-37630000D03*
X77925000Y-37630000D03*
%TD*%
%TO.C,D32*%
X35945000Y-84750000D03*
X32395000Y-84750000D03*
%TD*%
%TO.C,D24*%
X99225000Y-95000000D03*
X95675000Y-95000000D03*
%TD*%
%TO.C,D18*%
X117675000Y-58440000D03*
X114125000Y-58440000D03*
%TD*%
%TO.C,D8*%
X81475000Y-58100000D03*
X77925000Y-58100000D03*
%TD*%
M02*
