%TF.GenerationSoftware,KiCad,Pcbnew,7.0.7*%
%TF.CreationDate,2024-06-25T00:35:16+09:00*%
%TF.ProjectId,hmproto34,686d7072-6f74-46f3-9334-2e6b69636164,rev?*%
%TF.SameCoordinates,Original*%
%TF.FileFunction,Legend,Top*%
%TF.FilePolarity,Positive*%
%FSLAX46Y46*%
G04 Gerber Fmt 4.6, Leading zero omitted, Abs format (unit mm)*
G04 Created by KiCad (PCBNEW 7.0.7) date 2024-06-25 00:35:16*
%MOMM*%
%LPD*%
G01*
G04 APERTURE LIST*
%ADD10C,0.150000*%
%ADD11C,0.600000*%
%ADD12C,0.125000*%
%ADD13C,0.120000*%
%ADD14C,0.300000*%
%ADD15C,0.500000*%
%ADD16C,0.800000*%
%ADD17C,3.000000*%
%ADD18C,3.500000*%
%ADD19C,1.000000*%
%ADD20C,0.400000*%
%ADD21C,2.000000*%
%ADD22C,4.000000*%
%ADD23R,1.397000X1.397000*%
%ADD24C,1.397000*%
%ADD25C,1.200000*%
%ADD26O,2.500000X1.700000*%
%ADD27C,1.524000*%
G04 APERTURE END LIST*
D10*
X80231779Y-129929819D02*
X80231779Y-128929819D01*
X80231779Y-128929819D02*
X80612731Y-128929819D01*
X80612731Y-128929819D02*
X80707969Y-128977438D01*
X80707969Y-128977438D02*
X80755588Y-129025057D01*
X80755588Y-129025057D02*
X80803207Y-129120295D01*
X80803207Y-129120295D02*
X80803207Y-129263152D01*
X80803207Y-129263152D02*
X80755588Y-129358390D01*
X80755588Y-129358390D02*
X80707969Y-129406009D01*
X80707969Y-129406009D02*
X80612731Y-129453628D01*
X80612731Y-129453628D02*
X80231779Y-129453628D01*
X81803207Y-129834580D02*
X81755588Y-129882200D01*
X81755588Y-129882200D02*
X81612731Y-129929819D01*
X81612731Y-129929819D02*
X81517493Y-129929819D01*
X81517493Y-129929819D02*
X81374636Y-129882200D01*
X81374636Y-129882200D02*
X81279398Y-129786961D01*
X81279398Y-129786961D02*
X81231779Y-129691723D01*
X81231779Y-129691723D02*
X81184160Y-129501247D01*
X81184160Y-129501247D02*
X81184160Y-129358390D01*
X81184160Y-129358390D02*
X81231779Y-129167914D01*
X81231779Y-129167914D02*
X81279398Y-129072676D01*
X81279398Y-129072676D02*
X81374636Y-128977438D01*
X81374636Y-128977438D02*
X81517493Y-128929819D01*
X81517493Y-128929819D02*
X81612731Y-128929819D01*
X81612731Y-128929819D02*
X81755588Y-128977438D01*
X81755588Y-128977438D02*
X81803207Y-129025057D01*
X82565112Y-129406009D02*
X82707969Y-129453628D01*
X82707969Y-129453628D02*
X82755588Y-129501247D01*
X82755588Y-129501247D02*
X82803207Y-129596485D01*
X82803207Y-129596485D02*
X82803207Y-129739342D01*
X82803207Y-129739342D02*
X82755588Y-129834580D01*
X82755588Y-129834580D02*
X82707969Y-129882200D01*
X82707969Y-129882200D02*
X82612731Y-129929819D01*
X82612731Y-129929819D02*
X82231779Y-129929819D01*
X82231779Y-129929819D02*
X82231779Y-128929819D01*
X82231779Y-128929819D02*
X82565112Y-128929819D01*
X82565112Y-128929819D02*
X82660350Y-128977438D01*
X82660350Y-128977438D02*
X82707969Y-129025057D01*
X82707969Y-129025057D02*
X82755588Y-129120295D01*
X82755588Y-129120295D02*
X82755588Y-129215533D01*
X82755588Y-129215533D02*
X82707969Y-129310771D01*
X82707969Y-129310771D02*
X82660350Y-129358390D01*
X82660350Y-129358390D02*
X82565112Y-129406009D01*
X82565112Y-129406009D02*
X82231779Y-129406009D01*
X84422255Y-129929819D02*
X84422255Y-128929819D01*
X84422255Y-129882200D02*
X84327017Y-129929819D01*
X84327017Y-129929819D02*
X84136541Y-129929819D01*
X84136541Y-129929819D02*
X84041303Y-129882200D01*
X84041303Y-129882200D02*
X83993684Y-129834580D01*
X83993684Y-129834580D02*
X83946065Y-129739342D01*
X83946065Y-129739342D02*
X83946065Y-129453628D01*
X83946065Y-129453628D02*
X83993684Y-129358390D01*
X83993684Y-129358390D02*
X84041303Y-129310771D01*
X84041303Y-129310771D02*
X84136541Y-129263152D01*
X84136541Y-129263152D02*
X84327017Y-129263152D01*
X84327017Y-129263152D02*
X84422255Y-129310771D01*
X85279398Y-129882200D02*
X85184160Y-129929819D01*
X85184160Y-129929819D02*
X84993684Y-129929819D01*
X84993684Y-129929819D02*
X84898446Y-129882200D01*
X84898446Y-129882200D02*
X84850827Y-129786961D01*
X84850827Y-129786961D02*
X84850827Y-129406009D01*
X84850827Y-129406009D02*
X84898446Y-129310771D01*
X84898446Y-129310771D02*
X84993684Y-129263152D01*
X84993684Y-129263152D02*
X85184160Y-129263152D01*
X85184160Y-129263152D02*
X85279398Y-129310771D01*
X85279398Y-129310771D02*
X85327017Y-129406009D01*
X85327017Y-129406009D02*
X85327017Y-129501247D01*
X85327017Y-129501247D02*
X84850827Y-129596485D01*
X85707970Y-129882200D02*
X85803208Y-129929819D01*
X85803208Y-129929819D02*
X85993684Y-129929819D01*
X85993684Y-129929819D02*
X86088922Y-129882200D01*
X86088922Y-129882200D02*
X86136541Y-129786961D01*
X86136541Y-129786961D02*
X86136541Y-129739342D01*
X86136541Y-129739342D02*
X86088922Y-129644104D01*
X86088922Y-129644104D02*
X85993684Y-129596485D01*
X85993684Y-129596485D02*
X85850827Y-129596485D01*
X85850827Y-129596485D02*
X85755589Y-129548866D01*
X85755589Y-129548866D02*
X85707970Y-129453628D01*
X85707970Y-129453628D02*
X85707970Y-129406009D01*
X85707970Y-129406009D02*
X85755589Y-129310771D01*
X85755589Y-129310771D02*
X85850827Y-129263152D01*
X85850827Y-129263152D02*
X85993684Y-129263152D01*
X85993684Y-129263152D02*
X86088922Y-129310771D01*
X86565113Y-129929819D02*
X86565113Y-129263152D01*
X86565113Y-128929819D02*
X86517494Y-128977438D01*
X86517494Y-128977438D02*
X86565113Y-129025057D01*
X86565113Y-129025057D02*
X86612732Y-128977438D01*
X86612732Y-128977438D02*
X86565113Y-128929819D01*
X86565113Y-128929819D02*
X86565113Y-129025057D01*
X87469874Y-129263152D02*
X87469874Y-130072676D01*
X87469874Y-130072676D02*
X87422255Y-130167914D01*
X87422255Y-130167914D02*
X87374636Y-130215533D01*
X87374636Y-130215533D02*
X87279398Y-130263152D01*
X87279398Y-130263152D02*
X87136541Y-130263152D01*
X87136541Y-130263152D02*
X87041303Y-130215533D01*
X87469874Y-129882200D02*
X87374636Y-129929819D01*
X87374636Y-129929819D02*
X87184160Y-129929819D01*
X87184160Y-129929819D02*
X87088922Y-129882200D01*
X87088922Y-129882200D02*
X87041303Y-129834580D01*
X87041303Y-129834580D02*
X86993684Y-129739342D01*
X86993684Y-129739342D02*
X86993684Y-129453628D01*
X86993684Y-129453628D02*
X87041303Y-129358390D01*
X87041303Y-129358390D02*
X87088922Y-129310771D01*
X87088922Y-129310771D02*
X87184160Y-129263152D01*
X87184160Y-129263152D02*
X87374636Y-129263152D01*
X87374636Y-129263152D02*
X87469874Y-129310771D01*
X87946065Y-129263152D02*
X87946065Y-129929819D01*
X87946065Y-129358390D02*
X87993684Y-129310771D01*
X87993684Y-129310771D02*
X88088922Y-129263152D01*
X88088922Y-129263152D02*
X88231779Y-129263152D01*
X88231779Y-129263152D02*
X88327017Y-129310771D01*
X88327017Y-129310771D02*
X88374636Y-129406009D01*
X88374636Y-129406009D02*
X88374636Y-129929819D01*
X89231779Y-129882200D02*
X89136541Y-129929819D01*
X89136541Y-129929819D02*
X88946065Y-129929819D01*
X88946065Y-129929819D02*
X88850827Y-129882200D01*
X88850827Y-129882200D02*
X88803208Y-129786961D01*
X88803208Y-129786961D02*
X88803208Y-129406009D01*
X88803208Y-129406009D02*
X88850827Y-129310771D01*
X88850827Y-129310771D02*
X88946065Y-129263152D01*
X88946065Y-129263152D02*
X89136541Y-129263152D01*
X89136541Y-129263152D02*
X89231779Y-129310771D01*
X89231779Y-129310771D02*
X89279398Y-129406009D01*
X89279398Y-129406009D02*
X89279398Y-129501247D01*
X89279398Y-129501247D02*
X88803208Y-129596485D01*
X90136541Y-129929819D02*
X90136541Y-128929819D01*
X90136541Y-129882200D02*
X90041303Y-129929819D01*
X90041303Y-129929819D02*
X89850827Y-129929819D01*
X89850827Y-129929819D02*
X89755589Y-129882200D01*
X89755589Y-129882200D02*
X89707970Y-129834580D01*
X89707970Y-129834580D02*
X89660351Y-129739342D01*
X89660351Y-129739342D02*
X89660351Y-129453628D01*
X89660351Y-129453628D02*
X89707970Y-129358390D01*
X89707970Y-129358390D02*
X89755589Y-129310771D01*
X89755589Y-129310771D02*
X89850827Y-129263152D01*
X89850827Y-129263152D02*
X90041303Y-129263152D01*
X90041303Y-129263152D02*
X90136541Y-129310771D01*
X91374637Y-129929819D02*
X91374637Y-128929819D01*
X91374637Y-129310771D02*
X91469875Y-129263152D01*
X91469875Y-129263152D02*
X91660351Y-129263152D01*
X91660351Y-129263152D02*
X91755589Y-129310771D01*
X91755589Y-129310771D02*
X91803208Y-129358390D01*
X91803208Y-129358390D02*
X91850827Y-129453628D01*
X91850827Y-129453628D02*
X91850827Y-129739342D01*
X91850827Y-129739342D02*
X91803208Y-129834580D01*
X91803208Y-129834580D02*
X91755589Y-129882200D01*
X91755589Y-129882200D02*
X91660351Y-129929819D01*
X91660351Y-129929819D02*
X91469875Y-129929819D01*
X91469875Y-129929819D02*
X91374637Y-129882200D01*
X92184161Y-129263152D02*
X92422256Y-129929819D01*
X92660351Y-129263152D02*
X92422256Y-129929819D01*
X92422256Y-129929819D02*
X92327018Y-130167914D01*
X92327018Y-130167914D02*
X92279399Y-130215533D01*
X92279399Y-130215533D02*
X92184161Y-130263152D01*
X93803209Y-129929819D02*
X93803209Y-128929819D01*
X94231780Y-129929819D02*
X94231780Y-129406009D01*
X94231780Y-129406009D02*
X94184161Y-129310771D01*
X94184161Y-129310771D02*
X94088923Y-129263152D01*
X94088923Y-129263152D02*
X93946066Y-129263152D01*
X93946066Y-129263152D02*
X93850828Y-129310771D01*
X93850828Y-129310771D02*
X93803209Y-129358390D01*
X94707971Y-129929819D02*
X94707971Y-129263152D01*
X94707971Y-129358390D02*
X94755590Y-129310771D01*
X94755590Y-129310771D02*
X94850828Y-129263152D01*
X94850828Y-129263152D02*
X94993685Y-129263152D01*
X94993685Y-129263152D02*
X95088923Y-129310771D01*
X95088923Y-129310771D02*
X95136542Y-129406009D01*
X95136542Y-129406009D02*
X95136542Y-129929819D01*
X95136542Y-129406009D02*
X95184161Y-129310771D01*
X95184161Y-129310771D02*
X95279399Y-129263152D01*
X95279399Y-129263152D02*
X95422256Y-129263152D01*
X95422256Y-129263152D02*
X95517495Y-129310771D01*
X95517495Y-129310771D02*
X95565114Y-129406009D01*
X95565114Y-129406009D02*
X95565114Y-129929819D01*
X96469875Y-129929819D02*
X96469875Y-129406009D01*
X96469875Y-129406009D02*
X96422256Y-129310771D01*
X96422256Y-129310771D02*
X96327018Y-129263152D01*
X96327018Y-129263152D02*
X96136542Y-129263152D01*
X96136542Y-129263152D02*
X96041304Y-129310771D01*
X96469875Y-129882200D02*
X96374637Y-129929819D01*
X96374637Y-129929819D02*
X96136542Y-129929819D01*
X96136542Y-129929819D02*
X96041304Y-129882200D01*
X96041304Y-129882200D02*
X95993685Y-129786961D01*
X95993685Y-129786961D02*
X95993685Y-129691723D01*
X95993685Y-129691723D02*
X96041304Y-129596485D01*
X96041304Y-129596485D02*
X96136542Y-129548866D01*
X96136542Y-129548866D02*
X96374637Y-129548866D01*
X96374637Y-129548866D02*
X96469875Y-129501247D01*
X96898447Y-129882200D02*
X96993685Y-129929819D01*
X96993685Y-129929819D02*
X97184161Y-129929819D01*
X97184161Y-129929819D02*
X97279399Y-129882200D01*
X97279399Y-129882200D02*
X97327018Y-129786961D01*
X97327018Y-129786961D02*
X97327018Y-129739342D01*
X97327018Y-129739342D02*
X97279399Y-129644104D01*
X97279399Y-129644104D02*
X97184161Y-129596485D01*
X97184161Y-129596485D02*
X97041304Y-129596485D01*
X97041304Y-129596485D02*
X96946066Y-129548866D01*
X96946066Y-129548866D02*
X96898447Y-129453628D01*
X96898447Y-129453628D02*
X96898447Y-129406009D01*
X96898447Y-129406009D02*
X96946066Y-129310771D01*
X96946066Y-129310771D02*
X97041304Y-129263152D01*
X97041304Y-129263152D02*
X97184161Y-129263152D01*
X97184161Y-129263152D02*
X97279399Y-129310771D01*
X98184161Y-129929819D02*
X98184161Y-128929819D01*
X98184161Y-129882200D02*
X98088923Y-129929819D01*
X98088923Y-129929819D02*
X97898447Y-129929819D01*
X97898447Y-129929819D02*
X97803209Y-129882200D01*
X97803209Y-129882200D02*
X97755590Y-129834580D01*
X97755590Y-129834580D02*
X97707971Y-129739342D01*
X97707971Y-129739342D02*
X97707971Y-129453628D01*
X97707971Y-129453628D02*
X97755590Y-129358390D01*
X97755590Y-129358390D02*
X97803209Y-129310771D01*
X97803209Y-129310771D02*
X97898447Y-129263152D01*
X97898447Y-129263152D02*
X98088923Y-129263152D01*
X98088923Y-129263152D02*
X98184161Y-129310771D01*
X99041304Y-129882200D02*
X98946066Y-129929819D01*
X98946066Y-129929819D02*
X98755590Y-129929819D01*
X98755590Y-129929819D02*
X98660352Y-129882200D01*
X98660352Y-129882200D02*
X98612733Y-129786961D01*
X98612733Y-129786961D02*
X98612733Y-129406009D01*
X98612733Y-129406009D02*
X98660352Y-129310771D01*
X98660352Y-129310771D02*
X98755590Y-129263152D01*
X98755590Y-129263152D02*
X98946066Y-129263152D01*
X98946066Y-129263152D02*
X99041304Y-129310771D01*
X99041304Y-129310771D02*
X99088923Y-129406009D01*
X99088923Y-129406009D02*
X99088923Y-129501247D01*
X99088923Y-129501247D02*
X98612733Y-129596485D01*
X99422257Y-129263152D02*
X99660352Y-129929819D01*
X99660352Y-129929819D02*
X99898447Y-129263152D01*
X96411779Y-131769819D02*
X96411779Y-131103152D01*
X96411779Y-131293628D02*
X96459398Y-131198390D01*
X96459398Y-131198390D02*
X96507017Y-131150771D01*
X96507017Y-131150771D02*
X96602255Y-131103152D01*
X96602255Y-131103152D02*
X96697493Y-131103152D01*
X97411779Y-131722200D02*
X97316541Y-131769819D01*
X97316541Y-131769819D02*
X97126065Y-131769819D01*
X97126065Y-131769819D02*
X97030827Y-131722200D01*
X97030827Y-131722200D02*
X96983208Y-131626961D01*
X96983208Y-131626961D02*
X96983208Y-131246009D01*
X96983208Y-131246009D02*
X97030827Y-131150771D01*
X97030827Y-131150771D02*
X97126065Y-131103152D01*
X97126065Y-131103152D02*
X97316541Y-131103152D01*
X97316541Y-131103152D02*
X97411779Y-131150771D01*
X97411779Y-131150771D02*
X97459398Y-131246009D01*
X97459398Y-131246009D02*
X97459398Y-131341247D01*
X97459398Y-131341247D02*
X96983208Y-131436485D01*
X97792732Y-131103152D02*
X98030827Y-131769819D01*
X98030827Y-131769819D02*
X98268922Y-131103152D01*
X99935589Y-131769819D02*
X99364161Y-131769819D01*
X99649875Y-131769819D02*
X99649875Y-130769819D01*
X99649875Y-130769819D02*
X99554637Y-130912676D01*
X99554637Y-130912676D02*
X99459399Y-131007914D01*
X99459399Y-131007914D02*
X99364161Y-131055533D01*
X100364161Y-131674580D02*
X100411780Y-131722200D01*
X100411780Y-131722200D02*
X100364161Y-131769819D01*
X100364161Y-131769819D02*
X100316542Y-131722200D01*
X100316542Y-131722200D02*
X100364161Y-131674580D01*
X100364161Y-131674580D02*
X100364161Y-131769819D01*
X101364160Y-131769819D02*
X100792732Y-131769819D01*
X101078446Y-131769819D02*
X101078446Y-130769819D01*
X101078446Y-130769819D02*
X100983208Y-130912676D01*
X100983208Y-130912676D02*
X100887970Y-131007914D01*
X100887970Y-131007914D02*
X100792732Y-131055533D01*
D11*
X52734021Y-131881657D02*
X52734021Y-128881657D01*
X54019736Y-131881657D02*
X54019736Y-130310228D01*
X54019736Y-130310228D02*
X53876878Y-130024514D01*
X53876878Y-130024514D02*
X53591164Y-129881657D01*
X53591164Y-129881657D02*
X53162593Y-129881657D01*
X53162593Y-129881657D02*
X52876878Y-130024514D01*
X52876878Y-130024514D02*
X52734021Y-130167371D01*
X55448307Y-131881657D02*
X55448307Y-129881657D01*
X55448307Y-130167371D02*
X55591164Y-130024514D01*
X55591164Y-130024514D02*
X55876879Y-129881657D01*
X55876879Y-129881657D02*
X56305450Y-129881657D01*
X56305450Y-129881657D02*
X56591164Y-130024514D01*
X56591164Y-130024514D02*
X56734022Y-130310228D01*
X56734022Y-130310228D02*
X56734022Y-131881657D01*
X56734022Y-130310228D02*
X56876879Y-130024514D01*
X56876879Y-130024514D02*
X57162593Y-129881657D01*
X57162593Y-129881657D02*
X57591164Y-129881657D01*
X57591164Y-129881657D02*
X57876879Y-130024514D01*
X57876879Y-130024514D02*
X58019736Y-130310228D01*
X58019736Y-130310228D02*
X58019736Y-131881657D01*
X59448307Y-129881657D02*
X59448307Y-132881657D01*
X59448307Y-130024514D02*
X59734022Y-129881657D01*
X59734022Y-129881657D02*
X60305450Y-129881657D01*
X60305450Y-129881657D02*
X60591164Y-130024514D01*
X60591164Y-130024514D02*
X60734022Y-130167371D01*
X60734022Y-130167371D02*
X60876879Y-130453085D01*
X60876879Y-130453085D02*
X60876879Y-131310228D01*
X60876879Y-131310228D02*
X60734022Y-131595942D01*
X60734022Y-131595942D02*
X60591164Y-131738800D01*
X60591164Y-131738800D02*
X60305450Y-131881657D01*
X60305450Y-131881657D02*
X59734022Y-131881657D01*
X59734022Y-131881657D02*
X59448307Y-131738800D01*
X62162593Y-131881657D02*
X62162593Y-129881657D01*
X62162593Y-130453085D02*
X62305450Y-130167371D01*
X62305450Y-130167371D02*
X62448308Y-130024514D01*
X62448308Y-130024514D02*
X62734022Y-129881657D01*
X62734022Y-129881657D02*
X63019736Y-129881657D01*
X64448308Y-131881657D02*
X64162593Y-131738800D01*
X64162593Y-131738800D02*
X64019736Y-131595942D01*
X64019736Y-131595942D02*
X63876879Y-131310228D01*
X63876879Y-131310228D02*
X63876879Y-130453085D01*
X63876879Y-130453085D02*
X64019736Y-130167371D01*
X64019736Y-130167371D02*
X64162593Y-130024514D01*
X64162593Y-130024514D02*
X64448308Y-129881657D01*
X64448308Y-129881657D02*
X64876879Y-129881657D01*
X64876879Y-129881657D02*
X65162593Y-130024514D01*
X65162593Y-130024514D02*
X65305451Y-130167371D01*
X65305451Y-130167371D02*
X65448308Y-130453085D01*
X65448308Y-130453085D02*
X65448308Y-131310228D01*
X65448308Y-131310228D02*
X65305451Y-131595942D01*
X65305451Y-131595942D02*
X65162593Y-131738800D01*
X65162593Y-131738800D02*
X64876879Y-131881657D01*
X64876879Y-131881657D02*
X64448308Y-131881657D01*
X66305451Y-129881657D02*
X67448308Y-129881657D01*
X66734022Y-128881657D02*
X66734022Y-131453085D01*
X66734022Y-131453085D02*
X66876879Y-131738800D01*
X66876879Y-131738800D02*
X67162594Y-131881657D01*
X67162594Y-131881657D02*
X67448308Y-131881657D01*
X68876880Y-131881657D02*
X68591165Y-131738800D01*
X68591165Y-131738800D02*
X68448308Y-131595942D01*
X68448308Y-131595942D02*
X68305451Y-131310228D01*
X68305451Y-131310228D02*
X68305451Y-130453085D01*
X68305451Y-130453085D02*
X68448308Y-130167371D01*
X68448308Y-130167371D02*
X68591165Y-130024514D01*
X68591165Y-130024514D02*
X68876880Y-129881657D01*
X68876880Y-129881657D02*
X69305451Y-129881657D01*
X69305451Y-129881657D02*
X69591165Y-130024514D01*
X69591165Y-130024514D02*
X69734023Y-130167371D01*
X69734023Y-130167371D02*
X69876880Y-130453085D01*
X69876880Y-130453085D02*
X69876880Y-131310228D01*
X69876880Y-131310228D02*
X69734023Y-131595942D01*
X69734023Y-131595942D02*
X69591165Y-131738800D01*
X69591165Y-131738800D02*
X69305451Y-131881657D01*
X69305451Y-131881657D02*
X68876880Y-131881657D01*
X70876880Y-128881657D02*
X72734023Y-128881657D01*
X72734023Y-128881657D02*
X71734023Y-130024514D01*
X71734023Y-130024514D02*
X72162594Y-130024514D01*
X72162594Y-130024514D02*
X72448309Y-130167371D01*
X72448309Y-130167371D02*
X72591166Y-130310228D01*
X72591166Y-130310228D02*
X72734023Y-130595942D01*
X72734023Y-130595942D02*
X72734023Y-131310228D01*
X72734023Y-131310228D02*
X72591166Y-131595942D01*
X72591166Y-131595942D02*
X72448309Y-131738800D01*
X72448309Y-131738800D02*
X72162594Y-131881657D01*
X72162594Y-131881657D02*
X71305451Y-131881657D01*
X71305451Y-131881657D02*
X71019737Y-131738800D01*
X71019737Y-131738800D02*
X70876880Y-131595942D01*
X75305452Y-129881657D02*
X75305452Y-131881657D01*
X74591166Y-128738800D02*
X73876880Y-130881657D01*
X73876880Y-130881657D02*
X75734023Y-130881657D01*
X76734023Y-131738800D02*
X77162595Y-131881657D01*
X77162595Y-131881657D02*
X77876880Y-131881657D01*
X77876880Y-131881657D02*
X78162595Y-131738800D01*
X78162595Y-131738800D02*
X78305452Y-131595942D01*
X78305452Y-131595942D02*
X78448309Y-131310228D01*
X78448309Y-131310228D02*
X78448309Y-131024514D01*
X78448309Y-131024514D02*
X78305452Y-130738800D01*
X78305452Y-130738800D02*
X78162595Y-130595942D01*
X78162595Y-130595942D02*
X77876880Y-130453085D01*
X77876880Y-130453085D02*
X77305452Y-130310228D01*
X77305452Y-130310228D02*
X77019737Y-130167371D01*
X77019737Y-130167371D02*
X76876880Y-130024514D01*
X76876880Y-130024514D02*
X76734023Y-129738800D01*
X76734023Y-129738800D02*
X76734023Y-129453085D01*
X76734023Y-129453085D02*
X76876880Y-129167371D01*
X76876880Y-129167371D02*
X77019737Y-129024514D01*
X77019737Y-129024514D02*
X77305452Y-128881657D01*
X77305452Y-128881657D02*
X78019737Y-128881657D01*
X78019737Y-128881657D02*
X78448309Y-129024514D01*
D10*
X120364819Y-34867381D02*
X119888628Y-35200714D01*
X120364819Y-35438809D02*
X119364819Y-35438809D01*
X119364819Y-35438809D02*
X119364819Y-35057857D01*
X119364819Y-35057857D02*
X119412438Y-34962619D01*
X119412438Y-34962619D02*
X119460057Y-34915000D01*
X119460057Y-34915000D02*
X119555295Y-34867381D01*
X119555295Y-34867381D02*
X119698152Y-34867381D01*
X119698152Y-34867381D02*
X119793390Y-34915000D01*
X119793390Y-34915000D02*
X119841009Y-34962619D01*
X119841009Y-34962619D02*
X119888628Y-35057857D01*
X119888628Y-35057857D02*
X119888628Y-35438809D01*
X119841009Y-34438809D02*
X119841009Y-34105476D01*
X120364819Y-33962619D02*
X120364819Y-34438809D01*
X120364819Y-34438809D02*
X119364819Y-34438809D01*
X119364819Y-34438809D02*
X119364819Y-33962619D01*
X120317200Y-33581666D02*
X120364819Y-33438809D01*
X120364819Y-33438809D02*
X120364819Y-33200714D01*
X120364819Y-33200714D02*
X120317200Y-33105476D01*
X120317200Y-33105476D02*
X120269580Y-33057857D01*
X120269580Y-33057857D02*
X120174342Y-33010238D01*
X120174342Y-33010238D02*
X120079104Y-33010238D01*
X120079104Y-33010238D02*
X119983866Y-33057857D01*
X119983866Y-33057857D02*
X119936247Y-33105476D01*
X119936247Y-33105476D02*
X119888628Y-33200714D01*
X119888628Y-33200714D02*
X119841009Y-33391190D01*
X119841009Y-33391190D02*
X119793390Y-33486428D01*
X119793390Y-33486428D02*
X119745771Y-33534047D01*
X119745771Y-33534047D02*
X119650533Y-33581666D01*
X119650533Y-33581666D02*
X119555295Y-33581666D01*
X119555295Y-33581666D02*
X119460057Y-33534047D01*
X119460057Y-33534047D02*
X119412438Y-33486428D01*
X119412438Y-33486428D02*
X119364819Y-33391190D01*
X119364819Y-33391190D02*
X119364819Y-33153095D01*
X119364819Y-33153095D02*
X119412438Y-33010238D01*
X119841009Y-32581666D02*
X119841009Y-32248333D01*
X120364819Y-32105476D02*
X120364819Y-32581666D01*
X120364819Y-32581666D02*
X119364819Y-32581666D01*
X119364819Y-32581666D02*
X119364819Y-32105476D01*
X119364819Y-31819761D02*
X119364819Y-31248333D01*
X120364819Y-31534047D02*
X119364819Y-31534047D01*
X46469819Y-16773333D02*
X47184104Y-16773333D01*
X47184104Y-16773333D02*
X47326961Y-16820952D01*
X47326961Y-16820952D02*
X47422200Y-16916190D01*
X47422200Y-16916190D02*
X47469819Y-17059047D01*
X47469819Y-17059047D02*
X47469819Y-17154285D01*
X47469819Y-16297142D02*
X46469819Y-16297142D01*
X46469819Y-16297142D02*
X46469819Y-15916190D01*
X46469819Y-15916190D02*
X46517438Y-15820952D01*
X46517438Y-15820952D02*
X46565057Y-15773333D01*
X46565057Y-15773333D02*
X46660295Y-15725714D01*
X46660295Y-15725714D02*
X46803152Y-15725714D01*
X46803152Y-15725714D02*
X46898390Y-15773333D01*
X46898390Y-15773333D02*
X46946009Y-15820952D01*
X46946009Y-15820952D02*
X46993628Y-15916190D01*
X46993628Y-15916190D02*
X46993628Y-16297142D01*
X46565057Y-15344761D02*
X46517438Y-15297142D01*
X46517438Y-15297142D02*
X46469819Y-15201904D01*
X46469819Y-15201904D02*
X46469819Y-14963809D01*
X46469819Y-14963809D02*
X46517438Y-14868571D01*
X46517438Y-14868571D02*
X46565057Y-14820952D01*
X46565057Y-14820952D02*
X46660295Y-14773333D01*
X46660295Y-14773333D02*
X46755533Y-14773333D01*
X46755533Y-14773333D02*
X46898390Y-14820952D01*
X46898390Y-14820952D02*
X47469819Y-15392380D01*
X47469819Y-15392380D02*
X47469819Y-14773333D01*
X48194819Y-16773333D02*
X48909104Y-16773333D01*
X48909104Y-16773333D02*
X49051961Y-16820952D01*
X49051961Y-16820952D02*
X49147200Y-16916190D01*
X49147200Y-16916190D02*
X49194819Y-17059047D01*
X49194819Y-17059047D02*
X49194819Y-17154285D01*
X49194819Y-16297142D02*
X48194819Y-16297142D01*
X48194819Y-16297142D02*
X48194819Y-15916190D01*
X48194819Y-15916190D02*
X48242438Y-15820952D01*
X48242438Y-15820952D02*
X48290057Y-15773333D01*
X48290057Y-15773333D02*
X48385295Y-15725714D01*
X48385295Y-15725714D02*
X48528152Y-15725714D01*
X48528152Y-15725714D02*
X48623390Y-15773333D01*
X48623390Y-15773333D02*
X48671009Y-15820952D01*
X48671009Y-15820952D02*
X48718628Y-15916190D01*
X48718628Y-15916190D02*
X48718628Y-16297142D01*
X48194819Y-15392380D02*
X48194819Y-14773333D01*
X48194819Y-14773333D02*
X48575771Y-15106666D01*
X48575771Y-15106666D02*
X48575771Y-14963809D01*
X48575771Y-14963809D02*
X48623390Y-14868571D01*
X48623390Y-14868571D02*
X48671009Y-14820952D01*
X48671009Y-14820952D02*
X48766247Y-14773333D01*
X48766247Y-14773333D02*
X49004342Y-14773333D01*
X49004342Y-14773333D02*
X49099580Y-14820952D01*
X49099580Y-14820952D02*
X49147200Y-14868571D01*
X49147200Y-14868571D02*
X49194819Y-14963809D01*
X49194819Y-14963809D02*
X49194819Y-15249523D01*
X49194819Y-15249523D02*
X49147200Y-15344761D01*
X49147200Y-15344761D02*
X49099580Y-15392380D01*
X58844819Y-16773333D02*
X59559104Y-16773333D01*
X59559104Y-16773333D02*
X59701961Y-16820952D01*
X59701961Y-16820952D02*
X59797200Y-16916190D01*
X59797200Y-16916190D02*
X59844819Y-17059047D01*
X59844819Y-17059047D02*
X59844819Y-17154285D01*
X59844819Y-16297142D02*
X58844819Y-16297142D01*
X58844819Y-16297142D02*
X58844819Y-15916190D01*
X58844819Y-15916190D02*
X58892438Y-15820952D01*
X58892438Y-15820952D02*
X58940057Y-15773333D01*
X58940057Y-15773333D02*
X59035295Y-15725714D01*
X59035295Y-15725714D02*
X59178152Y-15725714D01*
X59178152Y-15725714D02*
X59273390Y-15773333D01*
X59273390Y-15773333D02*
X59321009Y-15820952D01*
X59321009Y-15820952D02*
X59368628Y-15916190D01*
X59368628Y-15916190D02*
X59368628Y-16297142D01*
X58844819Y-14820952D02*
X58844819Y-15297142D01*
X58844819Y-15297142D02*
X59321009Y-15344761D01*
X59321009Y-15344761D02*
X59273390Y-15297142D01*
X59273390Y-15297142D02*
X59225771Y-15201904D01*
X59225771Y-15201904D02*
X59225771Y-14963809D01*
X59225771Y-14963809D02*
X59273390Y-14868571D01*
X59273390Y-14868571D02*
X59321009Y-14820952D01*
X59321009Y-14820952D02*
X59416247Y-14773333D01*
X59416247Y-14773333D02*
X59654342Y-14773333D01*
X59654342Y-14773333D02*
X59749580Y-14820952D01*
X59749580Y-14820952D02*
X59797200Y-14868571D01*
X59797200Y-14868571D02*
X59844819Y-14963809D01*
X59844819Y-14963809D02*
X59844819Y-15201904D01*
X59844819Y-15201904D02*
X59797200Y-15297142D01*
X59797200Y-15297142D02*
X59749580Y-15344761D01*
X41144819Y-16773333D02*
X41859104Y-16773333D01*
X41859104Y-16773333D02*
X42001961Y-16820952D01*
X42001961Y-16820952D02*
X42097200Y-16916190D01*
X42097200Y-16916190D02*
X42144819Y-17059047D01*
X42144819Y-17059047D02*
X42144819Y-17154285D01*
X42144819Y-16297142D02*
X41144819Y-16297142D01*
X41144819Y-16297142D02*
X41144819Y-15916190D01*
X41144819Y-15916190D02*
X41192438Y-15820952D01*
X41192438Y-15820952D02*
X41240057Y-15773333D01*
X41240057Y-15773333D02*
X41335295Y-15725714D01*
X41335295Y-15725714D02*
X41478152Y-15725714D01*
X41478152Y-15725714D02*
X41573390Y-15773333D01*
X41573390Y-15773333D02*
X41621009Y-15820952D01*
X41621009Y-15820952D02*
X41668628Y-15916190D01*
X41668628Y-15916190D02*
X41668628Y-16297142D01*
X42144819Y-14773333D02*
X42144819Y-15344761D01*
X42144819Y-15059047D02*
X41144819Y-15059047D01*
X41144819Y-15059047D02*
X41287676Y-15154285D01*
X41287676Y-15154285D02*
X41382914Y-15249523D01*
X41382914Y-15249523D02*
X41430533Y-15344761D01*
X130844819Y-35301904D02*
X130844819Y-34730476D01*
X131844819Y-35016190D02*
X130844819Y-35016190D01*
X131844819Y-33825714D02*
X131368628Y-34159047D01*
X131844819Y-34397142D02*
X130844819Y-34397142D01*
X130844819Y-34397142D02*
X130844819Y-34016190D01*
X130844819Y-34016190D02*
X130892438Y-33920952D01*
X130892438Y-33920952D02*
X130940057Y-33873333D01*
X130940057Y-33873333D02*
X131035295Y-33825714D01*
X131035295Y-33825714D02*
X131178152Y-33825714D01*
X131178152Y-33825714D02*
X131273390Y-33873333D01*
X131273390Y-33873333D02*
X131321009Y-33920952D01*
X131321009Y-33920952D02*
X131368628Y-34016190D01*
X131368628Y-34016190D02*
X131368628Y-34397142D01*
X131844819Y-32825714D02*
X131368628Y-33159047D01*
X131844819Y-33397142D02*
X130844819Y-33397142D01*
X130844819Y-33397142D02*
X130844819Y-33016190D01*
X130844819Y-33016190D02*
X130892438Y-32920952D01*
X130892438Y-32920952D02*
X130940057Y-32873333D01*
X130940057Y-32873333D02*
X131035295Y-32825714D01*
X131035295Y-32825714D02*
X131178152Y-32825714D01*
X131178152Y-32825714D02*
X131273390Y-32873333D01*
X131273390Y-32873333D02*
X131321009Y-32920952D01*
X131321009Y-32920952D02*
X131368628Y-33016190D01*
X131368628Y-33016190D02*
X131368628Y-33397142D01*
X131797200Y-32444761D02*
X131844819Y-32301904D01*
X131844819Y-32301904D02*
X131844819Y-32063809D01*
X131844819Y-32063809D02*
X131797200Y-31968571D01*
X131797200Y-31968571D02*
X131749580Y-31920952D01*
X131749580Y-31920952D02*
X131654342Y-31873333D01*
X131654342Y-31873333D02*
X131559104Y-31873333D01*
X131559104Y-31873333D02*
X131463866Y-31920952D01*
X131463866Y-31920952D02*
X131416247Y-31968571D01*
X131416247Y-31968571D02*
X131368628Y-32063809D01*
X131368628Y-32063809D02*
X131321009Y-32254285D01*
X131321009Y-32254285D02*
X131273390Y-32349523D01*
X131273390Y-32349523D02*
X131225771Y-32397142D01*
X131225771Y-32397142D02*
X131130533Y-32444761D01*
X131130533Y-32444761D02*
X131035295Y-32444761D01*
X131035295Y-32444761D02*
X130940057Y-32397142D01*
X130940057Y-32397142D02*
X130892438Y-32349523D01*
X130892438Y-32349523D02*
X130844819Y-32254285D01*
X130844819Y-32254285D02*
X130844819Y-32016190D01*
X130844819Y-32016190D02*
X130892438Y-31873333D01*
X14276666Y-93934819D02*
X14276666Y-94649104D01*
X14276666Y-94649104D02*
X14229047Y-94791961D01*
X14229047Y-94791961D02*
X14133809Y-94887200D01*
X14133809Y-94887200D02*
X13990952Y-94934819D01*
X13990952Y-94934819D02*
X13895714Y-94934819D01*
X14705238Y-94030057D02*
X14752857Y-93982438D01*
X14752857Y-93982438D02*
X14848095Y-93934819D01*
X14848095Y-93934819D02*
X15086190Y-93934819D01*
X15086190Y-93934819D02*
X15181428Y-93982438D01*
X15181428Y-93982438D02*
X15229047Y-94030057D01*
X15229047Y-94030057D02*
X15276666Y-94125295D01*
X15276666Y-94125295D02*
X15276666Y-94220533D01*
X15276666Y-94220533D02*
X15229047Y-94363390D01*
X15229047Y-94363390D02*
X14657619Y-94934819D01*
X14657619Y-94934819D02*
X15276666Y-94934819D01*
D12*
X29829047Y-36473964D02*
X29662381Y-36116821D01*
X29543333Y-36473964D02*
X29543333Y-35723964D01*
X29543333Y-35723964D02*
X29733809Y-35723964D01*
X29733809Y-35723964D02*
X29781428Y-35759678D01*
X29781428Y-35759678D02*
X29805238Y-35795392D01*
X29805238Y-35795392D02*
X29829047Y-35866821D01*
X29829047Y-35866821D02*
X29829047Y-35973964D01*
X29829047Y-35973964D02*
X29805238Y-36045392D01*
X29805238Y-36045392D02*
X29781428Y-36081107D01*
X29781428Y-36081107D02*
X29733809Y-36116821D01*
X29733809Y-36116821D02*
X29543333Y-36116821D01*
X30138571Y-35723964D02*
X30233809Y-35723964D01*
X30233809Y-35723964D02*
X30281428Y-35759678D01*
X30281428Y-35759678D02*
X30329047Y-35831107D01*
X30329047Y-35831107D02*
X30352857Y-35973964D01*
X30352857Y-35973964D02*
X30352857Y-36223964D01*
X30352857Y-36223964D02*
X30329047Y-36366821D01*
X30329047Y-36366821D02*
X30281428Y-36438250D01*
X30281428Y-36438250D02*
X30233809Y-36473964D01*
X30233809Y-36473964D02*
X30138571Y-36473964D01*
X30138571Y-36473964D02*
X30090952Y-36438250D01*
X30090952Y-36438250D02*
X30043333Y-36366821D01*
X30043333Y-36366821D02*
X30019524Y-36223964D01*
X30019524Y-36223964D02*
X30019524Y-35973964D01*
X30019524Y-35973964D02*
X30043333Y-35831107D01*
X30043333Y-35831107D02*
X30090952Y-35759678D01*
X30090952Y-35759678D02*
X30138571Y-35723964D01*
X30519524Y-35723964D02*
X30638572Y-36473964D01*
X30638572Y-36473964D02*
X30733810Y-35938250D01*
X30733810Y-35938250D02*
X30829048Y-36473964D01*
X30829048Y-36473964D02*
X30948096Y-35723964D01*
X31090953Y-35723964D02*
X31400477Y-35723964D01*
X31400477Y-35723964D02*
X31233810Y-36009678D01*
X31233810Y-36009678D02*
X31305239Y-36009678D01*
X31305239Y-36009678D02*
X31352858Y-36045392D01*
X31352858Y-36045392D02*
X31376667Y-36081107D01*
X31376667Y-36081107D02*
X31400477Y-36152535D01*
X31400477Y-36152535D02*
X31400477Y-36331107D01*
X31400477Y-36331107D02*
X31376667Y-36402535D01*
X31376667Y-36402535D02*
X31352858Y-36438250D01*
X31352858Y-36438250D02*
X31305239Y-36473964D01*
X31305239Y-36473964D02*
X31162382Y-36473964D01*
X31162382Y-36473964D02*
X31114763Y-36438250D01*
X31114763Y-36438250D02*
X31090953Y-36402535D01*
X14812380Y-28719035D02*
X14788571Y-28754750D01*
X14788571Y-28754750D02*
X14717142Y-28790464D01*
X14717142Y-28790464D02*
X14669523Y-28790464D01*
X14669523Y-28790464D02*
X14598095Y-28754750D01*
X14598095Y-28754750D02*
X14550476Y-28683321D01*
X14550476Y-28683321D02*
X14526666Y-28611892D01*
X14526666Y-28611892D02*
X14502857Y-28469035D01*
X14502857Y-28469035D02*
X14502857Y-28361892D01*
X14502857Y-28361892D02*
X14526666Y-28219035D01*
X14526666Y-28219035D02*
X14550476Y-28147607D01*
X14550476Y-28147607D02*
X14598095Y-28076178D01*
X14598095Y-28076178D02*
X14669523Y-28040464D01*
X14669523Y-28040464D02*
X14717142Y-28040464D01*
X14717142Y-28040464D02*
X14788571Y-28076178D01*
X14788571Y-28076178D02*
X14812380Y-28111892D01*
X15121904Y-28040464D02*
X15217142Y-28040464D01*
X15217142Y-28040464D02*
X15264761Y-28076178D01*
X15264761Y-28076178D02*
X15312380Y-28147607D01*
X15312380Y-28147607D02*
X15336190Y-28290464D01*
X15336190Y-28290464D02*
X15336190Y-28540464D01*
X15336190Y-28540464D02*
X15312380Y-28683321D01*
X15312380Y-28683321D02*
X15264761Y-28754750D01*
X15264761Y-28754750D02*
X15217142Y-28790464D01*
X15217142Y-28790464D02*
X15121904Y-28790464D01*
X15121904Y-28790464D02*
X15074285Y-28754750D01*
X15074285Y-28754750D02*
X15026666Y-28683321D01*
X15026666Y-28683321D02*
X15002857Y-28540464D01*
X15002857Y-28540464D02*
X15002857Y-28290464D01*
X15002857Y-28290464D02*
X15026666Y-28147607D01*
X15026666Y-28147607D02*
X15074285Y-28076178D01*
X15074285Y-28076178D02*
X15121904Y-28040464D01*
X15788571Y-28790464D02*
X15550476Y-28790464D01*
X15550476Y-28790464D02*
X15550476Y-28040464D01*
X15931429Y-28111892D02*
X15955238Y-28076178D01*
X15955238Y-28076178D02*
X16002857Y-28040464D01*
X16002857Y-28040464D02*
X16121905Y-28040464D01*
X16121905Y-28040464D02*
X16169524Y-28076178D01*
X16169524Y-28076178D02*
X16193333Y-28111892D01*
X16193333Y-28111892D02*
X16217143Y-28183321D01*
X16217143Y-28183321D02*
X16217143Y-28254750D01*
X16217143Y-28254750D02*
X16193333Y-28361892D01*
X16193333Y-28361892D02*
X15907619Y-28790464D01*
X15907619Y-28790464D02*
X16217143Y-28790464D01*
X30257619Y-41161107D02*
X30329047Y-41196821D01*
X30329047Y-41196821D02*
X30352857Y-41232535D01*
X30352857Y-41232535D02*
X30376666Y-41303964D01*
X30376666Y-41303964D02*
X30376666Y-41411107D01*
X30376666Y-41411107D02*
X30352857Y-41482535D01*
X30352857Y-41482535D02*
X30329047Y-41518250D01*
X30329047Y-41518250D02*
X30281428Y-41553964D01*
X30281428Y-41553964D02*
X30090952Y-41553964D01*
X30090952Y-41553964D02*
X30090952Y-40803964D01*
X30090952Y-40803964D02*
X30257619Y-40803964D01*
X30257619Y-40803964D02*
X30305238Y-40839678D01*
X30305238Y-40839678D02*
X30329047Y-40875392D01*
X30329047Y-40875392D02*
X30352857Y-40946821D01*
X30352857Y-40946821D02*
X30352857Y-41018250D01*
X30352857Y-41018250D02*
X30329047Y-41089678D01*
X30329047Y-41089678D02*
X30305238Y-41125392D01*
X30305238Y-41125392D02*
X30257619Y-41161107D01*
X30257619Y-41161107D02*
X30090952Y-41161107D01*
X30829047Y-40803964D02*
X30590952Y-40803964D01*
X30590952Y-40803964D02*
X30567143Y-41161107D01*
X30567143Y-41161107D02*
X30590952Y-41125392D01*
X30590952Y-41125392D02*
X30638571Y-41089678D01*
X30638571Y-41089678D02*
X30757619Y-41089678D01*
X30757619Y-41089678D02*
X30805238Y-41125392D01*
X30805238Y-41125392D02*
X30829047Y-41161107D01*
X30829047Y-41161107D02*
X30852857Y-41232535D01*
X30852857Y-41232535D02*
X30852857Y-41411107D01*
X30852857Y-41411107D02*
X30829047Y-41482535D01*
X30829047Y-41482535D02*
X30805238Y-41518250D01*
X30805238Y-41518250D02*
X30757619Y-41553964D01*
X30757619Y-41553964D02*
X30638571Y-41553964D01*
X30638571Y-41553964D02*
X30590952Y-41518250D01*
X30590952Y-41518250D02*
X30567143Y-41482535D01*
X30113858Y-23674750D02*
X30185286Y-23710464D01*
X30185286Y-23710464D02*
X30304334Y-23710464D01*
X30304334Y-23710464D02*
X30351953Y-23674750D01*
X30351953Y-23674750D02*
X30375762Y-23639035D01*
X30375762Y-23639035D02*
X30399572Y-23567607D01*
X30399572Y-23567607D02*
X30399572Y-23496178D01*
X30399572Y-23496178D02*
X30375762Y-23424750D01*
X30375762Y-23424750D02*
X30351953Y-23389035D01*
X30351953Y-23389035D02*
X30304334Y-23353321D01*
X30304334Y-23353321D02*
X30209096Y-23317607D01*
X30209096Y-23317607D02*
X30161477Y-23281892D01*
X30161477Y-23281892D02*
X30137667Y-23246178D01*
X30137667Y-23246178D02*
X30113858Y-23174750D01*
X30113858Y-23174750D02*
X30113858Y-23103321D01*
X30113858Y-23103321D02*
X30137667Y-23031892D01*
X30137667Y-23031892D02*
X30161477Y-22996178D01*
X30161477Y-22996178D02*
X30209096Y-22960464D01*
X30209096Y-22960464D02*
X30328143Y-22960464D01*
X30328143Y-22960464D02*
X30399572Y-22996178D01*
X30613857Y-23710464D02*
X30613857Y-22960464D01*
X30613857Y-22960464D02*
X30732905Y-22960464D01*
X30732905Y-22960464D02*
X30804333Y-22996178D01*
X30804333Y-22996178D02*
X30851952Y-23067607D01*
X30851952Y-23067607D02*
X30875762Y-23139035D01*
X30875762Y-23139035D02*
X30899571Y-23281892D01*
X30899571Y-23281892D02*
X30899571Y-23389035D01*
X30899571Y-23389035D02*
X30875762Y-23531892D01*
X30875762Y-23531892D02*
X30851952Y-23603321D01*
X30851952Y-23603321D02*
X30804333Y-23674750D01*
X30804333Y-23674750D02*
X30732905Y-23710464D01*
X30732905Y-23710464D02*
X30613857Y-23710464D01*
X31090048Y-23496178D02*
X31328143Y-23496178D01*
X31042429Y-23710464D02*
X31209095Y-22960464D01*
X31209095Y-22960464D02*
X31375762Y-23710464D01*
X14712380Y-31307035D02*
X14688571Y-31342750D01*
X14688571Y-31342750D02*
X14617142Y-31378464D01*
X14617142Y-31378464D02*
X14569523Y-31378464D01*
X14569523Y-31378464D02*
X14498095Y-31342750D01*
X14498095Y-31342750D02*
X14450476Y-31271321D01*
X14450476Y-31271321D02*
X14426666Y-31199892D01*
X14426666Y-31199892D02*
X14402857Y-31057035D01*
X14402857Y-31057035D02*
X14402857Y-30949892D01*
X14402857Y-30949892D02*
X14426666Y-30807035D01*
X14426666Y-30807035D02*
X14450476Y-30735607D01*
X14450476Y-30735607D02*
X14498095Y-30664178D01*
X14498095Y-30664178D02*
X14569523Y-30628464D01*
X14569523Y-30628464D02*
X14617142Y-30628464D01*
X14617142Y-30628464D02*
X14688571Y-30664178D01*
X14688571Y-30664178D02*
X14712380Y-30699892D01*
X15021904Y-30628464D02*
X15117142Y-30628464D01*
X15117142Y-30628464D02*
X15164761Y-30664178D01*
X15164761Y-30664178D02*
X15212380Y-30735607D01*
X15212380Y-30735607D02*
X15236190Y-30878464D01*
X15236190Y-30878464D02*
X15236190Y-31128464D01*
X15236190Y-31128464D02*
X15212380Y-31271321D01*
X15212380Y-31271321D02*
X15164761Y-31342750D01*
X15164761Y-31342750D02*
X15117142Y-31378464D01*
X15117142Y-31378464D02*
X15021904Y-31378464D01*
X15021904Y-31378464D02*
X14974285Y-31342750D01*
X14974285Y-31342750D02*
X14926666Y-31271321D01*
X14926666Y-31271321D02*
X14902857Y-31128464D01*
X14902857Y-31128464D02*
X14902857Y-30878464D01*
X14902857Y-30878464D02*
X14926666Y-30735607D01*
X14926666Y-30735607D02*
X14974285Y-30664178D01*
X14974285Y-30664178D02*
X15021904Y-30628464D01*
X15688571Y-31378464D02*
X15450476Y-31378464D01*
X15450476Y-31378464D02*
X15450476Y-30628464D01*
X15807619Y-30628464D02*
X16117143Y-30628464D01*
X16117143Y-30628464D02*
X15950476Y-30914178D01*
X15950476Y-30914178D02*
X16021905Y-30914178D01*
X16021905Y-30914178D02*
X16069524Y-30949892D01*
X16069524Y-30949892D02*
X16093333Y-30985607D01*
X16093333Y-30985607D02*
X16117143Y-31057035D01*
X16117143Y-31057035D02*
X16117143Y-31235607D01*
X16117143Y-31235607D02*
X16093333Y-31307035D01*
X16093333Y-31307035D02*
X16069524Y-31342750D01*
X16069524Y-31342750D02*
X16021905Y-31378464D01*
X16021905Y-31378464D02*
X15879048Y-31378464D01*
X15879048Y-31378464D02*
X15831429Y-31342750D01*
X15831429Y-31342750D02*
X15807619Y-31307035D01*
X29879047Y-31330464D02*
X29712381Y-30973321D01*
X29593333Y-31330464D02*
X29593333Y-30580464D01*
X29593333Y-30580464D02*
X29783809Y-30580464D01*
X29783809Y-30580464D02*
X29831428Y-30616178D01*
X29831428Y-30616178D02*
X29855238Y-30651892D01*
X29855238Y-30651892D02*
X29879047Y-30723321D01*
X29879047Y-30723321D02*
X29879047Y-30830464D01*
X29879047Y-30830464D02*
X29855238Y-30901892D01*
X29855238Y-30901892D02*
X29831428Y-30937607D01*
X29831428Y-30937607D02*
X29783809Y-30973321D01*
X29783809Y-30973321D02*
X29593333Y-30973321D01*
X30188571Y-30580464D02*
X30283809Y-30580464D01*
X30283809Y-30580464D02*
X30331428Y-30616178D01*
X30331428Y-30616178D02*
X30379047Y-30687607D01*
X30379047Y-30687607D02*
X30402857Y-30830464D01*
X30402857Y-30830464D02*
X30402857Y-31080464D01*
X30402857Y-31080464D02*
X30379047Y-31223321D01*
X30379047Y-31223321D02*
X30331428Y-31294750D01*
X30331428Y-31294750D02*
X30283809Y-31330464D01*
X30283809Y-31330464D02*
X30188571Y-31330464D01*
X30188571Y-31330464D02*
X30140952Y-31294750D01*
X30140952Y-31294750D02*
X30093333Y-31223321D01*
X30093333Y-31223321D02*
X30069524Y-31080464D01*
X30069524Y-31080464D02*
X30069524Y-30830464D01*
X30069524Y-30830464D02*
X30093333Y-30687607D01*
X30093333Y-30687607D02*
X30140952Y-30616178D01*
X30140952Y-30616178D02*
X30188571Y-30580464D01*
X30569524Y-30580464D02*
X30688572Y-31330464D01*
X30688572Y-31330464D02*
X30783810Y-30794750D01*
X30783810Y-30794750D02*
X30879048Y-31330464D01*
X30879048Y-31330464D02*
X30998096Y-30580464D01*
X31450477Y-31330464D02*
X31164763Y-31330464D01*
X31307620Y-31330464D02*
X31307620Y-30580464D01*
X31307620Y-30580464D02*
X31260001Y-30687607D01*
X31260001Y-30687607D02*
X31212382Y-30759035D01*
X31212382Y-30759035D02*
X31164763Y-30794750D01*
X14862380Y-26179035D02*
X14838571Y-26214750D01*
X14838571Y-26214750D02*
X14767142Y-26250464D01*
X14767142Y-26250464D02*
X14719523Y-26250464D01*
X14719523Y-26250464D02*
X14648095Y-26214750D01*
X14648095Y-26214750D02*
X14600476Y-26143321D01*
X14600476Y-26143321D02*
X14576666Y-26071892D01*
X14576666Y-26071892D02*
X14552857Y-25929035D01*
X14552857Y-25929035D02*
X14552857Y-25821892D01*
X14552857Y-25821892D02*
X14576666Y-25679035D01*
X14576666Y-25679035D02*
X14600476Y-25607607D01*
X14600476Y-25607607D02*
X14648095Y-25536178D01*
X14648095Y-25536178D02*
X14719523Y-25500464D01*
X14719523Y-25500464D02*
X14767142Y-25500464D01*
X14767142Y-25500464D02*
X14838571Y-25536178D01*
X14838571Y-25536178D02*
X14862380Y-25571892D01*
X15171904Y-25500464D02*
X15267142Y-25500464D01*
X15267142Y-25500464D02*
X15314761Y-25536178D01*
X15314761Y-25536178D02*
X15362380Y-25607607D01*
X15362380Y-25607607D02*
X15386190Y-25750464D01*
X15386190Y-25750464D02*
X15386190Y-26000464D01*
X15386190Y-26000464D02*
X15362380Y-26143321D01*
X15362380Y-26143321D02*
X15314761Y-26214750D01*
X15314761Y-26214750D02*
X15267142Y-26250464D01*
X15267142Y-26250464D02*
X15171904Y-26250464D01*
X15171904Y-26250464D02*
X15124285Y-26214750D01*
X15124285Y-26214750D02*
X15076666Y-26143321D01*
X15076666Y-26143321D02*
X15052857Y-26000464D01*
X15052857Y-26000464D02*
X15052857Y-25750464D01*
X15052857Y-25750464D02*
X15076666Y-25607607D01*
X15076666Y-25607607D02*
X15124285Y-25536178D01*
X15124285Y-25536178D02*
X15171904Y-25500464D01*
X15838571Y-26250464D02*
X15600476Y-26250464D01*
X15600476Y-26250464D02*
X15600476Y-25500464D01*
X16267143Y-26250464D02*
X15981429Y-26250464D01*
X16124286Y-26250464D02*
X16124286Y-25500464D01*
X16124286Y-25500464D02*
X16076667Y-25607607D01*
X16076667Y-25607607D02*
X16029048Y-25679035D01*
X16029048Y-25679035D02*
X15981429Y-25714750D01*
X14812380Y-23657035D02*
X14788571Y-23692750D01*
X14788571Y-23692750D02*
X14717142Y-23728464D01*
X14717142Y-23728464D02*
X14669523Y-23728464D01*
X14669523Y-23728464D02*
X14598095Y-23692750D01*
X14598095Y-23692750D02*
X14550476Y-23621321D01*
X14550476Y-23621321D02*
X14526666Y-23549892D01*
X14526666Y-23549892D02*
X14502857Y-23407035D01*
X14502857Y-23407035D02*
X14502857Y-23299892D01*
X14502857Y-23299892D02*
X14526666Y-23157035D01*
X14526666Y-23157035D02*
X14550476Y-23085607D01*
X14550476Y-23085607D02*
X14598095Y-23014178D01*
X14598095Y-23014178D02*
X14669523Y-22978464D01*
X14669523Y-22978464D02*
X14717142Y-22978464D01*
X14717142Y-22978464D02*
X14788571Y-23014178D01*
X14788571Y-23014178D02*
X14812380Y-23049892D01*
X15121904Y-22978464D02*
X15217142Y-22978464D01*
X15217142Y-22978464D02*
X15264761Y-23014178D01*
X15264761Y-23014178D02*
X15312380Y-23085607D01*
X15312380Y-23085607D02*
X15336190Y-23228464D01*
X15336190Y-23228464D02*
X15336190Y-23478464D01*
X15336190Y-23478464D02*
X15312380Y-23621321D01*
X15312380Y-23621321D02*
X15264761Y-23692750D01*
X15264761Y-23692750D02*
X15217142Y-23728464D01*
X15217142Y-23728464D02*
X15121904Y-23728464D01*
X15121904Y-23728464D02*
X15074285Y-23692750D01*
X15074285Y-23692750D02*
X15026666Y-23621321D01*
X15026666Y-23621321D02*
X15002857Y-23478464D01*
X15002857Y-23478464D02*
X15002857Y-23228464D01*
X15002857Y-23228464D02*
X15026666Y-23085607D01*
X15026666Y-23085607D02*
X15074285Y-23014178D01*
X15074285Y-23014178D02*
X15121904Y-22978464D01*
X15788571Y-23728464D02*
X15550476Y-23728464D01*
X15550476Y-23728464D02*
X15550476Y-22978464D01*
X16050476Y-22978464D02*
X16098095Y-22978464D01*
X16098095Y-22978464D02*
X16145714Y-23014178D01*
X16145714Y-23014178D02*
X16169524Y-23049892D01*
X16169524Y-23049892D02*
X16193333Y-23121321D01*
X16193333Y-23121321D02*
X16217143Y-23264178D01*
X16217143Y-23264178D02*
X16217143Y-23442750D01*
X16217143Y-23442750D02*
X16193333Y-23585607D01*
X16193333Y-23585607D02*
X16169524Y-23657035D01*
X16169524Y-23657035D02*
X16145714Y-23692750D01*
X16145714Y-23692750D02*
X16098095Y-23728464D01*
X16098095Y-23728464D02*
X16050476Y-23728464D01*
X16050476Y-23728464D02*
X16002857Y-23692750D01*
X16002857Y-23692750D02*
X15979048Y-23657035D01*
X15979048Y-23657035D02*
X15955238Y-23585607D01*
X15955238Y-23585607D02*
X15931429Y-23442750D01*
X15931429Y-23442750D02*
X15931429Y-23264178D01*
X15931429Y-23264178D02*
X15955238Y-23121321D01*
X15955238Y-23121321D02*
X15979048Y-23049892D01*
X15979048Y-23049892D02*
X16002857Y-23014178D01*
X16002857Y-23014178D02*
X16050476Y-22978464D01*
X29829047Y-33878464D02*
X29662381Y-33521321D01*
X29543333Y-33878464D02*
X29543333Y-33128464D01*
X29543333Y-33128464D02*
X29733809Y-33128464D01*
X29733809Y-33128464D02*
X29781428Y-33164178D01*
X29781428Y-33164178D02*
X29805238Y-33199892D01*
X29805238Y-33199892D02*
X29829047Y-33271321D01*
X29829047Y-33271321D02*
X29829047Y-33378464D01*
X29829047Y-33378464D02*
X29805238Y-33449892D01*
X29805238Y-33449892D02*
X29781428Y-33485607D01*
X29781428Y-33485607D02*
X29733809Y-33521321D01*
X29733809Y-33521321D02*
X29543333Y-33521321D01*
X30138571Y-33128464D02*
X30233809Y-33128464D01*
X30233809Y-33128464D02*
X30281428Y-33164178D01*
X30281428Y-33164178D02*
X30329047Y-33235607D01*
X30329047Y-33235607D02*
X30352857Y-33378464D01*
X30352857Y-33378464D02*
X30352857Y-33628464D01*
X30352857Y-33628464D02*
X30329047Y-33771321D01*
X30329047Y-33771321D02*
X30281428Y-33842750D01*
X30281428Y-33842750D02*
X30233809Y-33878464D01*
X30233809Y-33878464D02*
X30138571Y-33878464D01*
X30138571Y-33878464D02*
X30090952Y-33842750D01*
X30090952Y-33842750D02*
X30043333Y-33771321D01*
X30043333Y-33771321D02*
X30019524Y-33628464D01*
X30019524Y-33628464D02*
X30019524Y-33378464D01*
X30019524Y-33378464D02*
X30043333Y-33235607D01*
X30043333Y-33235607D02*
X30090952Y-33164178D01*
X30090952Y-33164178D02*
X30138571Y-33128464D01*
X30519524Y-33128464D02*
X30638572Y-33878464D01*
X30638572Y-33878464D02*
X30733810Y-33342750D01*
X30733810Y-33342750D02*
X30829048Y-33878464D01*
X30829048Y-33878464D02*
X30948096Y-33128464D01*
X31114763Y-33199892D02*
X31138572Y-33164178D01*
X31138572Y-33164178D02*
X31186191Y-33128464D01*
X31186191Y-33128464D02*
X31305239Y-33128464D01*
X31305239Y-33128464D02*
X31352858Y-33164178D01*
X31352858Y-33164178D02*
X31376667Y-33199892D01*
X31376667Y-33199892D02*
X31400477Y-33271321D01*
X31400477Y-33271321D02*
X31400477Y-33342750D01*
X31400477Y-33342750D02*
X31376667Y-33449892D01*
X31376667Y-33449892D02*
X31090953Y-33878464D01*
X31090953Y-33878464D02*
X31400477Y-33878464D01*
X30438571Y-13550464D02*
X30200476Y-13550464D01*
X30200476Y-13550464D02*
X30200476Y-12800464D01*
X30605238Y-13157607D02*
X30771905Y-13157607D01*
X30843333Y-13550464D02*
X30605238Y-13550464D01*
X30605238Y-13550464D02*
X30605238Y-12800464D01*
X30605238Y-12800464D02*
X30843333Y-12800464D01*
X31057619Y-13550464D02*
X31057619Y-12800464D01*
X31057619Y-12800464D02*
X31176667Y-12800464D01*
X31176667Y-12800464D02*
X31248095Y-12836178D01*
X31248095Y-12836178D02*
X31295714Y-12907607D01*
X31295714Y-12907607D02*
X31319524Y-12979035D01*
X31319524Y-12979035D02*
X31343333Y-13121892D01*
X31343333Y-13121892D02*
X31343333Y-13229035D01*
X31343333Y-13229035D02*
X31319524Y-13371892D01*
X31319524Y-13371892D02*
X31295714Y-13443321D01*
X31295714Y-13443321D02*
X31248095Y-13514750D01*
X31248095Y-13514750D02*
X31176667Y-13550464D01*
X31176667Y-13550464D02*
X31057619Y-13550464D01*
X15163547Y-15376178D02*
X15115928Y-15340464D01*
X15115928Y-15340464D02*
X15044499Y-15340464D01*
X15044499Y-15340464D02*
X14973071Y-15376178D01*
X14973071Y-15376178D02*
X14925452Y-15447607D01*
X14925452Y-15447607D02*
X14901642Y-15519035D01*
X14901642Y-15519035D02*
X14877833Y-15661892D01*
X14877833Y-15661892D02*
X14877833Y-15769035D01*
X14877833Y-15769035D02*
X14901642Y-15911892D01*
X14901642Y-15911892D02*
X14925452Y-15983321D01*
X14925452Y-15983321D02*
X14973071Y-16054750D01*
X14973071Y-16054750D02*
X15044499Y-16090464D01*
X15044499Y-16090464D02*
X15092118Y-16090464D01*
X15092118Y-16090464D02*
X15163547Y-16054750D01*
X15163547Y-16054750D02*
X15187356Y-16019035D01*
X15187356Y-16019035D02*
X15187356Y-15769035D01*
X15187356Y-15769035D02*
X15092118Y-15769035D01*
X15401642Y-16090464D02*
X15401642Y-15340464D01*
X15401642Y-15340464D02*
X15687356Y-16090464D01*
X15687356Y-16090464D02*
X15687356Y-15340464D01*
X15925452Y-16090464D02*
X15925452Y-15340464D01*
X15925452Y-15340464D02*
X16044500Y-15340464D01*
X16044500Y-15340464D02*
X16115928Y-15376178D01*
X16115928Y-15376178D02*
X16163547Y-15447607D01*
X16163547Y-15447607D02*
X16187357Y-15519035D01*
X16187357Y-15519035D02*
X16211166Y-15661892D01*
X16211166Y-15661892D02*
X16211166Y-15769035D01*
X16211166Y-15769035D02*
X16187357Y-15911892D01*
X16187357Y-15911892D02*
X16163547Y-15983321D01*
X16163547Y-15983321D02*
X16115928Y-16054750D01*
X16115928Y-16054750D02*
X16044500Y-16090464D01*
X16044500Y-16090464D02*
X15925452Y-16090464D01*
X30340047Y-20519678D02*
X30292428Y-20483964D01*
X30292428Y-20483964D02*
X30220999Y-20483964D01*
X30220999Y-20483964D02*
X30149571Y-20519678D01*
X30149571Y-20519678D02*
X30101952Y-20591107D01*
X30101952Y-20591107D02*
X30078142Y-20662535D01*
X30078142Y-20662535D02*
X30054333Y-20805392D01*
X30054333Y-20805392D02*
X30054333Y-20912535D01*
X30054333Y-20912535D02*
X30078142Y-21055392D01*
X30078142Y-21055392D02*
X30101952Y-21126821D01*
X30101952Y-21126821D02*
X30149571Y-21198250D01*
X30149571Y-21198250D02*
X30220999Y-21233964D01*
X30220999Y-21233964D02*
X30268618Y-21233964D01*
X30268618Y-21233964D02*
X30340047Y-21198250D01*
X30340047Y-21198250D02*
X30363856Y-21162535D01*
X30363856Y-21162535D02*
X30363856Y-20912535D01*
X30363856Y-20912535D02*
X30268618Y-20912535D01*
X30578142Y-21233964D02*
X30578142Y-20483964D01*
X30578142Y-20483964D02*
X30863856Y-21233964D01*
X30863856Y-21233964D02*
X30863856Y-20483964D01*
X31101952Y-21233964D02*
X31101952Y-20483964D01*
X31101952Y-20483964D02*
X31221000Y-20483964D01*
X31221000Y-20483964D02*
X31292428Y-20519678D01*
X31292428Y-20519678D02*
X31340047Y-20591107D01*
X31340047Y-20591107D02*
X31363857Y-20662535D01*
X31363857Y-20662535D02*
X31387666Y-20805392D01*
X31387666Y-20805392D02*
X31387666Y-20912535D01*
X31387666Y-20912535D02*
X31363857Y-21055392D01*
X31363857Y-21055392D02*
X31340047Y-21126821D01*
X31340047Y-21126821D02*
X31292428Y-21198250D01*
X31292428Y-21198250D02*
X31221000Y-21233964D01*
X31221000Y-21233964D02*
X31101952Y-21233964D01*
X15007619Y-41135607D02*
X15079047Y-41171321D01*
X15079047Y-41171321D02*
X15102857Y-41207035D01*
X15102857Y-41207035D02*
X15126666Y-41278464D01*
X15126666Y-41278464D02*
X15126666Y-41385607D01*
X15126666Y-41385607D02*
X15102857Y-41457035D01*
X15102857Y-41457035D02*
X15079047Y-41492750D01*
X15079047Y-41492750D02*
X15031428Y-41528464D01*
X15031428Y-41528464D02*
X14840952Y-41528464D01*
X14840952Y-41528464D02*
X14840952Y-40778464D01*
X14840952Y-40778464D02*
X15007619Y-40778464D01*
X15007619Y-40778464D02*
X15055238Y-40814178D01*
X15055238Y-40814178D02*
X15079047Y-40849892D01*
X15079047Y-40849892D02*
X15102857Y-40921321D01*
X15102857Y-40921321D02*
X15102857Y-40992750D01*
X15102857Y-40992750D02*
X15079047Y-41064178D01*
X15079047Y-41064178D02*
X15055238Y-41099892D01*
X15055238Y-41099892D02*
X15007619Y-41135607D01*
X15007619Y-41135607D02*
X14840952Y-41135607D01*
X15555238Y-40778464D02*
X15460000Y-40778464D01*
X15460000Y-40778464D02*
X15412381Y-40814178D01*
X15412381Y-40814178D02*
X15388571Y-40849892D01*
X15388571Y-40849892D02*
X15340952Y-40957035D01*
X15340952Y-40957035D02*
X15317143Y-41099892D01*
X15317143Y-41099892D02*
X15317143Y-41385607D01*
X15317143Y-41385607D02*
X15340952Y-41457035D01*
X15340952Y-41457035D02*
X15364762Y-41492750D01*
X15364762Y-41492750D02*
X15412381Y-41528464D01*
X15412381Y-41528464D02*
X15507619Y-41528464D01*
X15507619Y-41528464D02*
X15555238Y-41492750D01*
X15555238Y-41492750D02*
X15579047Y-41457035D01*
X15579047Y-41457035D02*
X15602857Y-41385607D01*
X15602857Y-41385607D02*
X15602857Y-41207035D01*
X15602857Y-41207035D02*
X15579047Y-41135607D01*
X15579047Y-41135607D02*
X15555238Y-41099892D01*
X15555238Y-41099892D02*
X15507619Y-41064178D01*
X15507619Y-41064178D02*
X15412381Y-41064178D01*
X15412381Y-41064178D02*
X15364762Y-41099892D01*
X15364762Y-41099892D02*
X15340952Y-41135607D01*
X15340952Y-41135607D02*
X15317143Y-41207035D01*
X29829047Y-28828464D02*
X29662381Y-28471321D01*
X29543333Y-28828464D02*
X29543333Y-28078464D01*
X29543333Y-28078464D02*
X29733809Y-28078464D01*
X29733809Y-28078464D02*
X29781428Y-28114178D01*
X29781428Y-28114178D02*
X29805238Y-28149892D01*
X29805238Y-28149892D02*
X29829047Y-28221321D01*
X29829047Y-28221321D02*
X29829047Y-28328464D01*
X29829047Y-28328464D02*
X29805238Y-28399892D01*
X29805238Y-28399892D02*
X29781428Y-28435607D01*
X29781428Y-28435607D02*
X29733809Y-28471321D01*
X29733809Y-28471321D02*
X29543333Y-28471321D01*
X30138571Y-28078464D02*
X30233809Y-28078464D01*
X30233809Y-28078464D02*
X30281428Y-28114178D01*
X30281428Y-28114178D02*
X30329047Y-28185607D01*
X30329047Y-28185607D02*
X30352857Y-28328464D01*
X30352857Y-28328464D02*
X30352857Y-28578464D01*
X30352857Y-28578464D02*
X30329047Y-28721321D01*
X30329047Y-28721321D02*
X30281428Y-28792750D01*
X30281428Y-28792750D02*
X30233809Y-28828464D01*
X30233809Y-28828464D02*
X30138571Y-28828464D01*
X30138571Y-28828464D02*
X30090952Y-28792750D01*
X30090952Y-28792750D02*
X30043333Y-28721321D01*
X30043333Y-28721321D02*
X30019524Y-28578464D01*
X30019524Y-28578464D02*
X30019524Y-28328464D01*
X30019524Y-28328464D02*
X30043333Y-28185607D01*
X30043333Y-28185607D02*
X30090952Y-28114178D01*
X30090952Y-28114178D02*
X30138571Y-28078464D01*
X30519524Y-28078464D02*
X30638572Y-28828464D01*
X30638572Y-28828464D02*
X30733810Y-28292750D01*
X30733810Y-28292750D02*
X30829048Y-28828464D01*
X30829048Y-28828464D02*
X30948096Y-28078464D01*
X31233810Y-28078464D02*
X31281429Y-28078464D01*
X31281429Y-28078464D02*
X31329048Y-28114178D01*
X31329048Y-28114178D02*
X31352858Y-28149892D01*
X31352858Y-28149892D02*
X31376667Y-28221321D01*
X31376667Y-28221321D02*
X31400477Y-28364178D01*
X31400477Y-28364178D02*
X31400477Y-28542750D01*
X31400477Y-28542750D02*
X31376667Y-28685607D01*
X31376667Y-28685607D02*
X31352858Y-28757035D01*
X31352858Y-28757035D02*
X31329048Y-28792750D01*
X31329048Y-28792750D02*
X31281429Y-28828464D01*
X31281429Y-28828464D02*
X31233810Y-28828464D01*
X31233810Y-28828464D02*
X31186191Y-28792750D01*
X31186191Y-28792750D02*
X31162382Y-28757035D01*
X31162382Y-28757035D02*
X31138572Y-28685607D01*
X31138572Y-28685607D02*
X31114763Y-28542750D01*
X31114763Y-28542750D02*
X31114763Y-28364178D01*
X31114763Y-28364178D02*
X31138572Y-28221321D01*
X31138572Y-28221321D02*
X31162382Y-28149892D01*
X31162382Y-28149892D02*
X31186191Y-28114178D01*
X31186191Y-28114178D02*
X31233810Y-28078464D01*
X30125762Y-26214750D02*
X30197190Y-26250464D01*
X30197190Y-26250464D02*
X30316238Y-26250464D01*
X30316238Y-26250464D02*
X30363857Y-26214750D01*
X30363857Y-26214750D02*
X30387666Y-26179035D01*
X30387666Y-26179035D02*
X30411476Y-26107607D01*
X30411476Y-26107607D02*
X30411476Y-26036178D01*
X30411476Y-26036178D02*
X30387666Y-25964750D01*
X30387666Y-25964750D02*
X30363857Y-25929035D01*
X30363857Y-25929035D02*
X30316238Y-25893321D01*
X30316238Y-25893321D02*
X30221000Y-25857607D01*
X30221000Y-25857607D02*
X30173381Y-25821892D01*
X30173381Y-25821892D02*
X30149571Y-25786178D01*
X30149571Y-25786178D02*
X30125762Y-25714750D01*
X30125762Y-25714750D02*
X30125762Y-25643321D01*
X30125762Y-25643321D02*
X30149571Y-25571892D01*
X30149571Y-25571892D02*
X30173381Y-25536178D01*
X30173381Y-25536178D02*
X30221000Y-25500464D01*
X30221000Y-25500464D02*
X30340047Y-25500464D01*
X30340047Y-25500464D02*
X30411476Y-25536178D01*
X30911475Y-26179035D02*
X30887666Y-26214750D01*
X30887666Y-26214750D02*
X30816237Y-26250464D01*
X30816237Y-26250464D02*
X30768618Y-26250464D01*
X30768618Y-26250464D02*
X30697190Y-26214750D01*
X30697190Y-26214750D02*
X30649571Y-26143321D01*
X30649571Y-26143321D02*
X30625761Y-26071892D01*
X30625761Y-26071892D02*
X30601952Y-25929035D01*
X30601952Y-25929035D02*
X30601952Y-25821892D01*
X30601952Y-25821892D02*
X30625761Y-25679035D01*
X30625761Y-25679035D02*
X30649571Y-25607607D01*
X30649571Y-25607607D02*
X30697190Y-25536178D01*
X30697190Y-25536178D02*
X30768618Y-25500464D01*
X30768618Y-25500464D02*
X30816237Y-25500464D01*
X30816237Y-25500464D02*
X30887666Y-25536178D01*
X30887666Y-25536178D02*
X30911475Y-25571892D01*
X31363856Y-26250464D02*
X31125761Y-26250464D01*
X31125761Y-26250464D02*
X31125761Y-25500464D01*
X15270690Y-18693964D02*
X15104024Y-18336821D01*
X14984976Y-18693964D02*
X14984976Y-17943964D01*
X14984976Y-17943964D02*
X15175452Y-17943964D01*
X15175452Y-17943964D02*
X15223071Y-17979678D01*
X15223071Y-17979678D02*
X15246881Y-18015392D01*
X15246881Y-18015392D02*
X15270690Y-18086821D01*
X15270690Y-18086821D02*
X15270690Y-18193964D01*
X15270690Y-18193964D02*
X15246881Y-18265392D01*
X15246881Y-18265392D02*
X15223071Y-18301107D01*
X15223071Y-18301107D02*
X15175452Y-18336821D01*
X15175452Y-18336821D02*
X14984976Y-18336821D01*
X15461167Y-18658250D02*
X15532595Y-18693964D01*
X15532595Y-18693964D02*
X15651643Y-18693964D01*
X15651643Y-18693964D02*
X15699262Y-18658250D01*
X15699262Y-18658250D02*
X15723071Y-18622535D01*
X15723071Y-18622535D02*
X15746881Y-18551107D01*
X15746881Y-18551107D02*
X15746881Y-18479678D01*
X15746881Y-18479678D02*
X15723071Y-18408250D01*
X15723071Y-18408250D02*
X15699262Y-18372535D01*
X15699262Y-18372535D02*
X15651643Y-18336821D01*
X15651643Y-18336821D02*
X15556405Y-18301107D01*
X15556405Y-18301107D02*
X15508786Y-18265392D01*
X15508786Y-18265392D02*
X15484976Y-18229678D01*
X15484976Y-18229678D02*
X15461167Y-18158250D01*
X15461167Y-18158250D02*
X15461167Y-18086821D01*
X15461167Y-18086821D02*
X15484976Y-18015392D01*
X15484976Y-18015392D02*
X15508786Y-17979678D01*
X15508786Y-17979678D02*
X15556405Y-17943964D01*
X15556405Y-17943964D02*
X15675452Y-17943964D01*
X15675452Y-17943964D02*
X15746881Y-17979678D01*
X15889738Y-17943964D02*
X16175452Y-17943964D01*
X16032595Y-18693964D02*
X16032595Y-17943964D01*
X29860000Y-16078464D02*
X29860000Y-15328464D01*
X29860000Y-15328464D02*
X29979048Y-15328464D01*
X29979048Y-15328464D02*
X30050476Y-15364178D01*
X30050476Y-15364178D02*
X30098095Y-15435607D01*
X30098095Y-15435607D02*
X30121905Y-15507035D01*
X30121905Y-15507035D02*
X30145714Y-15649892D01*
X30145714Y-15649892D02*
X30145714Y-15757035D01*
X30145714Y-15757035D02*
X30121905Y-15899892D01*
X30121905Y-15899892D02*
X30098095Y-15971321D01*
X30098095Y-15971321D02*
X30050476Y-16042750D01*
X30050476Y-16042750D02*
X29979048Y-16078464D01*
X29979048Y-16078464D02*
X29860000Y-16078464D01*
X30336191Y-15864178D02*
X30574286Y-15864178D01*
X30288572Y-16078464D02*
X30455238Y-15328464D01*
X30455238Y-15328464D02*
X30621905Y-16078464D01*
X30717143Y-15328464D02*
X31002857Y-15328464D01*
X30860000Y-16078464D02*
X30860000Y-15328464D01*
X31145714Y-15864178D02*
X31383809Y-15864178D01*
X31098095Y-16078464D02*
X31264761Y-15328464D01*
X31264761Y-15328464D02*
X31431428Y-16078464D01*
X30257619Y-38557607D02*
X30329047Y-38593321D01*
X30329047Y-38593321D02*
X30352857Y-38629035D01*
X30352857Y-38629035D02*
X30376666Y-38700464D01*
X30376666Y-38700464D02*
X30376666Y-38807607D01*
X30376666Y-38807607D02*
X30352857Y-38879035D01*
X30352857Y-38879035D02*
X30329047Y-38914750D01*
X30329047Y-38914750D02*
X30281428Y-38950464D01*
X30281428Y-38950464D02*
X30090952Y-38950464D01*
X30090952Y-38950464D02*
X30090952Y-38200464D01*
X30090952Y-38200464D02*
X30257619Y-38200464D01*
X30257619Y-38200464D02*
X30305238Y-38236178D01*
X30305238Y-38236178D02*
X30329047Y-38271892D01*
X30329047Y-38271892D02*
X30352857Y-38343321D01*
X30352857Y-38343321D02*
X30352857Y-38414750D01*
X30352857Y-38414750D02*
X30329047Y-38486178D01*
X30329047Y-38486178D02*
X30305238Y-38521892D01*
X30305238Y-38521892D02*
X30257619Y-38557607D01*
X30257619Y-38557607D02*
X30090952Y-38557607D01*
X30805238Y-38450464D02*
X30805238Y-38950464D01*
X30686190Y-38164750D02*
X30567143Y-38700464D01*
X30567143Y-38700464D02*
X30876666Y-38700464D01*
X14762380Y-36402535D02*
X14738571Y-36438250D01*
X14738571Y-36438250D02*
X14667142Y-36473964D01*
X14667142Y-36473964D02*
X14619523Y-36473964D01*
X14619523Y-36473964D02*
X14548095Y-36438250D01*
X14548095Y-36438250D02*
X14500476Y-36366821D01*
X14500476Y-36366821D02*
X14476666Y-36295392D01*
X14476666Y-36295392D02*
X14452857Y-36152535D01*
X14452857Y-36152535D02*
X14452857Y-36045392D01*
X14452857Y-36045392D02*
X14476666Y-35902535D01*
X14476666Y-35902535D02*
X14500476Y-35831107D01*
X14500476Y-35831107D02*
X14548095Y-35759678D01*
X14548095Y-35759678D02*
X14619523Y-35723964D01*
X14619523Y-35723964D02*
X14667142Y-35723964D01*
X14667142Y-35723964D02*
X14738571Y-35759678D01*
X14738571Y-35759678D02*
X14762380Y-35795392D01*
X15071904Y-35723964D02*
X15167142Y-35723964D01*
X15167142Y-35723964D02*
X15214761Y-35759678D01*
X15214761Y-35759678D02*
X15262380Y-35831107D01*
X15262380Y-35831107D02*
X15286190Y-35973964D01*
X15286190Y-35973964D02*
X15286190Y-36223964D01*
X15286190Y-36223964D02*
X15262380Y-36366821D01*
X15262380Y-36366821D02*
X15214761Y-36438250D01*
X15214761Y-36438250D02*
X15167142Y-36473964D01*
X15167142Y-36473964D02*
X15071904Y-36473964D01*
X15071904Y-36473964D02*
X15024285Y-36438250D01*
X15024285Y-36438250D02*
X14976666Y-36366821D01*
X14976666Y-36366821D02*
X14952857Y-36223964D01*
X14952857Y-36223964D02*
X14952857Y-35973964D01*
X14952857Y-35973964D02*
X14976666Y-35831107D01*
X14976666Y-35831107D02*
X15024285Y-35759678D01*
X15024285Y-35759678D02*
X15071904Y-35723964D01*
X15738571Y-36473964D02*
X15500476Y-36473964D01*
X15500476Y-36473964D02*
X15500476Y-35723964D01*
X16143333Y-35723964D02*
X15905238Y-35723964D01*
X15905238Y-35723964D02*
X15881429Y-36081107D01*
X15881429Y-36081107D02*
X15905238Y-36045392D01*
X15905238Y-36045392D02*
X15952857Y-36009678D01*
X15952857Y-36009678D02*
X16071905Y-36009678D01*
X16071905Y-36009678D02*
X16119524Y-36045392D01*
X16119524Y-36045392D02*
X16143333Y-36081107D01*
X16143333Y-36081107D02*
X16167143Y-36152535D01*
X16167143Y-36152535D02*
X16167143Y-36331107D01*
X16167143Y-36331107D02*
X16143333Y-36402535D01*
X16143333Y-36402535D02*
X16119524Y-36438250D01*
X16119524Y-36438250D02*
X16071905Y-36473964D01*
X16071905Y-36473964D02*
X15952857Y-36473964D01*
X15952857Y-36473964D02*
X15905238Y-36438250D01*
X15905238Y-36438250D02*
X15881429Y-36402535D01*
X30403547Y-17979678D02*
X30355928Y-17943964D01*
X30355928Y-17943964D02*
X30284499Y-17943964D01*
X30284499Y-17943964D02*
X30213071Y-17979678D01*
X30213071Y-17979678D02*
X30165452Y-18051107D01*
X30165452Y-18051107D02*
X30141642Y-18122535D01*
X30141642Y-18122535D02*
X30117833Y-18265392D01*
X30117833Y-18265392D02*
X30117833Y-18372535D01*
X30117833Y-18372535D02*
X30141642Y-18515392D01*
X30141642Y-18515392D02*
X30165452Y-18586821D01*
X30165452Y-18586821D02*
X30213071Y-18658250D01*
X30213071Y-18658250D02*
X30284499Y-18693964D01*
X30284499Y-18693964D02*
X30332118Y-18693964D01*
X30332118Y-18693964D02*
X30403547Y-18658250D01*
X30403547Y-18658250D02*
X30427356Y-18622535D01*
X30427356Y-18622535D02*
X30427356Y-18372535D01*
X30427356Y-18372535D02*
X30332118Y-18372535D01*
X30641642Y-18693964D02*
X30641642Y-17943964D01*
X30641642Y-17943964D02*
X30927356Y-18693964D01*
X30927356Y-18693964D02*
X30927356Y-17943964D01*
X31165452Y-18693964D02*
X31165452Y-17943964D01*
X31165452Y-17943964D02*
X31284500Y-17943964D01*
X31284500Y-17943964D02*
X31355928Y-17979678D01*
X31355928Y-17979678D02*
X31403547Y-18051107D01*
X31403547Y-18051107D02*
X31427357Y-18122535D01*
X31427357Y-18122535D02*
X31451166Y-18265392D01*
X31451166Y-18265392D02*
X31451166Y-18372535D01*
X31451166Y-18372535D02*
X31427357Y-18515392D01*
X31427357Y-18515392D02*
X31403547Y-18586821D01*
X31403547Y-18586821D02*
X31355928Y-18658250D01*
X31355928Y-18658250D02*
X31284500Y-18693964D01*
X31284500Y-18693964D02*
X31165452Y-18693964D01*
X14762380Y-33807035D02*
X14738571Y-33842750D01*
X14738571Y-33842750D02*
X14667142Y-33878464D01*
X14667142Y-33878464D02*
X14619523Y-33878464D01*
X14619523Y-33878464D02*
X14548095Y-33842750D01*
X14548095Y-33842750D02*
X14500476Y-33771321D01*
X14500476Y-33771321D02*
X14476666Y-33699892D01*
X14476666Y-33699892D02*
X14452857Y-33557035D01*
X14452857Y-33557035D02*
X14452857Y-33449892D01*
X14452857Y-33449892D02*
X14476666Y-33307035D01*
X14476666Y-33307035D02*
X14500476Y-33235607D01*
X14500476Y-33235607D02*
X14548095Y-33164178D01*
X14548095Y-33164178D02*
X14619523Y-33128464D01*
X14619523Y-33128464D02*
X14667142Y-33128464D01*
X14667142Y-33128464D02*
X14738571Y-33164178D01*
X14738571Y-33164178D02*
X14762380Y-33199892D01*
X15071904Y-33128464D02*
X15167142Y-33128464D01*
X15167142Y-33128464D02*
X15214761Y-33164178D01*
X15214761Y-33164178D02*
X15262380Y-33235607D01*
X15262380Y-33235607D02*
X15286190Y-33378464D01*
X15286190Y-33378464D02*
X15286190Y-33628464D01*
X15286190Y-33628464D02*
X15262380Y-33771321D01*
X15262380Y-33771321D02*
X15214761Y-33842750D01*
X15214761Y-33842750D02*
X15167142Y-33878464D01*
X15167142Y-33878464D02*
X15071904Y-33878464D01*
X15071904Y-33878464D02*
X15024285Y-33842750D01*
X15024285Y-33842750D02*
X14976666Y-33771321D01*
X14976666Y-33771321D02*
X14952857Y-33628464D01*
X14952857Y-33628464D02*
X14952857Y-33378464D01*
X14952857Y-33378464D02*
X14976666Y-33235607D01*
X14976666Y-33235607D02*
X15024285Y-33164178D01*
X15024285Y-33164178D02*
X15071904Y-33128464D01*
X15738571Y-33878464D02*
X15500476Y-33878464D01*
X15500476Y-33878464D02*
X15500476Y-33128464D01*
X16119524Y-33378464D02*
X16119524Y-33878464D01*
X16000476Y-33092750D02*
X15881429Y-33628464D01*
X15881429Y-33628464D02*
X16190952Y-33628464D01*
X15199261Y-13550464D02*
X15032595Y-13193321D01*
X14913547Y-13550464D02*
X14913547Y-12800464D01*
X14913547Y-12800464D02*
X15104023Y-12800464D01*
X15104023Y-12800464D02*
X15151642Y-12836178D01*
X15151642Y-12836178D02*
X15175452Y-12871892D01*
X15175452Y-12871892D02*
X15199261Y-12943321D01*
X15199261Y-12943321D02*
X15199261Y-13050464D01*
X15199261Y-13050464D02*
X15175452Y-13121892D01*
X15175452Y-13121892D02*
X15151642Y-13157607D01*
X15151642Y-13157607D02*
X15104023Y-13193321D01*
X15104023Y-13193321D02*
X14913547Y-13193321D01*
X15389738Y-13336178D02*
X15627833Y-13336178D01*
X15342119Y-13550464D02*
X15508785Y-12800464D01*
X15508785Y-12800464D02*
X15675452Y-13550464D01*
X15794499Y-12800464D02*
X15913547Y-13550464D01*
X15913547Y-13550464D02*
X16008785Y-13014750D01*
X16008785Y-13014750D02*
X16104023Y-13550464D01*
X16104023Y-13550464D02*
X16223071Y-12800464D01*
X15107619Y-38585607D02*
X15179047Y-38621321D01*
X15179047Y-38621321D02*
X15202857Y-38657035D01*
X15202857Y-38657035D02*
X15226666Y-38728464D01*
X15226666Y-38728464D02*
X15226666Y-38835607D01*
X15226666Y-38835607D02*
X15202857Y-38907035D01*
X15202857Y-38907035D02*
X15179047Y-38942750D01*
X15179047Y-38942750D02*
X15131428Y-38978464D01*
X15131428Y-38978464D02*
X14940952Y-38978464D01*
X14940952Y-38978464D02*
X14940952Y-38228464D01*
X14940952Y-38228464D02*
X15107619Y-38228464D01*
X15107619Y-38228464D02*
X15155238Y-38264178D01*
X15155238Y-38264178D02*
X15179047Y-38299892D01*
X15179047Y-38299892D02*
X15202857Y-38371321D01*
X15202857Y-38371321D02*
X15202857Y-38442750D01*
X15202857Y-38442750D02*
X15179047Y-38514178D01*
X15179047Y-38514178D02*
X15155238Y-38549892D01*
X15155238Y-38549892D02*
X15107619Y-38585607D01*
X15107619Y-38585607D02*
X14940952Y-38585607D01*
X15417143Y-38299892D02*
X15440952Y-38264178D01*
X15440952Y-38264178D02*
X15488571Y-38228464D01*
X15488571Y-38228464D02*
X15607619Y-38228464D01*
X15607619Y-38228464D02*
X15655238Y-38264178D01*
X15655238Y-38264178D02*
X15679047Y-38299892D01*
X15679047Y-38299892D02*
X15702857Y-38371321D01*
X15702857Y-38371321D02*
X15702857Y-38442750D01*
X15702857Y-38442750D02*
X15679047Y-38549892D01*
X15679047Y-38549892D02*
X15393333Y-38978464D01*
X15393333Y-38978464D02*
X15702857Y-38978464D01*
X14877834Y-20420464D02*
X15044500Y-21170464D01*
X15044500Y-21170464D02*
X15211167Y-20420464D01*
X15663547Y-21099035D02*
X15639738Y-21134750D01*
X15639738Y-21134750D02*
X15568309Y-21170464D01*
X15568309Y-21170464D02*
X15520690Y-21170464D01*
X15520690Y-21170464D02*
X15449262Y-21134750D01*
X15449262Y-21134750D02*
X15401643Y-21063321D01*
X15401643Y-21063321D02*
X15377833Y-20991892D01*
X15377833Y-20991892D02*
X15354024Y-20849035D01*
X15354024Y-20849035D02*
X15354024Y-20741892D01*
X15354024Y-20741892D02*
X15377833Y-20599035D01*
X15377833Y-20599035D02*
X15401643Y-20527607D01*
X15401643Y-20527607D02*
X15449262Y-20456178D01*
X15449262Y-20456178D02*
X15520690Y-20420464D01*
X15520690Y-20420464D02*
X15568309Y-20420464D01*
X15568309Y-20420464D02*
X15639738Y-20456178D01*
X15639738Y-20456178D02*
X15663547Y-20491892D01*
X16163547Y-21099035D02*
X16139738Y-21134750D01*
X16139738Y-21134750D02*
X16068309Y-21170464D01*
X16068309Y-21170464D02*
X16020690Y-21170464D01*
X16020690Y-21170464D02*
X15949262Y-21134750D01*
X15949262Y-21134750D02*
X15901643Y-21063321D01*
X15901643Y-21063321D02*
X15877833Y-20991892D01*
X15877833Y-20991892D02*
X15854024Y-20849035D01*
X15854024Y-20849035D02*
X15854024Y-20741892D01*
X15854024Y-20741892D02*
X15877833Y-20599035D01*
X15877833Y-20599035D02*
X15901643Y-20527607D01*
X15901643Y-20527607D02*
X15949262Y-20456178D01*
X15949262Y-20456178D02*
X16020690Y-20420464D01*
X16020690Y-20420464D02*
X16068309Y-20420464D01*
X16068309Y-20420464D02*
X16139738Y-20456178D01*
X16139738Y-20456178D02*
X16163547Y-20491892D01*
D10*
X53519819Y-16773333D02*
X54234104Y-16773333D01*
X54234104Y-16773333D02*
X54376961Y-16820952D01*
X54376961Y-16820952D02*
X54472200Y-16916190D01*
X54472200Y-16916190D02*
X54519819Y-17059047D01*
X54519819Y-17059047D02*
X54519819Y-17154285D01*
X54519819Y-16297142D02*
X53519819Y-16297142D01*
X53519819Y-16297142D02*
X53519819Y-15916190D01*
X53519819Y-15916190D02*
X53567438Y-15820952D01*
X53567438Y-15820952D02*
X53615057Y-15773333D01*
X53615057Y-15773333D02*
X53710295Y-15725714D01*
X53710295Y-15725714D02*
X53853152Y-15725714D01*
X53853152Y-15725714D02*
X53948390Y-15773333D01*
X53948390Y-15773333D02*
X53996009Y-15820952D01*
X53996009Y-15820952D02*
X54043628Y-15916190D01*
X54043628Y-15916190D02*
X54043628Y-16297142D01*
X53853152Y-14868571D02*
X54519819Y-14868571D01*
X53472200Y-15106666D02*
X54186485Y-15344761D01*
X54186485Y-15344761D02*
X54186485Y-14725714D01*
X72120476Y-33687200D02*
X72263333Y-33734819D01*
X72263333Y-33734819D02*
X72501428Y-33734819D01*
X72501428Y-33734819D02*
X72596666Y-33687200D01*
X72596666Y-33687200D02*
X72644285Y-33639580D01*
X72644285Y-33639580D02*
X72691904Y-33544342D01*
X72691904Y-33544342D02*
X72691904Y-33449104D01*
X72691904Y-33449104D02*
X72644285Y-33353866D01*
X72644285Y-33353866D02*
X72596666Y-33306247D01*
X72596666Y-33306247D02*
X72501428Y-33258628D01*
X72501428Y-33258628D02*
X72310952Y-33211009D01*
X72310952Y-33211009D02*
X72215714Y-33163390D01*
X72215714Y-33163390D02*
X72168095Y-33115771D01*
X72168095Y-33115771D02*
X72120476Y-33020533D01*
X72120476Y-33020533D02*
X72120476Y-32925295D01*
X72120476Y-32925295D02*
X72168095Y-32830057D01*
X72168095Y-32830057D02*
X72215714Y-32782438D01*
X72215714Y-32782438D02*
X72310952Y-32734819D01*
X72310952Y-32734819D02*
X72549047Y-32734819D01*
X72549047Y-32734819D02*
X72691904Y-32782438D01*
X73025238Y-32734819D02*
X73263333Y-33734819D01*
X73263333Y-33734819D02*
X73453809Y-33020533D01*
X73453809Y-33020533D02*
X73644285Y-33734819D01*
X73644285Y-33734819D02*
X73882381Y-32734819D01*
X74215714Y-32830057D02*
X74263333Y-32782438D01*
X74263333Y-32782438D02*
X74358571Y-32734819D01*
X74358571Y-32734819D02*
X74596666Y-32734819D01*
X74596666Y-32734819D02*
X74691904Y-32782438D01*
X74691904Y-32782438D02*
X74739523Y-32830057D01*
X74739523Y-32830057D02*
X74787142Y-32925295D01*
X74787142Y-32925295D02*
X74787142Y-33020533D01*
X74787142Y-33020533D02*
X74739523Y-33163390D01*
X74739523Y-33163390D02*
X74168095Y-33734819D01*
X74168095Y-33734819D02*
X74787142Y-33734819D01*
X75644285Y-32734819D02*
X75453809Y-32734819D01*
X75453809Y-32734819D02*
X75358571Y-32782438D01*
X75358571Y-32782438D02*
X75310952Y-32830057D01*
X75310952Y-32830057D02*
X75215714Y-32972914D01*
X75215714Y-32972914D02*
X75168095Y-33163390D01*
X75168095Y-33163390D02*
X75168095Y-33544342D01*
X75168095Y-33544342D02*
X75215714Y-33639580D01*
X75215714Y-33639580D02*
X75263333Y-33687200D01*
X75263333Y-33687200D02*
X75358571Y-33734819D01*
X75358571Y-33734819D02*
X75549047Y-33734819D01*
X75549047Y-33734819D02*
X75644285Y-33687200D01*
X75644285Y-33687200D02*
X75691904Y-33639580D01*
X75691904Y-33639580D02*
X75739523Y-33544342D01*
X75739523Y-33544342D02*
X75739523Y-33306247D01*
X75739523Y-33306247D02*
X75691904Y-33211009D01*
X75691904Y-33211009D02*
X75644285Y-33163390D01*
X75644285Y-33163390D02*
X75549047Y-33115771D01*
X75549047Y-33115771D02*
X75358571Y-33115771D01*
X75358571Y-33115771D02*
X75263333Y-33163390D01*
X75263333Y-33163390D02*
X75215714Y-33211009D01*
X75215714Y-33211009D02*
X75168095Y-33306247D01*
X100700476Y-109957200D02*
X100843333Y-110004819D01*
X100843333Y-110004819D02*
X101081428Y-110004819D01*
X101081428Y-110004819D02*
X101176666Y-109957200D01*
X101176666Y-109957200D02*
X101224285Y-109909580D01*
X101224285Y-109909580D02*
X101271904Y-109814342D01*
X101271904Y-109814342D02*
X101271904Y-109719104D01*
X101271904Y-109719104D02*
X101224285Y-109623866D01*
X101224285Y-109623866D02*
X101176666Y-109576247D01*
X101176666Y-109576247D02*
X101081428Y-109528628D01*
X101081428Y-109528628D02*
X100890952Y-109481009D01*
X100890952Y-109481009D02*
X100795714Y-109433390D01*
X100795714Y-109433390D02*
X100748095Y-109385771D01*
X100748095Y-109385771D02*
X100700476Y-109290533D01*
X100700476Y-109290533D02*
X100700476Y-109195295D01*
X100700476Y-109195295D02*
X100748095Y-109100057D01*
X100748095Y-109100057D02*
X100795714Y-109052438D01*
X100795714Y-109052438D02*
X100890952Y-109004819D01*
X100890952Y-109004819D02*
X101129047Y-109004819D01*
X101129047Y-109004819D02*
X101271904Y-109052438D01*
X101605238Y-109004819D02*
X101843333Y-110004819D01*
X101843333Y-110004819D02*
X102033809Y-109290533D01*
X102033809Y-109290533D02*
X102224285Y-110004819D01*
X102224285Y-110004819D02*
X102462381Y-109004819D01*
X102795714Y-109100057D02*
X102843333Y-109052438D01*
X102843333Y-109052438D02*
X102938571Y-109004819D01*
X102938571Y-109004819D02*
X103176666Y-109004819D01*
X103176666Y-109004819D02*
X103271904Y-109052438D01*
X103271904Y-109052438D02*
X103319523Y-109100057D01*
X103319523Y-109100057D02*
X103367142Y-109195295D01*
X103367142Y-109195295D02*
X103367142Y-109290533D01*
X103367142Y-109290533D02*
X103319523Y-109433390D01*
X103319523Y-109433390D02*
X102748095Y-110004819D01*
X102748095Y-110004819D02*
X103367142Y-110004819D01*
X104271904Y-109004819D02*
X103795714Y-109004819D01*
X103795714Y-109004819D02*
X103748095Y-109481009D01*
X103748095Y-109481009D02*
X103795714Y-109433390D01*
X103795714Y-109433390D02*
X103890952Y-109385771D01*
X103890952Y-109385771D02*
X104129047Y-109385771D01*
X104129047Y-109385771D02*
X104224285Y-109433390D01*
X104224285Y-109433390D02*
X104271904Y-109481009D01*
X104271904Y-109481009D02*
X104319523Y-109576247D01*
X104319523Y-109576247D02*
X104319523Y-109814342D01*
X104319523Y-109814342D02*
X104271904Y-109909580D01*
X104271904Y-109909580D02*
X104224285Y-109957200D01*
X104224285Y-109957200D02*
X104129047Y-110004819D01*
X104129047Y-110004819D02*
X103890952Y-110004819D01*
X103890952Y-110004819D02*
X103795714Y-109957200D01*
X103795714Y-109957200D02*
X103748095Y-109909580D01*
X116908995Y-72512920D02*
X117044984Y-72577594D01*
X117044984Y-72577594D02*
X117281305Y-72606610D01*
X117281305Y-72606610D02*
X117381636Y-72570953D01*
X117381636Y-72570953D02*
X117434704Y-72529492D01*
X117434704Y-72529492D02*
X117493575Y-72440767D01*
X117493575Y-72440767D02*
X117505181Y-72346239D01*
X117505181Y-72346239D02*
X117469524Y-72245907D01*
X117469524Y-72245907D02*
X117428063Y-72192840D01*
X117428063Y-72192840D02*
X117339338Y-72133969D01*
X117339338Y-72133969D02*
X117156085Y-72063492D01*
X117156085Y-72063492D02*
X117067360Y-72004621D01*
X117067360Y-72004621D02*
X117025899Y-71951554D01*
X117025899Y-71951554D02*
X116990242Y-71851222D01*
X116990242Y-71851222D02*
X117001848Y-71756694D01*
X117001848Y-71756694D02*
X117060719Y-71667969D01*
X117060719Y-71667969D02*
X117113786Y-71626508D01*
X117113786Y-71626508D02*
X117214118Y-71590851D01*
X117214118Y-71590851D02*
X117450438Y-71619867D01*
X117450438Y-71619867D02*
X117586427Y-71684541D01*
X117923079Y-71677901D02*
X118037531Y-72699463D01*
X118037531Y-72699463D02*
X118313637Y-72013715D01*
X118313637Y-72013715D02*
X118415643Y-72745890D01*
X118415643Y-72745890D02*
X118773833Y-71782360D01*
X119549982Y-72885169D02*
X118982813Y-72815529D01*
X119266397Y-72850349D02*
X119388266Y-71857803D01*
X119388266Y-71857803D02*
X119276328Y-71987989D01*
X119276328Y-71987989D02*
X119170194Y-72070910D01*
X119170194Y-72070910D02*
X119069862Y-72106568D01*
X120022623Y-72943202D02*
X120211679Y-72966415D01*
X120211679Y-72966415D02*
X120312011Y-72930758D01*
X120312011Y-72930758D02*
X120365078Y-72889297D01*
X120365078Y-72889297D02*
X120477016Y-72759111D01*
X120477016Y-72759111D02*
X120547494Y-72575858D01*
X120547494Y-72575858D02*
X120593920Y-72197745D01*
X120593920Y-72197745D02*
X120558262Y-72097414D01*
X120558262Y-72097414D02*
X120516802Y-72044346D01*
X120516802Y-72044346D02*
X120428077Y-71985476D01*
X120428077Y-71985476D02*
X120239020Y-71962262D01*
X120239020Y-71962262D02*
X120138689Y-71997920D01*
X120138689Y-71997920D02*
X120085621Y-72039381D01*
X120085621Y-72039381D02*
X120026751Y-72128106D01*
X120026751Y-72128106D02*
X119997734Y-72364426D01*
X119997734Y-72364426D02*
X120033392Y-72464758D01*
X120033392Y-72464758D02*
X120074853Y-72517825D01*
X120074853Y-72517825D02*
X120163577Y-72576696D01*
X120163577Y-72576696D02*
X120352634Y-72599909D01*
X120352634Y-72599909D02*
X120452965Y-72564251D01*
X120452965Y-72564251D02*
X120506033Y-72522791D01*
X120506033Y-72522791D02*
X120564903Y-72434066D01*
X45719939Y-39968327D02*
X45865770Y-40005864D01*
X45865770Y-40005864D02*
X46103286Y-39989256D01*
X46103286Y-39989256D02*
X46194970Y-39935109D01*
X46194970Y-39935109D02*
X46239151Y-39884284D01*
X46239151Y-39884284D02*
X46280011Y-39785957D01*
X46280011Y-39785957D02*
X46273367Y-39690950D01*
X46273367Y-39690950D02*
X46219221Y-39599266D01*
X46219221Y-39599266D02*
X46168396Y-39555085D01*
X46168396Y-39555085D02*
X46070068Y-39514225D01*
X46070068Y-39514225D02*
X45876734Y-39480009D01*
X45876734Y-39480009D02*
X45778406Y-39439150D01*
X45778406Y-39439150D02*
X45727582Y-39394968D01*
X45727582Y-39394968D02*
X45673435Y-39303284D01*
X45673435Y-39303284D02*
X45666792Y-39208278D01*
X45666792Y-39208278D02*
X45707651Y-39109950D01*
X45707651Y-39109950D02*
X45751833Y-39059125D01*
X45751833Y-39059125D02*
X45843517Y-39004979D01*
X45843517Y-39004979D02*
X46081032Y-38988370D01*
X46081032Y-38988370D02*
X46226863Y-39025908D01*
X46556063Y-38955153D02*
X46863334Y-39936108D01*
X46863334Y-39936108D02*
X47003521Y-39210275D01*
X47003521Y-39210275D02*
X47243359Y-39909534D01*
X47243359Y-39909534D02*
X47411118Y-38895361D01*
X47750282Y-38967115D02*
X47794464Y-38916290D01*
X47794464Y-38916290D02*
X47886148Y-38862144D01*
X47886148Y-38862144D02*
X48123663Y-38845535D01*
X48123663Y-38845535D02*
X48221991Y-38886395D01*
X48221991Y-38886395D02*
X48272816Y-38930576D01*
X48272816Y-38930576D02*
X48326962Y-39022261D01*
X48326962Y-39022261D02*
X48333606Y-39117267D01*
X48333606Y-39117267D02*
X48296068Y-39263098D01*
X48296068Y-39263098D02*
X47765892Y-39872995D01*
X47765892Y-39872995D02*
X48383432Y-39829812D01*
X48858462Y-39796595D02*
X49048475Y-39783308D01*
X49048475Y-39783308D02*
X49140159Y-39729162D01*
X49140159Y-39729162D02*
X49184340Y-39678337D01*
X49184340Y-39678337D02*
X49269381Y-39529184D01*
X49269381Y-39529184D02*
X49303597Y-39335850D01*
X49303597Y-39335850D02*
X49277023Y-38955826D01*
X49277023Y-38955826D02*
X49222877Y-38864141D01*
X49222877Y-38864141D02*
X49172052Y-38819960D01*
X49172052Y-38819960D02*
X49073724Y-38779101D01*
X49073724Y-38779101D02*
X48883712Y-38792387D01*
X48883712Y-38792387D02*
X48792028Y-38846534D01*
X48792028Y-38846534D02*
X48747846Y-38897359D01*
X48747846Y-38897359D02*
X48706987Y-38995687D01*
X48706987Y-38995687D02*
X48723595Y-39233202D01*
X48723595Y-39233202D02*
X48777742Y-39324886D01*
X48777742Y-39324886D02*
X48828567Y-39369068D01*
X48828567Y-39369068D02*
X48926895Y-39409927D01*
X48926895Y-39409927D02*
X49116907Y-39396640D01*
X49116907Y-39396640D02*
X49208591Y-39342494D01*
X49208591Y-39342494D02*
X49252773Y-39291669D01*
X49252773Y-39291669D02*
X49293632Y-39193341D01*
X21601212Y-59635685D02*
X21749062Y-59664250D01*
X21749062Y-59664250D02*
X21985120Y-59633172D01*
X21985120Y-59633172D02*
X22073328Y-59573530D01*
X22073328Y-59573530D02*
X22114324Y-59520103D01*
X22114324Y-59520103D02*
X22149105Y-59419464D01*
X22149105Y-59419464D02*
X22136674Y-59325040D01*
X22136674Y-59325040D02*
X22077031Y-59236833D01*
X22077031Y-59236833D02*
X22023604Y-59195836D01*
X22023604Y-59195836D02*
X21922965Y-59161056D01*
X21922965Y-59161056D02*
X21727903Y-59138706D01*
X21727903Y-59138706D02*
X21627264Y-59103926D01*
X21627264Y-59103926D02*
X21573837Y-59062930D01*
X21573837Y-59062930D02*
X21514194Y-58974722D01*
X21514194Y-58974722D02*
X21501763Y-58880299D01*
X21501763Y-58880299D02*
X21536544Y-58779660D01*
X21536544Y-58779660D02*
X21577540Y-58726232D01*
X21577540Y-58726232D02*
X21665748Y-58666590D01*
X21665748Y-58666590D02*
X21901806Y-58635512D01*
X21901806Y-58635512D02*
X22049656Y-58664077D01*
X22373923Y-58573357D02*
X22740507Y-59533724D01*
X22740507Y-59533724D02*
X22836121Y-58800687D01*
X22836121Y-58800687D02*
X23118200Y-59484000D01*
X23118200Y-59484000D02*
X23223732Y-58461477D01*
X23507002Y-58424184D02*
X24120754Y-58343382D01*
X24120754Y-58343382D02*
X23839997Y-58764584D01*
X23839997Y-58764584D02*
X23981632Y-58745937D01*
X23981632Y-58745937D02*
X24082270Y-58780718D01*
X24082270Y-58780718D02*
X24135698Y-58821714D01*
X24135698Y-58821714D02*
X24195340Y-58909922D01*
X24195340Y-58909922D02*
X24226418Y-59145980D01*
X24226418Y-59145980D02*
X24191637Y-59246619D01*
X24191637Y-59246619D02*
X24150641Y-59300046D01*
X24150641Y-59300046D02*
X24062433Y-59359689D01*
X24062433Y-59359689D02*
X23779163Y-59396982D01*
X23779163Y-59396982D02*
X23678525Y-59362202D01*
X23678525Y-59362202D02*
X23625097Y-59321206D01*
X24510878Y-58388081D02*
X24551874Y-58334654D01*
X24551874Y-58334654D02*
X24640082Y-58275011D01*
X24640082Y-58275011D02*
X24876141Y-58243934D01*
X24876141Y-58243934D02*
X24976779Y-58278714D01*
X24976779Y-58278714D02*
X25030207Y-58319710D01*
X25030207Y-58319710D02*
X25089849Y-58407918D01*
X25089849Y-58407918D02*
X25102280Y-58502341D01*
X25102280Y-58502341D02*
X25073715Y-58650192D01*
X25073715Y-58650192D02*
X24581762Y-59291318D01*
X24581762Y-59291318D02*
X25195513Y-59210516D01*
X26831212Y-99245685D02*
X26979062Y-99274250D01*
X26979062Y-99274250D02*
X27215120Y-99243172D01*
X27215120Y-99243172D02*
X27303328Y-99183530D01*
X27303328Y-99183530D02*
X27344324Y-99130103D01*
X27344324Y-99130103D02*
X27379105Y-99029464D01*
X27379105Y-99029464D02*
X27366674Y-98935040D01*
X27366674Y-98935040D02*
X27307031Y-98846833D01*
X27307031Y-98846833D02*
X27253604Y-98805836D01*
X27253604Y-98805836D02*
X27152965Y-98771056D01*
X27152965Y-98771056D02*
X26957903Y-98748706D01*
X26957903Y-98748706D02*
X26857264Y-98713926D01*
X26857264Y-98713926D02*
X26803837Y-98672930D01*
X26803837Y-98672930D02*
X26744194Y-98584722D01*
X26744194Y-98584722D02*
X26731763Y-98490299D01*
X26731763Y-98490299D02*
X26766544Y-98389660D01*
X26766544Y-98389660D02*
X26807540Y-98336232D01*
X26807540Y-98336232D02*
X26895748Y-98276590D01*
X26895748Y-98276590D02*
X27131806Y-98245512D01*
X27131806Y-98245512D02*
X27279656Y-98274077D01*
X27603923Y-98183357D02*
X27970507Y-99143724D01*
X27970507Y-99143724D02*
X28066121Y-98410687D01*
X28066121Y-98410687D02*
X28348200Y-99094000D01*
X28348200Y-99094000D02*
X28453732Y-98071477D01*
X28737002Y-98034184D02*
X29350754Y-97953382D01*
X29350754Y-97953382D02*
X29069997Y-98374584D01*
X29069997Y-98374584D02*
X29211632Y-98355937D01*
X29211632Y-98355937D02*
X29312270Y-98390718D01*
X29312270Y-98390718D02*
X29365698Y-98431714D01*
X29365698Y-98431714D02*
X29425340Y-98519922D01*
X29425340Y-98519922D02*
X29456418Y-98755980D01*
X29456418Y-98755980D02*
X29421637Y-98856619D01*
X29421637Y-98856619D02*
X29380641Y-98910046D01*
X29380641Y-98910046D02*
X29292433Y-98969689D01*
X29292433Y-98969689D02*
X29009163Y-99006982D01*
X29009163Y-99006982D02*
X28908525Y-98972202D01*
X28908525Y-98972202D02*
X28855097Y-98931206D01*
X30244073Y-98171984D02*
X30331090Y-98832947D01*
X29958290Y-97825368D02*
X29815465Y-98564621D01*
X29815465Y-98564621D02*
X30429216Y-98483819D01*
X47122314Y-59972690D02*
X47268145Y-60010227D01*
X47268145Y-60010227D02*
X47505661Y-59993619D01*
X47505661Y-59993619D02*
X47597345Y-59939472D01*
X47597345Y-59939472D02*
X47641526Y-59888647D01*
X47641526Y-59888647D02*
X47682386Y-59790320D01*
X47682386Y-59790320D02*
X47675742Y-59695313D01*
X47675742Y-59695313D02*
X47621596Y-59603629D01*
X47621596Y-59603629D02*
X47570771Y-59559448D01*
X47570771Y-59559448D02*
X47472443Y-59518588D01*
X47472443Y-59518588D02*
X47279109Y-59484372D01*
X47279109Y-59484372D02*
X47180781Y-59443513D01*
X47180781Y-59443513D02*
X47129957Y-59399331D01*
X47129957Y-59399331D02*
X47075810Y-59307647D01*
X47075810Y-59307647D02*
X47069167Y-59212641D01*
X47069167Y-59212641D02*
X47110026Y-59114313D01*
X47110026Y-59114313D02*
X47154208Y-59063488D01*
X47154208Y-59063488D02*
X47245892Y-59009342D01*
X47245892Y-59009342D02*
X47483407Y-58992733D01*
X47483407Y-58992733D02*
X47629238Y-59030271D01*
X47958438Y-58959516D02*
X48265709Y-59940471D01*
X48265709Y-59940471D02*
X48405896Y-59214638D01*
X48405896Y-59214638D02*
X48645734Y-59913897D01*
X48645734Y-59913897D02*
X48813493Y-58899724D01*
X49098511Y-58879794D02*
X49716050Y-58836611D01*
X49716050Y-58836611D02*
X49410103Y-59239888D01*
X49410103Y-59239888D02*
X49552612Y-59229923D01*
X49552612Y-59229923D02*
X49650940Y-59270782D01*
X49650940Y-59270782D02*
X49701765Y-59314964D01*
X49701765Y-59314964D02*
X49755911Y-59406648D01*
X49755911Y-59406648D02*
X49772520Y-59644163D01*
X49772520Y-59644163D02*
X49731660Y-59742491D01*
X49731660Y-59742491D02*
X49687479Y-59793316D01*
X49687479Y-59793316D02*
X49595795Y-59847462D01*
X49595795Y-59847462D02*
X49310776Y-59867393D01*
X49310776Y-59867393D02*
X49212449Y-59826533D01*
X49212449Y-59826533D02*
X49161624Y-59782352D01*
X50333590Y-58793429D02*
X50428596Y-58786785D01*
X50428596Y-58786785D02*
X50526924Y-58827645D01*
X50526924Y-58827645D02*
X50577749Y-58871826D01*
X50577749Y-58871826D02*
X50631895Y-58963511D01*
X50631895Y-58963511D02*
X50692685Y-59150201D01*
X50692685Y-59150201D02*
X50709294Y-59387716D01*
X50709294Y-59387716D02*
X50675078Y-59581050D01*
X50675078Y-59581050D02*
X50634218Y-59679378D01*
X50634218Y-59679378D02*
X50590037Y-59730203D01*
X50590037Y-59730203D02*
X50498353Y-59784349D01*
X50498353Y-59784349D02*
X50403347Y-59790993D01*
X50403347Y-59790993D02*
X50305019Y-59750133D01*
X50305019Y-59750133D02*
X50254194Y-59705952D01*
X50254194Y-59705952D02*
X50200047Y-59614268D01*
X50200047Y-59614268D02*
X50139257Y-59427577D01*
X50139257Y-59427577D02*
X50122649Y-59190062D01*
X50122649Y-59190062D02*
X50156865Y-58996728D01*
X50156865Y-58996728D02*
X50197724Y-58898400D01*
X50197724Y-58898400D02*
X50241906Y-58847575D01*
X50241906Y-58847575D02*
X50333590Y-58793429D01*
X24234672Y-79448758D02*
X24382522Y-79477323D01*
X24382522Y-79477323D02*
X24618580Y-79446245D01*
X24618580Y-79446245D02*
X24706788Y-79386603D01*
X24706788Y-79386603D02*
X24747784Y-79333176D01*
X24747784Y-79333176D02*
X24782565Y-79232537D01*
X24782565Y-79232537D02*
X24770134Y-79138113D01*
X24770134Y-79138113D02*
X24710491Y-79049906D01*
X24710491Y-79049906D02*
X24657064Y-79008909D01*
X24657064Y-79008909D02*
X24556425Y-78974129D01*
X24556425Y-78974129D02*
X24361363Y-78951779D01*
X24361363Y-78951779D02*
X24260724Y-78916999D01*
X24260724Y-78916999D02*
X24207297Y-78876003D01*
X24207297Y-78876003D02*
X24147654Y-78787795D01*
X24147654Y-78787795D02*
X24135223Y-78693372D01*
X24135223Y-78693372D02*
X24170004Y-78592733D01*
X24170004Y-78592733D02*
X24211000Y-78539305D01*
X24211000Y-78539305D02*
X24299208Y-78479663D01*
X24299208Y-78479663D02*
X24535266Y-78448585D01*
X24535266Y-78448585D02*
X24683116Y-78477150D01*
X25007383Y-78386430D02*
X25373967Y-79346797D01*
X25373967Y-79346797D02*
X25469581Y-78613760D01*
X25469581Y-78613760D02*
X25751660Y-79297073D01*
X25751660Y-79297073D02*
X25857192Y-78274550D01*
X26140462Y-78237257D02*
X26754214Y-78156455D01*
X26754214Y-78156455D02*
X26473457Y-78577657D01*
X26473457Y-78577657D02*
X26615092Y-78559010D01*
X26615092Y-78559010D02*
X26715730Y-78593791D01*
X26715730Y-78593791D02*
X26769158Y-78634787D01*
X26769158Y-78634787D02*
X26828800Y-78722995D01*
X26828800Y-78722995D02*
X26859878Y-78959053D01*
X26859878Y-78959053D02*
X26825097Y-79059692D01*
X26825097Y-79059692D02*
X26784101Y-79113119D01*
X26784101Y-79113119D02*
X26695893Y-79172762D01*
X26695893Y-79172762D02*
X26412623Y-79210055D01*
X26412623Y-79210055D02*
X26311985Y-79175275D01*
X26311985Y-79175275D02*
X26258557Y-79134279D01*
X27084696Y-78112946D02*
X27698447Y-78032144D01*
X27698447Y-78032144D02*
X27417690Y-78453346D01*
X27417690Y-78453346D02*
X27559325Y-78434700D01*
X27559325Y-78434700D02*
X27659964Y-78469480D01*
X27659964Y-78469480D02*
X27713391Y-78510477D01*
X27713391Y-78510477D02*
X27773034Y-78598684D01*
X27773034Y-78598684D02*
X27804111Y-78834743D01*
X27804111Y-78834743D02*
X27769331Y-78935381D01*
X27769331Y-78935381D02*
X27728334Y-78988809D01*
X27728334Y-78988809D02*
X27640127Y-79048451D01*
X27640127Y-79048451D02*
X27356857Y-79085745D01*
X27356857Y-79085745D02*
X27256218Y-79050964D01*
X27256218Y-79050964D02*
X27202791Y-79009968D01*
X96512580Y-62519968D02*
X96650743Y-62579856D01*
X96650743Y-62579856D02*
X96887932Y-62600608D01*
X96887932Y-62600608D02*
X96986958Y-62561470D01*
X96986958Y-62561470D02*
X97038546Y-62518183D01*
X97038546Y-62518183D02*
X97094285Y-62427457D01*
X97094285Y-62427457D02*
X97102585Y-62332582D01*
X97102585Y-62332582D02*
X97063448Y-62233556D01*
X97063448Y-62233556D02*
X97020160Y-62181968D01*
X97020160Y-62181968D02*
X96929435Y-62126229D01*
X96929435Y-62126229D02*
X96743834Y-62062190D01*
X96743834Y-62062190D02*
X96653108Y-62006452D01*
X96653108Y-62006452D02*
X96609821Y-61954864D01*
X96609821Y-61954864D02*
X96570683Y-61855838D01*
X96570683Y-61855838D02*
X96578984Y-61760962D01*
X96578984Y-61760962D02*
X96634722Y-61670237D01*
X96634722Y-61670237D02*
X96686311Y-61626949D01*
X96686311Y-61626949D02*
X96785336Y-61587812D01*
X96785336Y-61587812D02*
X97022526Y-61608563D01*
X97022526Y-61608563D02*
X97160689Y-61668452D01*
X97496904Y-61650066D02*
X97646938Y-62667012D01*
X97646938Y-62667012D02*
X97898943Y-61972045D01*
X97898943Y-61972045D02*
X98026440Y-62700214D01*
X98026440Y-62700214D02*
X98350785Y-61724771D01*
X98674550Y-61848698D02*
X98726138Y-61805411D01*
X98726138Y-61805411D02*
X98825164Y-61766274D01*
X98825164Y-61766274D02*
X99062353Y-61787025D01*
X99062353Y-61787025D02*
X99153078Y-61842763D01*
X99153078Y-61842763D02*
X99196366Y-61894351D01*
X99196366Y-61894351D02*
X99235503Y-61993377D01*
X99235503Y-61993377D02*
X99227203Y-62088253D01*
X99227203Y-62088253D02*
X99167314Y-62226416D01*
X99167314Y-62226416D02*
X98548257Y-62745867D01*
X98548257Y-62745867D02*
X99164948Y-62799821D01*
X100076934Y-62210396D02*
X100018830Y-62874526D01*
X99872947Y-61810142D02*
X99573503Y-62500958D01*
X99573503Y-62500958D02*
X100190195Y-62554912D01*
X107741003Y-133185572D02*
X107863695Y-133272878D01*
X107863695Y-133272878D02*
X108091387Y-133342490D01*
X108091387Y-133342490D02*
X108196386Y-133324797D01*
X108196386Y-133324797D02*
X108255847Y-133293181D01*
X108255847Y-133293181D02*
X108329230Y-133216027D01*
X108329230Y-133216027D02*
X108357075Y-133124950D01*
X108357075Y-133124950D02*
X108339381Y-133019951D01*
X108339381Y-133019951D02*
X108307765Y-132960490D01*
X108307765Y-132960490D02*
X108230611Y-132887107D01*
X108230611Y-132887107D02*
X108062380Y-132785879D01*
X108062380Y-132785879D02*
X107985226Y-132712496D01*
X107985226Y-132712496D02*
X107953610Y-132653035D01*
X107953610Y-132653035D02*
X107935917Y-132548036D01*
X107935917Y-132548036D02*
X107963762Y-132456959D01*
X107963762Y-132456959D02*
X108037145Y-132379805D01*
X108037145Y-132379805D02*
X108096606Y-132348189D01*
X108096606Y-132348189D02*
X108201605Y-132330496D01*
X108201605Y-132330496D02*
X108429297Y-132400108D01*
X108429297Y-132400108D02*
X108551989Y-132487414D01*
X108884680Y-132539333D02*
X108820000Y-133565250D01*
X108820000Y-133565250D02*
X109210990Y-132937865D01*
X109210990Y-132937865D02*
X109184306Y-133676629D01*
X109184306Y-133676629D02*
X109704370Y-132789937D01*
X109995293Y-132978471D02*
X110054754Y-132946855D01*
X110054754Y-132946855D02*
X110159753Y-132929161D01*
X110159753Y-132929161D02*
X110387444Y-132998774D01*
X110387444Y-132998774D02*
X110464599Y-133072157D01*
X110464599Y-133072157D02*
X110496214Y-133131618D01*
X110496214Y-133131618D02*
X110513908Y-133236617D01*
X110513908Y-133236617D02*
X110486063Y-133327694D01*
X110486063Y-133327694D02*
X110398757Y-133450386D01*
X110398757Y-133450386D02*
X109685228Y-133829776D01*
X109685228Y-133829776D02*
X110277226Y-134010768D01*
X110906059Y-133256920D02*
X110965520Y-133225304D01*
X110965520Y-133225304D02*
X111070519Y-133207611D01*
X111070519Y-133207611D02*
X111298211Y-133277223D01*
X111298211Y-133277223D02*
X111375365Y-133350606D01*
X111375365Y-133350606D02*
X111406981Y-133410067D01*
X111406981Y-133410067D02*
X111424674Y-133515066D01*
X111424674Y-133515066D02*
X111396829Y-133606143D01*
X111396829Y-133606143D02*
X111309524Y-133728835D01*
X111309524Y-133728835D02*
X110595994Y-134108226D01*
X110595994Y-134108226D02*
X111187992Y-134289218D01*
X72150476Y-73755200D02*
X72293333Y-73802819D01*
X72293333Y-73802819D02*
X72531428Y-73802819D01*
X72531428Y-73802819D02*
X72626666Y-73755200D01*
X72626666Y-73755200D02*
X72674285Y-73707580D01*
X72674285Y-73707580D02*
X72721904Y-73612342D01*
X72721904Y-73612342D02*
X72721904Y-73517104D01*
X72721904Y-73517104D02*
X72674285Y-73421866D01*
X72674285Y-73421866D02*
X72626666Y-73374247D01*
X72626666Y-73374247D02*
X72531428Y-73326628D01*
X72531428Y-73326628D02*
X72340952Y-73279009D01*
X72340952Y-73279009D02*
X72245714Y-73231390D01*
X72245714Y-73231390D02*
X72198095Y-73183771D01*
X72198095Y-73183771D02*
X72150476Y-73088533D01*
X72150476Y-73088533D02*
X72150476Y-72993295D01*
X72150476Y-72993295D02*
X72198095Y-72898057D01*
X72198095Y-72898057D02*
X72245714Y-72850438D01*
X72245714Y-72850438D02*
X72340952Y-72802819D01*
X72340952Y-72802819D02*
X72579047Y-72802819D01*
X72579047Y-72802819D02*
X72721904Y-72850438D01*
X73055238Y-72802819D02*
X73293333Y-73802819D01*
X73293333Y-73802819D02*
X73483809Y-73088533D01*
X73483809Y-73088533D02*
X73674285Y-73802819D01*
X73674285Y-73802819D02*
X73912381Y-72802819D01*
X74245714Y-72898057D02*
X74293333Y-72850438D01*
X74293333Y-72850438D02*
X74388571Y-72802819D01*
X74388571Y-72802819D02*
X74626666Y-72802819D01*
X74626666Y-72802819D02*
X74721904Y-72850438D01*
X74721904Y-72850438D02*
X74769523Y-72898057D01*
X74769523Y-72898057D02*
X74817142Y-72993295D01*
X74817142Y-72993295D02*
X74817142Y-73088533D01*
X74817142Y-73088533D02*
X74769523Y-73231390D01*
X74769523Y-73231390D02*
X74198095Y-73802819D01*
X74198095Y-73802819D02*
X74817142Y-73802819D01*
X75388571Y-73231390D02*
X75293333Y-73183771D01*
X75293333Y-73183771D02*
X75245714Y-73136152D01*
X75245714Y-73136152D02*
X75198095Y-73040914D01*
X75198095Y-73040914D02*
X75198095Y-72993295D01*
X75198095Y-72993295D02*
X75245714Y-72898057D01*
X75245714Y-72898057D02*
X75293333Y-72850438D01*
X75293333Y-72850438D02*
X75388571Y-72802819D01*
X75388571Y-72802819D02*
X75579047Y-72802819D01*
X75579047Y-72802819D02*
X75674285Y-72850438D01*
X75674285Y-72850438D02*
X75721904Y-72898057D01*
X75721904Y-72898057D02*
X75769523Y-72993295D01*
X75769523Y-72993295D02*
X75769523Y-73040914D01*
X75769523Y-73040914D02*
X75721904Y-73136152D01*
X75721904Y-73136152D02*
X75674285Y-73183771D01*
X75674285Y-73183771D02*
X75579047Y-73231390D01*
X75579047Y-73231390D02*
X75388571Y-73231390D01*
X75388571Y-73231390D02*
X75293333Y-73279009D01*
X75293333Y-73279009D02*
X75245714Y-73326628D01*
X75245714Y-73326628D02*
X75198095Y-73421866D01*
X75198095Y-73421866D02*
X75198095Y-73612342D01*
X75198095Y-73612342D02*
X75245714Y-73707580D01*
X75245714Y-73707580D02*
X75293333Y-73755200D01*
X75293333Y-73755200D02*
X75388571Y-73802819D01*
X75388571Y-73802819D02*
X75579047Y-73802819D01*
X75579047Y-73802819D02*
X75674285Y-73755200D01*
X75674285Y-73755200D02*
X75721904Y-73707580D01*
X75721904Y-73707580D02*
X75769523Y-73612342D01*
X75769523Y-73612342D02*
X75769523Y-73421866D01*
X75769523Y-73421866D02*
X75721904Y-73326628D01*
X75721904Y-73326628D02*
X75674285Y-73279009D01*
X75674285Y-73279009D02*
X75579047Y-73231390D01*
X119266861Y-52613824D02*
X119402850Y-52678498D01*
X119402850Y-52678498D02*
X119639171Y-52707514D01*
X119639171Y-52707514D02*
X119739502Y-52671857D01*
X119739502Y-52671857D02*
X119792570Y-52630396D01*
X119792570Y-52630396D02*
X119851441Y-52541671D01*
X119851441Y-52541671D02*
X119863047Y-52447143D01*
X119863047Y-52447143D02*
X119827390Y-52346811D01*
X119827390Y-52346811D02*
X119785929Y-52293744D01*
X119785929Y-52293744D02*
X119697204Y-52234873D01*
X119697204Y-52234873D02*
X119513951Y-52164396D01*
X119513951Y-52164396D02*
X119425226Y-52105525D01*
X119425226Y-52105525D02*
X119383765Y-52052458D01*
X119383765Y-52052458D02*
X119348108Y-51952126D01*
X119348108Y-51952126D02*
X119359714Y-51857598D01*
X119359714Y-51857598D02*
X119418585Y-51768873D01*
X119418585Y-51768873D02*
X119471652Y-51727412D01*
X119471652Y-51727412D02*
X119571984Y-51691755D01*
X119571984Y-51691755D02*
X119808304Y-51720771D01*
X119808304Y-51720771D02*
X119944293Y-51785445D01*
X120280945Y-51778805D02*
X120395397Y-52800367D01*
X120395397Y-52800367D02*
X120671503Y-52114619D01*
X120671503Y-52114619D02*
X120773509Y-52846794D01*
X120773509Y-52846794D02*
X121131699Y-51883264D01*
X121907848Y-52986073D02*
X121340679Y-52916433D01*
X121624263Y-52951253D02*
X121746132Y-51958707D01*
X121746132Y-51958707D02*
X121634194Y-52088893D01*
X121634194Y-52088893D02*
X121528060Y-52171814D01*
X121528060Y-52171814D02*
X121427728Y-52207472D01*
X122544657Y-52488543D02*
X122455932Y-52429673D01*
X122455932Y-52429673D02*
X122414471Y-52376605D01*
X122414471Y-52376605D02*
X122378813Y-52276274D01*
X122378813Y-52276274D02*
X122384617Y-52229010D01*
X122384617Y-52229010D02*
X122443487Y-52140285D01*
X122443487Y-52140285D02*
X122496555Y-52098824D01*
X122496555Y-52098824D02*
X122596886Y-52063166D01*
X122596886Y-52063166D02*
X122785943Y-52086380D01*
X122785943Y-52086380D02*
X122874668Y-52145250D01*
X122874668Y-52145250D02*
X122916128Y-52198318D01*
X122916128Y-52198318D02*
X122951786Y-52298649D01*
X122951786Y-52298649D02*
X122945983Y-52345913D01*
X122945983Y-52345913D02*
X122887112Y-52434638D01*
X122887112Y-52434638D02*
X122834045Y-52476099D01*
X122834045Y-52476099D02*
X122733713Y-52511756D01*
X122733713Y-52511756D02*
X122544657Y-52488543D01*
X122544657Y-52488543D02*
X122444325Y-52524201D01*
X122444325Y-52524201D02*
X122391258Y-52565662D01*
X122391258Y-52565662D02*
X122332387Y-52654386D01*
X122332387Y-52654386D02*
X122309174Y-52843443D01*
X122309174Y-52843443D02*
X122344831Y-52943774D01*
X122344831Y-52943774D02*
X122386292Y-52996842D01*
X122386292Y-52996842D02*
X122475017Y-53055712D01*
X122475017Y-53055712D02*
X122664073Y-53078926D01*
X122664073Y-53078926D02*
X122764405Y-53043268D01*
X122764405Y-53043268D02*
X122817472Y-53001807D01*
X122817472Y-53001807D02*
X122876343Y-52913082D01*
X122876343Y-52913082D02*
X122899556Y-52724026D01*
X122899556Y-52724026D02*
X122863899Y-52623695D01*
X122863899Y-52623695D02*
X122822438Y-52570627D01*
X122822438Y-52570627D02*
X122733713Y-52511756D01*
X38361053Y-132104870D02*
X38511367Y-132113892D01*
X38511367Y-132113892D02*
X38741349Y-132052268D01*
X38741349Y-132052268D02*
X38821018Y-131981623D01*
X38821018Y-131981623D02*
X38854689Y-131923301D01*
X38854689Y-131923301D02*
X38876036Y-131818984D01*
X38876036Y-131818984D02*
X38851387Y-131726991D01*
X38851387Y-131726991D02*
X38780741Y-131647323D01*
X38780741Y-131647323D02*
X38722420Y-131613651D01*
X38722420Y-131613651D02*
X38618102Y-131592304D01*
X38618102Y-131592304D02*
X38421792Y-131595606D01*
X38421792Y-131595606D02*
X38317474Y-131574259D01*
X38317474Y-131574259D02*
X38259153Y-131540587D01*
X38259153Y-131540587D02*
X38188507Y-131460919D01*
X38188507Y-131460919D02*
X38163857Y-131368926D01*
X38163857Y-131368926D02*
X38185204Y-131264609D01*
X38185204Y-131264609D02*
X38218876Y-131206287D01*
X38218876Y-131206287D02*
X38298544Y-131135641D01*
X38298544Y-131135641D02*
X38528527Y-131074018D01*
X38528527Y-131074018D02*
X38678841Y-131083040D01*
X38988491Y-130950771D02*
X39477293Y-131855073D01*
X39477293Y-131855073D02*
X39476408Y-131115827D01*
X39476408Y-131115827D02*
X39845265Y-131756475D01*
X39845265Y-131756475D02*
X39816428Y-130728926D01*
X40092407Y-130654978D02*
X40690361Y-130494756D01*
X40690361Y-130494756D02*
X40466983Y-130949001D01*
X40466983Y-130949001D02*
X40604972Y-130912027D01*
X40604972Y-130912027D02*
X40709290Y-130933374D01*
X40709290Y-130933374D02*
X40767611Y-130967046D01*
X40767611Y-130967046D02*
X40838257Y-131046714D01*
X40838257Y-131046714D02*
X40899881Y-131276696D01*
X40899881Y-131276696D02*
X40878534Y-131381014D01*
X40878534Y-131381014D02*
X40844862Y-131439335D01*
X40844862Y-131439335D02*
X40765194Y-131509981D01*
X40765194Y-131509981D02*
X40489215Y-131583929D01*
X40489215Y-131583929D02*
X40384897Y-131562582D01*
X40384897Y-131562582D02*
X40326576Y-131528910D01*
X41564294Y-130260587D02*
X41104329Y-130383834D01*
X41104329Y-130383834D02*
X41181580Y-130856123D01*
X41181580Y-130856123D02*
X41215251Y-130797802D01*
X41215251Y-130797802D02*
X41294920Y-130727156D01*
X41294920Y-130727156D02*
X41524902Y-130665533D01*
X41524902Y-130665533D02*
X41629220Y-130686880D01*
X41629220Y-130686880D02*
X41687541Y-130720551D01*
X41687541Y-130720551D02*
X41758187Y-130800220D01*
X41758187Y-130800220D02*
X41819810Y-131030202D01*
X41819810Y-131030202D02*
X41798463Y-131134520D01*
X41798463Y-131134520D02*
X41764791Y-131192841D01*
X41764791Y-131192841D02*
X41685123Y-131263487D01*
X41685123Y-131263487D02*
X41455141Y-131325110D01*
X41455141Y-131325110D02*
X41350823Y-131303763D01*
X41350823Y-131303763D02*
X41292502Y-131270091D01*
X124405859Y-111935180D02*
X124539508Y-112004561D01*
X124539508Y-112004561D02*
X124774672Y-112041807D01*
X124774672Y-112041807D02*
X124876187Y-112009673D01*
X124876187Y-112009673D02*
X124930669Y-111970089D01*
X124930669Y-111970089D02*
X124992600Y-111883473D01*
X124992600Y-111883473D02*
X125007498Y-111789408D01*
X125007498Y-111789408D02*
X124975364Y-111687893D01*
X124975364Y-111687893D02*
X124935781Y-111633411D01*
X124935781Y-111633411D02*
X124849164Y-111571479D01*
X124849164Y-111571479D02*
X124668483Y-111494650D01*
X124668483Y-111494650D02*
X124581866Y-111432718D01*
X124581866Y-111432718D02*
X124542283Y-111378236D01*
X124542283Y-111378236D02*
X124510148Y-111276721D01*
X124510148Y-111276721D02*
X124525047Y-111182656D01*
X124525047Y-111182656D02*
X124586978Y-111096040D01*
X124586978Y-111096040D02*
X124641460Y-111056456D01*
X124641460Y-111056456D02*
X124742975Y-111024322D01*
X124742975Y-111024322D02*
X124978139Y-111061568D01*
X124978139Y-111061568D02*
X125111788Y-111130949D01*
X125448467Y-111136061D02*
X125527196Y-112160995D01*
X125527196Y-112160995D02*
X125827066Y-111485301D01*
X125827066Y-111485301D02*
X125903459Y-112220589D01*
X125903459Y-112220589D02*
X126295057Y-111270147D01*
X126609388Y-111416358D02*
X126663870Y-111376774D01*
X126663870Y-111376774D02*
X126765384Y-111344640D01*
X126765384Y-111344640D02*
X127000548Y-111381886D01*
X127000548Y-111381886D02*
X127087165Y-111443818D01*
X127087165Y-111443818D02*
X127126748Y-111498300D01*
X127126748Y-111498300D02*
X127158882Y-111599814D01*
X127158882Y-111599814D02*
X127143984Y-111693880D01*
X127143984Y-111693880D02*
X127074603Y-111827529D01*
X127074603Y-111827529D02*
X126420819Y-112302531D01*
X126420819Y-112302531D02*
X127032245Y-112399372D01*
X127972901Y-112548357D02*
X127408507Y-112458966D01*
X127690704Y-112503661D02*
X127847138Y-111515973D01*
X127847138Y-111515973D02*
X127730725Y-111642173D01*
X127730725Y-111642173D02*
X127621761Y-111721340D01*
X127621761Y-111721340D02*
X127520246Y-111753474D01*
X72130476Y-53757200D02*
X72273333Y-53804819D01*
X72273333Y-53804819D02*
X72511428Y-53804819D01*
X72511428Y-53804819D02*
X72606666Y-53757200D01*
X72606666Y-53757200D02*
X72654285Y-53709580D01*
X72654285Y-53709580D02*
X72701904Y-53614342D01*
X72701904Y-53614342D02*
X72701904Y-53519104D01*
X72701904Y-53519104D02*
X72654285Y-53423866D01*
X72654285Y-53423866D02*
X72606666Y-53376247D01*
X72606666Y-53376247D02*
X72511428Y-53328628D01*
X72511428Y-53328628D02*
X72320952Y-53281009D01*
X72320952Y-53281009D02*
X72225714Y-53233390D01*
X72225714Y-53233390D02*
X72178095Y-53185771D01*
X72178095Y-53185771D02*
X72130476Y-53090533D01*
X72130476Y-53090533D02*
X72130476Y-52995295D01*
X72130476Y-52995295D02*
X72178095Y-52900057D01*
X72178095Y-52900057D02*
X72225714Y-52852438D01*
X72225714Y-52852438D02*
X72320952Y-52804819D01*
X72320952Y-52804819D02*
X72559047Y-52804819D01*
X72559047Y-52804819D02*
X72701904Y-52852438D01*
X73035238Y-52804819D02*
X73273333Y-53804819D01*
X73273333Y-53804819D02*
X73463809Y-53090533D01*
X73463809Y-53090533D02*
X73654285Y-53804819D01*
X73654285Y-53804819D02*
X73892381Y-52804819D01*
X74225714Y-52900057D02*
X74273333Y-52852438D01*
X74273333Y-52852438D02*
X74368571Y-52804819D01*
X74368571Y-52804819D02*
X74606666Y-52804819D01*
X74606666Y-52804819D02*
X74701904Y-52852438D01*
X74701904Y-52852438D02*
X74749523Y-52900057D01*
X74749523Y-52900057D02*
X74797142Y-52995295D01*
X74797142Y-52995295D02*
X74797142Y-53090533D01*
X74797142Y-53090533D02*
X74749523Y-53233390D01*
X74749523Y-53233390D02*
X74178095Y-53804819D01*
X74178095Y-53804819D02*
X74797142Y-53804819D01*
X75130476Y-52804819D02*
X75797142Y-52804819D01*
X75797142Y-52804819D02*
X75368571Y-53804819D01*
X98243249Y-42642719D02*
X98381412Y-42702607D01*
X98381412Y-42702607D02*
X98618601Y-42723359D01*
X98618601Y-42723359D02*
X98717627Y-42684221D01*
X98717627Y-42684221D02*
X98769215Y-42640934D01*
X98769215Y-42640934D02*
X98824954Y-42550208D01*
X98824954Y-42550208D02*
X98833254Y-42455333D01*
X98833254Y-42455333D02*
X98794117Y-42356307D01*
X98794117Y-42356307D02*
X98750829Y-42304719D01*
X98750829Y-42304719D02*
X98660104Y-42248980D01*
X98660104Y-42248980D02*
X98474503Y-42184941D01*
X98474503Y-42184941D02*
X98383777Y-42129203D01*
X98383777Y-42129203D02*
X98340490Y-42077615D01*
X98340490Y-42077615D02*
X98301352Y-41978589D01*
X98301352Y-41978589D02*
X98309653Y-41883713D01*
X98309653Y-41883713D02*
X98365391Y-41792988D01*
X98365391Y-41792988D02*
X98416980Y-41749700D01*
X98416980Y-41749700D02*
X98516005Y-41710563D01*
X98516005Y-41710563D02*
X98753195Y-41731314D01*
X98753195Y-41731314D02*
X98891358Y-41791203D01*
X99227573Y-41772817D02*
X99377607Y-42789763D01*
X99377607Y-42789763D02*
X99629612Y-42094796D01*
X99629612Y-42094796D02*
X99757109Y-42822965D01*
X99757109Y-42822965D02*
X100081454Y-41847522D01*
X100405219Y-41971449D02*
X100456807Y-41928162D01*
X100456807Y-41928162D02*
X100555833Y-41889025D01*
X100555833Y-41889025D02*
X100793022Y-41909776D01*
X100793022Y-41909776D02*
X100883747Y-41965514D01*
X100883747Y-41965514D02*
X100927035Y-42017102D01*
X100927035Y-42017102D02*
X100966172Y-42116128D01*
X100966172Y-42116128D02*
X100957872Y-42211004D01*
X100957872Y-42211004D02*
X100897983Y-42349167D01*
X100897983Y-42349167D02*
X100278926Y-42868618D01*
X100278926Y-42868618D02*
X100895617Y-42922572D01*
X101314838Y-41955429D02*
X101931530Y-42009383D01*
X101931530Y-42009383D02*
X101566263Y-42359833D01*
X101566263Y-42359833D02*
X101708577Y-42372284D01*
X101708577Y-42372284D02*
X101799302Y-42428023D01*
X101799302Y-42428023D02*
X101842590Y-42479611D01*
X101842590Y-42479611D02*
X101881727Y-42578637D01*
X101881727Y-42578637D02*
X101860975Y-42815826D01*
X101860975Y-42815826D02*
X101805237Y-42906551D01*
X101805237Y-42906551D02*
X101753649Y-42949839D01*
X101753649Y-42949839D02*
X101654623Y-42988976D01*
X101654623Y-42988976D02*
X101369996Y-42964074D01*
X101369996Y-42964074D02*
X101279271Y-42908336D01*
X101279271Y-42908336D02*
X101235983Y-42856748D01*
X48502314Y-79892690D02*
X48648145Y-79930227D01*
X48648145Y-79930227D02*
X48885661Y-79913619D01*
X48885661Y-79913619D02*
X48977345Y-79859472D01*
X48977345Y-79859472D02*
X49021526Y-79808647D01*
X49021526Y-79808647D02*
X49062386Y-79710320D01*
X49062386Y-79710320D02*
X49055742Y-79615313D01*
X49055742Y-79615313D02*
X49001596Y-79523629D01*
X49001596Y-79523629D02*
X48950771Y-79479448D01*
X48950771Y-79479448D02*
X48852443Y-79438588D01*
X48852443Y-79438588D02*
X48659109Y-79404372D01*
X48659109Y-79404372D02*
X48560781Y-79363513D01*
X48560781Y-79363513D02*
X48509957Y-79319331D01*
X48509957Y-79319331D02*
X48455810Y-79227647D01*
X48455810Y-79227647D02*
X48449167Y-79132641D01*
X48449167Y-79132641D02*
X48490026Y-79034313D01*
X48490026Y-79034313D02*
X48534208Y-78983488D01*
X48534208Y-78983488D02*
X48625892Y-78929342D01*
X48625892Y-78929342D02*
X48863407Y-78912733D01*
X48863407Y-78912733D02*
X49009238Y-78950271D01*
X49338438Y-78879516D02*
X49645709Y-79860471D01*
X49645709Y-79860471D02*
X49785896Y-79134638D01*
X49785896Y-79134638D02*
X50025734Y-79833897D01*
X50025734Y-79833897D02*
X50193493Y-78819724D01*
X50478511Y-78799794D02*
X51096050Y-78756611D01*
X51096050Y-78756611D02*
X50790103Y-79159888D01*
X50790103Y-79159888D02*
X50932612Y-79149923D01*
X50932612Y-79149923D02*
X51030940Y-79190782D01*
X51030940Y-79190782D02*
X51081765Y-79234964D01*
X51081765Y-79234964D02*
X51135911Y-79326648D01*
X51135911Y-79326648D02*
X51152520Y-79564163D01*
X51152520Y-79564163D02*
X51111660Y-79662491D01*
X51111660Y-79662491D02*
X51067479Y-79713316D01*
X51067479Y-79713316D02*
X50975795Y-79767462D01*
X50975795Y-79767462D02*
X50690776Y-79787393D01*
X50690776Y-79787393D02*
X50592449Y-79746533D01*
X50592449Y-79746533D02*
X50541624Y-79702352D01*
X52115868Y-79687741D02*
X51545831Y-79727601D01*
X51830850Y-79707671D02*
X51761093Y-78710107D01*
X51761093Y-78710107D02*
X51676052Y-78859260D01*
X51676052Y-78859260D02*
X51587690Y-78960909D01*
X51587690Y-78960909D02*
X51496005Y-79015056D01*
%TO.C,SW20*%
X118160000Y-36415000D02*
X118410000Y-36415000D01*
X118160000Y-36415000D02*
X118160000Y-30415000D01*
X121660000Y-36415000D02*
X121410000Y-36415000D01*
X121660000Y-36415000D02*
X121660000Y-30415000D01*
X118160000Y-30415000D02*
X118410000Y-30415000D01*
X121660000Y-30415000D02*
X121410000Y-30415000D01*
%TO.C,D20*%
X125935000Y-95860000D02*
X125935000Y-94360000D01*
X125935000Y-94360000D02*
X120535000Y-94360000D01*
X123735000Y-95610000D02*
X123735000Y-94610000D01*
X123635000Y-95110000D02*
X122735000Y-95610000D01*
X122735000Y-95610000D02*
X122735000Y-94610000D01*
X122735000Y-94610000D02*
X123635000Y-95110000D01*
X120535000Y-95860000D02*
X125935000Y-95860000D01*
X120535000Y-94360000D02*
X120535000Y-95860000D01*
%TO.C,D2*%
X58830000Y-44260000D02*
X58830000Y-42760000D01*
X58830000Y-42760000D02*
X53430000Y-42760000D01*
X56630000Y-44010000D02*
X56630000Y-43010000D01*
X56530000Y-43510000D02*
X55630000Y-44010000D01*
X55630000Y-44010000D02*
X55630000Y-43010000D01*
X55630000Y-43010000D02*
X56530000Y-43510000D01*
X53430000Y-44260000D02*
X58830000Y-44260000D01*
X53430000Y-42760000D02*
X53430000Y-44260000D01*
D13*
%TO.C,JP2*%
X44915000Y-14540000D02*
X45515000Y-14540000D01*
X46215000Y-15240000D02*
X46215000Y-16640000D01*
X44215000Y-16640000D02*
X44215000Y-15240000D01*
X45515000Y-17340000D02*
X44915000Y-17340000D01*
X46215000Y-15240000D02*
G75*
G03*
X45515000Y-14540000I-699999J1D01*
G01*
X44915000Y-14540000D02*
G75*
G03*
X44215000Y-15240000I-1J-699999D01*
G01*
X45515000Y-17340000D02*
G75*
G03*
X46215000Y-16640000I0J700000D01*
G01*
X44215000Y-16640000D02*
G75*
G03*
X44915000Y-17340000I700000J0D01*
G01*
D10*
%TO.C,D31*%
X33205000Y-65610000D02*
X33205000Y-64110000D01*
X33205000Y-64110000D02*
X27805000Y-64110000D01*
X31005000Y-65360000D02*
X31005000Y-64360000D01*
X30905000Y-64860000D02*
X30005000Y-65360000D01*
X30005000Y-65360000D02*
X30005000Y-64360000D01*
X30005000Y-64360000D02*
X30905000Y-64860000D01*
X27805000Y-65610000D02*
X33205000Y-65610000D01*
X27805000Y-64110000D02*
X27805000Y-65610000D01*
%TO.C,D15*%
X125900000Y-93830000D02*
X125900000Y-92330000D01*
X125900000Y-92330000D02*
X120500000Y-92330000D01*
X123700000Y-93580000D02*
X123700000Y-92580000D01*
X123600000Y-93080000D02*
X122700000Y-93580000D01*
X122700000Y-93580000D02*
X122700000Y-92580000D01*
X122700000Y-92580000D02*
X123600000Y-93080000D01*
X120500000Y-93830000D02*
X125900000Y-93830000D01*
X120500000Y-92330000D02*
X120500000Y-93830000D01*
D13*
%TO.C,JP3*%
X50840000Y-17340000D02*
X50240000Y-17340000D01*
X49540000Y-16640000D02*
X49540000Y-15240000D01*
X51540000Y-15240000D02*
X51540000Y-16640000D01*
X50240000Y-14540000D02*
X50840000Y-14540000D01*
X49540000Y-16640000D02*
G75*
G03*
X50240000Y-17340000I699999J-1D01*
G01*
X50840000Y-17340000D02*
G75*
G03*
X51540000Y-16640000I1J699999D01*
G01*
X50240000Y-14540000D02*
G75*
G03*
X49540000Y-15240000I0J-700000D01*
G01*
X51540000Y-15240000D02*
G75*
G03*
X50840000Y-14540000I-700000J0D01*
G01*
D10*
%TO.C,D28*%
X58830000Y-46180000D02*
X58830000Y-44680000D01*
X58830000Y-44680000D02*
X53430000Y-44680000D01*
X56630000Y-45930000D02*
X56630000Y-44930000D01*
X56530000Y-45430000D02*
X55630000Y-45930000D01*
X55630000Y-45930000D02*
X55630000Y-44930000D01*
X55630000Y-44930000D02*
X56530000Y-45430000D01*
X53430000Y-46180000D02*
X58830000Y-46180000D01*
X53430000Y-44680000D02*
X53430000Y-46180000D01*
%TO.C,D14*%
X100150000Y-93800000D02*
X100150000Y-92300000D01*
X100150000Y-92300000D02*
X94750000Y-92300000D01*
X97950000Y-93550000D02*
X97950000Y-92550000D01*
X97850000Y-93050000D02*
X96950000Y-93550000D01*
X96950000Y-93550000D02*
X96950000Y-92550000D01*
X96950000Y-92550000D02*
X97850000Y-93050000D01*
X94750000Y-93800000D02*
X100150000Y-93800000D01*
X94750000Y-92300000D02*
X94750000Y-93800000D01*
%TO.C,D29*%
X58830000Y-66550000D02*
X58830000Y-65050000D01*
X58830000Y-65050000D02*
X53430000Y-65050000D01*
X56630000Y-66300000D02*
X56630000Y-65300000D01*
X56530000Y-65800000D02*
X55630000Y-66300000D01*
X55630000Y-66300000D02*
X55630000Y-65300000D01*
X55630000Y-65300000D02*
X56530000Y-65800000D01*
X53430000Y-66550000D02*
X58830000Y-66550000D01*
X53430000Y-65050000D02*
X53430000Y-66550000D01*
%TO.C,D9*%
X95850000Y-67140000D02*
X95850000Y-65640000D01*
X95850000Y-65640000D02*
X90450000Y-65640000D01*
X93650000Y-66890000D02*
X93650000Y-65890000D01*
X93550000Y-66390000D02*
X92650000Y-66890000D01*
X92650000Y-66890000D02*
X92650000Y-65890000D01*
X92650000Y-65890000D02*
X93550000Y-66390000D01*
X90450000Y-67140000D02*
X95850000Y-67140000D01*
X90450000Y-65640000D02*
X90450000Y-67140000D01*
D13*
%TO.C,JP5*%
X61490000Y-17340000D02*
X60890000Y-17340000D01*
X60190000Y-16640000D02*
X60190000Y-15240000D01*
X62190000Y-15240000D02*
X62190000Y-16640000D01*
X60890000Y-14540000D02*
X61490000Y-14540000D01*
X60190000Y-16640000D02*
G75*
G03*
X60890000Y-17340000I699999J-1D01*
G01*
X61490000Y-17340000D02*
G75*
G03*
X62190000Y-16640000I1J699999D01*
G01*
X60890000Y-14540000D02*
G75*
G03*
X60190000Y-15240000I0J-700000D01*
G01*
X62190000Y-15240000D02*
G75*
G03*
X61490000Y-14540000I-700000J0D01*
G01*
%TO.C,JP1*%
X39590000Y-14540000D02*
X40190000Y-14540000D01*
X40890000Y-15240000D02*
X40890000Y-16640000D01*
X38890000Y-16640000D02*
X38890000Y-15240000D01*
X40190000Y-17340000D02*
X39590000Y-17340000D01*
X40890000Y-15240000D02*
G75*
G03*
X40190000Y-14540000I-699999J1D01*
G01*
X39590000Y-14540000D02*
G75*
G03*
X38890000Y-15240000I-1J-699999D01*
G01*
X40190000Y-17340000D02*
G75*
G03*
X40890000Y-16640000I0J700000D01*
G01*
X38890000Y-16640000D02*
G75*
G03*
X39590000Y-17340000I700000J0D01*
G01*
D10*
%TO.C,D17*%
X127565000Y-119600000D02*
X127565000Y-118100000D01*
X127565000Y-118100000D02*
X122165000Y-118100000D01*
X125365000Y-119350000D02*
X125365000Y-118350000D01*
X125265000Y-118850000D02*
X124365000Y-119350000D01*
X124365000Y-119350000D02*
X124365000Y-118350000D01*
X124365000Y-118350000D02*
X125265000Y-118850000D01*
X122165000Y-119600000D02*
X127565000Y-119600000D01*
X122165000Y-118100000D02*
X122165000Y-119600000D01*
%TO.C,D27*%
X82400000Y-80400000D02*
X82400000Y-78900000D01*
X82400000Y-78900000D02*
X77000000Y-78900000D01*
X80200000Y-80150000D02*
X80200000Y-79150000D01*
X80100000Y-79650000D02*
X79200000Y-80150000D01*
X79200000Y-80150000D02*
X79200000Y-79150000D01*
X79200000Y-79150000D02*
X80100000Y-79650000D01*
X77000000Y-80400000D02*
X82400000Y-80400000D01*
X77000000Y-78900000D02*
X77000000Y-80400000D01*
%TO.C,D19*%
X116130000Y-79980000D02*
X116130000Y-78480000D01*
X116130000Y-78480000D02*
X110730000Y-78480000D01*
X113930000Y-79730000D02*
X113930000Y-78730000D01*
X113830000Y-79230000D02*
X112930000Y-79730000D01*
X112930000Y-79730000D02*
X112930000Y-78730000D01*
X112930000Y-78730000D02*
X113830000Y-79230000D01*
X110730000Y-79980000D02*
X116130000Y-79980000D01*
X110730000Y-78480000D02*
X110730000Y-79980000D01*
%TO.C,D23*%
X95840000Y-69050000D02*
X95840000Y-67550000D01*
X95840000Y-67550000D02*
X90440000Y-67550000D01*
X93640000Y-68800000D02*
X93640000Y-67800000D01*
X93540000Y-68300000D02*
X92640000Y-68800000D01*
X92640000Y-68800000D02*
X92640000Y-67800000D01*
X92640000Y-67800000D02*
X93540000Y-68300000D01*
X90440000Y-69050000D02*
X95840000Y-69050000D01*
X90440000Y-67550000D02*
X90440000Y-69050000D01*
%TO.C,D5*%
X118595000Y-57120000D02*
X118595000Y-55620000D01*
X118595000Y-55620000D02*
X113195000Y-55620000D01*
X116395000Y-56870000D02*
X116395000Y-55870000D01*
X116295000Y-56370000D02*
X115395000Y-56870000D01*
X115395000Y-56870000D02*
X115395000Y-55870000D01*
X115395000Y-55870000D02*
X116295000Y-56370000D01*
X113195000Y-57120000D02*
X118595000Y-57120000D01*
X113195000Y-55620000D02*
X113195000Y-57120000D01*
%TO.C,D25*%
X82400000Y-40320000D02*
X82400000Y-38820000D01*
X82400000Y-38820000D02*
X77000000Y-38820000D01*
X80200000Y-40070000D02*
X80200000Y-39070000D01*
X80100000Y-39570000D02*
X79200000Y-40070000D01*
X79200000Y-40070000D02*
X79200000Y-39070000D01*
X79200000Y-39070000D02*
X80100000Y-39570000D01*
X77000000Y-40320000D02*
X82400000Y-40320000D01*
X77000000Y-38820000D02*
X77000000Y-40320000D01*
%TO.C,D34*%
X43010000Y-117990000D02*
X43010000Y-116490000D01*
X43010000Y-116490000D02*
X37610000Y-116490000D01*
X40810000Y-117740000D02*
X40810000Y-116740000D01*
X40710000Y-117240000D02*
X39810000Y-117740000D01*
X39810000Y-117740000D02*
X39810000Y-116740000D01*
X39810000Y-116740000D02*
X40710000Y-117240000D01*
X37610000Y-117990000D02*
X43010000Y-117990000D01*
X37610000Y-116490000D02*
X37610000Y-117990000D01*
%TO.C,D16*%
X43000000Y-115580000D02*
X43000000Y-114080000D01*
X43000000Y-114080000D02*
X37600000Y-114080000D01*
X40800000Y-115330000D02*
X40800000Y-114330000D01*
X40700000Y-114830000D02*
X39800000Y-115330000D01*
X39800000Y-115330000D02*
X39800000Y-114330000D01*
X39800000Y-114330000D02*
X40700000Y-114830000D01*
X37600000Y-115580000D02*
X43000000Y-115580000D01*
X37600000Y-114080000D02*
X37600000Y-115580000D01*
%TO.C,D6*%
X36870000Y-83450000D02*
X36870000Y-81950000D01*
X36870000Y-81950000D02*
X31470000Y-81950000D01*
X34670000Y-83200000D02*
X34670000Y-82200000D01*
X34570000Y-82700000D02*
X33670000Y-83200000D01*
X33670000Y-83200000D02*
X33670000Y-82200000D01*
X33670000Y-82200000D02*
X34570000Y-82700000D01*
X31470000Y-83450000D02*
X36870000Y-83450000D01*
X31470000Y-81950000D02*
X31470000Y-83450000D01*
%TO.C,J1*%
X137840000Y-31290000D02*
X137840000Y-37290000D01*
X125840000Y-31290000D02*
X137840000Y-31290000D01*
X137840000Y-37290000D02*
X125840000Y-37290000D01*
X125840000Y-37290000D02*
X125840000Y-31290000D01*
%TO.C,D26*%
X82400000Y-60910000D02*
X82400000Y-59410000D01*
X82400000Y-59410000D02*
X77000000Y-59410000D01*
X80200000Y-60660000D02*
X80200000Y-59660000D01*
X80100000Y-60160000D02*
X79200000Y-60660000D01*
X79200000Y-60660000D02*
X79200000Y-59660000D01*
X79200000Y-59660000D02*
X80100000Y-60160000D01*
X77000000Y-60910000D02*
X82400000Y-60910000D01*
X77000000Y-59410000D02*
X77000000Y-60910000D01*
%TO.C,D30*%
X58830000Y-86110000D02*
X58830000Y-84610000D01*
X58830000Y-84610000D02*
X53430000Y-84610000D01*
X56630000Y-85860000D02*
X56630000Y-84860000D01*
X56530000Y-85360000D02*
X55630000Y-85860000D01*
X55630000Y-85860000D02*
X55630000Y-84860000D01*
X55630000Y-84860000D02*
X56530000Y-85360000D01*
X53430000Y-86110000D02*
X58830000Y-86110000D01*
X53430000Y-84610000D02*
X53430000Y-86110000D01*
D13*
%TO.C,J2*%
X12010000Y-95480000D02*
X13340000Y-95480000D01*
X12010000Y-96810000D02*
X12010000Y-95480000D01*
X12010000Y-98080000D02*
X12010000Y-126080000D01*
X12010000Y-98080000D02*
X14610000Y-98080000D01*
X12010000Y-126080000D02*
X17210000Y-126080000D01*
X14610000Y-95480000D02*
X17210000Y-95480000D01*
X14610000Y-98080000D02*
X14610000Y-95480000D01*
X17210000Y-95480000D02*
X17210000Y-126080000D01*
D10*
%TO.C,U1*%
X16426400Y-11940000D02*
X18966400Y-11940000D01*
X16426400Y-42420000D02*
X16426400Y-11940000D01*
X18966400Y-11940000D02*
X18966400Y-42420000D01*
X18966400Y-42420000D02*
X16426400Y-42420000D01*
X31646400Y-11940000D02*
X34186400Y-11940000D01*
X31646400Y-42420000D02*
X31646400Y-11940000D01*
X34186400Y-11940000D02*
X34186400Y-42420000D01*
X34186400Y-42420000D02*
X31646400Y-42420000D01*
%TO.C,D33*%
X37915000Y-105410000D02*
X37915000Y-103910000D01*
X37915000Y-103910000D02*
X32515000Y-103910000D01*
X35715000Y-105160000D02*
X35715000Y-104160000D01*
X35615000Y-104660000D02*
X34715000Y-105160000D01*
X34715000Y-105160000D02*
X34715000Y-104160000D01*
X34715000Y-104160000D02*
X35615000Y-104660000D01*
X32515000Y-105410000D02*
X37915000Y-105410000D01*
X32515000Y-103910000D02*
X32515000Y-105410000D01*
%TO.C,D21*%
X127570000Y-121620000D02*
X127570000Y-120120000D01*
X127570000Y-120120000D02*
X122170000Y-120120000D01*
X125370000Y-121370000D02*
X125370000Y-120370000D01*
X125270000Y-120870000D02*
X124370000Y-121370000D01*
X124370000Y-121370000D02*
X124370000Y-120370000D01*
X124370000Y-120370000D02*
X125270000Y-120870000D01*
X122170000Y-121620000D02*
X127570000Y-121620000D01*
X122170000Y-120120000D02*
X122170000Y-121620000D01*
%TO.C,D4*%
X99200000Y-27180000D02*
X99200000Y-25680000D01*
X99200000Y-25680000D02*
X93800000Y-25680000D01*
X97000000Y-26930000D02*
X97000000Y-25930000D01*
X96900000Y-26430000D02*
X96000000Y-26930000D01*
X96000000Y-26930000D02*
X96000000Y-25930000D01*
X96000000Y-25930000D02*
X96900000Y-26430000D01*
X93800000Y-27180000D02*
X99200000Y-27180000D01*
X93800000Y-25680000D02*
X93800000Y-27180000D01*
%TO.C,D12*%
X58830000Y-84210000D02*
X58830000Y-82710000D01*
X58830000Y-82710000D02*
X53430000Y-82710000D01*
X56630000Y-83960000D02*
X56630000Y-82960000D01*
X56530000Y-83460000D02*
X55630000Y-83960000D01*
X55630000Y-83960000D02*
X55630000Y-82960000D01*
X55630000Y-82960000D02*
X56530000Y-83460000D01*
X53430000Y-84210000D02*
X58830000Y-84210000D01*
X53430000Y-82710000D02*
X53430000Y-84210000D01*
%TO.C,D7*%
X58830000Y-64410000D02*
X58830000Y-62910000D01*
X58830000Y-62910000D02*
X53430000Y-62910000D01*
X56630000Y-64160000D02*
X56630000Y-63160000D01*
X56530000Y-63660000D02*
X55630000Y-64160000D01*
X55630000Y-64160000D02*
X55630000Y-63160000D01*
X55630000Y-63160000D02*
X56530000Y-63660000D01*
X53430000Y-64410000D02*
X58830000Y-64410000D01*
X53430000Y-62910000D02*
X53430000Y-64410000D01*
%TO.C,D22*%
X99190000Y-29140000D02*
X99190000Y-27640000D01*
X99190000Y-27640000D02*
X93790000Y-27640000D01*
X96990000Y-28890000D02*
X96990000Y-27890000D01*
X96890000Y-28390000D02*
X95990000Y-28890000D01*
X95990000Y-28890000D02*
X95990000Y-27890000D01*
X95990000Y-27890000D02*
X96890000Y-28390000D01*
X93790000Y-29140000D02*
X99190000Y-29140000D01*
X93790000Y-27640000D02*
X93790000Y-29140000D01*
%TO.C,D10*%
X116150000Y-77910000D02*
X116150000Y-76410000D01*
X116150000Y-76410000D02*
X110750000Y-76410000D01*
X113950000Y-77660000D02*
X113950000Y-76660000D01*
X113850000Y-77160000D02*
X112950000Y-77660000D01*
X112950000Y-77660000D02*
X112950000Y-76660000D01*
X112950000Y-76660000D02*
X113850000Y-77160000D01*
X110750000Y-77910000D02*
X116150000Y-77910000D01*
X110750000Y-76410000D02*
X110750000Y-77910000D01*
%TO.C,D1*%
X33195000Y-63530000D02*
X33195000Y-62030000D01*
X33195000Y-62030000D02*
X27795000Y-62030000D01*
X30995000Y-63280000D02*
X30995000Y-62280000D01*
X30895000Y-62780000D02*
X29995000Y-63280000D01*
X29995000Y-63280000D02*
X29995000Y-62280000D01*
X29995000Y-62280000D02*
X30895000Y-62780000D01*
X27795000Y-63530000D02*
X33195000Y-63530000D01*
X27795000Y-62030000D02*
X27795000Y-63530000D01*
%TO.C,D13*%
X82400000Y-78420000D02*
X82400000Y-76920000D01*
X82400000Y-76920000D02*
X77000000Y-76920000D01*
X80200000Y-78170000D02*
X80200000Y-77170000D01*
X80100000Y-77670000D02*
X79200000Y-78170000D01*
X79200000Y-78170000D02*
X79200000Y-77170000D01*
X79200000Y-77170000D02*
X80100000Y-77670000D01*
X77000000Y-78420000D02*
X82400000Y-78420000D01*
X77000000Y-76920000D02*
X77000000Y-78420000D01*
%TO.C,D11*%
X37930000Y-103350000D02*
X37930000Y-101850000D01*
X37930000Y-101850000D02*
X32530000Y-101850000D01*
X35730000Y-103100000D02*
X35730000Y-102100000D01*
X35630000Y-102600000D02*
X34730000Y-103100000D01*
X34730000Y-103100000D02*
X34730000Y-102100000D01*
X34730000Y-102100000D02*
X35630000Y-102600000D01*
X32530000Y-103350000D02*
X37930000Y-103350000D01*
X32530000Y-101850000D02*
X32530000Y-103350000D01*
%TO.C,D3*%
X82400000Y-38380000D02*
X82400000Y-36880000D01*
X82400000Y-36880000D02*
X77000000Y-36880000D01*
X80200000Y-38130000D02*
X80200000Y-37130000D01*
X80100000Y-37630000D02*
X79200000Y-38130000D01*
X79200000Y-38130000D02*
X79200000Y-37130000D01*
X79200000Y-37130000D02*
X80100000Y-37630000D01*
X77000000Y-38380000D02*
X82400000Y-38380000D01*
X77000000Y-36880000D02*
X77000000Y-38380000D01*
%TO.C,D32*%
X36870000Y-85500000D02*
X36870000Y-84000000D01*
X36870000Y-84000000D02*
X31470000Y-84000000D01*
X34670000Y-85250000D02*
X34670000Y-84250000D01*
X34570000Y-84750000D02*
X33670000Y-85250000D01*
X33670000Y-85250000D02*
X33670000Y-84250000D01*
X33670000Y-84250000D02*
X34570000Y-84750000D01*
X31470000Y-85500000D02*
X36870000Y-85500000D01*
X31470000Y-84000000D02*
X31470000Y-85500000D01*
%TO.C,D24*%
X100150000Y-95750000D02*
X100150000Y-94250000D01*
X100150000Y-94250000D02*
X94750000Y-94250000D01*
X97950000Y-95500000D02*
X97950000Y-94500000D01*
X97850000Y-95000000D02*
X96950000Y-95500000D01*
X96950000Y-95500000D02*
X96950000Y-94500000D01*
X96950000Y-94500000D02*
X97850000Y-95000000D01*
X94750000Y-95750000D02*
X100150000Y-95750000D01*
X94750000Y-94250000D02*
X94750000Y-95750000D01*
%TO.C,D18*%
X118600000Y-59190000D02*
X118600000Y-57690000D01*
X118600000Y-57690000D02*
X113200000Y-57690000D01*
X116400000Y-58940000D02*
X116400000Y-57940000D01*
X116300000Y-58440000D02*
X115400000Y-58940000D01*
X115400000Y-58940000D02*
X115400000Y-57940000D01*
X115400000Y-57940000D02*
X116300000Y-58440000D01*
X113200000Y-59190000D02*
X118600000Y-59190000D01*
X113200000Y-57690000D02*
X113200000Y-59190000D01*
%TO.C,D8*%
X82400000Y-58850000D02*
X82400000Y-57350000D01*
X82400000Y-57350000D02*
X77000000Y-57350000D01*
X80200000Y-58600000D02*
X80200000Y-57600000D01*
X80100000Y-58100000D02*
X79200000Y-58600000D01*
X79200000Y-58600000D02*
X79200000Y-57600000D01*
X79200000Y-57600000D02*
X80100000Y-58100000D01*
X77000000Y-58850000D02*
X82400000Y-58850000D01*
X77000000Y-57350000D02*
X77000000Y-58850000D01*
D13*
%TO.C,JP4*%
X56165000Y-17340000D02*
X55565000Y-17340000D01*
X54865000Y-16640000D02*
X54865000Y-15240000D01*
X56865000Y-15240000D02*
X56865000Y-16640000D01*
X55565000Y-14540000D02*
X56165000Y-14540000D01*
X54865000Y-16640000D02*
G75*
G03*
X55565000Y-17340000I699999J-1D01*
G01*
X56165000Y-17340000D02*
G75*
G03*
X56865000Y-16640000I1J699999D01*
G01*
X55565000Y-14540000D02*
G75*
G03*
X54865000Y-15240000I0J-700000D01*
G01*
X56865000Y-15240000D02*
G75*
G03*
X56165000Y-14540000I-700000J0D01*
G01*
D10*
%TO.C,SW26*%
X79830000Y-28180000D02*
X79830000Y-27820000D01*
X79830000Y-28180000D02*
X76550000Y-28180000D01*
X79830000Y-25580000D02*
X79630000Y-25580000D01*
X79830000Y-24580000D02*
X79830000Y-25580000D01*
D14*
X79730000Y-25479999D02*
X79730000Y-24580000D01*
D15*
X79630000Y-27980000D02*
X76930000Y-27980000D01*
D10*
X79630000Y-27820000D02*
X79830000Y-27820000D01*
X79600000Y-25580000D02*
X79600000Y-27820000D01*
D16*
X79230000Y-27680000D02*
X79230000Y-25880001D01*
D17*
X78100000Y-24180000D02*
X78100000Y-26420000D01*
D10*
X74330000Y-26280000D02*
X69330000Y-26280000D01*
D18*
X71330000Y-24480000D02*
X78030000Y-24480000D01*
D19*
X70030000Y-23280000D02*
X70030000Y-25780000D01*
D15*
X69630000Y-25980000D02*
X71030000Y-25980000D01*
D10*
X69550000Y-25280000D02*
X69550000Y-23030000D01*
D20*
X69530000Y-25380000D02*
X69530000Y-26080000D01*
D10*
X69530000Y-23030000D02*
X69330000Y-23030000D01*
D20*
X69530000Y-22880000D02*
X70930000Y-22880000D01*
D10*
X69330000Y-26280000D02*
X69330000Y-25280000D01*
X69330000Y-25280000D02*
X69530000Y-25280000D01*
X69330000Y-23030000D02*
X69330000Y-22680000D01*
X69330000Y-22680000D02*
X77730001Y-22680000D01*
X79829999Y-24580001D02*
G75*
G03*
X77730001Y-22680000I-1999998J-99997D01*
G01*
D19*
X76946318Y-27758529D02*
G75*
G03*
X74730000Y-25880000I-2151317J-291470D01*
G01*
D10*
X76546318Y-28158529D02*
G75*
G03*
X74330000Y-26280000I-2151317J-291470D01*
G01*
%TO.C,SW25*%
X108410000Y-104450000D02*
X108410000Y-104090000D01*
X108410000Y-104450000D02*
X105130000Y-104450000D01*
X108410000Y-101850000D02*
X108210000Y-101850000D01*
X108410000Y-100850000D02*
X108410000Y-101850000D01*
D14*
X108310000Y-101749999D02*
X108310000Y-100850000D01*
D15*
X108210000Y-104250000D02*
X105510000Y-104250000D01*
D10*
X108210000Y-104090000D02*
X108410000Y-104090000D01*
X108180000Y-101850000D02*
X108180000Y-104090000D01*
D16*
X107810000Y-103950000D02*
X107810000Y-102150001D01*
D17*
X106680000Y-100450000D02*
X106680000Y-102690000D01*
D10*
X102910000Y-102550000D02*
X97910000Y-102550000D01*
D18*
X99910000Y-100750000D02*
X106610000Y-100750000D01*
D19*
X98610000Y-99550000D02*
X98610000Y-102050000D01*
D15*
X98210000Y-102250000D02*
X99610000Y-102250000D01*
D10*
X98130000Y-101550000D02*
X98130000Y-99300000D01*
D20*
X98110000Y-101650000D02*
X98110000Y-102350000D01*
D10*
X98110000Y-99300000D02*
X97910000Y-99300000D01*
D20*
X98110000Y-99150000D02*
X99510000Y-99150000D01*
D10*
X97910000Y-102550000D02*
X97910000Y-101550000D01*
X97910000Y-101550000D02*
X98110000Y-101550000D01*
X97910000Y-99300000D02*
X97910000Y-98950000D01*
X97910000Y-98950000D02*
X106310001Y-98950000D01*
X108409999Y-100850001D02*
G75*
G03*
X106310001Y-98950000I-1999998J-99997D01*
G01*
D19*
X105526318Y-104028529D02*
G75*
G03*
X103310000Y-102150000I-2151317J-291470D01*
G01*
D10*
X105126318Y-104428529D02*
G75*
G03*
X102910000Y-102550000I-2151317J-291470D01*
G01*
%TO.C,SW19*%
X125232213Y-67986324D02*
X125276086Y-67629008D01*
X125232213Y-67986324D02*
X121976661Y-67586593D01*
X125549073Y-65405704D02*
X125350564Y-65381330D01*
X125670942Y-64413158D02*
X125549073Y-65405704D01*
D14*
X125462005Y-65294262D02*
X125571688Y-64400971D01*
D15*
X125058077Y-67763441D02*
X122378203Y-67434394D01*
D10*
X125077576Y-67604634D02*
X125276086Y-67629008D01*
X125320787Y-65377674D02*
X125047800Y-67600978D01*
D16*
X124697620Y-67416930D02*
X124916984Y-65630348D01*
D17*
X124002585Y-63805306D02*
X123729598Y-66028609D01*
D10*
X120004760Y-65430205D02*
X115042030Y-64820859D01*
D18*
X117246487Y-63278014D02*
X123896546Y-64094539D01*
D19*
X116102420Y-61928529D02*
X115797747Y-64409894D01*
D15*
X115376354Y-64559656D02*
X116765919Y-64730273D01*
D10*
X115382259Y-63855124D02*
X115656465Y-61621895D01*
D20*
X115350221Y-63951941D02*
X115264913Y-64646723D01*
D10*
X115636614Y-61619457D02*
X115438105Y-61595084D01*
D20*
X115654895Y-61470576D02*
X117044459Y-61641193D01*
D10*
X115042030Y-64820859D02*
X115163899Y-63828312D01*
X115163899Y-63828312D02*
X115362408Y-63852686D01*
X115438105Y-61595084D02*
X115480759Y-61247692D01*
X115480759Y-61247692D02*
X123818148Y-62271395D01*
X125670941Y-64413159D02*
G75*
G03*
X123818148Y-62271395I-1997277J144487D01*
G01*
D19*
X122421389Y-67216563D02*
G75*
G03*
X120450527Y-65081936I-2170802J-27117D01*
G01*
D10*
X121975624Y-67564833D02*
G75*
G03*
X120004760Y-65430205I-2170803J-27118D01*
G01*
%TO.C,SW29*%
X53026521Y-33936753D02*
X53001408Y-33577630D01*
X53026521Y-33936753D02*
X49754511Y-34165555D01*
X52845154Y-31343087D02*
X52645641Y-31357038D01*
X52775397Y-30345523D02*
X52845154Y-31343087D01*
D14*
X52738422Y-31250305D02*
X52675641Y-30352498D01*
D15*
X52813057Y-33751192D02*
X50119634Y-33939534D01*
D10*
X52801896Y-33591582D02*
X53001408Y-33577630D01*
X52615714Y-31359131D02*
X52771969Y-33593674D01*
D16*
X52393104Y-33479825D02*
X52267543Y-31684211D01*
D17*
X51021709Y-30067176D02*
X51177964Y-32301719D01*
D10*
X47407381Y-32425042D02*
X42419561Y-32773825D01*
D18*
X44289127Y-30838696D02*
X50972807Y-30371328D01*
D19*
X42908586Y-29732303D02*
X43082978Y-32226213D01*
D15*
X42697903Y-32453628D02*
X44094493Y-32355969D01*
D10*
X42569269Y-31760914D02*
X42412316Y-29516395D01*
D20*
X42556293Y-31862066D02*
X42605122Y-32560361D01*
D10*
X42392365Y-29517790D02*
X42192852Y-29531741D01*
D20*
X42381902Y-29368156D02*
X43778491Y-29270496D01*
D10*
X42419561Y-32773825D02*
X42349804Y-31776261D01*
X42349804Y-31776261D02*
X42549317Y-31762309D01*
X42192852Y-29531741D02*
X42168438Y-29182594D01*
X42168438Y-29182594D02*
X50547977Y-28596640D01*
X52775396Y-30345524D02*
G75*
G03*
X50547977Y-28596641I-1988151J-239268D01*
G01*
D19*
X50120463Y-33717465D02*
G75*
G03*
X47778504Y-31998115I-2125745J-440828D01*
G01*
D10*
X49749340Y-34144393D02*
G75*
G03*
X47407381Y-32425043I-2125745J-440828D01*
G01*
%TO.C,SW32*%
X28525946Y-53169306D02*
X28478956Y-52812386D01*
X28525946Y-53169306D02*
X25274007Y-53597432D01*
X28186578Y-50591549D02*
X27988289Y-50617655D01*
X28056052Y-49600105D02*
X28186578Y-50591549D01*
D14*
X28074381Y-50505457D02*
X27956907Y-49613157D01*
D15*
X28301552Y-52997122D02*
X25624651Y-53349543D01*
D10*
X28280667Y-52838491D02*
X28478956Y-52812386D01*
X27958545Y-50621571D02*
X28250924Y-52842407D01*
D16*
X27865816Y-52751899D02*
X27630869Y-50967300D01*
D17*
X26288641Y-49429337D02*
X26581020Y-51650173D01*
D10*
X22824999Y-52003455D02*
X17867775Y-52656086D01*
D18*
X19615718Y-50610433D02*
X26258398Y-49735907D01*
D19*
X18170208Y-49590383D02*
X18496523Y-52068995D01*
D15*
X18126051Y-52319495D02*
X19514073Y-52136758D01*
D10*
X17955367Y-51635925D02*
X17661683Y-49405174D01*
D20*
X17948590Y-51737680D02*
X18039959Y-52431692D01*
D10*
X17641854Y-49407785D02*
X17443565Y-49433890D01*
D20*
X17622275Y-49259068D02*
X19010298Y-49076331D01*
D10*
X17867775Y-52656086D02*
X17737249Y-51664641D01*
X17737249Y-51664641D02*
X17935538Y-51638536D01*
X17443565Y-49433890D02*
X17397881Y-49086884D01*
X17397881Y-49086884D02*
X25726019Y-47990464D01*
X28056051Y-49600106D02*
G75*
G03*
X25726019Y-47990464I-1969837J-360195D01*
G01*
D19*
X25611921Y-53127837D02*
G75*
G03*
X23169367Y-51554667I-2094868J-569780D01*
G01*
D10*
X25267554Y-53576625D02*
G75*
G03*
X22824999Y-52003455I-2094868J-569780D01*
G01*
%TO.C,SW34*%
X33755946Y-92779306D02*
X33708956Y-92422386D01*
X33755946Y-92779306D02*
X30504007Y-93207432D01*
X33416578Y-90201549D02*
X33218289Y-90227655D01*
X33286052Y-89210105D02*
X33416578Y-90201549D01*
D14*
X33304381Y-90115457D02*
X33186907Y-89223157D01*
D15*
X33531552Y-92607122D02*
X30854651Y-92959543D01*
D10*
X33510667Y-92448491D02*
X33708956Y-92422386D01*
X33188545Y-90231571D02*
X33480924Y-92452407D01*
D16*
X33095816Y-92361899D02*
X32860869Y-90577300D01*
D17*
X31518641Y-89039337D02*
X31811020Y-91260173D01*
D10*
X28054999Y-91613455D02*
X23097775Y-92266086D01*
D18*
X24845718Y-90220433D02*
X31488398Y-89345907D01*
D19*
X23400208Y-89200383D02*
X23726523Y-91678995D01*
D15*
X23356051Y-91929495D02*
X24744073Y-91746758D01*
D10*
X23185367Y-91245925D02*
X22891683Y-89015174D01*
D20*
X23178590Y-91347680D02*
X23269959Y-92041692D01*
D10*
X22871854Y-89017785D02*
X22673565Y-89043890D01*
D20*
X22852275Y-88869068D02*
X24240298Y-88686331D01*
D10*
X23097775Y-92266086D02*
X22967249Y-91274641D01*
X22967249Y-91274641D02*
X23165538Y-91248536D01*
X22673565Y-89043890D02*
X22627881Y-88696884D01*
X22627881Y-88696884D02*
X30956019Y-87600464D01*
X33286051Y-89210106D02*
G75*
G03*
X30956019Y-87600464I-1969837J-360195D01*
G01*
D19*
X30841921Y-92737837D02*
G75*
G03*
X28399367Y-91164667I-2094868J-569780D01*
G01*
D10*
X30497554Y-93186625D02*
G75*
G03*
X28054999Y-91613455I-2094868J-569780D01*
G01*
%TO.C,SW30*%
X54428896Y-53941116D02*
X54403783Y-53581993D01*
X54428896Y-53941116D02*
X51156886Y-54169918D01*
X54247529Y-51347450D02*
X54048016Y-51361401D01*
X54177772Y-50349886D02*
X54247529Y-51347450D01*
D14*
X54140797Y-51254668D02*
X54078016Y-50356861D01*
D15*
X54215432Y-53755555D02*
X51522009Y-53943897D01*
D10*
X54204271Y-53595945D02*
X54403783Y-53581993D01*
X54018089Y-51363494D02*
X54174344Y-53598037D01*
D16*
X53795479Y-53484188D02*
X53669918Y-51688574D01*
D17*
X52424084Y-50071539D02*
X52580339Y-52306082D01*
D10*
X48809756Y-52429405D02*
X43821936Y-52778188D01*
D18*
X45691502Y-50843059D02*
X52375182Y-50375691D01*
D19*
X44310961Y-49736666D02*
X44485353Y-52230576D01*
D15*
X44100278Y-52457991D02*
X45496868Y-52360332D01*
D10*
X43971644Y-51765277D02*
X43814691Y-49520758D01*
D20*
X43958668Y-51866429D02*
X44007497Y-52564724D01*
D10*
X43794740Y-49522153D02*
X43595227Y-49536104D01*
D20*
X43784277Y-49372519D02*
X45180866Y-49274859D01*
D10*
X43821936Y-52778188D02*
X43752179Y-51780624D01*
X43752179Y-51780624D02*
X43951692Y-51766672D01*
X43595227Y-49536104D02*
X43570813Y-49186957D01*
X43570813Y-49186957D02*
X51950352Y-48601003D01*
X54177771Y-50349887D02*
G75*
G03*
X51950352Y-48601004I-1988151J-239268D01*
G01*
D19*
X51522838Y-53721828D02*
G75*
G03*
X49180879Y-52002478I-2125745J-440828D01*
G01*
D10*
X51151715Y-54148756D02*
G75*
G03*
X48809756Y-52429406I-2125745J-440828D01*
G01*
%TO.C,SW33*%
X31159406Y-72982379D02*
X31112416Y-72625459D01*
X31159406Y-72982379D02*
X27907467Y-73410505D01*
X30820038Y-70404622D02*
X30621749Y-70430728D01*
X30689512Y-69413178D02*
X30820038Y-70404622D01*
D14*
X30707841Y-70318530D02*
X30590367Y-69426230D01*
D15*
X30935012Y-72810195D02*
X28258111Y-73162616D01*
D10*
X30914127Y-72651564D02*
X31112416Y-72625459D01*
X30592005Y-70434644D02*
X30884384Y-72655480D01*
D16*
X30499276Y-72564972D02*
X30264329Y-70780373D01*
D17*
X28922101Y-69242410D02*
X29214480Y-71463246D01*
D10*
X25458459Y-71816528D02*
X20501235Y-72469159D01*
D18*
X22249178Y-70423506D02*
X28891858Y-69548980D01*
D19*
X20803668Y-69403456D02*
X21129983Y-71882068D01*
D15*
X20759511Y-72132568D02*
X22147533Y-71949831D01*
D10*
X20588827Y-71448998D02*
X20295143Y-69218247D01*
D20*
X20582050Y-71550753D02*
X20673419Y-72244765D01*
D10*
X20275314Y-69220858D02*
X20077025Y-69246963D01*
D20*
X20255735Y-69072141D02*
X21643758Y-68889404D01*
D10*
X20501235Y-72469159D02*
X20370709Y-71477714D01*
X20370709Y-71477714D02*
X20568998Y-71451609D01*
X20077025Y-69246963D02*
X20031341Y-68899957D01*
X20031341Y-68899957D02*
X28359479Y-67803537D01*
X30689511Y-69413179D02*
G75*
G03*
X28359479Y-67803537I-1969837J-360195D01*
G01*
D19*
X28245381Y-72940910D02*
G75*
G03*
X25802827Y-71367740I-2094868J-569780D01*
G01*
D10*
X27901014Y-73389698D02*
G75*
G03*
X25458459Y-71816528I-2094868J-569780D01*
G01*
%TO.C,SW24*%
X104672751Y-57705654D02*
X104704127Y-57347024D01*
X104672751Y-57705654D02*
X101405232Y-57419783D01*
X104899356Y-55115547D02*
X104700117Y-55098116D01*
X104986512Y-54119353D02*
X104899356Y-55115547D01*
D14*
X104808452Y-55007211D02*
X104886892Y-54110637D01*
D15*
X104490943Y-57488984D02*
X101801218Y-57253663D01*
D10*
X104504888Y-57329592D02*
X104704127Y-57347024D01*
X104670231Y-55095502D02*
X104475002Y-57326978D01*
D16*
X104118612Y-57155263D02*
X104275492Y-55362113D01*
D17*
X103297957Y-53570095D02*
X103102728Y-55801572D01*
D10*
X99359276Y-55333527D02*
X94378303Y-54897748D01*
D18*
X96527572Y-53278910D02*
X103202077Y-53862853D01*
D19*
X95337106Y-51970173D02*
X95119217Y-54460660D01*
D15*
X94703308Y-54625037D02*
X96097980Y-54747055D01*
D10*
X94684621Y-53920728D02*
X94880722Y-51679290D01*
D20*
X94655982Y-54018604D02*
X94594973Y-54715941D01*
D10*
X94860798Y-51677547D02*
X94661559Y-51660116D01*
D20*
X94873871Y-51528118D02*
X96268544Y-51650136D01*
D10*
X94378303Y-54897748D02*
X94465458Y-53901554D01*
X94465458Y-53901554D02*
X94664697Y-53918985D01*
X94661559Y-51660116D02*
X94692063Y-51311448D01*
X94692063Y-51311448D02*
X103060100Y-52043556D01*
X104986510Y-54119354D02*
G75*
G03*
X103060100Y-52043556I-2001102J74695D01*
G01*
D19*
X101836775Y-57034457D02*
G75*
G03*
X99792616Y-54969913I-2168533J-102861D01*
G01*
D10*
X101403436Y-57398073D02*
G75*
G03*
X99359276Y-55333528I-2168534J-102861D01*
G01*
%TO.C,SW22*%
X116723807Y-130173058D02*
X116829061Y-129828788D01*
X116723807Y-130173058D02*
X113587127Y-129214079D01*
X117483973Y-127686665D02*
X117292712Y-127628191D01*
X117776345Y-126730361D02*
X117483973Y-127686665D01*
D14*
X117417580Y-127561797D02*
X117680715Y-126701124D01*
D15*
X116591020Y-129923323D02*
X114008997Y-129133919D01*
D10*
X116637800Y-129770314D02*
X116829061Y-129828788D01*
X117264023Y-127619420D02*
X116609111Y-129761543D01*
D16*
X116296210Y-129519482D02*
X116822479Y-127798135D01*
D17*
X116238887Y-125842036D02*
X115583974Y-127984158D01*
D10*
X112019637Y-126748034D02*
X107238113Y-125286176D01*
D18*
X109676992Y-124149571D02*
X116084234Y-126108461D01*
D19*
X108784642Y-122621922D02*
X108053712Y-125012684D01*
D15*
X107612716Y-125086996D02*
X108951543Y-125496316D01*
D10*
X107740872Y-124394193D02*
X108398708Y-122242507D01*
D20*
X107692509Y-124483976D02*
X107487849Y-125153389D01*
D10*
X108379582Y-122236660D02*
X108188321Y-122178185D01*
D20*
X108423438Y-122093214D02*
X109762265Y-122502534D01*
D10*
X107238113Y-125286176D02*
X107530485Y-124329871D01*
X107530485Y-124329871D02*
X107721746Y-124388345D01*
X108188321Y-122178185D02*
X108290651Y-121843479D01*
X108290651Y-121843479D02*
X116323612Y-124299401D01*
X117776343Y-126730362D02*
G75*
G03*
X116323612Y-124299402I-1941843J489116D01*
G01*
D19*
X114089354Y-128926896D02*
G75*
G03*
X112519108Y-126482462I-2142532J350250D01*
G01*
D10*
X113589883Y-129192469D02*
G75*
G03*
X112019637Y-126748035I-2142532J350250D01*
G01*
%TO.C,SW28*%
X79860000Y-68248000D02*
X79860000Y-67888000D01*
X79860000Y-68248000D02*
X76580000Y-68248000D01*
X79860000Y-65648000D02*
X79660000Y-65648000D01*
X79860000Y-64648000D02*
X79860000Y-65648000D01*
D14*
X79760000Y-65547999D02*
X79760000Y-64648000D01*
D15*
X79660000Y-68048000D02*
X76960000Y-68048000D01*
D10*
X79660000Y-67888000D02*
X79860000Y-67888000D01*
X79630000Y-65648000D02*
X79630000Y-67888000D01*
D16*
X79260000Y-67748000D02*
X79260000Y-65948001D01*
D17*
X78130000Y-64248000D02*
X78130000Y-66488000D01*
D10*
X74360000Y-66348000D02*
X69360000Y-66348000D01*
D18*
X71360000Y-64548000D02*
X78060000Y-64548000D01*
D19*
X70060000Y-63348000D02*
X70060000Y-65848000D01*
D15*
X69660000Y-66048000D02*
X71060000Y-66048000D01*
D10*
X69580000Y-65348000D02*
X69580000Y-63098000D01*
D20*
X69560000Y-65448000D02*
X69560000Y-66148000D01*
D10*
X69560000Y-63098000D02*
X69360000Y-63098000D01*
D20*
X69560000Y-62948000D02*
X70960000Y-62948000D01*
D10*
X69360000Y-66348000D02*
X69360000Y-65348000D01*
X69360000Y-65348000D02*
X69560000Y-65348000D01*
X69360000Y-63098000D02*
X69360000Y-62748000D01*
X69360000Y-62748000D02*
X77760001Y-62748000D01*
X79859999Y-64648001D02*
G75*
G03*
X77760001Y-62748000I-1999998J-99997D01*
G01*
D19*
X76976318Y-67826529D02*
G75*
G03*
X74760000Y-65948000I-2151317J-291470D01*
G01*
D10*
X76576318Y-68226529D02*
G75*
G03*
X74360000Y-66348000I-2151317J-291470D01*
G01*
%TO.C,SW18*%
X127590079Y-48087228D02*
X127633952Y-47729912D01*
X127590079Y-48087228D02*
X124334527Y-47687497D01*
X127906939Y-45506608D02*
X127708430Y-45482234D01*
X128028808Y-44514062D02*
X127906939Y-45506608D01*
D14*
X127819871Y-45395166D02*
X127929554Y-44501875D01*
D15*
X127415943Y-47864345D02*
X124736069Y-47535298D01*
D10*
X127435442Y-47705538D02*
X127633952Y-47729912D01*
X127678653Y-45478578D02*
X127405666Y-47701882D01*
D16*
X127055486Y-47517834D02*
X127274850Y-45731252D01*
D17*
X126360451Y-43906210D02*
X126087464Y-46129513D01*
D10*
X122362626Y-45531109D02*
X117399896Y-44921763D01*
D18*
X119604353Y-43378918D02*
X126254412Y-44195443D01*
D19*
X118460286Y-42029433D02*
X118155613Y-44510798D01*
D15*
X117734220Y-44660560D02*
X119123785Y-44831177D01*
D10*
X117740125Y-43956028D02*
X118014331Y-41722799D01*
D20*
X117708087Y-44052845D02*
X117622779Y-44747627D01*
D10*
X117994480Y-41720361D02*
X117795971Y-41695988D01*
D20*
X118012761Y-41571480D02*
X119402325Y-41742097D01*
D10*
X117399896Y-44921763D02*
X117521765Y-43929216D01*
X117521765Y-43929216D02*
X117720274Y-43953590D01*
X117795971Y-41695988D02*
X117838625Y-41348596D01*
X117838625Y-41348596D02*
X126176014Y-42372299D01*
X128028807Y-44514063D02*
G75*
G03*
X126176014Y-42372299I-1997277J144487D01*
G01*
D19*
X124779255Y-47317467D02*
G75*
G03*
X122808393Y-45182840I-2170802J-27117D01*
G01*
D10*
X124333490Y-47665737D02*
G75*
G03*
X122362626Y-45531109I-2170803J-27118D01*
G01*
%TO.C,SW35*%
X44382513Y-124789952D02*
X44289339Y-124442219D01*
X44382513Y-124789952D02*
X41214277Y-125638879D01*
X43709584Y-122278545D02*
X43516399Y-122330309D01*
X43450765Y-121312619D02*
X43709584Y-122278545D01*
D14*
X43587109Y-122207833D02*
X43354172Y-121338501D01*
D15*
X44137564Y-124648531D02*
X41529565Y-125347342D01*
D10*
X44096153Y-124493983D02*
X44289339Y-124442219D01*
X43487421Y-122338073D02*
X44067176Y-124501747D01*
D16*
X43673548Y-124462281D02*
X43207674Y-122723615D01*
D17*
X41676186Y-121374006D02*
X42255940Y-123537680D01*
D10*
X38578165Y-124378198D02*
X33748536Y-125672293D01*
D18*
X35214513Y-123415989D02*
X41686216Y-121681901D01*
D19*
X33648227Y-122593342D02*
X34295275Y-125008157D01*
D15*
X33960668Y-125304870D02*
X35312964Y-124942523D01*
D10*
X33702221Y-124649427D02*
X33119878Y-122476094D01*
D20*
X33708784Y-124751196D02*
X33889957Y-125427344D01*
D10*
X33100559Y-122481270D02*
X32907374Y-122533034D01*
D20*
X33061736Y-122336382D02*
X34414033Y-121974035D01*
D10*
X33748536Y-125672293D02*
X33489717Y-124706367D01*
X33489717Y-124706367D02*
X33682902Y-124654603D01*
X32907374Y-122533034D02*
X32816788Y-122194960D01*
X32816788Y-122194960D02*
X40930565Y-120020880D01*
X43450764Y-121312620D02*
G75*
G03*
X40930565Y-120020881I-1905968J-614228D01*
G01*
D19*
X41488005Y-125129194D02*
G75*
G03*
X38861008Y-123888301I-2002574J-838341D01*
G01*
D10*
X41205162Y-125619092D02*
G75*
G03*
X38578165Y-124378199I-2002574J-838340D01*
G01*
%TO.C,SW21*%
X132881982Y-107701819D02*
X132938299Y-107346251D01*
X132881982Y-107701819D02*
X129642364Y-107188714D01*
X133288712Y-105133829D02*
X133091174Y-105102543D01*
X133445146Y-104146141D02*
X133288712Y-105133829D01*
D14*
X133205586Y-105019416D02*
X133346377Y-104130498D01*
D15*
X132715731Y-107472995D02*
X130048973Y-107050622D01*
D10*
X132740761Y-107314964D02*
X132938299Y-107346251D01*
X133061543Y-105097850D02*
X132711130Y-107310271D01*
D16*
X132367586Y-107114114D02*
X132649168Y-105336276D01*
D17*
X131799019Y-103480434D02*
X131448606Y-105692856D01*
D10*
X127746922Y-104964822D02*
X122808480Y-104182649D01*
D18*
X125065439Y-102717679D02*
X131682951Y-103765790D01*
D19*
X123969165Y-101329089D02*
X123578079Y-103798309D01*
D15*
X123151717Y-103933273D02*
X124534481Y-104152282D01*
D10*
X123182206Y-103229377D02*
X123534183Y-101007078D01*
D20*
X123146809Y-103325017D02*
X123037305Y-104016399D01*
D10*
X123514430Y-101003949D02*
X123316892Y-100972662D01*
D20*
X123537895Y-100855796D02*
X124920659Y-101074804D01*
D10*
X122808480Y-104182649D02*
X122964914Y-103194961D01*
X122964914Y-103194961D02*
X123162452Y-103226248D01*
X123316892Y-100972662D02*
X123371644Y-100626971D01*
X123371644Y-100626971D02*
X131668227Y-101941021D01*
X133445144Y-104146142D02*
G75*
G03*
X131668227Y-101941021I-1991017J214103D01*
G01*
D19*
X130099736Y-106834430D02*
G75*
G03*
X128204571Y-104632320I-2170427J48659D01*
G01*
D10*
X129642087Y-107166931D02*
G75*
G03*
X127746922Y-104964822I-2170427J48658D01*
G01*
%TO.C,SW27*%
X79840000Y-48250000D02*
X79840000Y-47890000D01*
X79840000Y-48250000D02*
X76560000Y-48250000D01*
X79840000Y-45650000D02*
X79640000Y-45650000D01*
X79840000Y-44650000D02*
X79840000Y-45650000D01*
D14*
X79740000Y-45549999D02*
X79740000Y-44650000D01*
D15*
X79640000Y-48050000D02*
X76940000Y-48050000D01*
D10*
X79640000Y-47890000D02*
X79840000Y-47890000D01*
X79610000Y-45650000D02*
X79610000Y-47890000D01*
D16*
X79240000Y-47750000D02*
X79240000Y-45950001D01*
D17*
X78110000Y-44250000D02*
X78110000Y-46490000D01*
D10*
X74340000Y-46350000D02*
X69340000Y-46350000D01*
D18*
X71340000Y-44550000D02*
X78040000Y-44550000D01*
D19*
X70040000Y-43350000D02*
X70040000Y-45850000D01*
D15*
X69640000Y-46050000D02*
X71040000Y-46050000D01*
D10*
X69560000Y-45350000D02*
X69560000Y-43100000D01*
D20*
X69540000Y-45450000D02*
X69540000Y-46150000D01*
D10*
X69540000Y-43100000D02*
X69340000Y-43100000D01*
D20*
X69540000Y-42950000D02*
X70940000Y-42950000D01*
D10*
X69340000Y-46350000D02*
X69340000Y-45350000D01*
X69340000Y-45350000D02*
X69540000Y-45350000D01*
X69340000Y-43100000D02*
X69340000Y-42750000D01*
X69340000Y-42750000D02*
X77740001Y-42750000D01*
X79839999Y-44650001D02*
G75*
G03*
X77740001Y-42750000I-1999998J-99997D01*
G01*
D19*
X76956318Y-47828529D02*
G75*
G03*
X74740000Y-45950000I-2151317J-291470D01*
G01*
D10*
X76556318Y-48228529D02*
G75*
G03*
X74340000Y-46350000I-2151317J-291470D01*
G01*
%TO.C,SW23*%
X106403420Y-37828405D02*
X106434796Y-37469775D01*
X106403420Y-37828405D02*
X103135901Y-37542534D01*
X106630025Y-35238298D02*
X106430786Y-35220867D01*
X106717181Y-34242104D02*
X106630025Y-35238298D01*
D14*
X106539121Y-35129962D02*
X106617561Y-34233388D01*
D15*
X106221612Y-37611735D02*
X103531887Y-37376414D01*
D10*
X106235557Y-37452343D02*
X106434796Y-37469775D01*
X106400900Y-35218253D02*
X106205671Y-37449729D01*
D16*
X105849281Y-37278014D02*
X106006161Y-35484864D01*
D17*
X105028626Y-33692846D02*
X104833397Y-35924323D01*
D10*
X101089945Y-35456278D02*
X96108972Y-35020499D01*
D18*
X98258241Y-33401661D02*
X104932746Y-33985604D01*
D19*
X97067775Y-32092924D02*
X96849886Y-34583411D01*
D15*
X96433977Y-34747788D02*
X97828649Y-34869806D01*
D10*
X96415290Y-34043479D02*
X96611391Y-31802041D01*
D20*
X96386651Y-34141355D02*
X96325642Y-34838692D01*
D10*
X96591467Y-31800298D02*
X96392228Y-31782867D01*
D20*
X96604540Y-31650869D02*
X97999213Y-31772887D01*
D10*
X96108972Y-35020499D02*
X96196127Y-34024305D01*
X96196127Y-34024305D02*
X96395366Y-34041736D01*
X96392228Y-31782867D02*
X96422732Y-31434199D01*
X96422732Y-31434199D02*
X104790769Y-32166307D01*
X106717179Y-34242105D02*
G75*
G03*
X104790769Y-32166307I-2001102J74695D01*
G01*
D19*
X103567444Y-37157208D02*
G75*
G03*
X101523285Y-35092664I-2168533J-102861D01*
G01*
D10*
X103134105Y-37520824D02*
G75*
G03*
X101089945Y-35456279I-2168534J-102861D01*
G01*
%TO.C,SW31*%
X55808896Y-73861116D02*
X55783783Y-73501993D01*
X55808896Y-73861116D02*
X52536886Y-74089918D01*
X55627529Y-71267450D02*
X55428016Y-71281401D01*
X55557772Y-70269886D02*
X55627529Y-71267450D01*
D14*
X55520797Y-71174668D02*
X55458016Y-70276861D01*
D15*
X55595432Y-73675555D02*
X52902009Y-73863897D01*
D10*
X55584271Y-73515945D02*
X55783783Y-73501993D01*
X55398089Y-71283494D02*
X55554344Y-73518037D01*
D16*
X55175479Y-73404188D02*
X55049918Y-71608574D01*
D17*
X53804084Y-69991539D02*
X53960339Y-72226082D01*
D10*
X50189756Y-72349405D02*
X45201936Y-72698188D01*
D18*
X47071502Y-70763059D02*
X53755182Y-70295691D01*
D19*
X45690961Y-69656666D02*
X45865353Y-72150576D01*
D15*
X45480278Y-72377991D02*
X46876868Y-72280332D01*
D10*
X45351644Y-71685277D02*
X45194691Y-69440758D01*
D20*
X45338668Y-71786429D02*
X45387497Y-72484724D01*
D10*
X45174740Y-69442153D02*
X44975227Y-69456104D01*
D20*
X45164277Y-69292519D02*
X46560866Y-69194859D01*
D10*
X45201936Y-72698188D02*
X45132179Y-71700624D01*
X45132179Y-71700624D02*
X45331692Y-71686672D01*
X44975227Y-69456104D02*
X44950813Y-69106957D01*
X44950813Y-69106957D02*
X53330352Y-68521003D01*
X55557771Y-70269887D02*
G75*
G03*
X53330352Y-68521004I-1988151J-239268D01*
G01*
D19*
X52902838Y-73641828D02*
G75*
G03*
X50560879Y-71922478I-2125745J-440828D01*
G01*
D10*
X52531715Y-74068756D02*
G75*
G03*
X50189756Y-72349406I-2125745J-440828D01*
G01*
%TD*%
D21*
%TO.C,SW11*%
X23017592Y-95298649D03*
D22*
X28054132Y-94635576D03*
D21*
X33090672Y-93972503D03*
%TD*%
%TO.C,SW20*%
X119910000Y-30165000D03*
X119910000Y-36665000D03*
%TD*%
D23*
%TO.C,D20*%
X127045000Y-95110000D03*
D24*
X119425000Y-95110000D03*
%TD*%
D23*
%TO.C,D2*%
X59940000Y-43510000D03*
D24*
X52320000Y-43510000D03*
%TD*%
D23*
%TO.C,D31*%
X34315000Y-64860000D03*
D24*
X26695000Y-64860000D03*
%TD*%
D21*
%TO.C,SW8*%
X68864132Y-49335576D03*
D22*
X73944132Y-49335576D03*
D21*
X79024132Y-49335576D03*
%TD*%
%TO.C,SW12*%
X44936507Y-75719939D03*
D22*
X50004132Y-75365576D03*
D21*
X55071757Y-75011213D03*
%TD*%
D23*
%TO.C,D15*%
X127010000Y-93080000D03*
D24*
X119390000Y-93080000D03*
%TD*%
D21*
%TO.C,SW10*%
X114181998Y-67726480D03*
D22*
X119224132Y-68345576D03*
D21*
X124266266Y-68964672D03*
%TD*%
D23*
%TO.C,D28*%
X59940000Y-45430000D03*
D24*
X52320000Y-45430000D03*
%TD*%
D23*
%TO.C,D14*%
X101260000Y-93050000D03*
D24*
X93640000Y-93050000D03*
%TD*%
D23*
%TO.C,D29*%
X59940000Y-65800000D03*
D24*
X52320000Y-65800000D03*
%TD*%
D21*
%TO.C,SW7*%
X43566507Y-55809939D03*
D22*
X48634132Y-55455576D03*
D21*
X53701757Y-55101213D03*
%TD*%
D23*
%TO.C,D9*%
X96960000Y-66390000D03*
D24*
X89340000Y-66390000D03*
%TD*%
D23*
%TO.C,D17*%
X128675000Y-118850000D03*
D24*
X121055000Y-118850000D03*
%TD*%
D21*
%TO.C,SW16*%
X34077229Y-128700377D03*
D22*
X38984132Y-127385576D03*
D21*
X43891035Y-126070775D03*
%TD*%
D23*
%TO.C,D27*%
X83510000Y-79650000D03*
D24*
X75890000Y-79650000D03*
%TD*%
D21*
%TO.C,SW17*%
X105916104Y-128010328D03*
D22*
X110774132Y-129495576D03*
D21*
X115632160Y-130980824D03*
%TD*%
D23*
%TO.C,D19*%
X117240000Y-79230000D03*
D24*
X109620000Y-79230000D03*
%TD*%
D23*
%TO.C,D23*%
X96950000Y-68300000D03*
D24*
X89330000Y-68300000D03*
%TD*%
D23*
%TO.C,D5*%
X119705000Y-56370000D03*
D24*
X112085000Y-56370000D03*
%TD*%
D21*
%TO.C,SW9*%
X93653463Y-57862825D03*
D22*
X98714132Y-58305576D03*
D21*
X103774801Y-58748327D03*
%TD*%
D23*
%TO.C,D25*%
X83510000Y-39570000D03*
D24*
X75890000Y-39570000D03*
%TD*%
D23*
%TO.C,D34*%
X44120000Y-117240000D03*
D24*
X36500000Y-117240000D03*
%TD*%
D21*
%TO.C,SW6*%
X20427592Y-75498649D03*
D22*
X25464132Y-74835576D03*
D21*
X30500672Y-74172503D03*
%TD*%
D23*
%TO.C,D16*%
X44110000Y-114830000D03*
D24*
X36490000Y-114830000D03*
%TD*%
D23*
%TO.C,D6*%
X37980000Y-82700000D03*
D24*
X30360000Y-82700000D03*
%TD*%
D21*
%TO.C,SW2*%
X42126507Y-35789939D03*
D22*
X47194132Y-35435576D03*
D21*
X52261757Y-35081213D03*
%TD*%
D25*
%TO.C,J1*%
X136340000Y-32540000D03*
X129340000Y-32540000D03*
X136340000Y-34290000D03*
X129340000Y-34290000D03*
D26*
X126040000Y-32190000D03*
X126040000Y-34640000D03*
X134540000Y-30440000D03*
X134540000Y-36390000D03*
X131540000Y-30440000D03*
X131540000Y-36390000D03*
X127540000Y-30440000D03*
X127540000Y-36390000D03*
%TD*%
D23*
%TO.C,D26*%
X83510000Y-60160000D03*
D24*
X75890000Y-60160000D03*
%TD*%
D23*
%TO.C,D30*%
X59940000Y-85360000D03*
D24*
X52320000Y-85360000D03*
%TD*%
D27*
%TO.C,U1*%
X16370000Y-14480000D03*
X32916400Y-13210000D03*
X16370000Y-17020000D03*
X32916400Y-15750000D03*
X16370000Y-19560000D03*
X32916400Y-18290000D03*
X16370000Y-22100000D03*
X32916400Y-20830000D03*
X16370000Y-24640000D03*
X32916400Y-23370000D03*
X16370000Y-27180000D03*
X32916400Y-25910000D03*
X16370000Y-29720000D03*
X32916400Y-28450000D03*
X16370000Y-32260000D03*
X32916400Y-30990000D03*
X16370000Y-34800000D03*
X32916400Y-33530000D03*
X16370000Y-37340000D03*
X32916400Y-36070000D03*
X16370000Y-39880000D03*
X32916400Y-38610000D03*
X16370000Y-42420000D03*
X32916400Y-41150000D03*
X17696400Y-41150000D03*
X31610000Y-42420000D03*
X17696400Y-38610000D03*
X31610000Y-39880000D03*
X17696400Y-36070000D03*
X31610000Y-37340000D03*
X17696400Y-33530000D03*
X31610000Y-34800000D03*
X17696400Y-30990000D03*
X31610000Y-32260000D03*
X17696400Y-28450000D03*
X31610000Y-29720000D03*
X17696400Y-25910000D03*
X31610000Y-27180000D03*
X17696400Y-23370000D03*
X31610000Y-24640000D03*
X17696400Y-20830000D03*
X31610000Y-22100000D03*
X17696400Y-18290000D03*
X31610000Y-19560000D03*
X17696400Y-15750000D03*
X31610000Y-17020000D03*
X17696400Y-13210000D03*
X31610000Y-14480000D03*
%TD*%
D21*
%TO.C,SW14*%
X97434132Y-105545576D03*
D22*
X102514132Y-105545576D03*
D21*
X107594132Y-105545576D03*
%TD*%
%TO.C,SW3*%
X68844132Y-29295576D03*
D22*
X73924132Y-29295576D03*
D21*
X79004132Y-29295576D03*
%TD*%
D23*
%TO.C,D33*%
X39025000Y-104660000D03*
D24*
X31405000Y-104660000D03*
%TD*%
D21*
%TO.C,SW4*%
X95373463Y-37972825D03*
D22*
X100434132Y-38415576D03*
D21*
X105494801Y-38858327D03*
%TD*%
D23*
%TO.C,D21*%
X128680000Y-120870000D03*
D24*
X121060000Y-120870000D03*
%TD*%
D23*
%TO.C,D4*%
X100310000Y-26430000D03*
D24*
X92690000Y-26430000D03*
%TD*%
D21*
%TO.C,SW13*%
X68874132Y-69345576D03*
D22*
X73954132Y-69345576D03*
D21*
X79034132Y-69345576D03*
%TD*%
D23*
%TO.C,D12*%
X59940000Y-83460000D03*
D24*
X52320000Y-83460000D03*
%TD*%
D21*
%TO.C,SW5*%
X116551998Y-47876480D03*
D22*
X121594132Y-48495576D03*
D21*
X126636266Y-49114672D03*
%TD*%
D23*
%TO.C,D7*%
X59940000Y-63660000D03*
D24*
X52320000Y-63660000D03*
%TD*%
D21*
%TO.C,SW1*%
X17797592Y-55688649D03*
D22*
X22834132Y-55025576D03*
D21*
X27870672Y-54362503D03*
%TD*%
D23*
%TO.C,D22*%
X100300000Y-28390000D03*
D24*
X92680000Y-28390000D03*
%TD*%
D23*
%TO.C,D10*%
X117260000Y-77160000D03*
D24*
X109640000Y-77160000D03*
%TD*%
D23*
%TO.C,D1*%
X34305000Y-62780000D03*
D24*
X26685000Y-62780000D03*
%TD*%
D23*
%TO.C,D13*%
X83510000Y-77670000D03*
D24*
X75890000Y-77670000D03*
%TD*%
D21*
%TO.C,SW15*%
X121866675Y-107060889D03*
D22*
X126884132Y-107855576D03*
D21*
X131901589Y-108650263D03*
%TD*%
D23*
%TO.C,D11*%
X39040000Y-102600000D03*
D24*
X31420000Y-102600000D03*
%TD*%
D23*
%TO.C,D3*%
X83510000Y-37630000D03*
D24*
X75890000Y-37630000D03*
%TD*%
D23*
%TO.C,D32*%
X37980000Y-84750000D03*
D24*
X30360000Y-84750000D03*
%TD*%
D23*
%TO.C,D24*%
X101260000Y-95000000D03*
D24*
X93640000Y-95000000D03*
%TD*%
D23*
%TO.C,D18*%
X119710000Y-58440000D03*
D24*
X112090000Y-58440000D03*
%TD*%
D23*
%TO.C,D8*%
X83510000Y-58100000D03*
D24*
X75890000Y-58100000D03*
%TD*%
M02*
