M48
; DRILL file {KiCad 7.0.7} date Tue Jun 25 00:35:21 2024
; FORMAT={-:-/ absolute / metric / decimal}
; #@! TF.CreationDate,2024-06-25T00:35:21+09:00
; #@! TF.GenerationSoftware,Kicad,Pcbnew,7.0.7
; #@! TF.FileFunction,Plated,1,2,PTH
FMAT,2
METRIC
; #@! TA.AperFunction,Plated,PTH,ViaDrill
T1C0.400
; #@! TA.AperFunction,Plated,PTH,ComponentDrill
T2C0.813
; #@! TA.AperFunction,Plated,PTH,ComponentDrill
T3C1.000
; #@! TA.AperFunction,Plated,PTH,ComponentDrill
T4C1.300
; #@! TA.AperFunction,Plated,PTH,ComponentDrill
T5C4.200
%
G90
G05
T1
X15.26Y-53.38
X18.187Y-73.191
X19.134Y-70.511
X20.777Y-92.991
X24.59Y-124.75
X27.817Y-49.205
X29.423Y-51.558
X30.01Y-19.56
X30.01Y-22.1
X30.01Y-29.72
X30.01Y-34.81
X30.01Y-39.88
X30.02Y-24.65
X30.02Y-27.18
X30.02Y-32.26
X30.02Y-42.42
X30.03Y-37.34
X30.05Y-14.49
X30.05Y-17.02
X32.62Y-115.74
X32.67Y-112.93
X32.71Y-110.69
X33.037Y-88.815
X34.653Y-91.168
X35.925Y-38.54
X35.96Y-42.5
X36.739Y-101.15
X37.554Y-76.21
X39.99Y-33.29
X39.99Y-42.53
X40.527Y-97.043
X41.443Y-53.37
X42.768Y-99.778
X42.833Y-73.28
X43.165Y-120.965
X43.58Y-131.69
X46.44Y-117.24
X52.523Y-29.93
X54.688Y-69.86
X55.23Y-26.84
X55.42Y-36.89
X56.64Y-120.88
X62.985Y-118.485
X65.815Y-30.792
X66.61Y-26.88
X66.76Y-46.756
X66.775Y-66.766
X66.775Y-84.45
X68.24Y-44.23
X79.08Y-33.92
X79.624Y-24.176
X82.47Y-71.86
X85.43Y-33.99
X86.61Y-31.8
X87.28Y-81.62
X87.29Y-19.56
X87.409Y-33.691
X91.539Y-55.125
X93.71Y-35.22
X95.198Y-32.813
X95.514Y-102.966
X104.834Y-124.982
X106.806Y-122.937
X107.628Y-49.72
X108.596Y-82.23
X109.51Y-102.97
X111.925Y-64.932
X113.84Y-81.45
X114.452Y-45.082
X120.374Y-104.212
X126.504Y-76.26
X127.79Y-66.22
X128.316Y-43.668
X128.862Y-46.752
T2
X16.37Y-14.48
X16.37Y-17.02
X16.37Y-19.56
X16.37Y-22.1
X16.37Y-24.64
X16.37Y-27.18
X16.37Y-29.72
X16.37Y-32.26
X16.37Y-34.8
X16.37Y-37.34
X16.37Y-39.88
X16.37Y-42.42
X17.696Y-13.21
X17.696Y-15.75
X17.696Y-18.29
X17.696Y-20.83
X17.696Y-23.37
X17.696Y-25.91
X17.696Y-28.45
X17.696Y-30.99
X17.696Y-33.53
X17.696Y-36.07
X17.696Y-38.61
X17.696Y-41.15
X26.685Y-62.78
X26.695Y-64.86
X30.36Y-82.7
X30.36Y-84.75
X31.405Y-104.66
X31.42Y-102.6
X31.61Y-14.48
X31.61Y-17.02
X31.61Y-19.56
X31.61Y-22.1
X31.61Y-24.64
X31.61Y-27.18
X31.61Y-29.72
X31.61Y-32.26
X31.61Y-34.8
X31.61Y-37.34
X31.61Y-39.88
X31.61Y-42.42
X32.916Y-13.21
X32.916Y-15.75
X32.916Y-18.29
X32.916Y-20.83
X32.916Y-23.37
X32.916Y-25.91
X32.916Y-28.45
X32.916Y-30.99
X32.916Y-33.53
X32.916Y-36.07
X32.916Y-38.61
X32.916Y-41.15
X34.305Y-62.78
X34.315Y-64.86
X36.49Y-114.83
X36.5Y-117.24
X37.98Y-82.7
X37.98Y-84.75
X39.025Y-104.66
X39.04Y-102.6
X44.11Y-114.83
X44.12Y-117.24
X52.32Y-43.51
X52.32Y-45.43
X52.32Y-63.66
X52.32Y-65.8
X52.32Y-83.46
X52.32Y-85.36
X59.94Y-43.51
X59.94Y-45.43
X59.94Y-63.66
X59.94Y-65.8
X59.94Y-83.46
X59.94Y-85.36
X75.89Y-37.63
X75.89Y-39.57
X75.89Y-58.1
X75.89Y-60.16
X75.89Y-77.67
X75.89Y-79.65
X83.51Y-37.63
X83.51Y-39.57
X83.51Y-58.1
X83.51Y-60.16
X83.51Y-77.67
X83.51Y-79.65
X89.33Y-68.3
X89.34Y-66.39
X92.68Y-28.39
X92.69Y-26.43
X93.64Y-93.05
X93.64Y-95.0
X96.95Y-68.3
X96.96Y-66.39
X100.3Y-28.39
X100.31Y-26.43
X101.26Y-93.05
X101.26Y-95.0
X109.62Y-79.23
X109.64Y-77.16
X112.085Y-56.37
X112.09Y-58.44
X117.24Y-79.23
X117.26Y-77.16
X119.39Y-93.08
X119.425Y-95.11
X119.705Y-56.37
X119.71Y-58.44
X121.055Y-118.85
X121.06Y-120.87
X127.01Y-93.08
X127.045Y-95.11
X128.675Y-118.85
X128.68Y-120.87
T3
X13.34Y-96.81
X13.34Y-99.35
X13.34Y-101.89
X13.34Y-104.43
X13.34Y-106.97
X13.34Y-109.51
X13.34Y-112.05
X13.34Y-114.59
X13.34Y-117.13
X13.34Y-119.67
X13.34Y-122.21
X13.34Y-124.75
X15.88Y-96.81
X15.88Y-99.35
X15.88Y-101.89
X15.88Y-104.43
X15.88Y-106.97
X15.88Y-109.51
X15.88Y-112.05
X15.88Y-114.59
X15.88Y-117.13
X15.88Y-119.67
X15.88Y-122.21
X15.88Y-124.75
T4
X119.91Y-30.165
X119.91Y-36.665
T5
X131.94Y-19.14
X131.94Y-76.64
X131.94Y-134.37
T3
G00X126.29Y-32.19
M15
G01X125.79Y-32.19
M16
G05
G00X126.29Y-34.64
M15
G01X125.79Y-34.64
M16
G05
G00X127.79Y-30.44
M15
G01X127.29Y-30.44
M16
G05
G00X127.79Y-36.39
M15
G01X127.29Y-36.39
M16
G05
G00X131.79Y-30.44
M15
G01X131.29Y-30.44
M16
G05
G00X131.79Y-36.39
M15
G01X131.29Y-36.39
M16
G05
G00X134.79Y-30.44
M15
G01X134.29Y-30.44
M16
G05
G00X134.79Y-36.39
M15
G01X134.29Y-36.39
M16
G05
T0
M30
