%TF.GenerationSoftware,KiCad,Pcbnew,7.0.7*%
%TF.CreationDate,2024-06-25T00:35:16+09:00*%
%TF.ProjectId,hmproto34,686d7072-6f74-46f3-9334-2e6b69636164,rev?*%
%TF.SameCoordinates,Original*%
%TF.FileFunction,Soldermask,Bot*%
%TF.FilePolarity,Negative*%
%FSLAX46Y46*%
G04 Gerber Fmt 4.6, Leading zero omitted, Abs format (unit mm)*
G04 Created by KiCad (PCBNEW 7.0.7) date 2024-06-25 00:35:16*
%MOMM*%
%LPD*%
G01*
G04 APERTURE LIST*
G04 Aperture macros list*
%AMRotRect*
0 Rectangle, with rotation*
0 The origin of the aperture is its center*
0 $1 length*
0 $2 width*
0 $3 Rotation angle, in degrees counterclockwise*
0 Add horizontal line*
21,1,$1,$2,0,0,$3*%
G04 Aperture macros list end*
%ADD10C,2.000000*%
%ADD11C,3.000000*%
%ADD12C,4.000000*%
%ADD13RotRect,3.300000X3.000000X187.500000*%
%ADD14R,1.397000X1.397000*%
%ADD15R,1.300000X0.950000*%
%ADD16C,1.397000*%
%ADD17R,3.300000X3.000000*%
%ADD18RotRect,3.300000X3.000000X184.000000*%
%ADD19RotRect,3.300000X3.000000X173.000000*%
%ADD20C,6.500000*%
%ADD21RotRect,3.300000X3.000000X195.000000*%
%ADD22RotRect,3.300000X3.000000X163.000000*%
%ADD23RotRect,3.300000X3.000000X175.000000*%
%ADD24C,1.200000*%
%ADD25O,2.500000X1.700000*%
%ADD26R,1.700000X1.700000*%
%ADD27O,1.700000X1.700000*%
%ADD28C,1.524000*%
%ADD29RotRect,3.300000X3.000000X171.000000*%
G04 APERTURE END LIST*
D10*
%TO.C,SW11*%
X23017592Y-95298649D03*
D11*
X23945191Y-92614611D03*
D12*
X28054132Y-94635576D03*
D11*
X29909329Y-89267500D03*
D10*
X33090672Y-93972503D03*
D13*
X20331110Y-93050069D03*
X33483224Y-88756642D03*
%TD*%
D10*
%TO.C,SW20*%
X119910000Y-30165000D03*
X119910000Y-36665000D03*
%TD*%
D14*
%TO.C,D20*%
X127045000Y-95110000D03*
D15*
X125010000Y-95110000D03*
X121460000Y-95110000D03*
D16*
X119425000Y-95110000D03*
%TD*%
D14*
%TO.C,D2*%
X59940000Y-43510000D03*
D15*
X57905000Y-43510000D03*
X54355000Y-43510000D03*
D16*
X52320000Y-43510000D03*
%TD*%
D14*
%TO.C,D31*%
X34315000Y-64860000D03*
D15*
X32280000Y-64860000D03*
X28730000Y-64860000D03*
D16*
X26695000Y-64860000D03*
%TD*%
D10*
%TO.C,SW8*%
X68864132Y-49335576D03*
D11*
X70134132Y-46795576D03*
D12*
X73944132Y-49335576D03*
D11*
X76484132Y-44255576D03*
D10*
X79024132Y-49335576D03*
D17*
X66494132Y-46755576D03*
X80094132Y-44215576D03*
%TD*%
D10*
%TO.C,SW12*%
X44936507Y-75719939D03*
D11*
X46026232Y-73097535D03*
D12*
X50004132Y-75365576D03*
D11*
X52183582Y-70120769D03*
D10*
X55071757Y-75011213D03*
D18*
X42392308Y-73311546D03*
X55781998Y-69829046D03*
%TD*%
D14*
%TO.C,D15*%
X127010000Y-93080000D03*
D15*
X124975000Y-93080000D03*
X121425000Y-93080000D03*
D16*
X119390000Y-93080000D03*
%TD*%
D10*
%TO.C,SW10*%
X114181998Y-67726480D03*
D11*
X115752079Y-65360187D03*
D12*
X119224132Y-68345576D03*
D11*
X122364295Y-63612990D03*
D10*
X124266266Y-68964672D03*
D19*
X112144086Y-64876881D03*
X125952262Y-64013236D03*
%TD*%
D14*
%TO.C,D28*%
X59940000Y-45430000D03*
D15*
X57905000Y-45430000D03*
X54355000Y-45430000D03*
D16*
X52320000Y-45430000D03*
%TD*%
D14*
%TO.C,D14*%
X101260000Y-93050000D03*
D15*
X99225000Y-93050000D03*
X95675000Y-93050000D03*
D16*
X93640000Y-93050000D03*
%TD*%
D14*
%TO.C,D29*%
X59940000Y-65800000D03*
D15*
X57905000Y-65800000D03*
X54355000Y-65800000D03*
D16*
X52320000Y-65800000D03*
%TD*%
D10*
%TO.C,SW7*%
X43566507Y-55809939D03*
D11*
X44656232Y-53187535D03*
D12*
X48634132Y-55455576D03*
D11*
X50813582Y-50210769D03*
D10*
X53701757Y-55101213D03*
D18*
X41022308Y-53401546D03*
X54411998Y-49919046D03*
%TD*%
D20*
%TO.C,Ref\u002A\u002A*%
X131940000Y-134370000D03*
%TD*%
D14*
%TO.C,D9*%
X96960000Y-66390000D03*
D15*
X94925000Y-66390000D03*
X91375000Y-66390000D03*
D16*
X89340000Y-66390000D03*
%TD*%
D20*
%TO.C,Ref\u002A\u002A*%
X131940000Y-19140000D03*
%TD*%
D14*
%TO.C,D17*%
X128675000Y-118850000D03*
D15*
X126640000Y-118850000D03*
X123090000Y-118850000D03*
D16*
X121055000Y-118850000D03*
%TD*%
D10*
%TO.C,SW16*%
X34077229Y-128700377D03*
D11*
X34646554Y-125918225D03*
D12*
X38984132Y-127385576D03*
D11*
X40122783Y-121821272D03*
D10*
X43891035Y-126070775D03*
D21*
X31120231Y-126821690D03*
X43599423Y-120848298D03*
%TD*%
D14*
%TO.C,D27*%
X83510000Y-79650000D03*
D15*
X81475000Y-79650000D03*
X77925000Y-79650000D03*
D16*
X75890000Y-79650000D03*
%TD*%
D10*
%TO.C,SW17*%
X105916104Y-128010328D03*
D11*
X107873235Y-125952626D03*
D12*
X110774132Y-129495576D03*
D11*
X114688394Y-125380172D03*
D10*
X115632160Y-130980824D03*
D22*
X104403981Y-124850141D03*
X118152349Y-126397381D03*
%TD*%
D14*
%TO.C,D19*%
X117240000Y-79230000D03*
D15*
X115205000Y-79230000D03*
X111655000Y-79230000D03*
D16*
X109620000Y-79230000D03*
%TD*%
D14*
%TO.C,D23*%
X96950000Y-68300000D03*
D15*
X94915000Y-68300000D03*
X91365000Y-68300000D03*
D16*
X89330000Y-68300000D03*
%TD*%
D14*
%TO.C,D5*%
X119705000Y-56370000D03*
D15*
X117670000Y-56370000D03*
X114120000Y-56370000D03*
D16*
X112085000Y-56370000D03*
%TD*%
D10*
%TO.C,SW9*%
X93653463Y-57862825D03*
D11*
X95140006Y-55443178D03*
D12*
X98714132Y-58305576D03*
D11*
X101687218Y-53466283D03*
D10*
X103774801Y-58748327D03*
D23*
X91517343Y-55086083D03*
X105286967Y-53741067D03*
%TD*%
D14*
%TO.C,D25*%
X83510000Y-39570000D03*
D15*
X81475000Y-39570000D03*
X77925000Y-39570000D03*
D16*
X75890000Y-39570000D03*
%TD*%
D14*
%TO.C,D34*%
X44120000Y-117240000D03*
D15*
X42085000Y-117240000D03*
X38535000Y-117240000D03*
D16*
X36500000Y-117240000D03*
%TD*%
D10*
%TO.C,SW6*%
X20427592Y-75498649D03*
D11*
X21355191Y-72814611D03*
D12*
X25464132Y-74835576D03*
D11*
X27319329Y-69467500D03*
D10*
X30500672Y-74172503D03*
D13*
X17741110Y-73250069D03*
X30893224Y-68956642D03*
%TD*%
D14*
%TO.C,D16*%
X44110000Y-114830000D03*
D15*
X42075000Y-114830000D03*
X38525000Y-114830000D03*
D16*
X36490000Y-114830000D03*
%TD*%
D14*
%TO.C,D6*%
X37980000Y-82700000D03*
D15*
X35945000Y-82700000D03*
X32395000Y-82700000D03*
D16*
X30360000Y-82700000D03*
%TD*%
D10*
%TO.C,SW2*%
X42126507Y-35789939D03*
D11*
X43216232Y-33167535D03*
D12*
X47194132Y-35435576D03*
D11*
X49373582Y-30190769D03*
D10*
X52261757Y-35081213D03*
D18*
X39582308Y-33381546D03*
X52971998Y-29899046D03*
%TD*%
D24*
%TO.C,J1*%
X136340000Y-32540000D03*
X129340000Y-32540000D03*
X136340000Y-34290000D03*
X129340000Y-34290000D03*
D25*
X126040000Y-32190000D03*
X126040000Y-34640000D03*
X134540000Y-30440000D03*
X134540000Y-36390000D03*
X131540000Y-30440000D03*
X131540000Y-36390000D03*
X127540000Y-30440000D03*
X127540000Y-36390000D03*
%TD*%
D14*
%TO.C,D26*%
X83510000Y-60160000D03*
D15*
X81475000Y-60160000D03*
X77925000Y-60160000D03*
D16*
X75890000Y-60160000D03*
%TD*%
D14*
%TO.C,D30*%
X59940000Y-85360000D03*
D15*
X57905000Y-85360000D03*
X54355000Y-85360000D03*
D16*
X52320000Y-85360000D03*
%TD*%
D26*
%TO.C,J2*%
X13340000Y-96810000D03*
D27*
X13340000Y-99350000D03*
X13340000Y-101890000D03*
X13340000Y-104430000D03*
X13340000Y-106970000D03*
X13340000Y-109510000D03*
X13340000Y-112050000D03*
X13340000Y-114590000D03*
X13340000Y-117130000D03*
X13340000Y-119670000D03*
X13340000Y-122210000D03*
X13340000Y-124750000D03*
X15880000Y-124750000D03*
X15880000Y-122210000D03*
X15880000Y-119670000D03*
X15880000Y-117130000D03*
X15880000Y-114590000D03*
X15880000Y-112050000D03*
X15880000Y-109510000D03*
X15880000Y-106970000D03*
X15880000Y-104430000D03*
X15880000Y-101890000D03*
X15880000Y-99350000D03*
X15880000Y-96810000D03*
%TD*%
D28*
%TO.C,U1*%
X16370000Y-14480000D03*
X32916400Y-13210000D03*
X16370000Y-17020000D03*
X32916400Y-15750000D03*
X16370000Y-19560000D03*
X32916400Y-18290000D03*
X16370000Y-22100000D03*
X32916400Y-20830000D03*
X16370000Y-24640000D03*
X32916400Y-23370000D03*
X16370000Y-27180000D03*
X32916400Y-25910000D03*
X16370000Y-29720000D03*
X32916400Y-28450000D03*
X16370000Y-32260000D03*
X32916400Y-30990000D03*
X16370000Y-34800000D03*
X32916400Y-33530000D03*
X16370000Y-37340000D03*
X32916400Y-36070000D03*
X16370000Y-39880000D03*
X32916400Y-38610000D03*
X16370000Y-42420000D03*
X32916400Y-41150000D03*
X17696400Y-41150000D03*
X31610000Y-42420000D03*
X17696400Y-38610000D03*
X31610000Y-39880000D03*
X17696400Y-36070000D03*
X31610000Y-37340000D03*
X17696400Y-33530000D03*
X31610000Y-34800000D03*
X17696400Y-30990000D03*
X31610000Y-32260000D03*
X17696400Y-28450000D03*
X31610000Y-29720000D03*
X17696400Y-25910000D03*
X31610000Y-27180000D03*
X17696400Y-23370000D03*
X31610000Y-24640000D03*
X17696400Y-20830000D03*
X31610000Y-22100000D03*
X17696400Y-18290000D03*
X31610000Y-19560000D03*
X17696400Y-15750000D03*
X31610000Y-17020000D03*
X17696400Y-13210000D03*
X31610000Y-14480000D03*
%TD*%
D10*
%TO.C,SW14*%
X97434132Y-105545576D03*
D11*
X98704132Y-103005576D03*
D12*
X102514132Y-105545576D03*
D11*
X105054132Y-100465576D03*
D10*
X107594132Y-105545576D03*
D17*
X95064132Y-102965576D03*
X108664132Y-100425576D03*
%TD*%
D10*
%TO.C,SW3*%
X68844132Y-29295576D03*
D11*
X70114132Y-26755576D03*
D12*
X73924132Y-29295576D03*
D11*
X76464132Y-24215576D03*
D10*
X79004132Y-29295576D03*
D17*
X66474132Y-26715576D03*
X80074132Y-24175576D03*
%TD*%
D14*
%TO.C,D33*%
X39025000Y-104660000D03*
D15*
X36990000Y-104660000D03*
X33440000Y-104660000D03*
D16*
X31405000Y-104660000D03*
%TD*%
D10*
%TO.C,SW4*%
X95373463Y-37972825D03*
D11*
X96860006Y-35553178D03*
D12*
X100434132Y-38415576D03*
D11*
X103407218Y-33576283D03*
D10*
X105494801Y-38858327D03*
D23*
X93237343Y-35196083D03*
X107006967Y-33851067D03*
%TD*%
D14*
%TO.C,D21*%
X128680000Y-120870000D03*
D15*
X126645000Y-120870000D03*
X123095000Y-120870000D03*
D16*
X121060000Y-120870000D03*
%TD*%
D14*
%TO.C,D4*%
X100310000Y-26430000D03*
D15*
X98275000Y-26430000D03*
X94725000Y-26430000D03*
D16*
X92690000Y-26430000D03*
%TD*%
D10*
%TO.C,SW13*%
X68874132Y-69345576D03*
D11*
X70144132Y-66805576D03*
D12*
X73954132Y-69345576D03*
D11*
X76494132Y-64265576D03*
D10*
X79034132Y-69345576D03*
D17*
X66504132Y-66765576D03*
X80104132Y-64225576D03*
%TD*%
D14*
%TO.C,D12*%
X59940000Y-83460000D03*
D15*
X57905000Y-83460000D03*
X54355000Y-83460000D03*
D16*
X52320000Y-83460000D03*
%TD*%
D20*
%TO.C,Ref\u002A\u002A*%
X131940000Y-76640000D03*
%TD*%
D10*
%TO.C,SW5*%
X116551998Y-47876480D03*
D11*
X118122079Y-45510187D03*
D12*
X121594132Y-48495576D03*
D11*
X124734295Y-43762990D03*
D10*
X126636266Y-49114672D03*
D19*
X114514086Y-45026881D03*
X128322262Y-44163236D03*
%TD*%
D14*
%TO.C,D7*%
X59940000Y-63660000D03*
D15*
X57905000Y-63660000D03*
X54355000Y-63660000D03*
D16*
X52320000Y-63660000D03*
%TD*%
D10*
%TO.C,SW1*%
X17797592Y-55688649D03*
D11*
X18725191Y-53004611D03*
D12*
X22834132Y-55025576D03*
D11*
X24689329Y-49657500D03*
D10*
X27870672Y-54362503D03*
D13*
X15111110Y-53440069D03*
X28263224Y-49146642D03*
%TD*%
D14*
%TO.C,D22*%
X100300000Y-28390000D03*
D15*
X98265000Y-28390000D03*
X94715000Y-28390000D03*
D16*
X92680000Y-28390000D03*
%TD*%
D14*
%TO.C,D10*%
X117260000Y-77160000D03*
D15*
X115225000Y-77160000D03*
X111675000Y-77160000D03*
D16*
X109640000Y-77160000D03*
%TD*%
D14*
%TO.C,D1*%
X34305000Y-62780000D03*
D15*
X32270000Y-62780000D03*
X28720000Y-62780000D03*
D16*
X26685000Y-62780000D03*
%TD*%
D14*
%TO.C,D13*%
X83510000Y-77670000D03*
D15*
X81475000Y-77670000D03*
X77925000Y-77670000D03*
D16*
X75890000Y-77670000D03*
%TD*%
D10*
%TO.C,SW15*%
X121866675Y-107060889D03*
D11*
X123518383Y-104750832D03*
D12*
X126884132Y-107855576D03*
D11*
X130187547Y-103235463D03*
D10*
X131901589Y-108650263D03*
D29*
X119929455Y-104141903D03*
X133759360Y-103760684D03*
%TD*%
D14*
%TO.C,D11*%
X39040000Y-102600000D03*
D15*
X37005000Y-102600000D03*
X33455000Y-102600000D03*
D16*
X31420000Y-102600000D03*
%TD*%
D14*
%TO.C,D3*%
X83510000Y-37630000D03*
D15*
X81475000Y-37630000D03*
X77925000Y-37630000D03*
D16*
X75890000Y-37630000D03*
%TD*%
D14*
%TO.C,D32*%
X37980000Y-84750000D03*
D15*
X35945000Y-84750000D03*
X32395000Y-84750000D03*
D16*
X30360000Y-84750000D03*
%TD*%
D14*
%TO.C,D24*%
X101260000Y-95000000D03*
D15*
X99225000Y-95000000D03*
X95675000Y-95000000D03*
D16*
X93640000Y-95000000D03*
%TD*%
D14*
%TO.C,D18*%
X119710000Y-58440000D03*
D15*
X117675000Y-58440000D03*
X114125000Y-58440000D03*
D16*
X112090000Y-58440000D03*
%TD*%
D14*
%TO.C,D8*%
X83510000Y-58100000D03*
D15*
X81475000Y-58100000D03*
X77925000Y-58100000D03*
D16*
X75890000Y-58100000D03*
%TD*%
D10*
%TO.C,SW26*%
X79010000Y-29280000D03*
D11*
X77740000Y-26740000D03*
D12*
X73930000Y-29280000D03*
D11*
X71390000Y-24200000D03*
D10*
X68850000Y-29280000D03*
%TD*%
%TO.C,SW25*%
X107590000Y-105550000D03*
D11*
X106320000Y-103010000D03*
D12*
X102510000Y-105550000D03*
D11*
X99970000Y-100470000D03*
D10*
X97430000Y-105550000D03*
%TD*%
%TO.C,SW19*%
X124284268Y-68978192D03*
D11*
X123333283Y-66302351D03*
D12*
X119242134Y-68359096D03*
D11*
X117340163Y-63007413D03*
D10*
X114200000Y-67740000D03*
%TD*%
%TO.C,SW29*%
X52285250Y-35091274D03*
D11*
X50841163Y-32646052D03*
D12*
X47217625Y-35445637D03*
D11*
X44329449Y-30555193D03*
D10*
X42150000Y-35800000D03*
%TD*%
%TO.C,SW32*%
X27856540Y-54366927D03*
D11*
X26265868Y-52014425D03*
D12*
X22820000Y-55030000D03*
D11*
X19638657Y-50324997D03*
D10*
X17783460Y-55693073D03*
%TD*%
%TO.C,SW34*%
X33086540Y-93976927D03*
D11*
X31495868Y-91624425D03*
D12*
X28050000Y-94640000D03*
D11*
X24868657Y-89934997D03*
D10*
X23013460Y-95303073D03*
%TD*%
%TO.C,SW30*%
X53687625Y-55095637D03*
D11*
X52243538Y-52650415D03*
D12*
X48620000Y-55450000D03*
D11*
X45731824Y-50559556D03*
D10*
X43552375Y-55804363D03*
%TD*%
%TO.C,SW33*%
X30490000Y-74180000D03*
D11*
X28899328Y-71827498D03*
D12*
X25453460Y-74843073D03*
D11*
X22272117Y-70138070D03*
D10*
X20416920Y-75506146D03*
%TD*%
%TO.C,SW24*%
X103760000Y-58730000D03*
D11*
X102716208Y-56088978D03*
D12*
X98699331Y-58287249D03*
D11*
X96611748Y-53005204D03*
D10*
X93638662Y-57844498D03*
%TD*%
%TO.C,SW22*%
X115618028Y-130985248D03*
D11*
X115146145Y-128184922D03*
D12*
X110760000Y-129500000D03*
D11*
X109816234Y-123899348D03*
D10*
X105901972Y-128014752D03*
%TD*%
%TO.C,SW28*%
X79040000Y-69348000D03*
D11*
X77770000Y-66808000D03*
D12*
X73960000Y-69348000D03*
D11*
X71420000Y-64268000D03*
D10*
X68880000Y-69348000D03*
%TD*%
%TO.C,SW18*%
X126642134Y-49079096D03*
D11*
X125691149Y-46403255D03*
D12*
X121600000Y-48460000D03*
D11*
X119698029Y-43108317D03*
D10*
X116557866Y-47840904D03*
%TD*%
%TO.C,SW35*%
X43875155Y-126064702D03*
D11*
X41991029Y-123939951D03*
D12*
X38968252Y-127379503D03*
D11*
X35200000Y-123130000D03*
D10*
X34061349Y-128694304D03*
%TD*%
%TO.C,SW21*%
X131900000Y-108660000D03*
D11*
X131042979Y-105952600D03*
D12*
X126882543Y-107865313D03*
D11*
X125168502Y-102450513D03*
D10*
X121865086Y-107070626D03*
%TD*%
%TO.C,SW27*%
X79020000Y-49350000D03*
D11*
X77750000Y-46810000D03*
D12*
X73940000Y-49350000D03*
D11*
X71400000Y-44270000D03*
D10*
X68860000Y-49350000D03*
%TD*%
%TO.C,SW23*%
X105490669Y-38852751D03*
D11*
X104446877Y-36211729D03*
D12*
X100430000Y-38410000D03*
D11*
X98342417Y-33127955D03*
D10*
X95369331Y-37967249D03*
%TD*%
%TO.C,SW31*%
X55067625Y-75015637D03*
D11*
X53623538Y-72570415D03*
D12*
X50000000Y-75370000D03*
D11*
X47111824Y-70479556D03*
D10*
X44932375Y-75724363D03*
%TD*%
M02*
